<?xml version="1.0" encoding="utf-8" standalone="no"?>
<!DOCTYPE svg PUBLIC "-//W3C//DTD SVG 1.1//EN"
  "http://www.w3.org/Graphics/SVG/1.1/DTD/svg11.dtd">
<svg xmlns:xlink="http://www.w3.org/1999/xlink" width="1072.763125pt" height="370.108812pt" viewBox="0 0 1072.763125 370.108812" xmlns="http://www.w3.org/2000/svg" version="1.1">
 <metadata>
  <rdf:RDF xmlns:dc="http://purl.org/dc/elements/1.1/" xmlns:cc="http://creativecommons.org/ns#" xmlns:rdf="http://www.w3.org/1999/02/22-rdf-syntax-ns#">
   <cc:Work>
    <dc:type rdf:resource="http://purl.org/dc/dcmitype/StillImage"/>
    <dc:date>2026-06-09T17:37:30.170168</dc:date>
    <dc:format>image/svg+xml</dc:format>
    <dc:creator>
     <cc:Agent>
      <dc:title>Matplotlib v3.10.3, https://matplotlib.org/</dc:title>
     </cc:Agent>
    </dc:creator>
   </cc:Work>
  </rdf:RDF>
 </metadata>
 <defs>
  <style type="text/css">*{stroke-linejoin: round; stroke-linecap: butt}</style>
 </defs>
 <g id="figure_1">
  <g id="patch_1">
   <path d="M 0 370.108812 
L 1072.763125 370.108812 
L 1072.763125 -0 
L 0 -0 
z
" style="fill: #ffffff"/>
  </g>
  <g id="axes_1">
   <g id="patch_2">
    <path d="M 56.784375 334.75475 
L 356.963125 334.75475 
L 356.963125 80.016 
L 56.784375 80.016 
z
" style="fill: #ffffff"/>
   </g>
   <g id="patch_3">
    <path d="M 70.428864 334.75475 
L 96.242761 334.75475 
L 96.242761 112.294925 
L 70.428864 112.294925 
z
" clip-path="url(#p1979936fbd)" style="fill: #1f77b4; opacity: 0.85; stroke: #000000; stroke-width: 0.5; stroke-linejoin: miter"/>
   </g>
   <g id="patch_4">
    <path d="M 144.182856 334.75475 
L 169.996754 334.75475 
L 169.996754 128.446874 
L 144.182856 128.446874 
z
" clip-path="url(#p1979936fbd)" style="fill: #1f77b4; opacity: 0.85; stroke: #000000; stroke-width: 0.5; stroke-linejoin: miter"/>
   </g>
   <g id="patch_5">
    <path d="M 217.936849 334.75475 
L 243.750746 334.75475 
L 243.750746 109.829404 
L 217.936849 109.829404 
z
" clip-path="url(#p1979936fbd)" style="fill: #1f77b4; opacity: 0.85; stroke: #000000; stroke-width: 0.5; stroke-linejoin: miter"/>
   </g>
   <g id="patch_6">
    <path d="M 291.690842 334.75475 
L 317.504739 334.75475 
L 317.504739 154.414279 
L 291.690842 154.414279 
z
" clip-path="url(#p1979936fbd)" style="fill: #1f77b4; opacity: 0.85; stroke: #000000; stroke-width: 0.5; stroke-linejoin: miter"/>
   </g>
   <g id="patch_7">
    <path d="M 96.242761 334.75475 
L 122.056658 334.75475 
L 122.056658 112.63626 
L 96.242761 112.63626 
z
" clip-path="url(#p1979936fbd)" style="fill: #d62728; opacity: 0.85; stroke: #000000; stroke-width: 0.5; stroke-linejoin: miter"/>
   </g>
   <g id="patch_8">
    <path d="M 169.996754 334.75475 
L 195.810651 334.75475 
L 195.810651 127.953761 
L 169.996754 127.953761 
z
" clip-path="url(#p1979936fbd)" style="fill: #d62728; opacity: 0.85; stroke: #000000; stroke-width: 0.5; stroke-linejoin: miter"/>
   </g>
   <g id="patch_9">
    <path d="M 243.750746 334.75475 
L 269.564644 334.75475 
L 269.564644 109.915012 
L 243.750746 109.915012 
z
" clip-path="url(#p1979936fbd)" style="fill: #d62728; opacity: 0.85; stroke: #000000; stroke-width: 0.5; stroke-linejoin: miter"/>
   </g>
   <g id="patch_10">
    <path d="M 317.504739 334.75475 
L 343.318636 334.75475 
L 343.318636 154.091794 
L 317.504739 154.091794 
z
" clip-path="url(#p1979936fbd)" style="fill: #d62728; opacity: 0.85; stroke: #000000; stroke-width: 0.5; stroke-linejoin: miter"/>
   </g>
   <g id="matplotlib.axis_1">
    <g id="xtick_1">
     <g id="line2d_1">
      <defs>
       <path id="m764b261045" d="M 0 0 
L 0 3.5 
" style="stroke: #000000; stroke-width: 0.8"/>
      </defs>
      <g>
       <use xlink:href="#m764b261045" x="96.242761" y="334.75475" style="stroke: #000000; stroke-width: 0.8"/>
      </g>
     </g>
     <g id="text_1">
      <!-- M0 -->
      <g transform="translate(88.747449 349.353187) scale(0.1 -0.1)">
       <defs>
        <path id="DejaVuSans-4d" d="M 628 4666 
L 1569 4666 
L 2759 1491 
L 3956 4666 
L 4897 4666 
L 4897 0 
L 4281 0 
L 4281 4097 
L 3078 897 
L 2444 897 
L 1241 4097 
L 1241 0 
L 628 0 
L 628 4666 
z
" transform="scale(0.015625)"/>
        <path id="DejaVuSans-30" d="M 2034 4250 
Q 1547 4250 1301 3770 
Q 1056 3291 1056 2328 
Q 1056 1369 1301 889 
Q 1547 409 2034 409 
Q 2525 409 2770 889 
Q 3016 1369 3016 2328 
Q 3016 3291 2770 3770 
Q 2525 4250 2034 4250 
z
M 2034 4750 
Q 2819 4750 3233 4129 
Q 3647 3509 3647 2328 
Q 3647 1150 3233 529 
Q 2819 -91 2034 -91 
Q 1250 -91 836 529 
Q 422 1150 422 2328 
Q 422 3509 836 4129 
Q 1250 4750 2034 4750 
z
" transform="scale(0.015625)"/>
       </defs>
       <use xlink:href="#DejaVuSans-4d"/>
       <use xlink:href="#DejaVuSans-30" transform="translate(86.279297 0)"/>
      </g>
     </g>
    </g>
    <g id="xtick_2">
     <g id="line2d_2">
      <g>
       <use xlink:href="#m764b261045" x="169.996754" y="334.75475" style="stroke: #000000; stroke-width: 0.8"/>
      </g>
     </g>
     <g id="text_2">
      <!-- M1 -->
      <g transform="translate(162.501441 349.353187) scale(0.1 -0.1)">
       <defs>
        <path id="DejaVuSans-31" d="M 794 531 
L 1825 531 
L 1825 4091 
L 703 3866 
L 703 4441 
L 1819 4666 
L 2450 4666 
L 2450 531 
L 3481 531 
L 3481 0 
L 794 0 
L 794 531 
z
" transform="scale(0.015625)"/>
       </defs>
       <use xlink:href="#DejaVuSans-4d"/>
       <use xlink:href="#DejaVuSans-31" transform="translate(86.279297 0)"/>
      </g>
     </g>
    </g>
    <g id="xtick_3">
     <g id="line2d_3">
      <g>
       <use xlink:href="#m764b261045" x="243.750746" y="334.75475" style="stroke: #000000; stroke-width: 0.8"/>
      </g>
     </g>
     <g id="text_3">
      <!-- M2 -->
      <g transform="translate(236.255434 349.353187) scale(0.1 -0.1)">
       <defs>
        <path id="DejaVuSans-32" d="M 1228 531 
L 3431 531 
L 3431 0 
L 469 0 
L 469 531 
Q 828 903 1448 1529 
Q 2069 2156 2228 2338 
Q 2531 2678 2651 2914 
Q 2772 3150 2772 3378 
Q 2772 3750 2511 3984 
Q 2250 4219 1831 4219 
Q 1534 4219 1204 4116 
Q 875 4013 500 3803 
L 500 4441 
Q 881 4594 1212 4672 
Q 1544 4750 1819 4750 
Q 2544 4750 2975 4387 
Q 3406 4025 3406 3419 
Q 3406 3131 3298 2873 
Q 3191 2616 2906 2266 
Q 2828 2175 2409 1742 
Q 1991 1309 1228 531 
z
" transform="scale(0.015625)"/>
       </defs>
       <use xlink:href="#DejaVuSans-4d"/>
       <use xlink:href="#DejaVuSans-32" transform="translate(86.279297 0)"/>
      </g>
     </g>
    </g>
    <g id="xtick_4">
     <g id="line2d_4">
      <g>
       <use xlink:href="#m764b261045" x="317.504739" y="334.75475" style="stroke: #000000; stroke-width: 0.8"/>
      </g>
     </g>
     <g id="text_4">
      <!-- M3 -->
      <g transform="translate(310.009426 349.353187) scale(0.1 -0.1)">
       <defs>
        <path id="DejaVuSans-33" d="M 2597 2516 
Q 3050 2419 3304 2112 
Q 3559 1806 3559 1356 
Q 3559 666 3084 287 
Q 2609 -91 1734 -91 
Q 1441 -91 1130 -33 
Q 819 25 488 141 
L 488 750 
Q 750 597 1062 519 
Q 1375 441 1716 441 
Q 2309 441 2620 675 
Q 2931 909 2931 1356 
Q 2931 1769 2642 2001 
Q 2353 2234 1838 2234 
L 1294 2234 
L 1294 2753 
L 1863 2753 
Q 2328 2753 2575 2939 
Q 2822 3125 2822 3475 
Q 2822 3834 2567 4026 
Q 2313 4219 1838 4219 
Q 1578 4219 1281 4162 
Q 984 4106 628 3988 
L 628 4550 
Q 988 4650 1302 4700 
Q 1616 4750 1894 4750 
Q 2613 4750 3031 4423 
Q 3450 4097 3450 3541 
Q 3450 3153 3228 2886 
Q 3006 2619 2597 2516 
z
" transform="scale(0.015625)"/>
       </defs>
       <use xlink:href="#DejaVuSans-4d"/>
       <use xlink:href="#DejaVuSans-33" transform="translate(86.279297 0)"/>
      </g>
     </g>
    </g>
   </g>
   <g id="matplotlib.axis_2">
    <g id="ytick_1">
     <g id="line2d_5">
      <defs>
       <path id="m9e927b9f95" d="M 0 0 
L -3.5 0 
" style="stroke: #000000; stroke-width: 0.8"/>
      </defs>
      <g>
       <use xlink:href="#m9e927b9f95" x="56.784375" y="334.75475" style="stroke: #000000; stroke-width: 0.8"/>
      </g>
     </g>
     <g id="text_5">
      <!-- 0.000 -->
      <g transform="translate(21.15625 338.553969) scale(0.1 -0.1)">
       <defs>
        <path id="DejaVuSans-2e" d="M 684 794 
L 1344 794 
L 1344 0 
L 684 0 
L 684 794 
z
" transform="scale(0.015625)"/>
       </defs>
       <use xlink:href="#DejaVuSans-30"/>
       <use xlink:href="#DejaVuSans-2e" transform="translate(63.623047 0)"/>
       <use xlink:href="#DejaVuSans-30" transform="translate(95.410156 0)"/>
       <use xlink:href="#DejaVuSans-30" transform="translate(159.033203 0)"/>
       <use xlink:href="#DejaVuSans-30" transform="translate(222.65625 0)"/>
      </g>
     </g>
    </g>
    <g id="ytick_2">
     <g id="line2d_6">
      <g>
       <use xlink:href="#m9e927b9f95" x="56.784375" y="280.960563" style="stroke: #000000; stroke-width: 0.8"/>
      </g>
     </g>
     <g id="text_6">
      <!-- 0.005 -->
      <g transform="translate(21.15625 284.759782) scale(0.1 -0.1)">
       <defs>
        <path id="DejaVuSans-35" d="M 691 4666 
L 3169 4666 
L 3169 4134 
L 1269 4134 
L 1269 2991 
Q 1406 3038 1543 3061 
Q 1681 3084 1819 3084 
Q 2600 3084 3056 2656 
Q 3513 2228 3513 1497 
Q 3513 744 3044 326 
Q 2575 -91 1722 -91 
Q 1428 -91 1123 -41 
Q 819 9 494 109 
L 494 744 
Q 775 591 1075 516 
Q 1375 441 1709 441 
Q 2250 441 2565 725 
Q 2881 1009 2881 1497 
Q 2881 1984 2565 2268 
Q 2250 2553 1709 2553 
Q 1456 2553 1204 2497 
Q 953 2441 691 2322 
L 691 4666 
z
" transform="scale(0.015625)"/>
       </defs>
       <use xlink:href="#DejaVuSans-30"/>
       <use xlink:href="#DejaVuSans-2e" transform="translate(63.623047 0)"/>
       <use xlink:href="#DejaVuSans-30" transform="translate(95.410156 0)"/>
       <use xlink:href="#DejaVuSans-30" transform="translate(159.033203 0)"/>
       <use xlink:href="#DejaVuSans-35" transform="translate(222.65625 0)"/>
      </g>
     </g>
    </g>
    <g id="ytick_3">
     <g id="line2d_7">
      <g>
       <use xlink:href="#m9e927b9f95" x="56.784375" y="227.166377" style="stroke: #000000; stroke-width: 0.8"/>
      </g>
     </g>
     <g id="text_7">
      <!-- 0.010 -->
      <g transform="translate(21.15625 230.965595) scale(0.1 -0.1)">
       <use xlink:href="#DejaVuSans-30"/>
       <use xlink:href="#DejaVuSans-2e" transform="translate(63.623047 0)"/>
       <use xlink:href="#DejaVuSans-30" transform="translate(95.410156 0)"/>
       <use xlink:href="#DejaVuSans-31" transform="translate(159.033203 0)"/>
       <use xlink:href="#DejaVuSans-30" transform="translate(222.65625 0)"/>
      </g>
     </g>
    </g>
    <g id="ytick_4">
     <g id="line2d_8">
      <g>
       <use xlink:href="#m9e927b9f95" x="56.784375" y="173.37219" style="stroke: #000000; stroke-width: 0.8"/>
      </g>
     </g>
     <g id="text_8">
      <!-- 0.015 -->
      <g transform="translate(21.15625 177.171409) scale(0.1 -0.1)">
       <use xlink:href="#DejaVuSans-30"/>
       <use xlink:href="#DejaVuSans-2e" transform="translate(63.623047 0)"/>
       <use xlink:href="#DejaVuSans-30" transform="translate(95.410156 0)"/>
       <use xlink:href="#DejaVuSans-31" transform="translate(159.033203 0)"/>
       <use xlink:href="#DejaVuSans-35" transform="translate(222.65625 0)"/>
      </g>
     </g>
    </g>
    <g id="ytick_5">
     <g id="line2d_9">
      <g>
       <use xlink:href="#m9e927b9f95" x="56.784375" y="119.578003" style="stroke: #000000; stroke-width: 0.8"/>
      </g>
     </g>
     <g id="text_9">
      <!-- 0.020 -->
      <g transform="translate(21.15625 123.377222) scale(0.1 -0.1)">
       <use xlink:href="#DejaVuSans-30"/>
       <use xlink:href="#DejaVuSans-2e" transform="translate(63.623047 0)"/>
       <use xlink:href="#DejaVuSans-30" transform="translate(95.410156 0)"/>
       <use xlink:href="#DejaVuSans-32" transform="translate(159.033203 0)"/>
       <use xlink:href="#DejaVuSans-30" transform="translate(222.65625 0)"/>
      </g>
     </g>
    </g>
    <g id="text_10">
     <!-- isyn_score -->
     <g transform="translate(14.798438 233.440063) rotate(-90) scale(0.1 -0.1)">
      <defs>
       <path id="DejaVuSans-69" d="M 603 3500 
L 1178 3500 
L 1178 0 
L 603 0 
L 603 3500 
z
M 603 4863 
L 1178 4863 
L 1178 4134 
L 603 4134 
L 603 4863 
z
" transform="scale(0.015625)"/>
       <path id="DejaVuSans-73" d="M 2834 3397 
L 2834 2853 
Q 2591 2978 2328 3040 
Q 2066 3103 1784 3103 
Q 1356 3103 1142 2972 
Q 928 2841 928 2578 
Q 928 2378 1081 2264 
Q 1234 2150 1697 2047 
L 1894 2003 
Q 2506 1872 2764 1633 
Q 3022 1394 3022 966 
Q 3022 478 2636 193 
Q 2250 -91 1575 -91 
Q 1294 -91 989 -36 
Q 684 19 347 128 
L 347 722 
Q 666 556 975 473 
Q 1284 391 1588 391 
Q 1994 391 2212 530 
Q 2431 669 2431 922 
Q 2431 1156 2273 1281 
Q 2116 1406 1581 1522 
L 1381 1569 
Q 847 1681 609 1914 
Q 372 2147 372 2553 
Q 372 3047 722 3315 
Q 1072 3584 1716 3584 
Q 2034 3584 2315 3537 
Q 2597 3491 2834 3397 
z
" transform="scale(0.015625)"/>
       <path id="DejaVuSans-79" d="M 2059 -325 
Q 1816 -950 1584 -1140 
Q 1353 -1331 966 -1331 
L 506 -1331 
L 506 -850 
L 844 -850 
Q 1081 -850 1212 -737 
Q 1344 -625 1503 -206 
L 1606 56 
L 191 3500 
L 800 3500 
L 1894 763 
L 2988 3500 
L 3597 3500 
L 2059 -325 
z
" transform="scale(0.015625)"/>
       <path id="DejaVuSans-6e" d="M 3513 2113 
L 3513 0 
L 2938 0 
L 2938 2094 
Q 2938 2591 2744 2837 
Q 2550 3084 2163 3084 
Q 1697 3084 1428 2787 
Q 1159 2491 1159 1978 
L 1159 0 
L 581 0 
L 581 3500 
L 1159 3500 
L 1159 2956 
Q 1366 3272 1645 3428 
Q 1925 3584 2291 3584 
Q 2894 3584 3203 3211 
Q 3513 2838 3513 2113 
z
" transform="scale(0.015625)"/>
       <path id="DejaVuSans-5f" d="M 3263 -1063 
L 3263 -1509 
L -63 -1509 
L -63 -1063 
L 3263 -1063 
z
" transform="scale(0.015625)"/>
       <path id="DejaVuSans-63" d="M 3122 3366 
L 3122 2828 
Q 2878 2963 2633 3030 
Q 2388 3097 2138 3097 
Q 1578 3097 1268 2742 
Q 959 2388 959 1747 
Q 959 1106 1268 751 
Q 1578 397 2138 397 
Q 2388 397 2633 464 
Q 2878 531 3122 666 
L 3122 134 
Q 2881 22 2623 -34 
Q 2366 -91 2075 -91 
Q 1284 -91 818 406 
Q 353 903 353 1747 
Q 353 2603 823 3093 
Q 1294 3584 2113 3584 
Q 2378 3584 2631 3529 
Q 2884 3475 3122 3366 
z
" transform="scale(0.015625)"/>
       <path id="DejaVuSans-6f" d="M 1959 3097 
Q 1497 3097 1228 2736 
Q 959 2375 959 1747 
Q 959 1119 1226 758 
Q 1494 397 1959 397 
Q 2419 397 2687 759 
Q 2956 1122 2956 1747 
Q 2956 2369 2687 2733 
Q 2419 3097 1959 3097 
z
M 1959 3584 
Q 2709 3584 3137 3096 
Q 3566 2609 3566 1747 
Q 3566 888 3137 398 
Q 2709 -91 1959 -91 
Q 1206 -91 779 398 
Q 353 888 353 1747 
Q 353 2609 779 3096 
Q 1206 3584 1959 3584 
z
" transform="scale(0.015625)"/>
       <path id="DejaVuSans-72" d="M 2631 2963 
Q 2534 3019 2420 3045 
Q 2306 3072 2169 3072 
Q 1681 3072 1420 2755 
Q 1159 2438 1159 1844 
L 1159 0 
L 581 0 
L 581 3500 
L 1159 3500 
L 1159 2956 
Q 1341 3275 1631 3429 
Q 1922 3584 2338 3584 
Q 2397 3584 2469 3576 
Q 2541 3569 2628 3553 
L 2631 2963 
z
" transform="scale(0.015625)"/>
       <path id="DejaVuSans-65" d="M 3597 1894 
L 3597 1613 
L 953 1613 
Q 991 1019 1311 708 
Q 1631 397 2203 397 
Q 2534 397 2845 478 
Q 3156 559 3463 722 
L 3463 178 
Q 3153 47 2828 -22 
Q 2503 -91 2169 -91 
Q 1331 -91 842 396 
Q 353 884 353 1716 
Q 353 2575 817 3079 
Q 1281 3584 2069 3584 
Q 2775 3584 3186 3129 
Q 3597 2675 3597 1894 
z
M 3022 2063 
Q 3016 2534 2758 2815 
Q 2500 3097 2075 3097 
Q 1594 3097 1305 2825 
Q 1016 2553 972 2059 
L 3022 2063 
z
" transform="scale(0.015625)"/>
      </defs>
      <use xlink:href="#DejaVuSans-69"/>
      <use xlink:href="#DejaVuSans-73" transform="translate(27.783203 0)"/>
      <use xlink:href="#DejaVuSans-79" transform="translate(79.882812 0)"/>
      <use xlink:href="#DejaVuSans-6e" transform="translate(139.0625 0)"/>
      <use xlink:href="#DejaVuSans-5f" transform="translate(202.441406 0)"/>
      <use xlink:href="#DejaVuSans-73" transform="translate(252.441406 0)"/>
      <use xlink:href="#DejaVuSans-63" transform="translate(304.541016 0)"/>
      <use xlink:href="#DejaVuSans-6f" transform="translate(359.521484 0)"/>
      <use xlink:href="#DejaVuSans-72" transform="translate(420.703125 0)"/>
      <use xlink:href="#DejaVuSans-65" transform="translate(459.566406 0)"/>
     </g>
    </g>
   </g>
   <g id="LineCollection_1">
    <path d="M 83.335812 132.443433 
L 83.335812 92.146417 
" clip-path="url(#p1979936fbd)" style="fill: none; stroke: #000000; stroke-width: 1.5"/>
    <path d="M 157.089805 138.941096 
L 157.089805 117.952652 
" clip-path="url(#p1979936fbd)" style="fill: none; stroke: #000000; stroke-width: 1.5"/>
    <path d="M 230.843798 122.438325 
L 230.843798 97.220483 
" clip-path="url(#p1979936fbd)" style="fill: none; stroke: #000000; stroke-width: 1.5"/>
    <path d="M 304.59779 162.846427 
L 304.59779 145.982131 
" clip-path="url(#p1979936fbd)" style="fill: none; stroke: #000000; stroke-width: 1.5"/>
   </g>
   <g id="line2d_10">
    <defs>
     <path id="me9b4547c8b" d="M 3 0 
L -3 -0 
" style="stroke: #000000"/>
    </defs>
    <g clip-path="url(#p1979936fbd)">
     <use xlink:href="#me9b4547c8b" x="83.335812" y="132.443433" style="stroke: #000000"/>
     <use xlink:href="#me9b4547c8b" x="157.089805" y="138.941096" style="stroke: #000000"/>
     <use xlink:href="#me9b4547c8b" x="230.843798" y="122.438325" style="stroke: #000000"/>
     <use xlink:href="#me9b4547c8b" x="304.59779" y="162.846427" style="stroke: #000000"/>
    </g>
   </g>
   <g id="line2d_11">
    <g clip-path="url(#p1979936fbd)">
     <use xlink:href="#me9b4547c8b" x="83.335812" y="92.146417" style="stroke: #000000"/>
     <use xlink:href="#me9b4547c8b" x="157.089805" y="117.952652" style="stroke: #000000"/>
     <use xlink:href="#me9b4547c8b" x="230.843798" y="97.220483" style="stroke: #000000"/>
     <use xlink:href="#me9b4547c8b" x="304.59779" y="145.982131" style="stroke: #000000"/>
    </g>
   </g>
   <g id="LineCollection_2">
    <path d="M 109.14971 132.776611 
L 109.14971 92.495909 
" clip-path="url(#p1979936fbd)" style="fill: none; stroke: #000000; stroke-width: 1.5"/>
    <path d="M 182.903702 138.609117 
L 182.903702 117.298405 
" clip-path="url(#p1979936fbd)" style="fill: none; stroke: #000000; stroke-width: 1.5"/>
    <path d="M 256.657695 122.880309 
L 256.657695 96.949714 
" clip-path="url(#p1979936fbd)" style="fill: none; stroke: #000000; stroke-width: 1.5"/>
    <path d="M 330.411688 162.432339 
L 330.411688 145.75125 
" clip-path="url(#p1979936fbd)" style="fill: none; stroke: #000000; stroke-width: 1.5"/>
   </g>
   <g id="line2d_12">
    <g clip-path="url(#p1979936fbd)">
     <use xlink:href="#me9b4547c8b" x="109.14971" y="132.776611" style="stroke: #000000"/>
     <use xlink:href="#me9b4547c8b" x="182.903702" y="138.609117" style="stroke: #000000"/>
     <use xlink:href="#me9b4547c8b" x="256.657695" y="122.880309" style="stroke: #000000"/>
     <use xlink:href="#me9b4547c8b" x="330.411688" y="162.432339" style="stroke: #000000"/>
    </g>
   </g>
   <g id="line2d_13">
    <g clip-path="url(#p1979936fbd)">
     <use xlink:href="#me9b4547c8b" x="109.14971" y="92.495909" style="stroke: #000000"/>
     <use xlink:href="#me9b4547c8b" x="182.903702" y="117.298405" style="stroke: #000000"/>
     <use xlink:href="#me9b4547c8b" x="256.657695" y="96.949714" style="stroke: #000000"/>
     <use xlink:href="#me9b4547c8b" x="330.411688" y="145.75125" style="stroke: #000000"/>
    </g>
   </g>
   <g id="patch_11">
    <path d="M 56.784375 334.75475 
L 56.784375 80.016 
" style="fill: none; stroke: #000000; stroke-width: 0.8; stroke-linejoin: miter; stroke-linecap: square"/>
   </g>
   <g id="patch_12">
    <path d="M 56.784375 334.75475 
L 356.963125 334.75475 
" style="fill: none; stroke: #000000; stroke-width: 0.8; stroke-linejoin: miter; stroke-linecap: square"/>
   </g>
   <g id="text_11">
    <!-- A. Benna-Fusi cascade: -->
    <g transform="translate(137.583125 60.578625) scale(0.12 -0.12)">
     <defs>
      <path id="DejaVuSans-41" d="M 2188 4044 
L 1331 1722 
L 3047 1722 
L 2188 4044 
z
M 1831 4666 
L 2547 4666 
L 4325 0 
L 3669 0 
L 3244 1197 
L 1141 1197 
L 716 0 
L 50 0 
L 1831 4666 
z
" transform="scale(0.015625)"/>
      <path id="DejaVuSans-20" transform="scale(0.015625)"/>
      <path id="DejaVuSans-42" d="M 1259 2228 
L 1259 519 
L 2272 519 
Q 2781 519 3026 730 
Q 3272 941 3272 1375 
Q 3272 1813 3026 2020 
Q 2781 2228 2272 2228 
L 1259 2228 
z
M 1259 4147 
L 1259 2741 
L 2194 2741 
Q 2656 2741 2882 2914 
Q 3109 3088 3109 3444 
Q 3109 3797 2882 3972 
Q 2656 4147 2194 4147 
L 1259 4147 
z
M 628 4666 
L 2241 4666 
Q 2963 4666 3353 4366 
Q 3744 4066 3744 3513 
Q 3744 3084 3544 2831 
Q 3344 2578 2956 2516 
Q 3422 2416 3680 2098 
Q 3938 1781 3938 1306 
Q 3938 681 3513 340 
Q 3088 0 2303 0 
L 628 0 
L 628 4666 
z
" transform="scale(0.015625)"/>
      <path id="DejaVuSans-61" d="M 2194 1759 
Q 1497 1759 1228 1600 
Q 959 1441 959 1056 
Q 959 750 1161 570 
Q 1363 391 1709 391 
Q 2188 391 2477 730 
Q 2766 1069 2766 1631 
L 2766 1759 
L 2194 1759 
z
M 3341 1997 
L 3341 0 
L 2766 0 
L 2766 531 
Q 2569 213 2275 61 
Q 1981 -91 1556 -91 
Q 1019 -91 701 211 
Q 384 513 384 1019 
Q 384 1609 779 1909 
Q 1175 2209 1959 2209 
L 2766 2209 
L 2766 2266 
Q 2766 2663 2505 2880 
Q 2244 3097 1772 3097 
Q 1472 3097 1187 3025 
Q 903 2953 641 2809 
L 641 3341 
Q 956 3463 1253 3523 
Q 1550 3584 1831 3584 
Q 2591 3584 2966 3190 
Q 3341 2797 3341 1997 
z
" transform="scale(0.015625)"/>
      <path id="DejaVuSans-2d" d="M 313 2009 
L 1997 2009 
L 1997 1497 
L 313 1497 
L 313 2009 
z
" transform="scale(0.015625)"/>
      <path id="DejaVuSans-46" d="M 628 4666 
L 3309 4666 
L 3309 4134 
L 1259 4134 
L 1259 2759 
L 3109 2759 
L 3109 2228 
L 1259 2228 
L 1259 0 
L 628 0 
L 628 4666 
z
" transform="scale(0.015625)"/>
      <path id="DejaVuSans-75" d="M 544 1381 
L 544 3500 
L 1119 3500 
L 1119 1403 
Q 1119 906 1312 657 
Q 1506 409 1894 409 
Q 2359 409 2629 706 
Q 2900 1003 2900 1516 
L 2900 3500 
L 3475 3500 
L 3475 0 
L 2900 0 
L 2900 538 
Q 2691 219 2414 64 
Q 2138 -91 1772 -91 
Q 1169 -91 856 284 
Q 544 659 544 1381 
z
M 1991 3584 
L 1991 3584 
z
" transform="scale(0.015625)"/>
      <path id="DejaVuSans-64" d="M 2906 2969 
L 2906 4863 
L 3481 4863 
L 3481 0 
L 2906 0 
L 2906 525 
Q 2725 213 2448 61 
Q 2172 -91 1784 -91 
Q 1150 -91 751 415 
Q 353 922 353 1747 
Q 353 2572 751 3078 
Q 1150 3584 1784 3584 
Q 2172 3584 2448 3432 
Q 2725 3281 2906 2969 
z
M 947 1747 
Q 947 1113 1208 752 
Q 1469 391 1925 391 
Q 2381 391 2643 752 
Q 2906 1113 2906 1747 
Q 2906 2381 2643 2742 
Q 2381 3103 1925 3103 
Q 1469 3103 1208 2742 
Q 947 2381 947 1747 
z
" transform="scale(0.015625)"/>
      <path id="DejaVuSans-3a" d="M 750 794 
L 1409 794 
L 1409 0 
L 750 0 
L 750 794 
z
M 750 3309 
L 1409 3309 
L 1409 2516 
L 750 2516 
L 750 3309 
z
" transform="scale(0.015625)"/>
     </defs>
     <use xlink:href="#DejaVuSans-41"/>
     <use xlink:href="#DejaVuSans-2e" transform="translate(66.658203 0)"/>
     <use xlink:href="#DejaVuSans-20" transform="translate(98.445312 0)"/>
     <use xlink:href="#DejaVuSans-42" transform="translate(130.232422 0)"/>
     <use xlink:href="#DejaVuSans-65" transform="translate(198.835938 0)"/>
     <use xlink:href="#DejaVuSans-6e" transform="translate(260.359375 0)"/>
     <use xlink:href="#DejaVuSans-6e" transform="translate(323.738281 0)"/>
     <use xlink:href="#DejaVuSans-61" transform="translate(387.117188 0)"/>
     <use xlink:href="#DejaVuSans-2d" transform="translate(448.396484 0)"/>
     <use xlink:href="#DejaVuSans-46" transform="translate(484.480469 0)"/>
     <use xlink:href="#DejaVuSans-75" transform="translate(536.5 0)"/>
     <use xlink:href="#DejaVuSans-73" transform="translate(599.878906 0)"/>
     <use xlink:href="#DejaVuSans-69" transform="translate(651.978516 0)"/>
     <use xlink:href="#DejaVuSans-20" transform="translate(679.761719 0)"/>
     <use xlink:href="#DejaVuSans-63" transform="translate(711.548828 0)"/>
     <use xlink:href="#DejaVuSans-61" transform="translate(766.529297 0)"/>
     <use xlink:href="#DejaVuSans-73" transform="translate(827.808594 0)"/>
     <use xlink:href="#DejaVuSans-63" transform="translate(879.908203 0)"/>
     <use xlink:href="#DejaVuSans-61" transform="translate(934.888672 0)"/>
     <use xlink:href="#DejaVuSans-64" transform="translate(996.167969 0)"/>
     <use xlink:href="#DejaVuSans-65" transform="translate(1059.644531 0)"/>
     <use xlink:href="#DejaVuSans-3a" transform="translate(1121.167969 0)"/>
    </g>
    <!-- Retention by position -->
    <g transform="translate(143.00375 74.016) scale(0.12 -0.12)">
     <defs>
      <path id="DejaVuSans-52" d="M 2841 2188 
Q 3044 2119 3236 1894 
Q 3428 1669 3622 1275 
L 4263 0 
L 3584 0 
L 2988 1197 
Q 2756 1666 2539 1819 
Q 2322 1972 1947 1972 
L 1259 1972 
L 1259 0 
L 628 0 
L 628 4666 
L 2053 4666 
Q 2853 4666 3247 4331 
Q 3641 3997 3641 3322 
Q 3641 2881 3436 2590 
Q 3231 2300 2841 2188 
z
M 1259 4147 
L 1259 2491 
L 2053 2491 
Q 2509 2491 2742 2702 
Q 2975 2913 2975 3322 
Q 2975 3731 2742 3939 
Q 2509 4147 2053 4147 
L 1259 4147 
z
" transform="scale(0.015625)"/>
      <path id="DejaVuSans-74" d="M 1172 4494 
L 1172 3500 
L 2356 3500 
L 2356 3053 
L 1172 3053 
L 1172 1153 
Q 1172 725 1289 603 
Q 1406 481 1766 481 
L 2356 481 
L 2356 0 
L 1766 0 
Q 1100 0 847 248 
Q 594 497 594 1153 
L 594 3053 
L 172 3053 
L 172 3500 
L 594 3500 
L 594 4494 
L 1172 4494 
z
" transform="scale(0.015625)"/>
      <path id="DejaVuSans-62" d="M 3116 1747 
Q 3116 2381 2855 2742 
Q 2594 3103 2138 3103 
Q 1681 3103 1420 2742 
Q 1159 2381 1159 1747 
Q 1159 1113 1420 752 
Q 1681 391 2138 391 
Q 2594 391 2855 752 
Q 3116 1113 3116 1747 
z
M 1159 2969 
Q 1341 3281 1617 3432 
Q 1894 3584 2278 3584 
Q 2916 3584 3314 3078 
Q 3713 2572 3713 1747 
Q 3713 922 3314 415 
Q 2916 -91 2278 -91 
Q 1894 -91 1617 61 
Q 1341 213 1159 525 
L 1159 0 
L 581 0 
L 581 4863 
L 1159 4863 
L 1159 2969 
z
" transform="scale(0.015625)"/>
      <path id="DejaVuSans-70" d="M 1159 525 
L 1159 -1331 
L 581 -1331 
L 581 3500 
L 1159 3500 
L 1159 2969 
Q 1341 3281 1617 3432 
Q 1894 3584 2278 3584 
Q 2916 3584 3314 3078 
Q 3713 2572 3713 1747 
Q 3713 922 3314 415 
Q 2916 -91 2278 -91 
Q 1894 -91 1617 61 
Q 1341 213 1159 525 
z
M 3116 1747 
Q 3116 2381 2855 2742 
Q 2594 3103 2138 3103 
Q 1681 3103 1420 2742 
Q 1159 2381 1159 1747 
Q 1159 1113 1420 752 
Q 1681 391 2138 391 
Q 2594 391 2855 752 
Q 3116 1113 3116 1747 
z
" transform="scale(0.015625)"/>
     </defs>
     <use xlink:href="#DejaVuSans-52"/>
     <use xlink:href="#DejaVuSans-65" transform="translate(64.982422 0)"/>
     <use xlink:href="#DejaVuSans-74" transform="translate(126.505859 0)"/>
     <use xlink:href="#DejaVuSans-65" transform="translate(165.714844 0)"/>
     <use xlink:href="#DejaVuSans-6e" transform="translate(227.238281 0)"/>
     <use xlink:href="#DejaVuSans-74" transform="translate(290.617188 0)"/>
     <use xlink:href="#DejaVuSans-69" transform="translate(329.826172 0)"/>
     <use xlink:href="#DejaVuSans-6f" transform="translate(357.609375 0)"/>
     <use xlink:href="#DejaVuSans-6e" transform="translate(418.791016 0)"/>
     <use xlink:href="#DejaVuSans-20" transform="translate(482.169922 0)"/>
     <use xlink:href="#DejaVuSans-62" transform="translate(513.957031 0)"/>
     <use xlink:href="#DejaVuSans-79" transform="translate(577.433594 0)"/>
     <use xlink:href="#DejaVuSans-20" transform="translate(636.613281 0)"/>
     <use xlink:href="#DejaVuSans-70" transform="translate(668.400391 0)"/>
     <use xlink:href="#DejaVuSans-6f" transform="translate(731.876953 0)"/>
     <use xlink:href="#DejaVuSans-73" transform="translate(793.058594 0)"/>
     <use xlink:href="#DejaVuSans-69" transform="translate(845.158203 0)"/>
     <use xlink:href="#DejaVuSans-74" transform="translate(872.941406 0)"/>
     <use xlink:href="#DejaVuSans-69" transform="translate(912.150391 0)"/>
     <use xlink:href="#DejaVuSans-6f" transform="translate(939.933594 0)"/>
     <use xlink:href="#DejaVuSans-6e" transform="translate(1001.115234 0)"/>
    </g>
   </g>
   <g id="legend_1">
    <g id="patch_13">
     <path d="M 265.576875 110.346 
L 351.363125 110.346 
Q 352.963125 110.346 352.963125 108.746 
L 352.963125 85.616 
Q 352.963125 84.016 351.363125 84.016 
L 265.576875 84.016 
Q 263.976875 84.016 263.976875 85.616 
L 263.976875 108.746 
Q 263.976875 110.346 265.576875 110.346 
z
" style="fill: #ffffff; opacity: 0.8; stroke: #cccccc; stroke-linejoin: miter"/>
    </g>
    <g id="patch_14">
     <path d="M 267.176875 93.29475 
L 283.176875 93.29475 
L 283.176875 87.69475 
L 267.176875 87.69475 
z
" style="fill: #1f77b4; opacity: 0.85; stroke: #000000; stroke-width: 0.5; stroke-linejoin: miter"/>
    </g>
    <g id="text_12">
     <!-- BF_FULL -->
     <g transform="translate(289.576875 93.29475) scale(0.08 -0.08)">
      <defs>
       <path id="DejaVuSans-55" d="M 556 4666 
L 1191 4666 
L 1191 1831 
Q 1191 1081 1462 751 
Q 1734 422 2344 422 
Q 2950 422 3222 751 
Q 3494 1081 3494 1831 
L 3494 4666 
L 4128 4666 
L 4128 1753 
Q 4128 841 3676 375 
Q 3225 -91 2344 -91 
Q 1459 -91 1007 375 
Q 556 841 556 1753 
L 556 4666 
z
" transform="scale(0.015625)"/>
       <path id="DejaVuSans-4c" d="M 628 4666 
L 1259 4666 
L 1259 531 
L 3531 531 
L 3531 0 
L 628 0 
L 628 4666 
z
" transform="scale(0.015625)"/>
      </defs>
      <use xlink:href="#DejaVuSans-42"/>
      <use xlink:href="#DejaVuSans-46" transform="translate(68.603516 0)"/>
      <use xlink:href="#DejaVuSans-5f" transform="translate(126.123047 0)"/>
      <use xlink:href="#DejaVuSans-46" transform="translate(176.123047 0)"/>
      <use xlink:href="#DejaVuSans-55" transform="translate(233.642578 0)"/>
      <use xlink:href="#DejaVuSans-4c" transform="translate(306.835938 0)"/>
      <use xlink:href="#DejaVuSans-4c" transform="translate(362.548828 0)"/>
     </g>
    </g>
    <g id="patch_15">
     <path d="M 267.176875 105.25975 
L 283.176875 105.25975 
L 283.176875 99.65975 
L 267.176875 99.65975 
z
" style="fill: #d62728; opacity: 0.85; stroke: #000000; stroke-width: 0.5; stroke-linejoin: miter"/>
    </g>
    <g id="text_13">
     <!-- BF_NO_REPLAY -->
     <g transform="translate(289.576875 105.25975) scale(0.08 -0.08)">
      <defs>
       <path id="DejaVuSans-4e" d="M 628 4666 
L 1478 4666 
L 3547 763 
L 3547 4666 
L 4159 4666 
L 4159 0 
L 3309 0 
L 1241 3903 
L 1241 0 
L 628 0 
L 628 4666 
z
" transform="scale(0.015625)"/>
       <path id="DejaVuSans-4f" d="M 2522 4238 
Q 1834 4238 1429 3725 
Q 1025 3213 1025 2328 
Q 1025 1447 1429 934 
Q 1834 422 2522 422 
Q 3209 422 3611 934 
Q 4013 1447 4013 2328 
Q 4013 3213 3611 3725 
Q 3209 4238 2522 4238 
z
M 2522 4750 
Q 3503 4750 4090 4092 
Q 4678 3434 4678 2328 
Q 4678 1225 4090 567 
Q 3503 -91 2522 -91 
Q 1538 -91 948 565 
Q 359 1222 359 2328 
Q 359 3434 948 4092 
Q 1538 4750 2522 4750 
z
" transform="scale(0.015625)"/>
       <path id="DejaVuSans-45" d="M 628 4666 
L 3578 4666 
L 3578 4134 
L 1259 4134 
L 1259 2753 
L 3481 2753 
L 3481 2222 
L 1259 2222 
L 1259 531 
L 3634 531 
L 3634 0 
L 628 0 
L 628 4666 
z
" transform="scale(0.015625)"/>
       <path id="DejaVuSans-50" d="M 1259 4147 
L 1259 2394 
L 2053 2394 
Q 2494 2394 2734 2622 
Q 2975 2850 2975 3272 
Q 2975 3691 2734 3919 
Q 2494 4147 2053 4147 
L 1259 4147 
z
M 628 4666 
L 2053 4666 
Q 2838 4666 3239 4311 
Q 3641 3956 3641 3272 
Q 3641 2581 3239 2228 
Q 2838 1875 2053 1875 
L 1259 1875 
L 1259 0 
L 628 0 
L 628 4666 
z
" transform="scale(0.015625)"/>
       <path id="DejaVuSans-59" d="M -13 4666 
L 666 4666 
L 1959 2747 
L 3244 4666 
L 3922 4666 
L 2272 2222 
L 2272 0 
L 1638 0 
L 1638 2222 
L -13 4666 
z
" transform="scale(0.015625)"/>
      </defs>
      <use xlink:href="#DejaVuSans-42"/>
      <use xlink:href="#DejaVuSans-46" transform="translate(68.603516 0)"/>
      <use xlink:href="#DejaVuSans-5f" transform="translate(126.123047 0)"/>
      <use xlink:href="#DejaVuSans-4e" transform="translate(176.123047 0)"/>
      <use xlink:href="#DejaVuSans-4f" transform="translate(250.927734 0)"/>
      <use xlink:href="#DejaVuSans-5f" transform="translate(329.638672 0)"/>
      <use xlink:href="#DejaVuSans-52" transform="translate(379.638672 0)"/>
      <use xlink:href="#DejaVuSans-45" transform="translate(449.121094 0)"/>
      <use xlink:href="#DejaVuSans-50" transform="translate(512.304688 0)"/>
      <use xlink:href="#DejaVuSans-4c" transform="translate(572.607422 0)"/>
      <use xlink:href="#DejaVuSans-41" transform="translate(630.570312 0)"/>
      <use xlink:href="#DejaVuSans-59" transform="translate(691.228516 0)"/>
     </g>
    </g>
   </g>
  </g>
  <g id="axes_2">
   <g id="patch_16">
    <path d="M 411.084375 334.75475 
L 711.263125 334.75475 
L 711.263125 80.016 
L 411.084375 80.016 
z
" style="fill: #ffffff"/>
   </g>
   <g id="patch_17">
    <path d="M 424.728864 334.75475 
L 480.912052 334.75475 
L 480.912052 92.146417 
L 424.728864 92.146417 
z
" clip-path="url(#p5966db7917)" style="fill: #1f77b4; opacity: 0.85"/>
   </g>
   <g id="patch_18">
    <path d="M 585.252259 334.75475 
L 641.435448 334.75475 
L 641.435448 317.214898 
L 585.252259 317.214898 
z
" clip-path="url(#p5966db7917)" style="fill: #1f77b4; opacity: 0.85"/>
   </g>
   <g id="patch_19">
    <path d="M 480.912052 334.75475 
L 537.095241 334.75475 
L 537.095241 303.368357 
L 480.912052 303.368357 
z
" clip-path="url(#p5966db7917)" style="fill: #d62728; opacity: 0.85"/>
   </g>
   <g id="patch_20">
    <path d="M 641.435448 334.75475 
L 697.618636 334.75475 
L 697.618636 317.24181 
L 641.435448 317.24181 
z
" clip-path="url(#p5966db7917)" style="fill: #d62728; opacity: 0.85"/>
   </g>
   <g id="matplotlib.axis_3">
    <g id="xtick_5">
     <g id="line2d_14">
      <g>
       <use xlink:href="#m764b261045" x="480.912052" y="334.75475" style="stroke: #000000; stroke-width: 0.8"/>
      </g>
     </g>
     <g id="text_14">
      <!-- RGCC -->
      <g transform="translate(466.580802 349.353187) scale(0.1 -0.1)">
       <defs>
        <path id="DejaVuSans-47" d="M 3809 666 
L 3809 1919 
L 2778 1919 
L 2778 2438 
L 4434 2438 
L 4434 434 
Q 4069 175 3628 42 
Q 3188 -91 2688 -91 
Q 1594 -91 976 548 
Q 359 1188 359 2328 
Q 359 3472 976 4111 
Q 1594 4750 2688 4750 
Q 3144 4750 3555 4637 
Q 3966 4525 4313 4306 
L 4313 3634 
Q 3963 3931 3569 4081 
Q 3175 4231 2741 4231 
Q 1884 4231 1454 3753 
Q 1025 3275 1025 2328 
Q 1025 1384 1454 906 
Q 1884 428 2741 428 
Q 3075 428 3337 486 
Q 3600 544 3809 666 
z
" transform="scale(0.015625)"/>
        <path id="DejaVuSans-43" d="M 4122 4306 
L 4122 3641 
Q 3803 3938 3442 4084 
Q 3081 4231 2675 4231 
Q 1875 4231 1450 3742 
Q 1025 3253 1025 2328 
Q 1025 1406 1450 917 
Q 1875 428 2675 428 
Q 3081 428 3442 575 
Q 3803 722 4122 1019 
L 4122 359 
Q 3791 134 3420 21 
Q 3050 -91 2638 -91 
Q 1578 -91 968 557 
Q 359 1206 359 2328 
Q 359 3453 968 4101 
Q 1578 4750 2638 4750 
Q 3056 4750 3426 4639 
Q 3797 4528 4122 4306 
z
" transform="scale(0.015625)"/>
       </defs>
       <use xlink:href="#DejaVuSans-52"/>
       <use xlink:href="#DejaVuSans-47" transform="translate(69.482422 0)"/>
       <use xlink:href="#DejaVuSans-43" transform="translate(146.972656 0)"/>
       <use xlink:href="#DejaVuSans-43" transform="translate(216.796875 0)"/>
      </g>
     </g>
    </g>
    <g id="xtick_6">
     <g id="line2d_15">
      <g>
       <use xlink:href="#m764b261045" x="641.435448" y="334.75475" style="stroke: #000000; stroke-width: 0.8"/>
      </g>
     </g>
     <g id="text_15">
      <!-- Benna-Fusi -->
      <g transform="translate(613.959667 349.353187) scale(0.1 -0.1)">
       <use xlink:href="#DejaVuSans-42"/>
       <use xlink:href="#DejaVuSans-65" transform="translate(68.603516 0)"/>
       <use xlink:href="#DejaVuSans-6e" transform="translate(130.126953 0)"/>
       <use xlink:href="#DejaVuSans-6e" transform="translate(193.505859 0)"/>
       <use xlink:href="#DejaVuSans-61" transform="translate(256.884766 0)"/>
       <use xlink:href="#DejaVuSans-2d" transform="translate(318.164062 0)"/>
       <use xlink:href="#DejaVuSans-46" transform="translate(354.248047 0)"/>
       <use xlink:href="#DejaVuSans-75" transform="translate(406.267578 0)"/>
       <use xlink:href="#DejaVuSans-73" transform="translate(469.646484 0)"/>
       <use xlink:href="#DejaVuSans-69" transform="translate(521.746094 0)"/>
      </g>
     </g>
    </g>
   </g>
   <g id="matplotlib.axis_4">
    <g id="ytick_6">
     <g id="line2d_16">
      <g>
       <use xlink:href="#m9e927b9f95" x="411.084375" y="334.75475" style="stroke: #000000; stroke-width: 0.8"/>
      </g>
     </g>
     <g id="text_16">
      <!-- 0.00 -->
      <g transform="translate(381.81875 338.553969) scale(0.1 -0.1)">
       <use xlink:href="#DejaVuSans-30"/>
       <use xlink:href="#DejaVuSans-2e" transform="translate(63.623047 0)"/>
       <use xlink:href="#DejaVuSans-30" transform="translate(95.410156 0)"/>
       <use xlink:href="#DejaVuSans-30" transform="translate(159.033203 0)"/>
      </g>
     </g>
    </g>
    <g id="ytick_7">
     <g id="line2d_17">
      <g>
       <use xlink:href="#m9e927b9f95" x="411.084375" y="292.340706" style="stroke: #000000; stroke-width: 0.8"/>
      </g>
     </g>
     <g id="text_17">
      <!-- 0.05 -->
      <g transform="translate(381.81875 296.139924) scale(0.1 -0.1)">
       <use xlink:href="#DejaVuSans-30"/>
       <use xlink:href="#DejaVuSans-2e" transform="translate(63.623047 0)"/>
       <use xlink:href="#DejaVuSans-30" transform="translate(95.410156 0)"/>
       <use xlink:href="#DejaVuSans-35" transform="translate(159.033203 0)"/>
      </g>
     </g>
    </g>
    <g id="ytick_8">
     <g id="line2d_18">
      <g>
       <use xlink:href="#m9e927b9f95" x="411.084375" y="249.926661" style="stroke: #000000; stroke-width: 0.8"/>
      </g>
     </g>
     <g id="text_18">
      <!-- 0.10 -->
      <g transform="translate(381.81875 253.72588) scale(0.1 -0.1)">
       <use xlink:href="#DejaVuSans-30"/>
       <use xlink:href="#DejaVuSans-2e" transform="translate(63.623047 0)"/>
       <use xlink:href="#DejaVuSans-31" transform="translate(95.410156 0)"/>
       <use xlink:href="#DejaVuSans-30" transform="translate(159.033203 0)"/>
      </g>
     </g>
    </g>
    <g id="ytick_9">
     <g id="line2d_19">
      <g>
       <use xlink:href="#m9e927b9f95" x="411.084375" y="207.512617" style="stroke: #000000; stroke-width: 0.8"/>
      </g>
     </g>
     <g id="text_19">
      <!-- 0.15 -->
      <g transform="translate(381.81875 211.311836) scale(0.1 -0.1)">
       <use xlink:href="#DejaVuSans-30"/>
       <use xlink:href="#DejaVuSans-2e" transform="translate(63.623047 0)"/>
       <use xlink:href="#DejaVuSans-31" transform="translate(95.410156 0)"/>
       <use xlink:href="#DejaVuSans-35" transform="translate(159.033203 0)"/>
      </g>
     </g>
    </g>
    <g id="ytick_10">
     <g id="line2d_20">
      <g>
       <use xlink:href="#m9e927b9f95" x="411.084375" y="165.098573" style="stroke: #000000; stroke-width: 0.8"/>
      </g>
     </g>
     <g id="text_20">
      <!-- 0.20 -->
      <g transform="translate(381.81875 168.897792) scale(0.1 -0.1)">
       <use xlink:href="#DejaVuSans-30"/>
       <use xlink:href="#DejaVuSans-2e" transform="translate(63.623047 0)"/>
       <use xlink:href="#DejaVuSans-32" transform="translate(95.410156 0)"/>
       <use xlink:href="#DejaVuSans-30" transform="translate(159.033203 0)"/>
      </g>
     </g>
    </g>
    <g id="ytick_11">
     <g id="line2d_21">
      <g>
       <use xlink:href="#m9e927b9f95" x="411.084375" y="122.684529" style="stroke: #000000; stroke-width: 0.8"/>
      </g>
     </g>
     <g id="text_21">
      <!-- 0.25 -->
      <g transform="translate(381.81875 126.483747) scale(0.1 -0.1)">
       <use xlink:href="#DejaVuSans-30"/>
       <use xlink:href="#DejaVuSans-2e" transform="translate(63.623047 0)"/>
       <use xlink:href="#DejaVuSans-32" transform="translate(95.410156 0)"/>
       <use xlink:href="#DejaVuSans-35" transform="translate(159.033203 0)"/>
      </g>
     </g>
    </g>
    <g id="ytick_12">
     <g id="line2d_22">
      <g>
       <use xlink:href="#m9e927b9f95" x="411.084375" y="80.270484" style="stroke: #000000; stroke-width: 0.8"/>
      </g>
     </g>
     <g id="text_22">
      <!-- 0.30 -->
      <g transform="translate(381.81875 84.069703) scale(0.1 -0.1)">
       <use xlink:href="#DejaVuSans-30"/>
       <use xlink:href="#DejaVuSans-2e" transform="translate(63.623047 0)"/>
       <use xlink:href="#DejaVuSans-33" transform="translate(95.410156 0)"/>
       <use xlink:href="#DejaVuSans-30" transform="translate(159.033203 0)"/>
      </g>
     </g>
    </g>
    <g id="text_23">
     <!-- Mean retention (M0) -->
     <g transform="translate(375.739063 258.386156) rotate(-90) scale(0.1 -0.1)">
      <defs>
       <path id="DejaVuSans-28" d="M 1984 4856 
Q 1566 4138 1362 3434 
Q 1159 2731 1159 2009 
Q 1159 1288 1364 580 
Q 1569 -128 1984 -844 
L 1484 -844 
Q 1016 -109 783 600 
Q 550 1309 550 2009 
Q 550 2706 781 3412 
Q 1013 4119 1484 4856 
L 1984 4856 
z
" transform="scale(0.015625)"/>
       <path id="DejaVuSans-29" d="M 513 4856 
L 1013 4856 
Q 1481 4119 1714 3412 
Q 1947 2706 1947 2009 
Q 1947 1309 1714 600 
Q 1481 -109 1013 -844 
L 513 -844 
Q 928 -128 1133 580 
Q 1338 1288 1338 2009 
Q 1338 2731 1133 3434 
Q 928 4138 513 4856 
z
" transform="scale(0.015625)"/>
      </defs>
      <use xlink:href="#DejaVuSans-4d"/>
      <use xlink:href="#DejaVuSans-65" transform="translate(86.279297 0)"/>
      <use xlink:href="#DejaVuSans-61" transform="translate(147.802734 0)"/>
      <use xlink:href="#DejaVuSans-6e" transform="translate(209.082031 0)"/>
      <use xlink:href="#DejaVuSans-20" transform="translate(272.460938 0)"/>
      <use xlink:href="#DejaVuSans-72" transform="translate(304.248047 0)"/>
      <use xlink:href="#DejaVuSans-65" transform="translate(343.111328 0)"/>
      <use xlink:href="#DejaVuSans-74" transform="translate(404.634766 0)"/>
      <use xlink:href="#DejaVuSans-65" transform="translate(443.84375 0)"/>
      <use xlink:href="#DejaVuSans-6e" transform="translate(505.367188 0)"/>
      <use xlink:href="#DejaVuSans-74" transform="translate(568.746094 0)"/>
      <use xlink:href="#DejaVuSans-69" transform="translate(607.955078 0)"/>
      <use xlink:href="#DejaVuSans-6f" transform="translate(635.738281 0)"/>
      <use xlink:href="#DejaVuSans-6e" transform="translate(696.919922 0)"/>
      <use xlink:href="#DejaVuSans-20" transform="translate(760.298828 0)"/>
      <use xlink:href="#DejaVuSans-28" transform="translate(792.085938 0)"/>
      <use xlink:href="#DejaVuSans-4d" transform="translate(831.099609 0)"/>
      <use xlink:href="#DejaVuSans-30" transform="translate(917.378906 0)"/>
      <use xlink:href="#DejaVuSans-29" transform="translate(981.001953 0)"/>
     </g>
    </g>
   </g>
   <g id="patch_21">
    <path d="M 411.084375 334.75475 
L 411.084375 80.016 
" style="fill: none; stroke: #000000; stroke-width: 0.8; stroke-linejoin: miter; stroke-linecap: square"/>
   </g>
   <g id="patch_22">
    <path d="M 411.084375 334.75475 
L 711.263125 334.75475 
" style="fill: none; stroke: #000000; stroke-width: 0.8; stroke-linejoin: miter; stroke-linecap: square"/>
   </g>
   <g id="text_24">
    <!-- B. Model comparison: -->
    <g transform="translate(496.265938 60.578625) scale(0.12 -0.12)">
     <defs>
      <path id="DejaVuSans-6c" d="M 603 4863 
L 1178 4863 
L 1178 0 
L 603 0 
L 603 4863 
z
" transform="scale(0.015625)"/>
      <path id="DejaVuSans-6d" d="M 3328 2828 
Q 3544 3216 3844 3400 
Q 4144 3584 4550 3584 
Q 5097 3584 5394 3201 
Q 5691 2819 5691 2113 
L 5691 0 
L 5113 0 
L 5113 2094 
Q 5113 2597 4934 2840 
Q 4756 3084 4391 3084 
Q 3944 3084 3684 2787 
Q 3425 2491 3425 1978 
L 3425 0 
L 2847 0 
L 2847 2094 
Q 2847 2600 2669 2842 
Q 2491 3084 2119 3084 
Q 1678 3084 1418 2786 
Q 1159 2488 1159 1978 
L 1159 0 
L 581 0 
L 581 3500 
L 1159 3500 
L 1159 2956 
Q 1356 3278 1631 3431 
Q 1906 3584 2284 3584 
Q 2666 3584 2933 3390 
Q 3200 3197 3328 2828 
z
" transform="scale(0.015625)"/>
     </defs>
     <use xlink:href="#DejaVuSans-42"/>
     <use xlink:href="#DejaVuSans-2e" transform="translate(68.603516 0)"/>
     <use xlink:href="#DejaVuSans-20" transform="translate(100.390625 0)"/>
     <use xlink:href="#DejaVuSans-4d" transform="translate(132.177734 0)"/>
     <use xlink:href="#DejaVuSans-6f" transform="translate(218.457031 0)"/>
     <use xlink:href="#DejaVuSans-64" transform="translate(279.638672 0)"/>
     <use xlink:href="#DejaVuSans-65" transform="translate(343.115234 0)"/>
     <use xlink:href="#DejaVuSans-6c" transform="translate(404.638672 0)"/>
     <use xlink:href="#DejaVuSans-20" transform="translate(432.421875 0)"/>
     <use xlink:href="#DejaVuSans-63" transform="translate(464.208984 0)"/>
     <use xlink:href="#DejaVuSans-6f" transform="translate(519.189453 0)"/>
     <use xlink:href="#DejaVuSans-6d" transform="translate(580.371094 0)"/>
     <use xlink:href="#DejaVuSans-70" transform="translate(677.783203 0)"/>
     <use xlink:href="#DejaVuSans-61" transform="translate(741.259766 0)"/>
     <use xlink:href="#DejaVuSans-72" transform="translate(802.539062 0)"/>
     <use xlink:href="#DejaVuSans-69" transform="translate(843.652344 0)"/>
     <use xlink:href="#DejaVuSans-73" transform="translate(871.435547 0)"/>
     <use xlink:href="#DejaVuSans-6f" transform="translate(923.535156 0)"/>
     <use xlink:href="#DejaVuSans-6e" transform="translate(984.716797 0)"/>
     <use xlink:href="#DejaVuSans-3a" transform="translate(1048.095703 0)"/>
    </g>
    <!-- RGCC vs Benna-Fusi -->
    <g transform="translate(500.514688 74.016) scale(0.12 -0.12)">
     <defs>
      <path id="DejaVuSans-76" d="M 191 3500 
L 800 3500 
L 1894 563 
L 2988 3500 
L 3597 3500 
L 2284 0 
L 1503 0 
L 191 3500 
z
" transform="scale(0.015625)"/>
     </defs>
     <use xlink:href="#DejaVuSans-52"/>
     <use xlink:href="#DejaVuSans-47" transform="translate(69.482422 0)"/>
     <use xlink:href="#DejaVuSans-43" transform="translate(146.972656 0)"/>
     <use xlink:href="#DejaVuSans-43" transform="translate(216.796875 0)"/>
     <use xlink:href="#DejaVuSans-20" transform="translate(286.621094 0)"/>
     <use xlink:href="#DejaVuSans-76" transform="translate(318.408203 0)"/>
     <use xlink:href="#DejaVuSans-73" transform="translate(377.587891 0)"/>
     <use xlink:href="#DejaVuSans-20" transform="translate(429.6875 0)"/>
     <use xlink:href="#DejaVuSans-42" transform="translate(461.474609 0)"/>
     <use xlink:href="#DejaVuSans-65" transform="translate(530.078125 0)"/>
     <use xlink:href="#DejaVuSans-6e" transform="translate(591.601562 0)"/>
     <use xlink:href="#DejaVuSans-6e" transform="translate(654.980469 0)"/>
     <use xlink:href="#DejaVuSans-61" transform="translate(718.359375 0)"/>
     <use xlink:href="#DejaVuSans-2d" transform="translate(779.638672 0)"/>
     <use xlink:href="#DejaVuSans-46" transform="translate(815.722656 0)"/>
     <use xlink:href="#DejaVuSans-75" transform="translate(867.742188 0)"/>
     <use xlink:href="#DejaVuSans-73" transform="translate(931.121094 0)"/>
     <use xlink:href="#DejaVuSans-69" transform="translate(983.220703 0)"/>
    </g>
   </g>
   <g id="legend_2">
    <g id="patch_23">
     <path d="M 626.936875 110.1235 
L 705.663125 110.1235 
Q 707.263125 110.1235 707.263125 108.5235 
L 707.263125 85.616 
Q 707.263125 84.016 705.663125 84.016 
L 626.936875 84.016 
Q 625.336875 84.016 625.336875 85.616 
L 625.336875 108.5235 
Q 625.336875 110.1235 626.936875 110.1235 
z
" style="fill: #ffffff; opacity: 0.8; stroke: #cccccc; stroke-linejoin: miter"/>
    </g>
    <g id="patch_24">
     <path d="M 628.536875 93.29475 
L 644.536875 93.29475 
L 644.536875 87.69475 
L 628.536875 87.69475 
z
" style="fill: #1f77b4; opacity: 0.85"/>
    </g>
    <g id="text_25">
     <!-- FULL (replay) -->
     <g transform="translate(650.936875 93.29475) scale(0.08 -0.08)">
      <use xlink:href="#DejaVuSans-46"/>
      <use xlink:href="#DejaVuSans-55" transform="translate(57.519531 0)"/>
      <use xlink:href="#DejaVuSans-4c" transform="translate(130.712891 0)"/>
      <use xlink:href="#DejaVuSans-4c" transform="translate(186.425781 0)"/>
      <use xlink:href="#DejaVuSans-20" transform="translate(242.138672 0)"/>
      <use xlink:href="#DejaVuSans-28" transform="translate(273.925781 0)"/>
      <use xlink:href="#DejaVuSans-72" transform="translate(312.939453 0)"/>
      <use xlink:href="#DejaVuSans-65" transform="translate(351.802734 0)"/>
      <use xlink:href="#DejaVuSans-70" transform="translate(413.326172 0)"/>
      <use xlink:href="#DejaVuSans-6c" transform="translate(476.802734 0)"/>
      <use xlink:href="#DejaVuSans-61" transform="translate(504.585938 0)"/>
      <use xlink:href="#DejaVuSans-79" transform="translate(565.865234 0)"/>
      <use xlink:href="#DejaVuSans-29" transform="translate(625.044922 0)"/>
     </g>
    </g>
    <g id="patch_25">
     <path d="M 628.536875 105.03725 
L 644.536875 105.03725 
L 644.536875 99.43725 
L 628.536875 99.43725 
z
" style="fill: #d62728; opacity: 0.85"/>
    </g>
    <g id="text_26">
     <!-- NO_REPLAY -->
     <g transform="translate(650.936875 105.03725) scale(0.08 -0.08)">
      <use xlink:href="#DejaVuSans-4e"/>
      <use xlink:href="#DejaVuSans-4f" transform="translate(74.804688 0)"/>
      <use xlink:href="#DejaVuSans-5f" transform="translate(153.515625 0)"/>
      <use xlink:href="#DejaVuSans-52" transform="translate(203.515625 0)"/>
      <use xlink:href="#DejaVuSans-45" transform="translate(272.998047 0)"/>
      <use xlink:href="#DejaVuSans-50" transform="translate(336.181641 0)"/>
      <use xlink:href="#DejaVuSans-4c" transform="translate(396.484375 0)"/>
      <use xlink:href="#DejaVuSans-41" transform="translate(454.447266 0)"/>
      <use xlink:href="#DejaVuSans-59" transform="translate(515.105469 0)"/>
     </g>
    </g>
   </g>
  </g>
  <g id="axes_3">
   <g id="patch_26">
    <path d="M 765.384375 334.75475 
L 1065.563125 334.75475 
L 1065.563125 80.016 
L 765.384375 80.016 
z
" style="fill: #ffffff"/>
   </g>
   <g id="patch_27">
    <path d="M 779.028864 323.167317 
L 900.313207 323.167317 
L 900.313207 91.595034 
L 779.028864 91.595034 
z
" clip-path="url(#pa26fa72c53)" style="fill: #1f77b4; opacity: 0.85; stroke: #000000; stroke-width: 0.5; stroke-linejoin: miter"/>
   </g>
   <g id="patch_28">
    <path d="M 930.634293 323.167317 
L 1051.918636 323.167317 
L 1051.918636 323.175716 
L 930.634293 323.175716 
z
" clip-path="url(#pa26fa72c53)" style="fill: #ff7f0e; opacity: 0.85; stroke: #000000; stroke-width: 0.5; stroke-linejoin: miter"/>
   </g>
   <g id="matplotlib.axis_5">
    <g id="xtick_7">
     <g id="line2d_23">
      <g>
       <use xlink:href="#m764b261045" x="839.671035" y="334.75475" style="stroke: #000000; stroke-width: 0.8"/>
      </g>
     </g>
     <g id="text_27">
      <!-- RGCC -->
      <g transform="translate(825.339785 349.353187) scale(0.1 -0.1)">
       <use xlink:href="#DejaVuSans-52"/>
       <use xlink:href="#DejaVuSans-47" transform="translate(69.482422 0)"/>
       <use xlink:href="#DejaVuSans-43" transform="translate(146.972656 0)"/>
       <use xlink:href="#DejaVuSans-43" transform="translate(216.796875 0)"/>
      </g>
      <!-- (W_fast+W_slow) -->
      <g transform="translate(796.160879 360.551) scale(0.1 -0.1)">
       <defs>
        <path id="DejaVuSans-57" d="M 213 4666 
L 850 4666 
L 1831 722 
L 2809 4666 
L 3519 4666 
L 4500 722 
L 5478 4666 
L 6119 4666 
L 4947 0 
L 4153 0 
L 3169 4050 
L 2175 0 
L 1381 0 
L 213 4666 
z
" transform="scale(0.015625)"/>
        <path id="DejaVuSans-66" d="M 2375 4863 
L 2375 4384 
L 1825 4384 
Q 1516 4384 1395 4259 
Q 1275 4134 1275 3809 
L 1275 3500 
L 2222 3500 
L 2222 3053 
L 1275 3053 
L 1275 0 
L 697 0 
L 697 3053 
L 147 3053 
L 147 3500 
L 697 3500 
L 697 3744 
Q 697 4328 969 4595 
Q 1241 4863 1831 4863 
L 2375 4863 
z
" transform="scale(0.015625)"/>
        <path id="DejaVuSans-2b" d="M 2944 4013 
L 2944 2272 
L 4684 2272 
L 4684 1741 
L 2944 1741 
L 2944 0 
L 2419 0 
L 2419 1741 
L 678 1741 
L 678 2272 
L 2419 2272 
L 2419 4013 
L 2944 4013 
z
" transform="scale(0.015625)"/>
        <path id="DejaVuSans-77" d="M 269 3500 
L 844 3500 
L 1563 769 
L 2278 3500 
L 2956 3500 
L 3675 769 
L 4391 3500 
L 4966 3500 
L 4050 0 
L 3372 0 
L 2619 2869 
L 1863 0 
L 1184 0 
L 269 3500 
z
" transform="scale(0.015625)"/>
       </defs>
       <use xlink:href="#DejaVuSans-28"/>
       <use xlink:href="#DejaVuSans-57" transform="translate(39.013672 0)"/>
       <use xlink:href="#DejaVuSans-5f" transform="translate(137.890625 0)"/>
       <use xlink:href="#DejaVuSans-66" transform="translate(187.890625 0)"/>
       <use xlink:href="#DejaVuSans-61" transform="translate(223.095703 0)"/>
       <use xlink:href="#DejaVuSans-73" transform="translate(284.375 0)"/>
       <use xlink:href="#DejaVuSans-74" transform="translate(336.474609 0)"/>
       <use xlink:href="#DejaVuSans-2b" transform="translate(375.683594 0)"/>
       <use xlink:href="#DejaVuSans-57" transform="translate(459.472656 0)"/>
       <use xlink:href="#DejaVuSans-5f" transform="translate(558.349609 0)"/>
       <use xlink:href="#DejaVuSans-73" transform="translate(608.349609 0)"/>
       <use xlink:href="#DejaVuSans-6c" transform="translate(660.449219 0)"/>
       <use xlink:href="#DejaVuSans-6f" transform="translate(688.232422 0)"/>
       <use xlink:href="#DejaVuSans-77" transform="translate(749.414062 0)"/>
       <use xlink:href="#DejaVuSans-29" transform="translate(831.201172 0)"/>
      </g>
     </g>
    </g>
    <g id="xtick_8">
     <g id="line2d_24">
      <g>
       <use xlink:href="#m764b261045" x="991.276465" y="334.75475" style="stroke: #000000; stroke-width: 0.8"/>
      </g>
     </g>
     <g id="text_28">
      <!-- Benna-Fusi -->
      <g transform="translate(963.800683 349.353187) scale(0.1 -0.1)">
       <use xlink:href="#DejaVuSans-42"/>
       <use xlink:href="#DejaVuSans-65" transform="translate(68.603516 0)"/>
       <use xlink:href="#DejaVuSans-6e" transform="translate(130.126953 0)"/>
       <use xlink:href="#DejaVuSans-6e" transform="translate(193.505859 0)"/>
       <use xlink:href="#DejaVuSans-61" transform="translate(256.884766 0)"/>
       <use xlink:href="#DejaVuSans-2d" transform="translate(318.164062 0)"/>
       <use xlink:href="#DejaVuSans-46" transform="translate(354.248047 0)"/>
       <use xlink:href="#DejaVuSans-75" transform="translate(406.267578 0)"/>
       <use xlink:href="#DejaVuSans-73" transform="translate(469.646484 0)"/>
       <use xlink:href="#DejaVuSans-69" transform="translate(521.746094 0)"/>
      </g>
      <!-- (3-level cascade) -->
      <g transform="translate(948.428027 360.551) scale(0.1 -0.1)">
       <use xlink:href="#DejaVuSans-28"/>
       <use xlink:href="#DejaVuSans-33" transform="translate(39.013672 0)"/>
       <use xlink:href="#DejaVuSans-2d" transform="translate(102.636719 0)"/>
       <use xlink:href="#DejaVuSans-6c" transform="translate(138.720703 0)"/>
       <use xlink:href="#DejaVuSans-65" transform="translate(166.503906 0)"/>
       <use xlink:href="#DejaVuSans-76" transform="translate(228.027344 0)"/>
       <use xlink:href="#DejaVuSans-65" transform="translate(287.207031 0)"/>
       <use xlink:href="#DejaVuSans-6c" transform="translate(348.730469 0)"/>
       <use xlink:href="#DejaVuSans-20" transform="translate(376.513672 0)"/>
       <use xlink:href="#DejaVuSans-63" transform="translate(408.300781 0)"/>
       <use xlink:href="#DejaVuSans-61" transform="translate(463.28125 0)"/>
       <use xlink:href="#DejaVuSans-73" transform="translate(524.560547 0)"/>
       <use xlink:href="#DejaVuSans-63" transform="translate(576.660156 0)"/>
       <use xlink:href="#DejaVuSans-61" transform="translate(631.640625 0)"/>
       <use xlink:href="#DejaVuSans-64" transform="translate(692.919922 0)"/>
       <use xlink:href="#DejaVuSans-65" transform="translate(756.396484 0)"/>
       <use xlink:href="#DejaVuSans-29" transform="translate(817.919922 0)"/>
      </g>
     </g>
    </g>
   </g>
   <g id="matplotlib.axis_6">
    <g id="ytick_13">
     <g id="line2d_25">
      <g>
       <use xlink:href="#m9e927b9f95" x="765.384375" y="323.167317" style="stroke: #000000; stroke-width: 0.8"/>
      </g>
     </g>
     <g id="text_29">
      <!-- 0.00 -->
      <g transform="translate(736.11875 326.966536) scale(0.1 -0.1)">
       <use xlink:href="#DejaVuSans-30"/>
       <use xlink:href="#DejaVuSans-2e" transform="translate(63.623047 0)"/>
       <use xlink:href="#DejaVuSans-30" transform="translate(95.410156 0)"/>
       <use xlink:href="#DejaVuSans-30" transform="translate(159.033203 0)"/>
      </g>
     </g>
    </g>
    <g id="ytick_14">
     <g id="line2d_26">
      <g>
       <use xlink:href="#m9e927b9f95" x="765.384375" y="276.666859" style="stroke: #000000; stroke-width: 0.8"/>
      </g>
     </g>
     <g id="text_30">
      <!-- 0.05 -->
      <g transform="translate(736.11875 280.466077) scale(0.1 -0.1)">
       <use xlink:href="#DejaVuSans-30"/>
       <use xlink:href="#DejaVuSans-2e" transform="translate(63.623047 0)"/>
       <use xlink:href="#DejaVuSans-30" transform="translate(95.410156 0)"/>
       <use xlink:href="#DejaVuSans-35" transform="translate(159.033203 0)"/>
      </g>
     </g>
    </g>
    <g id="ytick_15">
     <g id="line2d_27">
      <g>
       <use xlink:href="#m9e927b9f95" x="765.384375" y="230.1664" style="stroke: #000000; stroke-width: 0.8"/>
      </g>
     </g>
     <g id="text_31">
      <!-- 0.10 -->
      <g transform="translate(736.11875 233.965619) scale(0.1 -0.1)">
       <use xlink:href="#DejaVuSans-30"/>
       <use xlink:href="#DejaVuSans-2e" transform="translate(63.623047 0)"/>
       <use xlink:href="#DejaVuSans-31" transform="translate(95.410156 0)"/>
       <use xlink:href="#DejaVuSans-30" transform="translate(159.033203 0)"/>
      </g>
     </g>
    </g>
    <g id="ytick_16">
     <g id="line2d_28">
      <g>
       <use xlink:href="#m9e927b9f95" x="765.384375" y="183.665942" style="stroke: #000000; stroke-width: 0.8"/>
      </g>
     </g>
     <g id="text_32">
      <!-- 0.15 -->
      <g transform="translate(736.11875 187.46516) scale(0.1 -0.1)">
       <use xlink:href="#DejaVuSans-30"/>
       <use xlink:href="#DejaVuSans-2e" transform="translate(63.623047 0)"/>
       <use xlink:href="#DejaVuSans-31" transform="translate(95.410156 0)"/>
       <use xlink:href="#DejaVuSans-35" transform="translate(159.033203 0)"/>
      </g>
     </g>
    </g>
    <g id="ytick_17">
     <g id="line2d_29">
      <g>
       <use xlink:href="#m9e927b9f95" x="765.384375" y="137.165483" style="stroke: #000000; stroke-width: 0.8"/>
      </g>
     </g>
     <g id="text_33">
      <!-- 0.20 -->
      <g transform="translate(736.11875 140.964702) scale(0.1 -0.1)">
       <use xlink:href="#DejaVuSans-30"/>
       <use xlink:href="#DejaVuSans-2e" transform="translate(63.623047 0)"/>
       <use xlink:href="#DejaVuSans-32" transform="translate(95.410156 0)"/>
       <use xlink:href="#DejaVuSans-30" transform="translate(159.033203 0)"/>
      </g>
     </g>
    </g>
    <g id="ytick_18">
     <g id="line2d_30">
      <g>
       <use xlink:href="#m9e927b9f95" x="765.384375" y="90.665025" style="stroke: #000000; stroke-width: 0.8"/>
      </g>
     </g>
     <g id="text_34">
      <!-- 0.25 -->
      <g transform="translate(736.11875 94.464244) scale(0.1 -0.1)">
       <use xlink:href="#DejaVuSans-30"/>
       <use xlink:href="#DejaVuSans-2e" transform="translate(63.623047 0)"/>
       <use xlink:href="#DejaVuSans-32" transform="translate(95.410156 0)"/>
       <use xlink:href="#DejaVuSans-35" transform="translate(159.033203 0)"/>
      </g>
     </g>
    </g>
    <g id="text_35">
     <!-- Replay benefit (FULL − NO_REPLAY) -->
     <g transform="translate(729.760937 297.268188) rotate(-90) scale(0.1 -0.1)">
      <defs>
       <path id="DejaVuSans-2212" d="M 678 2272 
L 4684 2272 
L 4684 1741 
L 678 1741 
L 678 2272 
z
" transform="scale(0.015625)"/>
      </defs>
      <use xlink:href="#DejaVuSans-52"/>
      <use xlink:href="#DejaVuSans-65" transform="translate(64.982422 0)"/>
      <use xlink:href="#DejaVuSans-70" transform="translate(126.505859 0)"/>
      <use xlink:href="#DejaVuSans-6c" transform="translate(189.982422 0)"/>
      <use xlink:href="#DejaVuSans-61" transform="translate(217.765625 0)"/>
      <use xlink:href="#DejaVuSans-79" transform="translate(279.044922 0)"/>
      <use xlink:href="#DejaVuSans-20" transform="translate(338.224609 0)"/>
      <use xlink:href="#DejaVuSans-62" transform="translate(370.011719 0)"/>
      <use xlink:href="#DejaVuSans-65" transform="translate(433.488281 0)"/>
      <use xlink:href="#DejaVuSans-6e" transform="translate(495.011719 0)"/>
      <use xlink:href="#DejaVuSans-65" transform="translate(558.390625 0)"/>
      <use xlink:href="#DejaVuSans-66" transform="translate(619.914062 0)"/>
      <use xlink:href="#DejaVuSans-69" transform="translate(655.119141 0)"/>
      <use xlink:href="#DejaVuSans-74" transform="translate(682.902344 0)"/>
      <use xlink:href="#DejaVuSans-20" transform="translate(722.111328 0)"/>
      <use xlink:href="#DejaVuSans-28" transform="translate(753.898438 0)"/>
      <use xlink:href="#DejaVuSans-46" transform="translate(792.912109 0)"/>
      <use xlink:href="#DejaVuSans-55" transform="translate(850.431641 0)"/>
      <use xlink:href="#DejaVuSans-4c" transform="translate(923.625 0)"/>
      <use xlink:href="#DejaVuSans-4c" transform="translate(979.337891 0)"/>
      <use xlink:href="#DejaVuSans-20" transform="translate(1035.050781 0)"/>
      <use xlink:href="#DejaVuSans-2212" transform="translate(1066.837891 0)"/>
      <use xlink:href="#DejaVuSans-20" transform="translate(1150.626953 0)"/>
      <use xlink:href="#DejaVuSans-4e" transform="translate(1182.414062 0)"/>
      <use xlink:href="#DejaVuSans-4f" transform="translate(1257.21875 0)"/>
      <use xlink:href="#DejaVuSans-5f" transform="translate(1335.929688 0)"/>
      <use xlink:href="#DejaVuSans-52" transform="translate(1385.929688 0)"/>
      <use xlink:href="#DejaVuSans-45" transform="translate(1455.412109 0)"/>
      <use xlink:href="#DejaVuSans-50" transform="translate(1518.595703 0)"/>
      <use xlink:href="#DejaVuSans-4c" transform="translate(1578.898438 0)"/>
      <use xlink:href="#DejaVuSans-41" transform="translate(1636.861328 0)"/>
      <use xlink:href="#DejaVuSans-59" transform="translate(1697.519531 0)"/>
      <use xlink:href="#DejaVuSans-29" transform="translate(1758.603516 0)"/>
     </g>
    </g>
   </g>
   <g id="line2d_31">
    <path d="M 765.384375 323.167317 
L 1065.563125 323.167317 
" clip-path="url(#pa26fa72c53)" style="fill: none; stroke-dasharray: 2.96,1.28; stroke-dashoffset: 0; stroke: #808080; stroke-width: 0.8"/>
   </g>
   <g id="patch_29">
    <path d="M 765.384375 334.75475 
L 765.384375 80.016 
" style="fill: none; stroke: #000000; stroke-width: 0.8; stroke-linejoin: miter; stroke-linecap: square"/>
   </g>
   <g id="patch_30">
    <path d="M 765.384375 334.75475 
L 1065.563125 334.75475 
" style="fill: none; stroke: #000000; stroke-width: 0.8; stroke-linejoin: miter; stroke-linecap: square"/>
   </g>
   <g id="text_36">
    <g id="patch_31">
     <path d="M 877.774375 111.853688 
L 953.173125 111.853688 
Q 955.573125 111.853688 955.573125 109.453688 
L 955.573125 92.752938 
Q 955.573125 90.352937 953.173125 90.352937 
L 877.774375 90.352937 
Q 875.374375 90.352937 875.374375 92.752938 
L 875.374375 109.453688 
Q 875.374375 111.853688 877.774375 111.853688 
z
" style="fill: #ffffe0; opacity: 0.8; stroke: #000000; stroke-linejoin: miter"/>
    </g>
    <!-- BF replay effect: -->
    <g transform="translate(882.5475 98.831688) scale(0.08 -0.08)">
     <use xlink:href="#DejaVuSans-42"/>
     <use xlink:href="#DejaVuSans-46" transform="translate(68.603516 0)"/>
     <use xlink:href="#DejaVuSans-20" transform="translate(126.123047 0)"/>
     <use xlink:href="#DejaVuSans-72" transform="translate(157.910156 0)"/>
     <use xlink:href="#DejaVuSans-65" transform="translate(196.773438 0)"/>
     <use xlink:href="#DejaVuSans-70" transform="translate(258.296875 0)"/>
     <use xlink:href="#DejaVuSans-6c" transform="translate(321.773438 0)"/>
     <use xlink:href="#DejaVuSans-61" transform="translate(349.556641 0)"/>
     <use xlink:href="#DejaVuSans-79" transform="translate(410.835938 0)"/>
     <use xlink:href="#DejaVuSans-20" transform="translate(470.015625 0)"/>
     <use xlink:href="#DejaVuSans-65" transform="translate(501.802734 0)"/>
     <use xlink:href="#DejaVuSans-66" transform="translate(563.326172 0)"/>
     <use xlink:href="#DejaVuSans-66" transform="translate(598.53125 0)"/>
     <use xlink:href="#DejaVuSans-65" transform="translate(633.736328 0)"/>
     <use xlink:href="#DejaVuSans-63" transform="translate(695.259766 0)"/>
     <use xlink:href="#DejaVuSans-74" transform="translate(750.240234 0)"/>
     <use xlink:href="#DejaVuSans-3a" transform="translate(789.449219 0)"/>
    </g>
    <!-- t=-0.01, p=0.9924 -->
    <g transform="translate(877.774375 107.789938) scale(0.08 -0.08)">
     <defs>
      <path id="DejaVuSans-3d" d="M 678 2906 
L 4684 2906 
L 4684 2381 
L 678 2381 
L 678 2906 
z
M 678 1631 
L 4684 1631 
L 4684 1100 
L 678 1100 
L 678 1631 
z
" transform="scale(0.015625)"/>
      <path id="DejaVuSans-2c" d="M 750 794 
L 1409 794 
L 1409 256 
L 897 -744 
L 494 -744 
L 750 256 
L 750 794 
z
" transform="scale(0.015625)"/>
      <path id="DejaVuSans-39" d="M 703 97 
L 703 672 
Q 941 559 1184 500 
Q 1428 441 1663 441 
Q 2288 441 2617 861 
Q 2947 1281 2994 2138 
Q 2813 1869 2534 1725 
Q 2256 1581 1919 1581 
Q 1219 1581 811 2004 
Q 403 2428 403 3163 
Q 403 3881 828 4315 
Q 1253 4750 1959 4750 
Q 2769 4750 3195 4129 
Q 3622 3509 3622 2328 
Q 3622 1225 3098 567 
Q 2575 -91 1691 -91 
Q 1453 -91 1209 -44 
Q 966 3 703 97 
z
M 1959 2075 
Q 2384 2075 2632 2365 
Q 2881 2656 2881 3163 
Q 2881 3666 2632 3958 
Q 2384 4250 1959 4250 
Q 1534 4250 1286 3958 
Q 1038 3666 1038 3163 
Q 1038 2656 1286 2365 
Q 1534 2075 1959 2075 
z
" transform="scale(0.015625)"/>
      <path id="DejaVuSans-34" d="M 2419 4116 
L 825 1625 
L 2419 1625 
L 2419 4116 
z
M 2253 4666 
L 3047 4666 
L 3047 1625 
L 3713 1625 
L 3713 1100 
L 3047 1100 
L 3047 0 
L 2419 0 
L 2419 1100 
L 313 1100 
L 313 1709 
L 2253 4666 
z
" transform="scale(0.015625)"/>
     </defs>
     <use xlink:href="#DejaVuSans-74"/>
     <use xlink:href="#DejaVuSans-3d" transform="translate(39.208984 0)"/>
     <use xlink:href="#DejaVuSans-2d" transform="translate(122.998047 0)"/>
     <use xlink:href="#DejaVuSans-30" transform="translate(159.082031 0)"/>
     <use xlink:href="#DejaVuSans-2e" transform="translate(222.705078 0)"/>
     <use xlink:href="#DejaVuSans-30" transform="translate(254.492188 0)"/>
     <use xlink:href="#DejaVuSans-31" transform="translate(318.115234 0)"/>
     <use xlink:href="#DejaVuSans-2c" transform="translate(381.738281 0)"/>
     <use xlink:href="#DejaVuSans-20" transform="translate(413.525391 0)"/>
     <use xlink:href="#DejaVuSans-70" transform="translate(445.3125 0)"/>
     <use xlink:href="#DejaVuSans-3d" transform="translate(508.789062 0)"/>
     <use xlink:href="#DejaVuSans-30" transform="translate(592.578125 0)"/>
     <use xlink:href="#DejaVuSans-2e" transform="translate(656.201172 0)"/>
     <use xlink:href="#DejaVuSans-39" transform="translate(687.988281 0)"/>
     <use xlink:href="#DejaVuSans-39" transform="translate(751.611328 0)"/>
     <use xlink:href="#DejaVuSans-32" transform="translate(815.234375 0)"/>
     <use xlink:href="#DejaVuSans-34" transform="translate(878.857422 0)"/>
    </g>
   </g>
   <g id="text_37">
    <!-- C. Replay benefit: -->
    <g transform="translate(862.120625 60.578625) scale(0.12 -0.12)">
     <use xlink:href="#DejaVuSans-43"/>
     <use xlink:href="#DejaVuSans-2e" transform="translate(69.824219 0)"/>
     <use xlink:href="#DejaVuSans-20" transform="translate(101.611328 0)"/>
     <use xlink:href="#DejaVuSans-52" transform="translate(133.398438 0)"/>
     <use xlink:href="#DejaVuSans-65" transform="translate(198.380859 0)"/>
     <use xlink:href="#DejaVuSans-70" transform="translate(259.904297 0)"/>
     <use xlink:href="#DejaVuSans-6c" transform="translate(323.380859 0)"/>
     <use xlink:href="#DejaVuSans-61" transform="translate(351.164062 0)"/>
     <use xlink:href="#DejaVuSans-79" transform="translate(412.443359 0)"/>
     <use xlink:href="#DejaVuSans-20" transform="translate(471.623047 0)"/>
     <use xlink:href="#DejaVuSans-62" transform="translate(503.410156 0)"/>
     <use xlink:href="#DejaVuSans-65" transform="translate(566.886719 0)"/>
     <use xlink:href="#DejaVuSans-6e" transform="translate(628.410156 0)"/>
     <use xlink:href="#DejaVuSans-65" transform="translate(691.789062 0)"/>
     <use xlink:href="#DejaVuSans-66" transform="translate(753.3125 0)"/>
     <use xlink:href="#DejaVuSans-69" transform="translate(788.517578 0)"/>
     <use xlink:href="#DejaVuSans-74" transform="translate(816.300781 0)"/>
     <use xlink:href="#DejaVuSans-3a" transform="translate(855.509766 0)"/>
    </g>
    <!-- RGCC vs Benna-Fusi -->
    <g transform="translate(854.814688 74.016) scale(0.12 -0.12)">
     <use xlink:href="#DejaVuSans-52"/>
     <use xlink:href="#DejaVuSans-47" transform="translate(69.482422 0)"/>
     <use xlink:href="#DejaVuSans-43" transform="translate(146.972656 0)"/>
     <use xlink:href="#DejaVuSans-43" transform="translate(216.796875 0)"/>
     <use xlink:href="#DejaVuSans-20" transform="translate(286.621094 0)"/>
     <use xlink:href="#DejaVuSans-76" transform="translate(318.408203 0)"/>
     <use xlink:href="#DejaVuSans-73" transform="translate(377.587891 0)"/>
     <use xlink:href="#DejaVuSans-20" transform="translate(429.6875 0)"/>
     <use xlink:href="#DejaVuSans-42" transform="translate(461.474609 0)"/>
     <use xlink:href="#DejaVuSans-65" transform="translate(530.078125 0)"/>
     <use xlink:href="#DejaVuSans-6e" transform="translate(591.601562 0)"/>
     <use xlink:href="#DejaVuSans-6e" transform="translate(654.980469 0)"/>
     <use xlink:href="#DejaVuSans-61" transform="translate(718.359375 0)"/>
     <use xlink:href="#DejaVuSans-2d" transform="translate(779.638672 0)"/>
     <use xlink:href="#DejaVuSans-46" transform="translate(815.722656 0)"/>
     <use xlink:href="#DejaVuSans-75" transform="translate(867.742188 0)"/>
     <use xlink:href="#DejaVuSans-73" transform="translate(931.121094 0)"/>
     <use xlink:href="#DejaVuSans-69" transform="translate(983.220703 0)"/>
    </g>
   </g>
  </g>
  <g id="text_38">
   <!-- MAJOR-5: Benna-Fusi Cascade vs RGCC Two-Timescale Model -->
   <g transform="translate(314.922344 17.077969) scale(0.13 -0.13)">
    <defs>
     <path id="DejaVuSans-Bold-4d" d="M 588 4666 
L 2119 4666 
L 3181 2169 
L 4250 4666 
L 5778 4666 
L 5778 0 
L 4641 0 
L 4641 3413 
L 3566 897 
L 2803 897 
L 1728 3413 
L 1728 0 
L 588 0 
L 588 4666 
z
" transform="scale(0.015625)"/>
     <path id="DejaVuSans-Bold-41" d="M 3419 850 
L 1538 850 
L 1241 0 
L 31 0 
L 1759 4666 
L 3194 4666 
L 4922 0 
L 3713 0 
L 3419 850 
z
M 1838 1716 
L 3116 1716 
L 2478 3572 
L 1838 1716 
z
" transform="scale(0.015625)"/>
     <path id="DejaVuSans-Bold-4a" d="M 588 4666 
L 1791 4666 
L 1791 453 
Q 1791 -419 1317 -850 
Q 844 -1281 -116 -1281 
L -359 -1281 
L -359 -372 
L -172 -372 
Q 203 -372 395 -162 
Q 588 47 588 453 
L 588 4666 
z
" transform="scale(0.015625)"/>
     <path id="DejaVuSans-Bold-4f" d="M 2719 3878 
Q 2169 3878 1866 3472 
Q 1563 3066 1563 2328 
Q 1563 1594 1866 1187 
Q 2169 781 2719 781 
Q 3272 781 3575 1187 
Q 3878 1594 3878 2328 
Q 3878 3066 3575 3472 
Q 3272 3878 2719 3878 
z
M 2719 4750 
Q 3844 4750 4481 4106 
Q 5119 3463 5119 2328 
Q 5119 1197 4481 553 
Q 3844 -91 2719 -91 
Q 1597 -91 958 553 
Q 319 1197 319 2328 
Q 319 3463 958 4106 
Q 1597 4750 2719 4750 
z
" transform="scale(0.015625)"/>
     <path id="DejaVuSans-Bold-52" d="M 2297 2597 
Q 2675 2597 2839 2737 
Q 3003 2878 3003 3200 
Q 3003 3519 2839 3656 
Q 2675 3794 2297 3794 
L 1791 3794 
L 1791 2597 
L 2297 2597 
z
M 1791 1766 
L 1791 0 
L 588 0 
L 588 4666 
L 2425 4666 
Q 3347 4666 3776 4356 
Q 4206 4047 4206 3378 
Q 4206 2916 3982 2619 
Q 3759 2322 3309 2181 
Q 3556 2125 3751 1926 
Q 3947 1728 4147 1325 
L 4800 0 
L 3519 0 
L 2950 1159 
Q 2778 1509 2601 1637 
Q 2425 1766 2131 1766 
L 1791 1766 
z
" transform="scale(0.015625)"/>
     <path id="DejaVuSans-Bold-2d" d="M 347 2297 
L 2309 2297 
L 2309 1388 
L 347 1388 
L 347 2297 
z
" transform="scale(0.015625)"/>
     <path id="DejaVuSans-Bold-35" d="M 678 4666 
L 3669 4666 
L 3669 3781 
L 1638 3781 
L 1638 3059 
Q 1775 3097 1914 3117 
Q 2053 3138 2203 3138 
Q 3056 3138 3531 2711 
Q 4006 2284 4006 1522 
Q 4006 766 3489 337 
Q 2972 -91 2053 -91 
Q 1656 -91 1267 -14 
Q 878 63 494 219 
L 494 1166 
Q 875 947 1217 837 
Q 1559 728 1863 728 
Q 2300 728 2551 942 
Q 2803 1156 2803 1522 
Q 2803 1891 2551 2103 
Q 2300 2316 1863 2316 
Q 1603 2316 1309 2248 
Q 1016 2181 678 2041 
L 678 4666 
z
" transform="scale(0.015625)"/>
     <path id="DejaVuSans-Bold-3a" d="M 716 3500 
L 1844 3500 
L 1844 2291 
L 716 2291 
L 716 3500 
z
M 716 1209 
L 1844 1209 
L 1844 0 
L 716 0 
L 716 1209 
z
" transform="scale(0.015625)"/>
     <path id="DejaVuSans-Bold-20" transform="scale(0.015625)"/>
     <path id="DejaVuSans-Bold-42" d="M 2456 2859 
Q 2741 2859 2887 2984 
Q 3034 3109 3034 3353 
Q 3034 3594 2887 3720 
Q 2741 3847 2456 3847 
L 1791 3847 
L 1791 2859 
L 2456 2859 
z
M 2497 819 
Q 2859 819 3042 972 
Q 3225 1125 3225 1434 
Q 3225 1738 3044 1889 
Q 2863 2041 2497 2041 
L 1791 2041 
L 1791 819 
L 2497 819 
z
M 3616 2497 
Q 4003 2384 4215 2081 
Q 4428 1778 4428 1338 
Q 4428 663 3972 331 
Q 3516 0 2584 0 
L 588 0 
L 588 4666 
L 2394 4666 
Q 3366 4666 3802 4372 
Q 4238 4078 4238 3431 
Q 4238 3091 4078 2852 
Q 3919 2613 3616 2497 
z
" transform="scale(0.015625)"/>
     <path id="DejaVuSans-Bold-65" d="M 4031 1759 
L 4031 1441 
L 1416 1441 
Q 1456 1047 1700 850 
Q 1944 653 2381 653 
Q 2734 653 3104 758 
Q 3475 863 3866 1075 
L 3866 213 
Q 3469 63 3072 -14 
Q 2675 -91 2278 -91 
Q 1328 -91 801 392 
Q 275 875 275 1747 
Q 275 2603 792 3093 
Q 1309 3584 2216 3584 
Q 3041 3584 3536 3087 
Q 4031 2591 4031 1759 
z
M 2881 2131 
Q 2881 2450 2695 2645 
Q 2509 2841 2209 2841 
Q 1884 2841 1681 2658 
Q 1478 2475 1428 2131 
L 2881 2131 
z
" transform="scale(0.015625)"/>
     <path id="DejaVuSans-Bold-6e" d="M 4056 2131 
L 4056 0 
L 2931 0 
L 2931 347 
L 2931 1631 
Q 2931 2084 2911 2256 
Q 2891 2428 2841 2509 
Q 2775 2619 2662 2680 
Q 2550 2741 2406 2741 
Q 2056 2741 1856 2470 
Q 1656 2200 1656 1722 
L 1656 0 
L 538 0 
L 538 3500 
L 1656 3500 
L 1656 2988 
Q 1909 3294 2193 3439 
Q 2478 3584 2822 3584 
Q 3428 3584 3742 3212 
Q 4056 2841 4056 2131 
z
" transform="scale(0.015625)"/>
     <path id="DejaVuSans-Bold-61" d="M 2106 1575 
Q 1756 1575 1579 1456 
Q 1403 1338 1403 1106 
Q 1403 894 1545 773 
Q 1688 653 1941 653 
Q 2256 653 2472 879 
Q 2688 1106 2688 1447 
L 2688 1575 
L 2106 1575 
z
M 3816 1997 
L 3816 0 
L 2688 0 
L 2688 519 
Q 2463 200 2181 54 
Q 1900 -91 1497 -91 
Q 953 -91 614 226 
Q 275 544 275 1050 
Q 275 1666 698 1953 
Q 1122 2241 2028 2241 
L 2688 2241 
L 2688 2328 
Q 2688 2594 2478 2717 
Q 2269 2841 1825 2841 
Q 1466 2841 1156 2769 
Q 847 2697 581 2553 
L 581 3406 
Q 941 3494 1303 3539 
Q 1666 3584 2028 3584 
Q 2975 3584 3395 3211 
Q 3816 2838 3816 1997 
z
" transform="scale(0.015625)"/>
     <path id="DejaVuSans-Bold-46" d="M 588 4666 
L 3834 4666 
L 3834 3756 
L 1791 3756 
L 1791 2888 
L 3713 2888 
L 3713 1978 
L 1791 1978 
L 1791 0 
L 588 0 
L 588 4666 
z
" transform="scale(0.015625)"/>
     <path id="DejaVuSans-Bold-75" d="M 500 1363 
L 500 3500 
L 1625 3500 
L 1625 3150 
Q 1625 2866 1622 2436 
Q 1619 2006 1619 1863 
Q 1619 1441 1641 1255 
Q 1663 1069 1716 984 
Q 1784 875 1895 815 
Q 2006 756 2150 756 
Q 2500 756 2700 1025 
Q 2900 1294 2900 1772 
L 2900 3500 
L 4019 3500 
L 4019 0 
L 2900 0 
L 2900 506 
Q 2647 200 2364 54 
Q 2081 -91 1741 -91 
Q 1134 -91 817 281 
Q 500 653 500 1363 
z
" transform="scale(0.015625)"/>
     <path id="DejaVuSans-Bold-73" d="M 3272 3391 
L 3272 2541 
Q 2913 2691 2578 2766 
Q 2244 2841 1947 2841 
Q 1628 2841 1473 2761 
Q 1319 2681 1319 2516 
Q 1319 2381 1436 2309 
Q 1553 2238 1856 2203 
L 2053 2175 
Q 2913 2066 3209 1816 
Q 3506 1566 3506 1031 
Q 3506 472 3093 190 
Q 2681 -91 1863 -91 
Q 1516 -91 1145 -36 
Q 775 19 384 128 
L 384 978 
Q 719 816 1070 734 
Q 1422 653 1784 653 
Q 2113 653 2278 743 
Q 2444 834 2444 1013 
Q 2444 1163 2330 1236 
Q 2216 1309 1875 1350 
L 1678 1375 
Q 931 1469 631 1722 
Q 331 1975 331 2491 
Q 331 3047 712 3315 
Q 1094 3584 1881 3584 
Q 2191 3584 2531 3537 
Q 2872 3491 3272 3391 
z
" transform="scale(0.015625)"/>
     <path id="DejaVuSans-Bold-69" d="M 538 3500 
L 1656 3500 
L 1656 0 
L 538 0 
L 538 3500 
z
M 538 4863 
L 1656 4863 
L 1656 3950 
L 538 3950 
L 538 4863 
z
" transform="scale(0.015625)"/>
     <path id="DejaVuSans-Bold-43" d="M 4288 256 
Q 3956 84 3597 -3 
Q 3238 -91 2847 -91 
Q 1681 -91 1000 561 
Q 319 1213 319 2328 
Q 319 3447 1000 4098 
Q 1681 4750 2847 4750 
Q 3238 4750 3597 4662 
Q 3956 4575 4288 4403 
L 4288 3438 
Q 3953 3666 3628 3772 
Q 3303 3878 2944 3878 
Q 2300 3878 1931 3465 
Q 1563 3053 1563 2328 
Q 1563 1606 1931 1193 
Q 2300 781 2944 781 
Q 3303 781 3628 887 
Q 3953 994 4288 1222 
L 4288 256 
z
" transform="scale(0.015625)"/>
     <path id="DejaVuSans-Bold-63" d="M 3366 3391 
L 3366 2478 
Q 3138 2634 2908 2709 
Q 2678 2784 2431 2784 
Q 1963 2784 1702 2511 
Q 1441 2238 1441 1747 
Q 1441 1256 1702 982 
Q 1963 709 2431 709 
Q 2694 709 2930 787 
Q 3166 866 3366 1019 
L 3366 103 
Q 3103 6 2833 -42 
Q 2563 -91 2291 -91 
Q 1344 -91 809 395 
Q 275 881 275 1747 
Q 275 2613 809 3098 
Q 1344 3584 2291 3584 
Q 2566 3584 2833 3536 
Q 3100 3488 3366 3391 
z
" transform="scale(0.015625)"/>
     <path id="DejaVuSans-Bold-64" d="M 2919 2988 
L 2919 4863 
L 4044 4863 
L 4044 0 
L 2919 0 
L 2919 506 
Q 2688 197 2409 53 
Q 2131 -91 1766 -91 
Q 1119 -91 703 423 
Q 288 938 288 1747 
Q 288 2556 703 3070 
Q 1119 3584 1766 3584 
Q 2128 3584 2408 3439 
Q 2688 3294 2919 2988 
z
M 2181 722 
Q 2541 722 2730 984 
Q 2919 1247 2919 1747 
Q 2919 2247 2730 2509 
Q 2541 2772 2181 2772 
Q 1825 2772 1636 2509 
Q 1447 2247 1447 1747 
Q 1447 1247 1636 984 
Q 1825 722 2181 722 
z
" transform="scale(0.015625)"/>
     <path id="DejaVuSans-Bold-76" d="M 97 3500 
L 1216 3500 
L 2088 1081 
L 2956 3500 
L 4078 3500 
L 2700 0 
L 1472 0 
L 97 3500 
z
" transform="scale(0.015625)"/>
     <path id="DejaVuSans-Bold-47" d="M 4781 347 
Q 4331 128 3847 18 
Q 3363 -91 2847 -91 
Q 1681 -91 1000 561 
Q 319 1213 319 2328 
Q 319 3456 1012 4103 
Q 1706 4750 2913 4750 
Q 3378 4750 3804 4662 
Q 4231 4575 4609 4403 
L 4609 3438 
Q 4219 3659 3833 3768 
Q 3447 3878 3059 3878 
Q 2341 3878 1952 3476 
Q 1563 3075 1563 2328 
Q 1563 1588 1938 1184 
Q 2313 781 3003 781 
Q 3191 781 3352 804 
Q 3513 828 3641 878 
L 3641 1784 
L 2906 1784 
L 2906 2591 
L 4781 2591 
L 4781 347 
z
" transform="scale(0.015625)"/>
     <path id="DejaVuSans-Bold-54" d="M 31 4666 
L 4331 4666 
L 4331 3756 
L 2784 3756 
L 2784 0 
L 1581 0 
L 1581 3756 
L 31 3756 
L 31 4666 
z
" transform="scale(0.015625)"/>
     <path id="DejaVuSans-Bold-77" d="M 225 3500 
L 1313 3500 
L 1900 1088 
L 2491 3500 
L 3425 3500 
L 4013 1113 
L 4603 3500 
L 5691 3500 
L 4769 0 
L 3547 0 
L 2956 2406 
L 2369 0 
L 1147 0 
L 225 3500 
z
" transform="scale(0.015625)"/>
     <path id="DejaVuSans-Bold-6f" d="M 2203 2784 
Q 1831 2784 1636 2517 
Q 1441 2250 1441 1747 
Q 1441 1244 1636 976 
Q 1831 709 2203 709 
Q 2569 709 2762 976 
Q 2956 1244 2956 1747 
Q 2956 2250 2762 2517 
Q 2569 2784 2203 2784 
z
M 2203 3584 
Q 3106 3584 3614 3096 
Q 4122 2609 4122 1747 
Q 4122 884 3614 396 
Q 3106 -91 2203 -91 
Q 1297 -91 786 396 
Q 275 884 275 1747 
Q 275 2609 786 3096 
Q 1297 3584 2203 3584 
z
" transform="scale(0.015625)"/>
     <path id="DejaVuSans-Bold-6d" d="M 3781 2919 
Q 3994 3244 4286 3414 
Q 4578 3584 4928 3584 
Q 5531 3584 5847 3212 
Q 6163 2841 6163 2131 
L 6163 0 
L 5038 0 
L 5038 1825 
Q 5041 1866 5042 1909 
Q 5044 1953 5044 2034 
Q 5044 2406 4934 2573 
Q 4825 2741 4581 2741 
Q 4263 2741 4089 2478 
Q 3916 2216 3909 1719 
L 3909 0 
L 2784 0 
L 2784 1825 
Q 2784 2406 2684 2573 
Q 2584 2741 2328 2741 
Q 2006 2741 1831 2477 
Q 1656 2213 1656 1722 
L 1656 0 
L 531 0 
L 531 3500 
L 1656 3500 
L 1656 2988 
Q 1863 3284 2130 3434 
Q 2397 3584 2719 3584 
Q 3081 3584 3359 3409 
Q 3638 3234 3781 2919 
z
" transform="scale(0.015625)"/>
     <path id="DejaVuSans-Bold-6c" d="M 538 4863 
L 1656 4863 
L 1656 0 
L 538 0 
L 538 4863 
z
" transform="scale(0.015625)"/>
    </defs>
    <use xlink:href="#DejaVuSans-Bold-4d"/>
    <use xlink:href="#DejaVuSans-Bold-41" transform="translate(99.511719 0)"/>
    <use xlink:href="#DejaVuSans-Bold-4a" transform="translate(176.904297 0)"/>
    <use xlink:href="#DejaVuSans-Bold-4f" transform="translate(214.111328 0)"/>
    <use xlink:href="#DejaVuSans-Bold-52" transform="translate(299.121094 0)"/>
    <use xlink:href="#DejaVuSans-Bold-2d" transform="translate(376.123047 0)"/>
    <use xlink:href="#DejaVuSans-Bold-35" transform="translate(417.626953 0)"/>
    <use xlink:href="#DejaVuSans-Bold-3a" transform="translate(487.207031 0)"/>
    <use xlink:href="#DejaVuSans-Bold-20" transform="translate(527.197266 0)"/>
    <use xlink:href="#DejaVuSans-Bold-42" transform="translate(562.011719 0)"/>
    <use xlink:href="#DejaVuSans-Bold-65" transform="translate(638.232422 0)"/>
    <use xlink:href="#DejaVuSans-Bold-6e" transform="translate(706.054688 0)"/>
    <use xlink:href="#DejaVuSans-Bold-6e" transform="translate(777.246094 0)"/>
    <use xlink:href="#DejaVuSans-Bold-61" transform="translate(848.4375 0)"/>
    <use xlink:href="#DejaVuSans-Bold-2d" transform="translate(915.917969 0)"/>
    <use xlink:href="#DejaVuSans-Bold-46" transform="translate(957.421875 0)"/>
    <use xlink:href="#DejaVuSans-Bold-75" transform="translate(1020.732422 0)"/>
    <use xlink:href="#DejaVuSans-Bold-73" transform="translate(1091.923828 0)"/>
    <use xlink:href="#DejaVuSans-Bold-69" transform="translate(1151.445312 0)"/>
    <use xlink:href="#DejaVuSans-Bold-20" transform="translate(1185.722656 0)"/>
    <use xlink:href="#DejaVuSans-Bold-43" transform="translate(1220.537109 0)"/>
    <use xlink:href="#DejaVuSans-Bold-61" transform="translate(1293.925781 0)"/>
    <use xlink:href="#DejaVuSans-Bold-73" transform="translate(1361.40625 0)"/>
    <use xlink:href="#DejaVuSans-Bold-63" transform="translate(1420.927734 0)"/>
    <use xlink:href="#DejaVuSans-Bold-61" transform="translate(1480.205078 0)"/>
    <use xlink:href="#DejaVuSans-Bold-64" transform="translate(1547.685547 0)"/>
    <use xlink:href="#DejaVuSans-Bold-65" transform="translate(1619.267578 0)"/>
    <use xlink:href="#DejaVuSans-Bold-20" transform="translate(1687.089844 0)"/>
    <use xlink:href="#DejaVuSans-Bold-76" transform="translate(1721.904297 0)"/>
    <use xlink:href="#DejaVuSans-Bold-73" transform="translate(1787.089844 0)"/>
    <use xlink:href="#DejaVuSans-Bold-20" transform="translate(1846.611328 0)"/>
    <use xlink:href="#DejaVuSans-Bold-52" transform="translate(1881.425781 0)"/>
    <use xlink:href="#DejaVuSans-Bold-47" transform="translate(1958.427734 0)"/>
    <use xlink:href="#DejaVuSans-Bold-43" transform="translate(2040.507812 0)"/>
    <use xlink:href="#DejaVuSans-Bold-43" transform="translate(2113.896484 0)"/>
    <use xlink:href="#DejaVuSans-Bold-20" transform="translate(2187.285156 0)"/>
    <use xlink:href="#DejaVuSans-Bold-54" transform="translate(2222.099609 0)"/>
    <use xlink:href="#DejaVuSans-Bold-77" transform="translate(2279.3125 0)"/>
    <use xlink:href="#DejaVuSans-Bold-6f" transform="translate(2371.695312 0)"/>
    <use xlink:href="#DejaVuSans-Bold-2d" transform="translate(2440.396484 0)"/>
    <use xlink:href="#DejaVuSans-Bold-54" transform="translate(2467.150391 0)"/>
    <use xlink:href="#DejaVuSans-Bold-69" transform="translate(2535.363281 0)"/>
    <use xlink:href="#DejaVuSans-Bold-6d" transform="translate(2569.640625 0)"/>
    <use xlink:href="#DejaVuSans-Bold-65" transform="translate(2673.839844 0)"/>
    <use xlink:href="#DejaVuSans-Bold-73" transform="translate(2741.662109 0)"/>
    <use xlink:href="#DejaVuSans-Bold-63" transform="translate(2801.183594 0)"/>
    <use xlink:href="#DejaVuSans-Bold-61" transform="translate(2860.460938 0)"/>
    <use xlink:href="#DejaVuSans-Bold-6c" transform="translate(2927.941406 0)"/>
    <use xlink:href="#DejaVuSans-Bold-65" transform="translate(2962.21875 0)"/>
    <use xlink:href="#DejaVuSans-Bold-20" transform="translate(3030.041016 0)"/>
    <use xlink:href="#DejaVuSans-Bold-4d" transform="translate(3064.855469 0)"/>
    <use xlink:href="#DejaVuSans-Bold-6f" transform="translate(3164.367188 0)"/>
    <use xlink:href="#DejaVuSans-Bold-64" transform="translate(3233.068359 0)"/>
    <use xlink:href="#DejaVuSans-Bold-65" transform="translate(3304.650391 0)"/>
    <use xlink:href="#DejaVuSans-Bold-6c" transform="translate(3372.472656 0)"/>
   </g>
  </g>
 </g>
 <defs>
  <clipPath id="p1979936fbd">
   <rect x="56.784375" y="80.016" width="300.17875" height="254.73875"/>
  </clipPath>
  <clipPath id="p5966db7917">
   <rect x="411.084375" y="80.016" width="300.17875" height="254.73875"/>
  </clipPath>
  <clipPath id="pa26fa72c53">
   <rect x="765.384375" y="80.016" width="300.17875" height="254.73875"/>
  </clipPath>
 </defs>
</svg>
