<?xml version="1.0" encoding="utf-8" standalone="no"?>
<!DOCTYPE svg PUBLIC "-//W3C//DTD SVG 1.1//EN"
  "http://www.w3.org/Graphics/SVG/1.1/DTD/svg11.dtd">
<svg xmlns:xlink="http://www.w3.org/1999/xlink" width="638.504062pt" height="386.14675pt" viewBox="0 0 638.504062 386.14675" xmlns="http://www.w3.org/2000/svg" version="1.1">
 <metadata>
  <rdf:RDF xmlns:dc="http://purl.org/dc/elements/1.1/" xmlns:cc="http://creativecommons.org/ns#" xmlns:rdf="http://www.w3.org/1999/02/22-rdf-syntax-ns#">
   <cc:Work>
    <dc:type rdf:resource="http://purl.org/dc/dcmitype/StillImage"/>
    <dc:date>2026-06-05T23:55:17.235551</dc:date>
    <dc:format>image/svg+xml</dc:format>
    <dc:creator>
     <cc:Agent>
      <dc:title>Matplotlib v3.10.3, https://matplotlib.org/</dc:title>
     </cc:Agent>
    </dc:creator>
   </cc:Work>
  </rdf:RDF>
 </metadata>
 <defs>
  <style type="text/css">*{stroke-linejoin: round; stroke-linecap: butt}</style>
 </defs>
 <g id="figure_1">
  <g id="patch_1">
   <path d="M 0 386.14675 
L 638.504062 386.14675 
L 638.504062 0 
L 0 0 
z
" style="fill: #ffffff"/>
  </g>
  <g id="axes_1">
   <g id="patch_2">
    <path d="M 53.644063 352.816687 
L 631.304062 352.816687 
L 631.304062 39.736687 
L 53.644063 39.736687 
z
" style="fill: #ffffff"/>
   </g>
   <g id="patch_3">
    <path d="M 79.901335 352.816687 
L 190.458273 352.816687 
L 190.458273 71.360246 
L 79.901335 71.360246 
z
" clip-path="url(#pdfd53b64e0)" style="fill: #2166ac; opacity: 0.85; stroke: #000000; stroke-linejoin: miter"/>
   </g>
   <g id="patch_4">
    <path d="M 218.097507 352.816687 
L 328.654445 352.816687 
L 328.654445 96.956922 
L 218.097507 96.956922 
z
" clip-path="url(#pdfd53b64e0)" style="fill: #f4a736; opacity: 0.85; stroke: #000000; stroke-linejoin: miter"/>
   </g>
   <g id="patch_5">
    <path d="M 356.29368 352.816687 
L 466.850618 352.816687 
L 466.850618 107.978175 
L 356.29368 107.978175 
z
" clip-path="url(#pdfd53b64e0)" style="fill: #d6604d; opacity: 0.85; stroke: #000000; stroke-linejoin: miter"/>
   </g>
   <g id="patch_6">
    <path d="M 494.489852 352.816687 
L 605.04679 352.816687 
L 605.04679 92.202587 
L 494.489852 92.202587 
z
" clip-path="url(#pdfd53b64e0)" style="fill: #9970ab; opacity: 0.85; stroke: #000000; stroke-linejoin: miter"/>
   </g>
   <g id="matplotlib.axis_1">
    <g id="xtick_1">
     <g id="line2d_1">
      <defs>
       <path id="m78f9dd6a5e" d="M 0 0 
L 0 3.5 
" style="stroke: #000000; stroke-width: 0.8"/>
      </defs>
      <g>
       <use xlink:href="#m78f9dd6a5e" x="135.179804" y="352.816687" style="stroke: #000000; stroke-width: 0.8"/>
      </g>
     </g>
     <g id="text_1">
      <!-- FULL -->
      <g transform="translate(124.283476 366.655281) scale(0.09 -0.09)">
       <defs>
        <path id="DejaVuSans-46" d="M 628 4666 
L 3309 4666 
L 3309 4134 
L 1259 4134 
L 1259 2759 
L 3109 2759 
L 3109 2228 
L 1259 2228 
L 1259 0 
L 628 0 
L 628 4666 
z
" transform="scale(0.015625)"/>
        <path id="DejaVuSans-55" d="M 556 4666 
L 1191 4666 
L 1191 1831 
Q 1191 1081 1462 751 
Q 1734 422 2344 422 
Q 2950 422 3222 751 
Q 3494 1081 3494 1831 
L 3494 4666 
L 4128 4666 
L 4128 1753 
Q 4128 841 3676 375 
Q 3225 -91 2344 -91 
Q 1459 -91 1007 375 
Q 556 841 556 1753 
L 556 4666 
z
" transform="scale(0.015625)"/>
        <path id="DejaVuSans-4c" d="M 628 4666 
L 1259 4666 
L 1259 531 
L 3531 531 
L 3531 0 
L 628 0 
L 628 4666 
z
" transform="scale(0.015625)"/>
       </defs>
       <use xlink:href="#DejaVuSans-46"/>
       <use xlink:href="#DejaVuSans-55" transform="translate(57.519531 0)"/>
       <use xlink:href="#DejaVuSans-4c" transform="translate(130.712891 0)"/>
       <use xlink:href="#DejaVuSans-4c" transform="translate(186.425781 0)"/>
      </g>
      <!-- (no intervention) -->
      <g transform="translate(97.244101 376.733312) scale(0.09 -0.09)">
       <defs>
        <path id="DejaVuSans-28" d="M 1984 4856 
Q 1566 4138 1362 3434 
Q 1159 2731 1159 2009 
Q 1159 1288 1364 580 
Q 1569 -128 1984 -844 
L 1484 -844 
Q 1016 -109 783 600 
Q 550 1309 550 2009 
Q 550 2706 781 3412 
Q 1013 4119 1484 4856 
L 1984 4856 
z
" transform="scale(0.015625)"/>
        <path id="DejaVuSans-6e" d="M 3513 2113 
L 3513 0 
L 2938 0 
L 2938 2094 
Q 2938 2591 2744 2837 
Q 2550 3084 2163 3084 
Q 1697 3084 1428 2787 
Q 1159 2491 1159 1978 
L 1159 0 
L 581 0 
L 581 3500 
L 1159 3500 
L 1159 2956 
Q 1366 3272 1645 3428 
Q 1925 3584 2291 3584 
Q 2894 3584 3203 3211 
Q 3513 2838 3513 2113 
z
" transform="scale(0.015625)"/>
        <path id="DejaVuSans-6f" d="M 1959 3097 
Q 1497 3097 1228 2736 
Q 959 2375 959 1747 
Q 959 1119 1226 758 
Q 1494 397 1959 397 
Q 2419 397 2687 759 
Q 2956 1122 2956 1747 
Q 2956 2369 2687 2733 
Q 2419 3097 1959 3097 
z
M 1959 3584 
Q 2709 3584 3137 3096 
Q 3566 2609 3566 1747 
Q 3566 888 3137 398 
Q 2709 -91 1959 -91 
Q 1206 -91 779 398 
Q 353 888 353 1747 
Q 353 2609 779 3096 
Q 1206 3584 1959 3584 
z
" transform="scale(0.015625)"/>
        <path id="DejaVuSans-20" transform="scale(0.015625)"/>
        <path id="DejaVuSans-69" d="M 603 3500 
L 1178 3500 
L 1178 0 
L 603 0 
L 603 3500 
z
M 603 4863 
L 1178 4863 
L 1178 4134 
L 603 4134 
L 603 4863 
z
" transform="scale(0.015625)"/>
        <path id="DejaVuSans-74" d="M 1172 4494 
L 1172 3500 
L 2356 3500 
L 2356 3053 
L 1172 3053 
L 1172 1153 
Q 1172 725 1289 603 
Q 1406 481 1766 481 
L 2356 481 
L 2356 0 
L 1766 0 
Q 1100 0 847 248 
Q 594 497 594 1153 
L 594 3053 
L 172 3053 
L 172 3500 
L 594 3500 
L 594 4494 
L 1172 4494 
z
" transform="scale(0.015625)"/>
        <path id="DejaVuSans-65" d="M 3597 1894 
L 3597 1613 
L 953 1613 
Q 991 1019 1311 708 
Q 1631 397 2203 397 
Q 2534 397 2845 478 
Q 3156 559 3463 722 
L 3463 178 
Q 3153 47 2828 -22 
Q 2503 -91 2169 -91 
Q 1331 -91 842 396 
Q 353 884 353 1716 
Q 353 2575 817 3079 
Q 1281 3584 2069 3584 
Q 2775 3584 3186 3129 
Q 3597 2675 3597 1894 
z
M 3022 2063 
Q 3016 2534 2758 2815 
Q 2500 3097 2075 3097 
Q 1594 3097 1305 2825 
Q 1016 2553 972 2059 
L 3022 2063 
z
" transform="scale(0.015625)"/>
        <path id="DejaVuSans-72" d="M 2631 2963 
Q 2534 3019 2420 3045 
Q 2306 3072 2169 3072 
Q 1681 3072 1420 2755 
Q 1159 2438 1159 1844 
L 1159 0 
L 581 0 
L 581 3500 
L 1159 3500 
L 1159 2956 
Q 1341 3275 1631 3429 
Q 1922 3584 2338 3584 
Q 2397 3584 2469 3576 
Q 2541 3569 2628 3553 
L 2631 2963 
z
" transform="scale(0.015625)"/>
        <path id="DejaVuSans-76" d="M 191 3500 
L 800 3500 
L 1894 563 
L 2988 3500 
L 3597 3500 
L 2284 0 
L 1503 0 
L 191 3500 
z
" transform="scale(0.015625)"/>
        <path id="DejaVuSans-29" d="M 513 4856 
L 1013 4856 
Q 1481 4119 1714 3412 
Q 1947 2706 1947 2009 
Q 1947 1309 1714 600 
Q 1481 -109 1013 -844 
L 513 -844 
Q 928 -128 1133 580 
Q 1338 1288 1338 2009 
Q 1338 2731 1133 3434 
Q 928 4138 513 4856 
z
" transform="scale(0.015625)"/>
       </defs>
       <use xlink:href="#DejaVuSans-28"/>
       <use xlink:href="#DejaVuSans-6e" transform="translate(39.013672 0)"/>
       <use xlink:href="#DejaVuSans-6f" transform="translate(102.392578 0)"/>
       <use xlink:href="#DejaVuSans-20" transform="translate(163.574219 0)"/>
       <use xlink:href="#DejaVuSans-69" transform="translate(195.361328 0)"/>
       <use xlink:href="#DejaVuSans-6e" transform="translate(223.144531 0)"/>
       <use xlink:href="#DejaVuSans-74" transform="translate(286.523438 0)"/>
       <use xlink:href="#DejaVuSans-65" transform="translate(325.732422 0)"/>
       <use xlink:href="#DejaVuSans-72" transform="translate(387.255859 0)"/>
       <use xlink:href="#DejaVuSans-76" transform="translate(428.369141 0)"/>
       <use xlink:href="#DejaVuSans-65" transform="translate(487.548828 0)"/>
       <use xlink:href="#DejaVuSans-6e" transform="translate(549.072266 0)"/>
       <use xlink:href="#DejaVuSans-74" transform="translate(612.451172 0)"/>
       <use xlink:href="#DejaVuSans-69" transform="translate(651.660156 0)"/>
       <use xlink:href="#DejaVuSans-6f" transform="translate(679.443359 0)"/>
       <use xlink:href="#DejaVuSans-6e" transform="translate(740.625 0)"/>
       <use xlink:href="#DejaVuSans-29" transform="translate(804.003906 0)"/>
      </g>
     </g>
    </g>
    <g id="xtick_2">
     <g id="line2d_2">
      <g>
       <use xlink:href="#m78f9dd6a5e" x="273.375976" y="352.816687" style="stroke: #000000; stroke-width: 0.8"/>
      </g>
     </g>
     <g id="text_2">
      <!-- WCC_FROZEN -->
      <g transform="translate(241.842226 366.496375) scale(0.09 -0.09)">
       <defs>
        <path id="DejaVuSans-57" d="M 213 4666 
L 850 4666 
L 1831 722 
L 2809 4666 
L 3519 4666 
L 4500 722 
L 5478 4666 
L 6119 4666 
L 4947 0 
L 4153 0 
L 3169 4050 
L 2175 0 
L 1381 0 
L 213 4666 
z
" transform="scale(0.015625)"/>
        <path id="DejaVuSans-43" d="M 4122 4306 
L 4122 3641 
Q 3803 3938 3442 4084 
Q 3081 4231 2675 4231 
Q 1875 4231 1450 3742 
Q 1025 3253 1025 2328 
Q 1025 1406 1450 917 
Q 1875 428 2675 428 
Q 3081 428 3442 575 
Q 3803 722 4122 1019 
L 4122 359 
Q 3791 134 3420 21 
Q 3050 -91 2638 -91 
Q 1578 -91 968 557 
Q 359 1206 359 2328 
Q 359 3453 968 4101 
Q 1578 4750 2638 4750 
Q 3056 4750 3426 4639 
Q 3797 4528 4122 4306 
z
" transform="scale(0.015625)"/>
        <path id="DejaVuSans-5f" d="M 3263 -1063 
L 3263 -1509 
L -63 -1509 
L -63 -1063 
L 3263 -1063 
z
" transform="scale(0.015625)"/>
        <path id="DejaVuSans-52" d="M 2841 2188 
Q 3044 2119 3236 1894 
Q 3428 1669 3622 1275 
L 4263 0 
L 3584 0 
L 2988 1197 
Q 2756 1666 2539 1819 
Q 2322 1972 1947 1972 
L 1259 1972 
L 1259 0 
L 628 0 
L 628 4666 
L 2053 4666 
Q 2853 4666 3247 4331 
Q 3641 3997 3641 3322 
Q 3641 2881 3436 2590 
Q 3231 2300 2841 2188 
z
M 1259 4147 
L 1259 2491 
L 2053 2491 
Q 2509 2491 2742 2702 
Q 2975 2913 2975 3322 
Q 2975 3731 2742 3939 
Q 2509 4147 2053 4147 
L 1259 4147 
z
" transform="scale(0.015625)"/>
        <path id="DejaVuSans-4f" d="M 2522 4238 
Q 1834 4238 1429 3725 
Q 1025 3213 1025 2328 
Q 1025 1447 1429 934 
Q 1834 422 2522 422 
Q 3209 422 3611 934 
Q 4013 1447 4013 2328 
Q 4013 3213 3611 3725 
Q 3209 4238 2522 4238 
z
M 2522 4750 
Q 3503 4750 4090 4092 
Q 4678 3434 4678 2328 
Q 4678 1225 4090 567 
Q 3503 -91 2522 -91 
Q 1538 -91 948 565 
Q 359 1222 359 2328 
Q 359 3434 948 4092 
Q 1538 4750 2522 4750 
z
" transform="scale(0.015625)"/>
        <path id="DejaVuSans-5a" d="M 359 4666 
L 4025 4666 
L 4025 4184 
L 1075 531 
L 4097 531 
L 4097 0 
L 288 0 
L 288 481 
L 3238 4134 
L 359 4134 
L 359 4666 
z
" transform="scale(0.015625)"/>
        <path id="DejaVuSans-45" d="M 628 4666 
L 3578 4666 
L 3578 4134 
L 1259 4134 
L 1259 2753 
L 3481 2753 
L 3481 2222 
L 1259 2222 
L 1259 531 
L 3634 531 
L 3634 0 
L 628 0 
L 628 4666 
z
" transform="scale(0.015625)"/>
        <path id="DejaVuSans-4e" d="M 628 4666 
L 1478 4666 
L 3547 763 
L 3547 4666 
L 4159 4666 
L 4159 0 
L 3309 0 
L 1241 3903 
L 1241 0 
L 628 0 
L 628 4666 
z
" transform="scale(0.015625)"/>
       </defs>
       <use xlink:href="#DejaVuSans-57"/>
       <use xlink:href="#DejaVuSans-43" transform="translate(98.876953 0)"/>
       <use xlink:href="#DejaVuSans-43" transform="translate(168.701172 0)"/>
       <use xlink:href="#DejaVuSans-5f" transform="translate(238.525391 0)"/>
       <use xlink:href="#DejaVuSans-46" transform="translate(288.525391 0)"/>
       <use xlink:href="#DejaVuSans-52" transform="translate(346.044922 0)"/>
       <use xlink:href="#DejaVuSans-4f" transform="translate(415.527344 0)"/>
       <use xlink:href="#DejaVuSans-5a" transform="translate(494.238281 0)"/>
       <use xlink:href="#DejaVuSans-45" transform="translate(562.744141 0)"/>
       <use xlink:href="#DejaVuSans-4e" transform="translate(625.927734 0)"/>
      </g>
      <!-- (init values locked) -->
      <g transform="translate(230.70543 376.824719) scale(0.09 -0.09)">
       <defs>
        <path id="DejaVuSans-61" d="M 2194 1759 
Q 1497 1759 1228 1600 
Q 959 1441 959 1056 
Q 959 750 1161 570 
Q 1363 391 1709 391 
Q 2188 391 2477 730 
Q 2766 1069 2766 1631 
L 2766 1759 
L 2194 1759 
z
M 3341 1997 
L 3341 0 
L 2766 0 
L 2766 531 
Q 2569 213 2275 61 
Q 1981 -91 1556 -91 
Q 1019 -91 701 211 
Q 384 513 384 1019 
Q 384 1609 779 1909 
Q 1175 2209 1959 2209 
L 2766 2209 
L 2766 2266 
Q 2766 2663 2505 2880 
Q 2244 3097 1772 3097 
Q 1472 3097 1187 3025 
Q 903 2953 641 2809 
L 641 3341 
Q 956 3463 1253 3523 
Q 1550 3584 1831 3584 
Q 2591 3584 2966 3190 
Q 3341 2797 3341 1997 
z
" transform="scale(0.015625)"/>
        <path id="DejaVuSans-6c" d="M 603 4863 
L 1178 4863 
L 1178 0 
L 603 0 
L 603 4863 
z
" transform="scale(0.015625)"/>
        <path id="DejaVuSans-75" d="M 544 1381 
L 544 3500 
L 1119 3500 
L 1119 1403 
Q 1119 906 1312 657 
Q 1506 409 1894 409 
Q 2359 409 2629 706 
Q 2900 1003 2900 1516 
L 2900 3500 
L 3475 3500 
L 3475 0 
L 2900 0 
L 2900 538 
Q 2691 219 2414 64 
Q 2138 -91 1772 -91 
Q 1169 -91 856 284 
Q 544 659 544 1381 
z
M 1991 3584 
L 1991 3584 
z
" transform="scale(0.015625)"/>
        <path id="DejaVuSans-73" d="M 2834 3397 
L 2834 2853 
Q 2591 2978 2328 3040 
Q 2066 3103 1784 3103 
Q 1356 3103 1142 2972 
Q 928 2841 928 2578 
Q 928 2378 1081 2264 
Q 1234 2150 1697 2047 
L 1894 2003 
Q 2506 1872 2764 1633 
Q 3022 1394 3022 966 
Q 3022 478 2636 193 
Q 2250 -91 1575 -91 
Q 1294 -91 989 -36 
Q 684 19 347 128 
L 347 722 
Q 666 556 975 473 
Q 1284 391 1588 391 
Q 1994 391 2212 530 
Q 2431 669 2431 922 
Q 2431 1156 2273 1281 
Q 2116 1406 1581 1522 
L 1381 1569 
Q 847 1681 609 1914 
Q 372 2147 372 2553 
Q 372 3047 722 3315 
Q 1072 3584 1716 3584 
Q 2034 3584 2315 3537 
Q 2597 3491 2834 3397 
z
" transform="scale(0.015625)"/>
        <path id="DejaVuSans-63" d="M 3122 3366 
L 3122 2828 
Q 2878 2963 2633 3030 
Q 2388 3097 2138 3097 
Q 1578 3097 1268 2742 
Q 959 2388 959 1747 
Q 959 1106 1268 751 
Q 1578 397 2138 397 
Q 2388 397 2633 464 
Q 2878 531 3122 666 
L 3122 134 
Q 2881 22 2623 -34 
Q 2366 -91 2075 -91 
Q 1284 -91 818 406 
Q 353 903 353 1747 
Q 353 2603 823 3093 
Q 1294 3584 2113 3584 
Q 2378 3584 2631 3529 
Q 2884 3475 3122 3366 
z
" transform="scale(0.015625)"/>
        <path id="DejaVuSans-6b" d="M 581 4863 
L 1159 4863 
L 1159 1991 
L 2875 3500 
L 3609 3500 
L 1753 1863 
L 3688 0 
L 2938 0 
L 1159 1709 
L 1159 0 
L 581 0 
L 581 4863 
z
" transform="scale(0.015625)"/>
        <path id="DejaVuSans-64" d="M 2906 2969 
L 2906 4863 
L 3481 4863 
L 3481 0 
L 2906 0 
L 2906 525 
Q 2725 213 2448 61 
Q 2172 -91 1784 -91 
Q 1150 -91 751 415 
Q 353 922 353 1747 
Q 353 2572 751 3078 
Q 1150 3584 1784 3584 
Q 2172 3584 2448 3432 
Q 2725 3281 2906 2969 
z
M 947 1747 
Q 947 1113 1208 752 
Q 1469 391 1925 391 
Q 2381 391 2643 752 
Q 2906 1113 2906 1747 
Q 2906 2381 2643 2742 
Q 2381 3103 1925 3103 
Q 1469 3103 1208 2742 
Q 947 2381 947 1747 
z
" transform="scale(0.015625)"/>
       </defs>
       <use xlink:href="#DejaVuSans-28"/>
       <use xlink:href="#DejaVuSans-69" transform="translate(39.013672 0)"/>
       <use xlink:href="#DejaVuSans-6e" transform="translate(66.796875 0)"/>
       <use xlink:href="#DejaVuSans-69" transform="translate(130.175781 0)"/>
       <use xlink:href="#DejaVuSans-74" transform="translate(157.958984 0)"/>
       <use xlink:href="#DejaVuSans-20" transform="translate(197.167969 0)"/>
       <use xlink:href="#DejaVuSans-76" transform="translate(228.955078 0)"/>
       <use xlink:href="#DejaVuSans-61" transform="translate(288.134766 0)"/>
       <use xlink:href="#DejaVuSans-6c" transform="translate(349.414062 0)"/>
       <use xlink:href="#DejaVuSans-75" transform="translate(377.197266 0)"/>
       <use xlink:href="#DejaVuSans-65" transform="translate(440.576172 0)"/>
       <use xlink:href="#DejaVuSans-73" transform="translate(502.099609 0)"/>
       <use xlink:href="#DejaVuSans-20" transform="translate(554.199219 0)"/>
       <use xlink:href="#DejaVuSans-6c" transform="translate(585.986328 0)"/>
       <use xlink:href="#DejaVuSans-6f" transform="translate(613.769531 0)"/>
       <use xlink:href="#DejaVuSans-63" transform="translate(674.951172 0)"/>
       <use xlink:href="#DejaVuSans-6b" transform="translate(729.931641 0)"/>
       <use xlink:href="#DejaVuSans-65" transform="translate(784.216797 0)"/>
       <use xlink:href="#DejaVuSans-64" transform="translate(845.740234 0)"/>
       <use xlink:href="#DejaVuSans-29" transform="translate(909.216797 0)"/>
      </g>
     </g>
    </g>
    <g id="xtick_3">
     <g id="line2d_3">
      <g>
       <use xlink:href="#m78f9dd6a5e" x="411.572149" y="352.816687" style="stroke: #000000; stroke-width: 0.8"/>
      </g>
     </g>
     <g id="text_3">
      <!-- WCC_CLAMPED -->
      <g transform="translate(376.854649 366.496375) scale(0.09 -0.09)">
       <defs>
        <path id="DejaVuSans-41" d="M 2188 4044 
L 1331 1722 
L 3047 1722 
L 2188 4044 
z
M 1831 4666 
L 2547 4666 
L 4325 0 
L 3669 0 
L 3244 1197 
L 1141 1197 
L 716 0 
L 50 0 
L 1831 4666 
z
" transform="scale(0.015625)"/>
        <path id="DejaVuSans-4d" d="M 628 4666 
L 1569 4666 
L 2759 1491 
L 3956 4666 
L 4897 4666 
L 4897 0 
L 4281 0 
L 4281 4097 
L 3078 897 
L 2444 897 
L 1241 4097 
L 1241 0 
L 628 0 
L 628 4666 
z
" transform="scale(0.015625)"/>
        <path id="DejaVuSans-50" d="M 1259 4147 
L 1259 2394 
L 2053 2394 
Q 2494 2394 2734 2622 
Q 2975 2850 2975 3272 
Q 2975 3691 2734 3919 
Q 2494 4147 2053 4147 
L 1259 4147 
z
M 628 4666 
L 2053 4666 
Q 2838 4666 3239 4311 
Q 3641 3956 3641 3272 
Q 3641 2581 3239 2228 
Q 2838 1875 2053 1875 
L 1259 1875 
L 1259 0 
L 628 0 
L 628 4666 
z
" transform="scale(0.015625)"/>
        <path id="DejaVuSans-44" d="M 1259 4147 
L 1259 519 
L 2022 519 
Q 2988 519 3436 956 
Q 3884 1394 3884 2338 
Q 3884 3275 3436 3711 
Q 2988 4147 2022 4147 
L 1259 4147 
z
M 628 4666 
L 1925 4666 
Q 3281 4666 3915 4102 
Q 4550 3538 4550 2338 
Q 4550 1131 3912 565 
Q 3275 0 1925 0 
L 628 0 
L 628 4666 
z
" transform="scale(0.015625)"/>
       </defs>
       <use xlink:href="#DejaVuSans-57"/>
       <use xlink:href="#DejaVuSans-43" transform="translate(98.876953 0)"/>
       <use xlink:href="#DejaVuSans-43" transform="translate(168.701172 0)"/>
       <use xlink:href="#DejaVuSans-5f" transform="translate(238.525391 0)"/>
       <use xlink:href="#DejaVuSans-43" transform="translate(288.525391 0)"/>
       <use xlink:href="#DejaVuSans-4c" transform="translate(358.349609 0)"/>
       <use xlink:href="#DejaVuSans-41" transform="translate(416.3125 0)"/>
       <use xlink:href="#DejaVuSans-4d" transform="translate(484.720703 0)"/>
       <use xlink:href="#DejaVuSans-50" transform="translate(571 0)"/>
       <use xlink:href="#DejaVuSans-45" transform="translate(631.302734 0)"/>
       <use xlink:href="#DejaVuSans-44" transform="translate(694.486328 0)"/>
      </g>
      <!-- (forced to 0) -->
      <g transform="translate(383.633477 376.824719) scale(0.09 -0.09)">
       <defs>
        <path id="DejaVuSans-66" d="M 2375 4863 
L 2375 4384 
L 1825 4384 
Q 1516 4384 1395 4259 
Q 1275 4134 1275 3809 
L 1275 3500 
L 2222 3500 
L 2222 3053 
L 1275 3053 
L 1275 0 
L 697 0 
L 697 3053 
L 147 3053 
L 147 3500 
L 697 3500 
L 697 3744 
Q 697 4328 969 4595 
Q 1241 4863 1831 4863 
L 2375 4863 
z
" transform="scale(0.015625)"/>
        <path id="DejaVuSans-30" d="M 2034 4250 
Q 1547 4250 1301 3770 
Q 1056 3291 1056 2328 
Q 1056 1369 1301 889 
Q 1547 409 2034 409 
Q 2525 409 2770 889 
Q 3016 1369 3016 2328 
Q 3016 3291 2770 3770 
Q 2525 4250 2034 4250 
z
M 2034 4750 
Q 2819 4750 3233 4129 
Q 3647 3509 3647 2328 
Q 3647 1150 3233 529 
Q 2819 -91 2034 -91 
Q 1250 -91 836 529 
Q 422 1150 422 2328 
Q 422 3509 836 4129 
Q 1250 4750 2034 4750 
z
" transform="scale(0.015625)"/>
       </defs>
       <use xlink:href="#DejaVuSans-28"/>
       <use xlink:href="#DejaVuSans-66" transform="translate(39.013672 0)"/>
       <use xlink:href="#DejaVuSans-6f" transform="translate(74.21875 0)"/>
       <use xlink:href="#DejaVuSans-72" transform="translate(135.400391 0)"/>
       <use xlink:href="#DejaVuSans-63" transform="translate(174.263672 0)"/>
       <use xlink:href="#DejaVuSans-65" transform="translate(229.244141 0)"/>
       <use xlink:href="#DejaVuSans-64" transform="translate(290.767578 0)"/>
       <use xlink:href="#DejaVuSans-20" transform="translate(354.244141 0)"/>
       <use xlink:href="#DejaVuSans-74" transform="translate(386.03125 0)"/>
       <use xlink:href="#DejaVuSans-6f" transform="translate(425.240234 0)"/>
       <use xlink:href="#DejaVuSans-20" transform="translate(486.421875 0)"/>
       <use xlink:href="#DejaVuSans-30" transform="translate(518.208984 0)"/>
       <use xlink:href="#DejaVuSans-29" transform="translate(581.832031 0)"/>
      </g>
     </g>
    </g>
    <g id="xtick_4">
     <g id="line2d_4">
      <g>
       <use xlink:href="#m78f9dd6a5e" x="549.768321" y="352.816687" style="stroke: #000000; stroke-width: 0.8"/>
      </g>
     </g>
     <g id="text_4">
      <!-- WCC_NO_STDP -->
      <g transform="translate(515.841836 366.496375) scale(0.09 -0.09)">
       <defs>
        <path id="DejaVuSans-53" d="M 3425 4513 
L 3425 3897 
Q 3066 4069 2747 4153 
Q 2428 4238 2131 4238 
Q 1616 4238 1336 4038 
Q 1056 3838 1056 3469 
Q 1056 3159 1242 3001 
Q 1428 2844 1947 2747 
L 2328 2669 
Q 3034 2534 3370 2195 
Q 3706 1856 3706 1288 
Q 3706 609 3251 259 
Q 2797 -91 1919 -91 
Q 1588 -91 1214 -16 
Q 841 59 441 206 
L 441 856 
Q 825 641 1194 531 
Q 1563 422 1919 422 
Q 2459 422 2753 634 
Q 3047 847 3047 1241 
Q 3047 1584 2836 1778 
Q 2625 1972 2144 2069 
L 1759 2144 
Q 1053 2284 737 2584 
Q 422 2884 422 3419 
Q 422 4038 858 4394 
Q 1294 4750 2059 4750 
Q 2388 4750 2728 4690 
Q 3069 4631 3425 4513 
z
" transform="scale(0.015625)"/>
        <path id="DejaVuSans-54" d="M -19 4666 
L 3928 4666 
L 3928 4134 
L 2272 4134 
L 2272 0 
L 1638 0 
L 1638 4134 
L -19 4134 
L -19 4666 
z
" transform="scale(0.015625)"/>
       </defs>
       <use xlink:href="#DejaVuSans-57"/>
       <use xlink:href="#DejaVuSans-43" transform="translate(98.876953 0)"/>
       <use xlink:href="#DejaVuSans-43" transform="translate(168.701172 0)"/>
       <use xlink:href="#DejaVuSans-5f" transform="translate(238.525391 0)"/>
       <use xlink:href="#DejaVuSans-4e" transform="translate(288.525391 0)"/>
       <use xlink:href="#DejaVuSans-4f" transform="translate(363.330078 0)"/>
       <use xlink:href="#DejaVuSans-5f" transform="translate(442.041016 0)"/>
       <use xlink:href="#DejaVuSans-53" transform="translate(492.041016 0)"/>
       <use xlink:href="#DejaVuSans-54" transform="translate(555.517578 0)"/>
       <use xlink:href="#DejaVuSans-44" transform="translate(616.601562 0)"/>
       <use xlink:href="#DejaVuSans-50" transform="translate(693.603516 0)"/>
      </g>
      <!-- (plastic_mask=0) -->
      <g transform="translate(510.584571 376.824719) scale(0.09 -0.09)">
       <defs>
        <path id="DejaVuSans-70" d="M 1159 525 
L 1159 -1331 
L 581 -1331 
L 581 3500 
L 1159 3500 
L 1159 2969 
Q 1341 3281 1617 3432 
Q 1894 3584 2278 3584 
Q 2916 3584 3314 3078 
Q 3713 2572 3713 1747 
Q 3713 922 3314 415 
Q 2916 -91 2278 -91 
Q 1894 -91 1617 61 
Q 1341 213 1159 525 
z
M 3116 1747 
Q 3116 2381 2855 2742 
Q 2594 3103 2138 3103 
Q 1681 3103 1420 2742 
Q 1159 2381 1159 1747 
Q 1159 1113 1420 752 
Q 1681 391 2138 391 
Q 2594 391 2855 752 
Q 3116 1113 3116 1747 
z
" transform="scale(0.015625)"/>
        <path id="DejaVuSans-6d" d="M 3328 2828 
Q 3544 3216 3844 3400 
Q 4144 3584 4550 3584 
Q 5097 3584 5394 3201 
Q 5691 2819 5691 2113 
L 5691 0 
L 5113 0 
L 5113 2094 
Q 5113 2597 4934 2840 
Q 4756 3084 4391 3084 
Q 3944 3084 3684 2787 
Q 3425 2491 3425 1978 
L 3425 0 
L 2847 0 
L 2847 2094 
Q 2847 2600 2669 2842 
Q 2491 3084 2119 3084 
Q 1678 3084 1418 2786 
Q 1159 2488 1159 1978 
L 1159 0 
L 581 0 
L 581 3500 
L 1159 3500 
L 1159 2956 
Q 1356 3278 1631 3431 
Q 1906 3584 2284 3584 
Q 2666 3584 2933 3390 
Q 3200 3197 3328 2828 
z
" transform="scale(0.015625)"/>
        <path id="DejaVuSans-3d" d="M 678 2906 
L 4684 2906 
L 4684 2381 
L 678 2381 
L 678 2906 
z
M 678 1631 
L 4684 1631 
L 4684 1100 
L 678 1100 
L 678 1631 
z
" transform="scale(0.015625)"/>
       </defs>
       <use xlink:href="#DejaVuSans-28"/>
       <use xlink:href="#DejaVuSans-70" transform="translate(39.013672 0)"/>
       <use xlink:href="#DejaVuSans-6c" transform="translate(102.490234 0)"/>
       <use xlink:href="#DejaVuSans-61" transform="translate(130.273438 0)"/>
       <use xlink:href="#DejaVuSans-73" transform="translate(191.552734 0)"/>
       <use xlink:href="#DejaVuSans-74" transform="translate(243.652344 0)"/>
       <use xlink:href="#DejaVuSans-69" transform="translate(282.861328 0)"/>
       <use xlink:href="#DejaVuSans-63" transform="translate(310.644531 0)"/>
       <use xlink:href="#DejaVuSans-5f" transform="translate(365.625 0)"/>
       <use xlink:href="#DejaVuSans-6d" transform="translate(415.625 0)"/>
       <use xlink:href="#DejaVuSans-61" transform="translate(513.037109 0)"/>
       <use xlink:href="#DejaVuSans-73" transform="translate(574.316406 0)"/>
       <use xlink:href="#DejaVuSans-6b" transform="translate(626.416016 0)"/>
       <use xlink:href="#DejaVuSans-3d" transform="translate(684.326172 0)"/>
       <use xlink:href="#DejaVuSans-30" transform="translate(768.115234 0)"/>
       <use xlink:href="#DejaVuSans-29" transform="translate(831.738281 0)"/>
      </g>
     </g>
    </g>
   </g>
   <g id="matplotlib.axis_2">
    <g id="ytick_1">
     <g id="line2d_5">
      <path d="M 53.644063 352.816687 
L 631.304062 352.816687 
" clip-path="url(#pdfd53b64e0)" style="fill: none; stroke: #b0b0b0; stroke-opacity: 0.3; stroke-width: 0.8; stroke-linecap: square"/>
     </g>
     <g id="line2d_6">
      <defs>
       <path id="m8d2997bfab" d="M 0 0 
L -3.5 0 
" style="stroke: #000000; stroke-width: 0.8"/>
      </defs>
      <g>
       <use xlink:href="#m8d2997bfab" x="53.644063" y="352.816687" style="stroke: #000000; stroke-width: 0.8"/>
      </g>
     </g>
     <g id="text_5">
      <!-- 0.00 -->
      <g transform="translate(22.151875 356.995828) scale(0.11 -0.11)">
       <defs>
        <path id="DejaVuSans-2e" d="M 684 794 
L 1344 794 
L 1344 0 
L 684 0 
L 684 794 
z
" transform="scale(0.015625)"/>
       </defs>
       <use xlink:href="#DejaVuSans-30"/>
       <use xlink:href="#DejaVuSans-2e" transform="translate(63.623047 0)"/>
       <use xlink:href="#DejaVuSans-30" transform="translate(95.410156 0)"/>
       <use xlink:href="#DejaVuSans-30" transform="translate(159.033203 0)"/>
      </g>
     </g>
    </g>
    <g id="ytick_2">
     <g id="line2d_7">
      <path d="M 53.644063 304.859232 
L 631.304062 304.859232 
" clip-path="url(#pdfd53b64e0)" style="fill: none; stroke: #b0b0b0; stroke-opacity: 0.3; stroke-width: 0.8; stroke-linecap: square"/>
     </g>
     <g id="line2d_8">
      <g>
       <use xlink:href="#m8d2997bfab" x="53.644063" y="304.859232" style="stroke: #000000; stroke-width: 0.8"/>
      </g>
     </g>
     <g id="text_6">
      <!-- 0.05 -->
      <g transform="translate(22.151875 309.038372) scale(0.11 -0.11)">
       <defs>
        <path id="DejaVuSans-35" d="M 691 4666 
L 3169 4666 
L 3169 4134 
L 1269 4134 
L 1269 2991 
Q 1406 3038 1543 3061 
Q 1681 3084 1819 3084 
Q 2600 3084 3056 2656 
Q 3513 2228 3513 1497 
Q 3513 744 3044 326 
Q 2575 -91 1722 -91 
Q 1428 -91 1123 -41 
Q 819 9 494 109 
L 494 744 
Q 775 591 1075 516 
Q 1375 441 1709 441 
Q 2250 441 2565 725 
Q 2881 1009 2881 1497 
Q 2881 1984 2565 2268 
Q 2250 2553 1709 2553 
Q 1456 2553 1204 2497 
Q 953 2441 691 2322 
L 691 4666 
z
" transform="scale(0.015625)"/>
       </defs>
       <use xlink:href="#DejaVuSans-30"/>
       <use xlink:href="#DejaVuSans-2e" transform="translate(63.623047 0)"/>
       <use xlink:href="#DejaVuSans-30" transform="translate(95.410156 0)"/>
       <use xlink:href="#DejaVuSans-35" transform="translate(159.033203 0)"/>
      </g>
     </g>
    </g>
    <g id="ytick_3">
     <g id="line2d_9">
      <path d="M 53.644063 256.901776 
L 631.304062 256.901776 
" clip-path="url(#pdfd53b64e0)" style="fill: none; stroke: #b0b0b0; stroke-opacity: 0.3; stroke-width: 0.8; stroke-linecap: square"/>
     </g>
     <g id="line2d_10">
      <g>
       <use xlink:href="#m8d2997bfab" x="53.644063" y="256.901776" style="stroke: #000000; stroke-width: 0.8"/>
      </g>
     </g>
     <g id="text_7">
      <!-- 0.10 -->
      <g transform="translate(22.151875 261.080917) scale(0.11 -0.11)">
       <defs>
        <path id="DejaVuSans-31" d="M 794 531 
L 1825 531 
L 1825 4091 
L 703 3866 
L 703 4441 
L 1819 4666 
L 2450 4666 
L 2450 531 
L 3481 531 
L 3481 0 
L 794 0 
L 794 531 
z
" transform="scale(0.015625)"/>
       </defs>
       <use xlink:href="#DejaVuSans-30"/>
       <use xlink:href="#DejaVuSans-2e" transform="translate(63.623047 0)"/>
       <use xlink:href="#DejaVuSans-31" transform="translate(95.410156 0)"/>
       <use xlink:href="#DejaVuSans-30" transform="translate(159.033203 0)"/>
      </g>
     </g>
    </g>
    <g id="ytick_4">
     <g id="line2d_11">
      <path d="M 53.644063 208.94432 
L 631.304062 208.94432 
" clip-path="url(#pdfd53b64e0)" style="fill: none; stroke: #b0b0b0; stroke-opacity: 0.3; stroke-width: 0.8; stroke-linecap: square"/>
     </g>
     <g id="line2d_12">
      <g>
       <use xlink:href="#m8d2997bfab" x="53.644063" y="208.94432" style="stroke: #000000; stroke-width: 0.8"/>
      </g>
     </g>
     <g id="text_8">
      <!-- 0.15 -->
      <g transform="translate(22.151875 213.123461) scale(0.11 -0.11)">
       <use xlink:href="#DejaVuSans-30"/>
       <use xlink:href="#DejaVuSans-2e" transform="translate(63.623047 0)"/>
       <use xlink:href="#DejaVuSans-31" transform="translate(95.410156 0)"/>
       <use xlink:href="#DejaVuSans-35" transform="translate(159.033203 0)"/>
      </g>
     </g>
    </g>
    <g id="ytick_5">
     <g id="line2d_13">
      <path d="M 53.644063 160.986864 
L 631.304062 160.986864 
" clip-path="url(#pdfd53b64e0)" style="fill: none; stroke: #b0b0b0; stroke-opacity: 0.3; stroke-width: 0.8; stroke-linecap: square"/>
     </g>
     <g id="line2d_14">
      <g>
       <use xlink:href="#m8d2997bfab" x="53.644063" y="160.986864" style="stroke: #000000; stroke-width: 0.8"/>
      </g>
     </g>
     <g id="text_9">
      <!-- 0.20 -->
      <g transform="translate(22.151875 165.166005) scale(0.11 -0.11)">
       <defs>
        <path id="DejaVuSans-32" d="M 1228 531 
L 3431 531 
L 3431 0 
L 469 0 
L 469 531 
Q 828 903 1448 1529 
Q 2069 2156 2228 2338 
Q 2531 2678 2651 2914 
Q 2772 3150 2772 3378 
Q 2772 3750 2511 3984 
Q 2250 4219 1831 4219 
Q 1534 4219 1204 4116 
Q 875 4013 500 3803 
L 500 4441 
Q 881 4594 1212 4672 
Q 1544 4750 1819 4750 
Q 2544 4750 2975 4387 
Q 3406 4025 3406 3419 
Q 3406 3131 3298 2873 
Q 3191 2616 2906 2266 
Q 2828 2175 2409 1742 
Q 1991 1309 1228 531 
z
" transform="scale(0.015625)"/>
       </defs>
       <use xlink:href="#DejaVuSans-30"/>
       <use xlink:href="#DejaVuSans-2e" transform="translate(63.623047 0)"/>
       <use xlink:href="#DejaVuSans-32" transform="translate(95.410156 0)"/>
       <use xlink:href="#DejaVuSans-30" transform="translate(159.033203 0)"/>
      </g>
     </g>
    </g>
    <g id="ytick_6">
     <g id="line2d_15">
      <path d="M 53.644063 113.029409 
L 631.304062 113.029409 
" clip-path="url(#pdfd53b64e0)" style="fill: none; stroke: #b0b0b0; stroke-opacity: 0.3; stroke-width: 0.8; stroke-linecap: square"/>
     </g>
     <g id="line2d_16">
      <g>
       <use xlink:href="#m8d2997bfab" x="53.644063" y="113.029409" style="stroke: #000000; stroke-width: 0.8"/>
      </g>
     </g>
     <g id="text_10">
      <!-- 0.25 -->
      <g transform="translate(22.151875 117.208549) scale(0.11 -0.11)">
       <use xlink:href="#DejaVuSans-30"/>
       <use xlink:href="#DejaVuSans-2e" transform="translate(63.623047 0)"/>
       <use xlink:href="#DejaVuSans-32" transform="translate(95.410156 0)"/>
       <use xlink:href="#DejaVuSans-35" transform="translate(159.033203 0)"/>
      </g>
     </g>
    </g>
    <g id="ytick_7">
     <g id="line2d_17">
      <path d="M 53.644063 65.071953 
L 631.304062 65.071953 
" clip-path="url(#pdfd53b64e0)" style="fill: none; stroke: #b0b0b0; stroke-opacity: 0.3; stroke-width: 0.8; stroke-linecap: square"/>
     </g>
     <g id="line2d_18">
      <g>
       <use xlink:href="#m8d2997bfab" x="53.644063" y="65.071953" style="stroke: #000000; stroke-width: 0.8"/>
      </g>
     </g>
     <g id="text_11">
      <!-- 0.30 -->
      <g transform="translate(22.151875 69.251094) scale(0.11 -0.11)">
       <defs>
        <path id="DejaVuSans-33" d="M 2597 2516 
Q 3050 2419 3304 2112 
Q 3559 1806 3559 1356 
Q 3559 666 3084 287 
Q 2609 -91 1734 -91 
Q 1441 -91 1130 -33 
Q 819 25 488 141 
L 488 750 
Q 750 597 1062 519 
Q 1375 441 1716 441 
Q 2309 441 2620 675 
Q 2931 909 2931 1356 
Q 2931 1769 2642 2001 
Q 2353 2234 1838 2234 
L 1294 2234 
L 1294 2753 
L 1863 2753 
Q 2328 2753 2575 2939 
Q 2822 3125 2822 3475 
Q 2822 3834 2567 4026 
Q 2313 4219 1838 4219 
Q 1578 4219 1281 4162 
Q 984 4106 628 3988 
L 628 4550 
Q 988 4650 1302 4700 
Q 1616 4750 1894 4750 
Q 2613 4750 3031 4423 
Q 3450 4097 3450 3541 
Q 3450 3153 3228 2886 
Q 3006 2619 2597 2516 
z
" transform="scale(0.015625)"/>
       </defs>
       <use xlink:href="#DejaVuSans-30"/>
       <use xlink:href="#DejaVuSans-2e" transform="translate(63.623047 0)"/>
       <use xlink:href="#DejaVuSans-33" transform="translate(95.410156 0)"/>
       <use xlink:href="#DejaVuSans-30" transform="translate(159.033203 0)"/>
      </g>
     </g>
    </g>
    <g id="text_12">
     <!-- Retention (isyn_score mean) -->
     <g transform="translate(15.558281 284.835281) rotate(-90) scale(0.11 -0.11)">
      <defs>
       <path id="DejaVuSans-Bold-52" d="M 2297 2597 
Q 2675 2597 2839 2737 
Q 3003 2878 3003 3200 
Q 3003 3519 2839 3656 
Q 2675 3794 2297 3794 
L 1791 3794 
L 1791 2597 
L 2297 2597 
z
M 1791 1766 
L 1791 0 
L 588 0 
L 588 4666 
L 2425 4666 
Q 3347 4666 3776 4356 
Q 4206 4047 4206 3378 
Q 4206 2916 3982 2619 
Q 3759 2322 3309 2181 
Q 3556 2125 3751 1926 
Q 3947 1728 4147 1325 
L 4800 0 
L 3519 0 
L 2950 1159 
Q 2778 1509 2601 1637 
Q 2425 1766 2131 1766 
L 1791 1766 
z
" transform="scale(0.015625)"/>
       <path id="DejaVuSans-Bold-65" d="M 4031 1759 
L 4031 1441 
L 1416 1441 
Q 1456 1047 1700 850 
Q 1944 653 2381 653 
Q 2734 653 3104 758 
Q 3475 863 3866 1075 
L 3866 213 
Q 3469 63 3072 -14 
Q 2675 -91 2278 -91 
Q 1328 -91 801 392 
Q 275 875 275 1747 
Q 275 2603 792 3093 
Q 1309 3584 2216 3584 
Q 3041 3584 3536 3087 
Q 4031 2591 4031 1759 
z
M 2881 2131 
Q 2881 2450 2695 2645 
Q 2509 2841 2209 2841 
Q 1884 2841 1681 2658 
Q 1478 2475 1428 2131 
L 2881 2131 
z
" transform="scale(0.015625)"/>
       <path id="DejaVuSans-Bold-74" d="M 1759 4494 
L 1759 3500 
L 2913 3500 
L 2913 2700 
L 1759 2700 
L 1759 1216 
Q 1759 972 1856 886 
Q 1953 800 2241 800 
L 2816 800 
L 2816 0 
L 1856 0 
Q 1194 0 917 276 
Q 641 553 641 1216 
L 641 2700 
L 84 2700 
L 84 3500 
L 641 3500 
L 641 4494 
L 1759 4494 
z
" transform="scale(0.015625)"/>
       <path id="DejaVuSans-Bold-6e" d="M 4056 2131 
L 4056 0 
L 2931 0 
L 2931 347 
L 2931 1631 
Q 2931 2084 2911 2256 
Q 2891 2428 2841 2509 
Q 2775 2619 2662 2680 
Q 2550 2741 2406 2741 
Q 2056 2741 1856 2470 
Q 1656 2200 1656 1722 
L 1656 0 
L 538 0 
L 538 3500 
L 1656 3500 
L 1656 2988 
Q 1909 3294 2193 3439 
Q 2478 3584 2822 3584 
Q 3428 3584 3742 3212 
Q 4056 2841 4056 2131 
z
" transform="scale(0.015625)"/>
       <path id="DejaVuSans-Bold-69" d="M 538 3500 
L 1656 3500 
L 1656 0 
L 538 0 
L 538 3500 
z
M 538 4863 
L 1656 4863 
L 1656 3950 
L 538 3950 
L 538 4863 
z
" transform="scale(0.015625)"/>
       <path id="DejaVuSans-Bold-6f" d="M 2203 2784 
Q 1831 2784 1636 2517 
Q 1441 2250 1441 1747 
Q 1441 1244 1636 976 
Q 1831 709 2203 709 
Q 2569 709 2762 976 
Q 2956 1244 2956 1747 
Q 2956 2250 2762 2517 
Q 2569 2784 2203 2784 
z
M 2203 3584 
Q 3106 3584 3614 3096 
Q 4122 2609 4122 1747 
Q 4122 884 3614 396 
Q 3106 -91 2203 -91 
Q 1297 -91 786 396 
Q 275 884 275 1747 
Q 275 2609 786 3096 
Q 1297 3584 2203 3584 
z
" transform="scale(0.015625)"/>
       <path id="DejaVuSans-Bold-20" transform="scale(0.015625)"/>
       <path id="DejaVuSans-Bold-28" d="M 2413 -844 
L 1484 -844 
Q 1006 -72 778 623 
Q 550 1319 550 2003 
Q 550 2688 779 3389 
Q 1009 4091 1484 4856 
L 2413 4856 
Q 2013 4116 1813 3408 
Q 1613 2700 1613 2009 
Q 1613 1319 1811 609 
Q 2009 -100 2413 -844 
z
" transform="scale(0.015625)"/>
       <path id="DejaVuSans-Bold-73" d="M 3272 3391 
L 3272 2541 
Q 2913 2691 2578 2766 
Q 2244 2841 1947 2841 
Q 1628 2841 1473 2761 
Q 1319 2681 1319 2516 
Q 1319 2381 1436 2309 
Q 1553 2238 1856 2203 
L 2053 2175 
Q 2913 2066 3209 1816 
Q 3506 1566 3506 1031 
Q 3506 472 3093 190 
Q 2681 -91 1863 -91 
Q 1516 -91 1145 -36 
Q 775 19 384 128 
L 384 978 
Q 719 816 1070 734 
Q 1422 653 1784 653 
Q 2113 653 2278 743 
Q 2444 834 2444 1013 
Q 2444 1163 2330 1236 
Q 2216 1309 1875 1350 
L 1678 1375 
Q 931 1469 631 1722 
Q 331 1975 331 2491 
Q 331 3047 712 3315 
Q 1094 3584 1881 3584 
Q 2191 3584 2531 3537 
Q 2872 3491 3272 3391 
z
" transform="scale(0.015625)"/>
       <path id="DejaVuSans-Bold-79" d="M 78 3500 
L 1197 3500 
L 2138 1125 
L 2938 3500 
L 4056 3500 
L 2584 -331 
Q 2363 -916 2067 -1148 
Q 1772 -1381 1288 -1381 
L 641 -1381 
L 641 -647 
L 991 -647 
Q 1275 -647 1404 -556 
Q 1534 -466 1606 -231 
L 1638 -134 
L 78 3500 
z
" transform="scale(0.015625)"/>
       <path id="DejaVuSans-Bold-5f" d="M 3200 -916 
L 3200 -1509 
L 0 -1509 
L 0 -916 
L 3200 -916 
z
" transform="scale(0.015625)"/>
       <path id="DejaVuSans-Bold-63" d="M 3366 3391 
L 3366 2478 
Q 3138 2634 2908 2709 
Q 2678 2784 2431 2784 
Q 1963 2784 1702 2511 
Q 1441 2238 1441 1747 
Q 1441 1256 1702 982 
Q 1963 709 2431 709 
Q 2694 709 2930 787 
Q 3166 866 3366 1019 
L 3366 103 
Q 3103 6 2833 -42 
Q 2563 -91 2291 -91 
Q 1344 -91 809 395 
Q 275 881 275 1747 
Q 275 2613 809 3098 
Q 1344 3584 2291 3584 
Q 2566 3584 2833 3536 
Q 3100 3488 3366 3391 
z
" transform="scale(0.015625)"/>
       <path id="DejaVuSans-Bold-72" d="M 3138 2547 
Q 2991 2616 2845 2648 
Q 2700 2681 2553 2681 
Q 2122 2681 1889 2404 
Q 1656 2128 1656 1613 
L 1656 0 
L 538 0 
L 538 3500 
L 1656 3500 
L 1656 2925 
Q 1872 3269 2151 3426 
Q 2431 3584 2822 3584 
Q 2878 3584 2943 3579 
Q 3009 3575 3134 3559 
L 3138 2547 
z
" transform="scale(0.015625)"/>
       <path id="DejaVuSans-Bold-6d" d="M 3781 2919 
Q 3994 3244 4286 3414 
Q 4578 3584 4928 3584 
Q 5531 3584 5847 3212 
Q 6163 2841 6163 2131 
L 6163 0 
L 5038 0 
L 5038 1825 
Q 5041 1866 5042 1909 
Q 5044 1953 5044 2034 
Q 5044 2406 4934 2573 
Q 4825 2741 4581 2741 
Q 4263 2741 4089 2478 
Q 3916 2216 3909 1719 
L 3909 0 
L 2784 0 
L 2784 1825 
Q 2784 2406 2684 2573 
Q 2584 2741 2328 2741 
Q 2006 2741 1831 2477 
Q 1656 2213 1656 1722 
L 1656 0 
L 531 0 
L 531 3500 
L 1656 3500 
L 1656 2988 
Q 1863 3284 2130 3434 
Q 2397 3584 2719 3584 
Q 3081 3584 3359 3409 
Q 3638 3234 3781 2919 
z
" transform="scale(0.015625)"/>
       <path id="DejaVuSans-Bold-61" d="M 2106 1575 
Q 1756 1575 1579 1456 
Q 1403 1338 1403 1106 
Q 1403 894 1545 773 
Q 1688 653 1941 653 
Q 2256 653 2472 879 
Q 2688 1106 2688 1447 
L 2688 1575 
L 2106 1575 
z
M 3816 1997 
L 3816 0 
L 2688 0 
L 2688 519 
Q 2463 200 2181 54 
Q 1900 -91 1497 -91 
Q 953 -91 614 226 
Q 275 544 275 1050 
Q 275 1666 698 1953 
Q 1122 2241 2028 2241 
L 2688 2241 
L 2688 2328 
Q 2688 2594 2478 2717 
Q 2269 2841 1825 2841 
Q 1466 2841 1156 2769 
Q 847 2697 581 2553 
L 581 3406 
Q 941 3494 1303 3539 
Q 1666 3584 2028 3584 
Q 2975 3584 3395 3211 
Q 3816 2838 3816 1997 
z
" transform="scale(0.015625)"/>
       <path id="DejaVuSans-Bold-29" d="M 513 -844 
Q 913 -100 1113 609 
Q 1313 1319 1313 2009 
Q 1313 2700 1113 3408 
Q 913 4116 513 4856 
L 1441 4856 
Q 1916 4091 2145 3389 
Q 2375 2688 2375 2003 
Q 2375 1319 2147 623 
Q 1919 -72 1441 -844 
L 513 -844 
z
" transform="scale(0.015625)"/>
      </defs>
      <use xlink:href="#DejaVuSans-Bold-52"/>
      <use xlink:href="#DejaVuSans-Bold-65" transform="translate(77.001953 0)"/>
      <use xlink:href="#DejaVuSans-Bold-74" transform="translate(144.824219 0)"/>
      <use xlink:href="#DejaVuSans-Bold-65" transform="translate(192.626953 0)"/>
      <use xlink:href="#DejaVuSans-Bold-6e" transform="translate(260.449219 0)"/>
      <use xlink:href="#DejaVuSans-Bold-74" transform="translate(331.640625 0)"/>
      <use xlink:href="#DejaVuSans-Bold-69" transform="translate(379.443359 0)"/>
      <use xlink:href="#DejaVuSans-Bold-6f" transform="translate(413.720703 0)"/>
      <use xlink:href="#DejaVuSans-Bold-6e" transform="translate(482.421875 0)"/>
      <use xlink:href="#DejaVuSans-Bold-20" transform="translate(553.613281 0)"/>
      <use xlink:href="#DejaVuSans-Bold-28" transform="translate(588.427734 0)"/>
      <use xlink:href="#DejaVuSans-Bold-69" transform="translate(634.130859 0)"/>
      <use xlink:href="#DejaVuSans-Bold-73" transform="translate(668.408203 0)"/>
      <use xlink:href="#DejaVuSans-Bold-79" transform="translate(727.929688 0)"/>
      <use xlink:href="#DejaVuSans-Bold-6e" transform="translate(793.115234 0)"/>
      <use xlink:href="#DejaVuSans-Bold-5f" transform="translate(864.306641 0)"/>
      <use xlink:href="#DejaVuSans-Bold-73" transform="translate(914.306641 0)"/>
      <use xlink:href="#DejaVuSans-Bold-63" transform="translate(973.828125 0)"/>
      <use xlink:href="#DejaVuSans-Bold-6f" transform="translate(1033.105469 0)"/>
      <use xlink:href="#DejaVuSans-Bold-72" transform="translate(1101.806641 0)"/>
      <use xlink:href="#DejaVuSans-Bold-65" transform="translate(1151.123047 0)"/>
      <use xlink:href="#DejaVuSans-Bold-20" transform="translate(1218.945312 0)"/>
      <use xlink:href="#DejaVuSans-Bold-6d" transform="translate(1253.759766 0)"/>
      <use xlink:href="#DejaVuSans-Bold-65" transform="translate(1357.958984 0)"/>
      <use xlink:href="#DejaVuSans-Bold-61" transform="translate(1425.78125 0)"/>
      <use xlink:href="#DejaVuSans-Bold-6e" transform="translate(1493.261719 0)"/>
      <use xlink:href="#DejaVuSans-Bold-29" transform="translate(1564.453125 0)"/>
     </g>
    </g>
   </g>
   <g id="LineCollection_1">
    <path d="M 135.179804 88.075233 
L 135.179804 54.645259 
" clip-path="url(#pdfd53b64e0)" style="fill: none; stroke: #000000; stroke-width: 1.5"/>
   </g>
   <g id="line2d_19">
    <defs>
     <path id="m533c1d364f" d="M 6 0 
L -6 -0 
" style="stroke: #000000"/>
    </defs>
    <g clip-path="url(#pdfd53b64e0)">
     <use xlink:href="#m533c1d364f" x="135.179804" y="88.075233" style="stroke: #000000"/>
    </g>
   </g>
   <g id="line2d_20">
    <g clip-path="url(#pdfd53b64e0)">
     <use xlink:href="#m533c1d364f" x="135.179804" y="54.645259" style="stroke: #000000"/>
    </g>
   </g>
   <g id="LineCollection_2">
    <path d="M 273.375976 104.728702 
L 273.375976 89.185141 
" clip-path="url(#pdfd53b64e0)" style="fill: none; stroke: #000000; stroke-width: 1.5"/>
   </g>
   <g id="line2d_21">
    <g clip-path="url(#pdfd53b64e0)">
     <use xlink:href="#m533c1d364f" x="273.375976" y="104.728702" style="stroke: #000000"/>
    </g>
   </g>
   <g id="line2d_22">
    <g clip-path="url(#pdfd53b64e0)">
     <use xlink:href="#m533c1d364f" x="273.375976" y="89.185141" style="stroke: #000000"/>
    </g>
   </g>
   <g id="LineCollection_3">
    <path d="M 411.572149 119.627689 
L 411.572149 96.328661 
" clip-path="url(#pdfd53b64e0)" style="fill: none; stroke: #000000; stroke-width: 1.5"/>
   </g>
   <g id="line2d_23">
    <g clip-path="url(#pdfd53b64e0)">
     <use xlink:href="#m533c1d364f" x="411.572149" y="119.627689" style="stroke: #000000"/>
    </g>
   </g>
   <g id="line2d_24">
    <g clip-path="url(#pdfd53b64e0)">
     <use xlink:href="#m533c1d364f" x="411.572149" y="96.328661" style="stroke: #000000"/>
    </g>
   </g>
   <g id="LineCollection_4">
    <path d="M 549.768321 105.536796 
L 549.768321 78.868377 
" clip-path="url(#pdfd53b64e0)" style="fill: none; stroke: #000000; stroke-width: 1.5"/>
   </g>
   <g id="line2d_25">
    <g clip-path="url(#pdfd53b64e0)">
     <use xlink:href="#m533c1d364f" x="549.768321" y="105.536796" style="stroke: #000000"/>
    </g>
   </g>
   <g id="line2d_26">
    <g clip-path="url(#pdfd53b64e0)">
     <use xlink:href="#m533c1d364f" x="549.768321" y="78.868377" style="stroke: #000000"/>
    </g>
   </g>
   <g id="line2d_27">
    <path d="M 53.644063 352.816687 
L 631.304062 352.816687 
" clip-path="url(#pdfd53b64e0)" style="fill: none; stroke-dasharray: 0.5,0.825; stroke-dashoffset: 0; stroke: #808080; stroke-width: 0.5"/>
   </g>
   <g id="patch_7">
    <path d="M 53.644063 352.816687 
L 53.644063 39.736687 
" style="fill: none; stroke: #000000; stroke-width: 0.8; stroke-linejoin: miter; stroke-linecap: square"/>
   </g>
   <g id="patch_8">
    <path d="M 53.644063 352.816687 
L 631.304063 352.816687 
" style="fill: none; stroke: #000000; stroke-width: 0.8; stroke-linejoin: miter; stroke-linecap: square"/>
   </g>
   <g id="text_13">
    <!-- Fig 1 — Retention by condition -->
    <g transform="translate(229.686875 17.077969) scale(0.13 -0.13)">
     <defs>
      <path id="DejaVuSans-Bold-46" d="M 588 4666 
L 3834 4666 
L 3834 3756 
L 1791 3756 
L 1791 2888 
L 3713 2888 
L 3713 1978 
L 1791 1978 
L 1791 0 
L 588 0 
L 588 4666 
z
" transform="scale(0.015625)"/>
      <path id="DejaVuSans-Bold-67" d="M 2919 594 
Q 2688 288 2409 144 
Q 2131 0 1766 0 
Q 1125 0 706 504 
Q 288 1009 288 1791 
Q 288 2575 706 3076 
Q 1125 3578 1766 3578 
Q 2131 3578 2409 3434 
Q 2688 3291 2919 2981 
L 2919 3500 
L 4044 3500 
L 4044 353 
Q 4044 -491 3511 -936 
Q 2978 -1381 1966 -1381 
Q 1638 -1381 1331 -1331 
Q 1025 -1281 716 -1178 
L 716 -306 
Q 1009 -475 1290 -558 
Q 1572 -641 1856 -641 
Q 2406 -641 2662 -400 
Q 2919 -159 2919 353 
L 2919 594 
z
M 2181 2772 
Q 1834 2772 1640 2515 
Q 1447 2259 1447 1791 
Q 1447 1309 1634 1061 
Q 1822 813 2181 813 
Q 2531 813 2725 1069 
Q 2919 1325 2919 1791 
Q 2919 2259 2725 2515 
Q 2531 2772 2181 2772 
z
" transform="scale(0.015625)"/>
      <path id="DejaVuSans-Bold-31" d="M 750 831 
L 1813 831 
L 1813 3847 
L 722 3622 
L 722 4441 
L 1806 4666 
L 2950 4666 
L 2950 831 
L 4013 831 
L 4013 0 
L 750 0 
L 750 831 
z
" transform="scale(0.015625)"/>
      <path id="DejaVuSans-Bold-2014" d="M 344 2156 
L 6056 2156 
L 6056 1350 
L 344 1350 
L 344 2156 
z
" transform="scale(0.015625)"/>
      <path id="DejaVuSans-Bold-62" d="M 2400 722 
Q 2759 722 2948 984 
Q 3138 1247 3138 1747 
Q 3138 2247 2948 2509 
Q 2759 2772 2400 2772 
Q 2041 2772 1848 2508 
Q 1656 2244 1656 1747 
Q 1656 1250 1848 986 
Q 2041 722 2400 722 
z
M 1656 2988 
Q 1888 3294 2169 3439 
Q 2450 3584 2816 3584 
Q 3463 3584 3878 3070 
Q 4294 2556 4294 1747 
Q 4294 938 3878 423 
Q 3463 -91 2816 -91 
Q 2450 -91 2169 54 
Q 1888 200 1656 506 
L 1656 0 
L 538 0 
L 538 4863 
L 1656 4863 
L 1656 2988 
z
" transform="scale(0.015625)"/>
      <path id="DejaVuSans-Bold-64" d="M 2919 2988 
L 2919 4863 
L 4044 4863 
L 4044 0 
L 2919 0 
L 2919 506 
Q 2688 197 2409 53 
Q 2131 -91 1766 -91 
Q 1119 -91 703 423 
Q 288 938 288 1747 
Q 288 2556 703 3070 
Q 1119 3584 1766 3584 
Q 2128 3584 2408 3439 
Q 2688 3294 2919 2988 
z
M 2181 722 
Q 2541 722 2730 984 
Q 2919 1247 2919 1747 
Q 2919 2247 2730 2509 
Q 2541 2772 2181 2772 
Q 1825 2772 1636 2509 
Q 1447 2247 1447 1747 
Q 1447 1247 1636 984 
Q 1825 722 2181 722 
z
" transform="scale(0.015625)"/>
     </defs>
     <use xlink:href="#DejaVuSans-Bold-46"/>
     <use xlink:href="#DejaVuSans-Bold-69" transform="translate(68.310547 0)"/>
     <use xlink:href="#DejaVuSans-Bold-67" transform="translate(102.587891 0)"/>
     <use xlink:href="#DejaVuSans-Bold-20" transform="translate(174.169922 0)"/>
     <use xlink:href="#DejaVuSans-Bold-31" transform="translate(208.984375 0)"/>
     <use xlink:href="#DejaVuSans-Bold-20" transform="translate(278.564453 0)"/>
     <use xlink:href="#DejaVuSans-Bold-2014" transform="translate(313.378906 0)"/>
     <use xlink:href="#DejaVuSans-Bold-20" transform="translate(413.378906 0)"/>
     <use xlink:href="#DejaVuSans-Bold-52" transform="translate(448.193359 0)"/>
     <use xlink:href="#DejaVuSans-Bold-65" transform="translate(525.195312 0)"/>
     <use xlink:href="#DejaVuSans-Bold-74" transform="translate(593.017578 0)"/>
     <use xlink:href="#DejaVuSans-Bold-65" transform="translate(640.820312 0)"/>
     <use xlink:href="#DejaVuSans-Bold-6e" transform="translate(708.642578 0)"/>
     <use xlink:href="#DejaVuSans-Bold-74" transform="translate(779.833984 0)"/>
     <use xlink:href="#DejaVuSans-Bold-69" transform="translate(827.636719 0)"/>
     <use xlink:href="#DejaVuSans-Bold-6f" transform="translate(861.914062 0)"/>
     <use xlink:href="#DejaVuSans-Bold-6e" transform="translate(930.615234 0)"/>
     <use xlink:href="#DejaVuSans-Bold-20" transform="translate(1001.806641 0)"/>
     <use xlink:href="#DejaVuSans-Bold-62" transform="translate(1036.621094 0)"/>
     <use xlink:href="#DejaVuSans-Bold-79" transform="translate(1108.203125 0)"/>
     <use xlink:href="#DejaVuSans-Bold-20" transform="translate(1173.388672 0)"/>
     <use xlink:href="#DejaVuSans-Bold-63" transform="translate(1208.203125 0)"/>
     <use xlink:href="#DejaVuSans-Bold-6f" transform="translate(1267.480469 0)"/>
     <use xlink:href="#DejaVuSans-Bold-6e" transform="translate(1336.181641 0)"/>
     <use xlink:href="#DejaVuSans-Bold-64" transform="translate(1407.373047 0)"/>
     <use xlink:href="#DejaVuSans-Bold-69" transform="translate(1478.955078 0)"/>
     <use xlink:href="#DejaVuSans-Bold-74" transform="translate(1513.232422 0)"/>
     <use xlink:href="#DejaVuSans-Bold-69" transform="translate(1561.035156 0)"/>
     <use xlink:href="#DejaVuSans-Bold-6f" transform="translate(1595.3125 0)"/>
     <use xlink:href="#DejaVuSans-Bold-6e" transform="translate(1664.013672 0)"/>
    </g>
    <!-- Formation-time Wcc intervention (n=2 seeds per condition) -->
    <g transform="translate(123.823203 31.736687) scale(0.13 -0.13)">
     <defs>
      <path id="DejaVuSans-Bold-2d" d="M 347 2297 
L 2309 2297 
L 2309 1388 
L 347 1388 
L 347 2297 
z
" transform="scale(0.015625)"/>
      <path id="DejaVuSans-Bold-57" d="M 191 4666 
L 1344 4666 
L 2150 1275 
L 2950 4666 
L 4109 4666 
L 4909 1275 
L 5716 4666 
L 6859 4666 
L 5759 0 
L 4372 0 
L 3525 3547 
L 2688 0 
L 1300 0 
L 191 4666 
z
" transform="scale(0.015625)"/>
      <path id="DejaVuSans-Bold-76" d="M 97 3500 
L 1216 3500 
L 2088 1081 
L 2956 3500 
L 4078 3500 
L 2700 0 
L 1472 0 
L 97 3500 
z
" transform="scale(0.015625)"/>
      <path id="DejaVuSans-Bold-3d" d="M 678 3084 
L 4684 3084 
L 4684 2350 
L 678 2350 
L 678 3084 
z
M 678 1663 
L 4684 1663 
L 4684 922 
L 678 922 
L 678 1663 
z
" transform="scale(0.015625)"/>
      <path id="DejaVuSans-Bold-32" d="M 1844 884 
L 3897 884 
L 3897 0 
L 506 0 
L 506 884 
L 2209 2388 
Q 2438 2594 2547 2791 
Q 2656 2988 2656 3200 
Q 2656 3528 2436 3728 
Q 2216 3928 1850 3928 
Q 1569 3928 1234 3808 
Q 900 3688 519 3450 
L 519 4475 
Q 925 4609 1322 4679 
Q 1719 4750 2100 4750 
Q 2938 4750 3402 4381 
Q 3866 4013 3866 3353 
Q 3866 2972 3669 2642 
Q 3472 2313 2841 1759 
L 1844 884 
z
" transform="scale(0.015625)"/>
      <path id="DejaVuSans-Bold-70" d="M 1656 506 
L 1656 -1331 
L 538 -1331 
L 538 3500 
L 1656 3500 
L 1656 2988 
Q 1888 3294 2169 3439 
Q 2450 3584 2816 3584 
Q 3463 3584 3878 3070 
Q 4294 2556 4294 1747 
Q 4294 938 3878 423 
Q 3463 -91 2816 -91 
Q 2450 -91 2169 54 
Q 1888 200 1656 506 
z
M 2400 2772 
Q 2041 2772 1848 2508 
Q 1656 2244 1656 1747 
Q 1656 1250 1848 986 
Q 2041 722 2400 722 
Q 2759 722 2948 984 
Q 3138 1247 3138 1747 
Q 3138 2247 2948 2509 
Q 2759 2772 2400 2772 
z
" transform="scale(0.015625)"/>
     </defs>
     <use xlink:href="#DejaVuSans-Bold-46"/>
     <use xlink:href="#DejaVuSans-Bold-6f" transform="translate(64.310547 0)"/>
     <use xlink:href="#DejaVuSans-Bold-72" transform="translate(133.011719 0)"/>
     <use xlink:href="#DejaVuSans-Bold-6d" transform="translate(182.328125 0)"/>
     <use xlink:href="#DejaVuSans-Bold-61" transform="translate(286.527344 0)"/>
     <use xlink:href="#DejaVuSans-Bold-74" transform="translate(354.007812 0)"/>
     <use xlink:href="#DejaVuSans-Bold-69" transform="translate(401.810547 0)"/>
     <use xlink:href="#DejaVuSans-Bold-6f" transform="translate(436.087891 0)"/>
     <use xlink:href="#DejaVuSans-Bold-6e" transform="translate(504.789062 0)"/>
     <use xlink:href="#DejaVuSans-Bold-2d" transform="translate(575.980469 0)"/>
     <use xlink:href="#DejaVuSans-Bold-74" transform="translate(617.484375 0)"/>
     <use xlink:href="#DejaVuSans-Bold-69" transform="translate(665.287109 0)"/>
     <use xlink:href="#DejaVuSans-Bold-6d" transform="translate(699.564453 0)"/>
     <use xlink:href="#DejaVuSans-Bold-65" transform="translate(803.763672 0)"/>
     <use xlink:href="#DejaVuSans-Bold-20" transform="translate(871.585938 0)"/>
     <use xlink:href="#DejaVuSans-Bold-57" transform="translate(906.400391 0)"/>
     <use xlink:href="#DejaVuSans-Bold-63" transform="translate(1016.703125 0)"/>
     <use xlink:href="#DejaVuSans-Bold-63" transform="translate(1075.980469 0)"/>
     <use xlink:href="#DejaVuSans-Bold-20" transform="translate(1135.257812 0)"/>
     <use xlink:href="#DejaVuSans-Bold-69" transform="translate(1170.072266 0)"/>
     <use xlink:href="#DejaVuSans-Bold-6e" transform="translate(1204.349609 0)"/>
     <use xlink:href="#DejaVuSans-Bold-74" transform="translate(1275.541016 0)"/>
     <use xlink:href="#DejaVuSans-Bold-65" transform="translate(1323.34375 0)"/>
     <use xlink:href="#DejaVuSans-Bold-72" transform="translate(1391.166016 0)"/>
     <use xlink:href="#DejaVuSans-Bold-76" transform="translate(1440.482422 0)"/>
     <use xlink:href="#DejaVuSans-Bold-65" transform="translate(1505.667969 0)"/>
     <use xlink:href="#DejaVuSans-Bold-6e" transform="translate(1573.490234 0)"/>
     <use xlink:href="#DejaVuSans-Bold-74" transform="translate(1644.681641 0)"/>
     <use xlink:href="#DejaVuSans-Bold-69" transform="translate(1692.484375 0)"/>
     <use xlink:href="#DejaVuSans-Bold-6f" transform="translate(1726.761719 0)"/>
     <use xlink:href="#DejaVuSans-Bold-6e" transform="translate(1795.462891 0)"/>
     <use xlink:href="#DejaVuSans-Bold-20" transform="translate(1866.654297 0)"/>
     <use xlink:href="#DejaVuSans-Bold-28" transform="translate(1901.46875 0)"/>
     <use xlink:href="#DejaVuSans-Bold-6e" transform="translate(1947.171875 0)"/>
     <use xlink:href="#DejaVuSans-Bold-3d" transform="translate(2018.363281 0)"/>
     <use xlink:href="#DejaVuSans-Bold-32" transform="translate(2102.152344 0)"/>
     <use xlink:href="#DejaVuSans-Bold-20" transform="translate(2171.732422 0)"/>
     <use xlink:href="#DejaVuSans-Bold-73" transform="translate(2206.546875 0)"/>
     <use xlink:href="#DejaVuSans-Bold-65" transform="translate(2266.068359 0)"/>
     <use xlink:href="#DejaVuSans-Bold-65" transform="translate(2333.890625 0)"/>
     <use xlink:href="#DejaVuSans-Bold-64" transform="translate(2401.712891 0)"/>
     <use xlink:href="#DejaVuSans-Bold-73" transform="translate(2473.294922 0)"/>
     <use xlink:href="#DejaVuSans-Bold-20" transform="translate(2532.816406 0)"/>
     <use xlink:href="#DejaVuSans-Bold-70" transform="translate(2567.630859 0)"/>
     <use xlink:href="#DejaVuSans-Bold-65" transform="translate(2639.212891 0)"/>
     <use xlink:href="#DejaVuSans-Bold-72" transform="translate(2707.035156 0)"/>
     <use xlink:href="#DejaVuSans-Bold-20" transform="translate(2756.351562 0)"/>
     <use xlink:href="#DejaVuSans-Bold-63" transform="translate(2791.166016 0)"/>
     <use xlink:href="#DejaVuSans-Bold-6f" transform="translate(2850.443359 0)"/>
     <use xlink:href="#DejaVuSans-Bold-6e" transform="translate(2919.144531 0)"/>
     <use xlink:href="#DejaVuSans-Bold-64" transform="translate(2990.335938 0)"/>
     <use xlink:href="#DejaVuSans-Bold-69" transform="translate(3061.917969 0)"/>
     <use xlink:href="#DejaVuSans-Bold-74" transform="translate(3096.195312 0)"/>
     <use xlink:href="#DejaVuSans-Bold-69" transform="translate(3143.998047 0)"/>
     <use xlink:href="#DejaVuSans-Bold-6f" transform="translate(3178.275391 0)"/>
     <use xlink:href="#DejaVuSans-Bold-6e" transform="translate(3246.976562 0)"/>
     <use xlink:href="#DejaVuSans-Bold-29" transform="translate(3318.167969 0)"/>
    </g>
   </g>
   <g id="PathCollection_1">
    <defs>
     <path id="m9d3ad27dfa" d="M 0 3.162278 
C 0.838646 3.162278 1.643056 2.82908 2.236068 2.236068 
C 2.82908 1.643056 3.162278 0.838646 3.162278 0 
C 3.162278 -0.838646 2.82908 -1.643056 2.236068 -2.236068 
C 1.643056 -2.82908 0.838646 -3.162278 0 -3.162278 
C -0.838646 -3.162278 -1.643056 -2.82908 -2.236068 -2.236068 
C -2.82908 -1.643056 -3.162278 -0.838646 -3.162278 0 
C -3.162278 0.838646 -2.82908 1.643056 -2.236068 2.236068 
C -1.643056 2.82908 -0.838646 3.162278 0 3.162278 
z
" style="stroke: #ffffff; stroke-opacity: 0.7; stroke-width: 0.6"/>
    </defs>
    <g clip-path="url(#pdfd53b64e0)">
     <use xlink:href="#m9d3ad27dfa" x="140.479527" y="59.540965" style="fill-opacity: 0.7; stroke: #ffffff; stroke-opacity: 0.7; stroke-width: 0.6"/>
     <use xlink:href="#m9d3ad27dfa" x="126.271718" y="83.179526" style="fill-opacity: 0.7; stroke: #ffffff; stroke-opacity: 0.7; stroke-width: 0.6"/>
    </g>
   </g>
   <g id="PathCollection_2">
    <g clip-path="url(#pdfd53b64e0)">
     <use xlink:href="#m9d3ad27dfa" x="255.61398" y="91.461443" style="fill-opacity: 0.7; stroke: #ffffff; stroke-opacity: 0.7; stroke-width: 0.6"/>
     <use xlink:href="#m9d3ad27dfa" x="254.668048" y="102.4524" style="fill-opacity: 0.7; stroke: #ffffff; stroke-opacity: 0.7; stroke-width: 0.6"/>
    </g>
   </g>
   <g id="PathCollection_3">
    <g clip-path="url(#pdfd53b64e0)">
     <use xlink:href="#m9d3ad27dfa" x="423.694118" y="99.740725" style="fill-opacity: 0.7; stroke: #ffffff; stroke-opacity: 0.7; stroke-width: 0.6"/>
     <use xlink:href="#m9d3ad27dfa" x="427.543696" y="116.215625" style="fill-opacity: 0.7; stroke: #ffffff; stroke-opacity: 0.7; stroke-width: 0.6"/>
    </g>
   </g>
   <g id="PathCollection_4">
    <g clip-path="url(#pdfd53b64e0)">
     <use xlink:href="#m9d3ad27dfa" x="553.894585" y="82.773877" style="fill-opacity: 0.7; stroke: #ffffff; stroke-opacity: 0.7; stroke-width: 0.6"/>
     <use xlink:href="#m9d3ad27dfa" x="558.648674" y="101.631297" style="fill-opacity: 0.7; stroke: #ffffff; stroke-opacity: 0.7; stroke-width: 0.6"/>
    </g>
   </g>
  </g>
 </g>
 <defs>
  <clipPath id="pdfd53b64e0">
   <rect x="53.644063" y="39.736687" width="577.66" height="313.08"/>
  </clipPath>
 </defs>
</svg>
