<?xml version="1.0" encoding="utf-8" standalone="no"?>
<!DOCTYPE svg PUBLIC "-//W3C//DTD SVG 1.1//EN"
  "http://www.w3.org/Graphics/SVG/1.1/DTD/svg11.dtd">
<svg xmlns:xlink="http://www.w3.org/1999/xlink" width="566.685937pt" height="386.617656pt" viewBox="0 0 566.685937 386.617656" xmlns="http://www.w3.org/2000/svg" version="1.1">
 <metadata>
  <rdf:RDF xmlns:dc="http://purl.org/dc/elements/1.1/" xmlns:cc="http://creativecommons.org/ns#" xmlns:rdf="http://www.w3.org/1999/02/22-rdf-syntax-ns#">
   <cc:Work>
    <dc:type rdf:resource="http://purl.org/dc/dcmitype/StillImage"/>
    <dc:date>2026-06-05T07:44:03.000840</dc:date>
    <dc:format>image/svg+xml</dc:format>
    <dc:creator>
     <cc:Agent>
      <dc:title>Matplotlib v3.10.3, https://matplotlib.org/</dc:title>
     </cc:Agent>
    </dc:creator>
   </cc:Work>
  </rdf:RDF>
 </metadata>
 <defs>
  <style type="text/css">*{stroke-linejoin: round; stroke-linecap: butt}</style>
 </defs>
 <g id="figure_1">
  <g id="patch_1">
   <path d="M 0 386.617656 
L 566.685937 386.617656 
L 566.685937 0 
L 0 0 
z
" style="fill: #ffffff"/>
  </g>
  <g id="axes_1">
   <g id="patch_2">
    <path d="M 54.305938 362.637969 
L 559.485937 362.637969 
L 559.485937 23.077969 
L 54.305938 23.077969 
z
" style="fill: #ffffff"/>
   </g>
   <g id="patch_3">
    <path d="M 77.268665 362.637969 
L 173.953832 362.637969 
L 173.953832 60.764559 
L 77.268665 60.764559 
z
" clip-path="url(#pff3486f17c)" style="fill: #2166ac; opacity: 0.85; stroke: #000000; stroke-linejoin: miter"/>
   </g>
   <g id="patch_4">
    <path d="M 198.125124 362.637969 
L 294.810292 362.637969 
L 294.810292 68.730097 
L 198.125124 68.730097 
z
" clip-path="url(#pff3486f17c)" style="fill: #5aae61; opacity: 0.85; stroke: #000000; stroke-linejoin: miter"/>
   </g>
   <g id="patch_5">
    <path d="M 318.981583 362.637969 
L 415.666751 362.637969 
L 415.666751 323.193259 
L 318.981583 323.193259 
z
" clip-path="url(#pff3486f17c)" style="fill: #d6604d; opacity: 0.85; stroke: #000000; stroke-linejoin: miter"/>
   </g>
   <g id="patch_6">
    <path d="M 439.838043 362.637969 
L 536.52321 362.637969 
L 536.52321 323.193259 
L 439.838043 323.193259 
z
" clip-path="url(#pff3486f17c)" style="fill: #b2182b; opacity: 0.85; stroke: #000000; stroke-linejoin: miter"/>
   </g>
   <g id="matplotlib.axis_1">
    <g id="xtick_1">
     <g id="line2d_1">
      <defs>
       <path id="m7df4bc19bd" d="M 0 0 
L 0 3.5 
" style="stroke: #000000; stroke-width: 0.8"/>
      </defs>
      <g>
       <use xlink:href="#m7df4bc19bd" x="125.611249" y="362.637969" style="stroke: #000000; stroke-width: 0.8"/>
      </g>
     </g>
     <g id="text_1">
      <!-- FULL -->
      <g transform="translate(113.504217 377.236406) scale(0.1 -0.1)">
       <defs>
        <path id="DejaVuSans-46" d="M 628 4666 
L 3309 4666 
L 3309 4134 
L 1259 4134 
L 1259 2759 
L 3109 2759 
L 3109 2228 
L 1259 2228 
L 1259 0 
L 628 0 
L 628 4666 
z
" transform="scale(0.015625)"/>
        <path id="DejaVuSans-55" d="M 556 4666 
L 1191 4666 
L 1191 1831 
Q 1191 1081 1462 751 
Q 1734 422 2344 422 
Q 2950 422 3222 751 
Q 3494 1081 3494 1831 
L 3494 4666 
L 4128 4666 
L 4128 1753 
Q 4128 841 3676 375 
Q 3225 -91 2344 -91 
Q 1459 -91 1007 375 
Q 556 841 556 1753 
L 556 4666 
z
" transform="scale(0.015625)"/>
        <path id="DejaVuSans-4c" d="M 628 4666 
L 1259 4666 
L 1259 531 
L 3531 531 
L 3531 0 
L 628 0 
L 628 4666 
z
" transform="scale(0.015625)"/>
       </defs>
       <use xlink:href="#DejaVuSans-46"/>
       <use xlink:href="#DejaVuSans-55" transform="translate(57.519531 0)"/>
       <use xlink:href="#DejaVuSans-4c" transform="translate(130.712891 0)"/>
       <use xlink:href="#DejaVuSans-4c" transform="translate(186.425781 0)"/>
      </g>
     </g>
    </g>
    <g id="xtick_2">
     <g id="line2d_2">
      <g>
       <use xlink:href="#m7df4bc19bd" x="246.467708" y="362.637969" style="stroke: #000000; stroke-width: 0.8"/>
      </g>
     </g>
     <g id="text_2">
      <!-- FULL_NO_MB -->
      <g transform="translate(213.939583 377.059844) scale(0.1 -0.1)">
       <defs>
        <path id="DejaVuSans-5f" d="M 3263 -1063 
L 3263 -1509 
L -63 -1509 
L -63 -1063 
L 3263 -1063 
z
" transform="scale(0.015625)"/>
        <path id="DejaVuSans-4e" d="M 628 4666 
L 1478 4666 
L 3547 763 
L 3547 4666 
L 4159 4666 
L 4159 0 
L 3309 0 
L 1241 3903 
L 1241 0 
L 628 0 
L 628 4666 
z
" transform="scale(0.015625)"/>
        <path id="DejaVuSans-4f" d="M 2522 4238 
Q 1834 4238 1429 3725 
Q 1025 3213 1025 2328 
Q 1025 1447 1429 934 
Q 1834 422 2522 422 
Q 3209 422 3611 934 
Q 4013 1447 4013 2328 
Q 4013 3213 3611 3725 
Q 3209 4238 2522 4238 
z
M 2522 4750 
Q 3503 4750 4090 4092 
Q 4678 3434 4678 2328 
Q 4678 1225 4090 567 
Q 3503 -91 2522 -91 
Q 1538 -91 948 565 
Q 359 1222 359 2328 
Q 359 3434 948 4092 
Q 1538 4750 2522 4750 
z
" transform="scale(0.015625)"/>
        <path id="DejaVuSans-4d" d="M 628 4666 
L 1569 4666 
L 2759 1491 
L 3956 4666 
L 4897 4666 
L 4897 0 
L 4281 0 
L 4281 4097 
L 3078 897 
L 2444 897 
L 1241 4097 
L 1241 0 
L 628 0 
L 628 4666 
z
" transform="scale(0.015625)"/>
        <path id="DejaVuSans-42" d="M 1259 2228 
L 1259 519 
L 2272 519 
Q 2781 519 3026 730 
Q 3272 941 3272 1375 
Q 3272 1813 3026 2020 
Q 2781 2228 2272 2228 
L 1259 2228 
z
M 1259 4147 
L 1259 2741 
L 2194 2741 
Q 2656 2741 2882 2914 
Q 3109 3088 3109 3444 
Q 3109 3797 2882 3972 
Q 2656 4147 2194 4147 
L 1259 4147 
z
M 628 4666 
L 2241 4666 
Q 2963 4666 3353 4366 
Q 3744 4066 3744 3513 
Q 3744 3084 3544 2831 
Q 3344 2578 2956 2516 
Q 3422 2416 3680 2098 
Q 3938 1781 3938 1306 
Q 3938 681 3513 340 
Q 3088 0 2303 0 
L 628 0 
L 628 4666 
z
" transform="scale(0.015625)"/>
       </defs>
       <use xlink:href="#DejaVuSans-46"/>
       <use xlink:href="#DejaVuSans-55" transform="translate(57.519531 0)"/>
       <use xlink:href="#DejaVuSans-4c" transform="translate(130.712891 0)"/>
       <use xlink:href="#DejaVuSans-4c" transform="translate(186.425781 0)"/>
       <use xlink:href="#DejaVuSans-5f" transform="translate(242.138672 0)"/>
       <use xlink:href="#DejaVuSans-4e" transform="translate(292.138672 0)"/>
       <use xlink:href="#DejaVuSans-4f" transform="translate(366.943359 0)"/>
       <use xlink:href="#DejaVuSans-5f" transform="translate(445.654297 0)"/>
       <use xlink:href="#DejaVuSans-4d" transform="translate(495.654297 0)"/>
       <use xlink:href="#DejaVuSans-42" transform="translate(581.933594 0)"/>
      </g>
     </g>
    </g>
    <g id="xtick_3">
     <g id="line2d_3">
      <g>
       <use xlink:href="#m7df4bc19bd" x="367.324167" y="362.637969" style="stroke: #000000; stroke-width: 0.8"/>
      </g>
     </g>
     <g id="text_3">
      <!-- NO_REPLAY -->
      <g transform="translate(338.514011 377.059844) scale(0.1 -0.1)">
       <defs>
        <path id="DejaVuSans-52" d="M 2841 2188 
Q 3044 2119 3236 1894 
Q 3428 1669 3622 1275 
L 4263 0 
L 3584 0 
L 2988 1197 
Q 2756 1666 2539 1819 
Q 2322 1972 1947 1972 
L 1259 1972 
L 1259 0 
L 628 0 
L 628 4666 
L 2053 4666 
Q 2853 4666 3247 4331 
Q 3641 3997 3641 3322 
Q 3641 2881 3436 2590 
Q 3231 2300 2841 2188 
z
M 1259 4147 
L 1259 2491 
L 2053 2491 
Q 2509 2491 2742 2702 
Q 2975 2913 2975 3322 
Q 2975 3731 2742 3939 
Q 2509 4147 2053 4147 
L 1259 4147 
z
" transform="scale(0.015625)"/>
        <path id="DejaVuSans-45" d="M 628 4666 
L 3578 4666 
L 3578 4134 
L 1259 4134 
L 1259 2753 
L 3481 2753 
L 3481 2222 
L 1259 2222 
L 1259 531 
L 3634 531 
L 3634 0 
L 628 0 
L 628 4666 
z
" transform="scale(0.015625)"/>
        <path id="DejaVuSans-50" d="M 1259 4147 
L 1259 2394 
L 2053 2394 
Q 2494 2394 2734 2622 
Q 2975 2850 2975 3272 
Q 2975 3691 2734 3919 
Q 2494 4147 2053 4147 
L 1259 4147 
z
M 628 4666 
L 2053 4666 
Q 2838 4666 3239 4311 
Q 3641 3956 3641 3272 
Q 3641 2581 3239 2228 
Q 2838 1875 2053 1875 
L 1259 1875 
L 1259 0 
L 628 0 
L 628 4666 
z
" transform="scale(0.015625)"/>
        <path id="DejaVuSans-41" d="M 2188 4044 
L 1331 1722 
L 3047 1722 
L 2188 4044 
z
M 1831 4666 
L 2547 4666 
L 4325 0 
L 3669 0 
L 3244 1197 
L 1141 1197 
L 716 0 
L 50 0 
L 1831 4666 
z
" transform="scale(0.015625)"/>
        <path id="DejaVuSans-59" d="M -13 4666 
L 666 4666 
L 1959 2747 
L 3244 4666 
L 3922 4666 
L 2272 2222 
L 2272 0 
L 1638 0 
L 1638 2222 
L -13 4666 
z
" transform="scale(0.015625)"/>
       </defs>
       <use xlink:href="#DejaVuSans-4e"/>
       <use xlink:href="#DejaVuSans-4f" transform="translate(74.804688 0)"/>
       <use xlink:href="#DejaVuSans-5f" transform="translate(153.515625 0)"/>
       <use xlink:href="#DejaVuSans-52" transform="translate(203.515625 0)"/>
       <use xlink:href="#DejaVuSans-45" transform="translate(272.998047 0)"/>
       <use xlink:href="#DejaVuSans-50" transform="translate(336.181641 0)"/>
       <use xlink:href="#DejaVuSans-4c" transform="translate(396.484375 0)"/>
       <use xlink:href="#DejaVuSans-41" transform="translate(454.447266 0)"/>
       <use xlink:href="#DejaVuSans-59" transform="translate(515.105469 0)"/>
      </g>
     </g>
    </g>
    <g id="xtick_4">
     <g id="line2d_4">
      <g>
       <use xlink:href="#m7df4bc19bd" x="488.180626" y="362.637969" style="stroke: #000000; stroke-width: 0.8"/>
      </g>
     </g>
     <g id="text_4">
      <!-- NO_REPLAY_NO_MB -->
      <g transform="translate(438.949376 377.059844) scale(0.1 -0.1)">
       <use xlink:href="#DejaVuSans-4e"/>
       <use xlink:href="#DejaVuSans-4f" transform="translate(74.804688 0)"/>
       <use xlink:href="#DejaVuSans-5f" transform="translate(153.515625 0)"/>
       <use xlink:href="#DejaVuSans-52" transform="translate(203.515625 0)"/>
       <use xlink:href="#DejaVuSans-45" transform="translate(272.998047 0)"/>
       <use xlink:href="#DejaVuSans-50" transform="translate(336.181641 0)"/>
       <use xlink:href="#DejaVuSans-4c" transform="translate(396.484375 0)"/>
       <use xlink:href="#DejaVuSans-41" transform="translate(454.447266 0)"/>
       <use xlink:href="#DejaVuSans-59" transform="translate(515.105469 0)"/>
       <use xlink:href="#DejaVuSans-5f" transform="translate(576.189453 0)"/>
       <use xlink:href="#DejaVuSans-4e" transform="translate(626.189453 0)"/>
       <use xlink:href="#DejaVuSans-4f" transform="translate(700.994141 0)"/>
       <use xlink:href="#DejaVuSans-5f" transform="translate(779.705078 0)"/>
       <use xlink:href="#DejaVuSans-4d" transform="translate(829.705078 0)"/>
       <use xlink:href="#DejaVuSans-42" transform="translate(915.984375 0)"/>
      </g>
     </g>
    </g>
   </g>
   <g id="matplotlib.axis_2">
    <g id="ytick_1">
     <g id="line2d_5">
      <path d="M 54.305938 362.637969 
L 559.485937 362.637969 
" clip-path="url(#pff3486f17c)" style="fill: none; stroke: #b0b0b0; stroke-opacity: 0.3; stroke-width: 0.8; stroke-linecap: square"/>
     </g>
     <g id="line2d_6">
      <defs>
       <path id="m4b9535a5fd" d="M 0 0 
L -3.5 0 
" style="stroke: #000000; stroke-width: 0.8"/>
      </defs>
      <g>
       <use xlink:href="#m4b9535a5fd" x="54.305938" y="362.637969" style="stroke: #000000; stroke-width: 0.8"/>
      </g>
     </g>
     <g id="text_5">
      <!-- 0.00 -->
      <g transform="translate(22.81375 366.817109) scale(0.11 -0.11)">
       <defs>
        <path id="DejaVuSans-30" d="M 2034 4250 
Q 1547 4250 1301 3770 
Q 1056 3291 1056 2328 
Q 1056 1369 1301 889 
Q 1547 409 2034 409 
Q 2525 409 2770 889 
Q 3016 1369 3016 2328 
Q 3016 3291 2770 3770 
Q 2525 4250 2034 4250 
z
M 2034 4750 
Q 2819 4750 3233 4129 
Q 3647 3509 3647 2328 
Q 3647 1150 3233 529 
Q 2819 -91 2034 -91 
Q 1250 -91 836 529 
Q 422 1150 422 2328 
Q 422 3509 836 4129 
Q 1250 4750 2034 4750 
z
" transform="scale(0.015625)"/>
        <path id="DejaVuSans-2e" d="M 684 794 
L 1344 794 
L 1344 0 
L 684 0 
L 684 794 
z
" transform="scale(0.015625)"/>
       </defs>
       <use xlink:href="#DejaVuSans-30"/>
       <use xlink:href="#DejaVuSans-2e" transform="translate(63.623047 0)"/>
       <use xlink:href="#DejaVuSans-30" transform="translate(95.410156 0)"/>
       <use xlink:href="#DejaVuSans-30" transform="translate(159.033203 0)"/>
      </g>
     </g>
    </g>
    <g id="ytick_2">
     <g id="line2d_7">
      <path d="M 54.305938 309.862926 
L 559.485937 309.862926 
" clip-path="url(#pff3486f17c)" style="fill: none; stroke: #b0b0b0; stroke-opacity: 0.3; stroke-width: 0.8; stroke-linecap: square"/>
     </g>
     <g id="line2d_8">
      <g>
       <use xlink:href="#m4b9535a5fd" x="54.305938" y="309.862926" style="stroke: #000000; stroke-width: 0.8"/>
      </g>
     </g>
     <g id="text_6">
      <!-- 0.05 -->
      <g transform="translate(22.81375 314.042067) scale(0.11 -0.11)">
       <defs>
        <path id="DejaVuSans-35" d="M 691 4666 
L 3169 4666 
L 3169 4134 
L 1269 4134 
L 1269 2991 
Q 1406 3038 1543 3061 
Q 1681 3084 1819 3084 
Q 2600 3084 3056 2656 
Q 3513 2228 3513 1497 
Q 3513 744 3044 326 
Q 2575 -91 1722 -91 
Q 1428 -91 1123 -41 
Q 819 9 494 109 
L 494 744 
Q 775 591 1075 516 
Q 1375 441 1709 441 
Q 2250 441 2565 725 
Q 2881 1009 2881 1497 
Q 2881 1984 2565 2268 
Q 2250 2553 1709 2553 
Q 1456 2553 1204 2497 
Q 953 2441 691 2322 
L 691 4666 
z
" transform="scale(0.015625)"/>
       </defs>
       <use xlink:href="#DejaVuSans-30"/>
       <use xlink:href="#DejaVuSans-2e" transform="translate(63.623047 0)"/>
       <use xlink:href="#DejaVuSans-30" transform="translate(95.410156 0)"/>
       <use xlink:href="#DejaVuSans-35" transform="translate(159.033203 0)"/>
      </g>
     </g>
    </g>
    <g id="ytick_3">
     <g id="line2d_9">
      <path d="M 54.305938 257.087884 
L 559.485937 257.087884 
" clip-path="url(#pff3486f17c)" style="fill: none; stroke: #b0b0b0; stroke-opacity: 0.3; stroke-width: 0.8; stroke-linecap: square"/>
     </g>
     <g id="line2d_10">
      <g>
       <use xlink:href="#m4b9535a5fd" x="54.305938" y="257.087884" style="stroke: #000000; stroke-width: 0.8"/>
      </g>
     </g>
     <g id="text_7">
      <!-- 0.10 -->
      <g transform="translate(22.81375 261.267024) scale(0.11 -0.11)">
       <defs>
        <path id="DejaVuSans-31" d="M 794 531 
L 1825 531 
L 1825 4091 
L 703 3866 
L 703 4441 
L 1819 4666 
L 2450 4666 
L 2450 531 
L 3481 531 
L 3481 0 
L 794 0 
L 794 531 
z
" transform="scale(0.015625)"/>
       </defs>
       <use xlink:href="#DejaVuSans-30"/>
       <use xlink:href="#DejaVuSans-2e" transform="translate(63.623047 0)"/>
       <use xlink:href="#DejaVuSans-31" transform="translate(95.410156 0)"/>
       <use xlink:href="#DejaVuSans-30" transform="translate(159.033203 0)"/>
      </g>
     </g>
    </g>
    <g id="ytick_4">
     <g id="line2d_11">
      <path d="M 54.305938 204.312841 
L 559.485937 204.312841 
" clip-path="url(#pff3486f17c)" style="fill: none; stroke: #b0b0b0; stroke-opacity: 0.3; stroke-width: 0.8; stroke-linecap: square"/>
     </g>
     <g id="line2d_12">
      <g>
       <use xlink:href="#m4b9535a5fd" x="54.305938" y="204.312841" style="stroke: #000000; stroke-width: 0.8"/>
      </g>
     </g>
     <g id="text_8">
      <!-- 0.15 -->
      <g transform="translate(22.81375 208.491982) scale(0.11 -0.11)">
       <use xlink:href="#DejaVuSans-30"/>
       <use xlink:href="#DejaVuSans-2e" transform="translate(63.623047 0)"/>
       <use xlink:href="#DejaVuSans-31" transform="translate(95.410156 0)"/>
       <use xlink:href="#DejaVuSans-35" transform="translate(159.033203 0)"/>
      </g>
     </g>
    </g>
    <g id="ytick_5">
     <g id="line2d_13">
      <path d="M 54.305938 151.537799 
L 559.485937 151.537799 
" clip-path="url(#pff3486f17c)" style="fill: none; stroke: #b0b0b0; stroke-opacity: 0.3; stroke-width: 0.8; stroke-linecap: square"/>
     </g>
     <g id="line2d_14">
      <g>
       <use xlink:href="#m4b9535a5fd" x="54.305938" y="151.537799" style="stroke: #000000; stroke-width: 0.8"/>
      </g>
     </g>
     <g id="text_9">
      <!-- 0.20 -->
      <g transform="translate(22.81375 155.71694) scale(0.11 -0.11)">
       <defs>
        <path id="DejaVuSans-32" d="M 1228 531 
L 3431 531 
L 3431 0 
L 469 0 
L 469 531 
Q 828 903 1448 1529 
Q 2069 2156 2228 2338 
Q 2531 2678 2651 2914 
Q 2772 3150 2772 3378 
Q 2772 3750 2511 3984 
Q 2250 4219 1831 4219 
Q 1534 4219 1204 4116 
Q 875 4013 500 3803 
L 500 4441 
Q 881 4594 1212 4672 
Q 1544 4750 1819 4750 
Q 2544 4750 2975 4387 
Q 3406 4025 3406 3419 
Q 3406 3131 3298 2873 
Q 3191 2616 2906 2266 
Q 2828 2175 2409 1742 
Q 1991 1309 1228 531 
z
" transform="scale(0.015625)"/>
       </defs>
       <use xlink:href="#DejaVuSans-30"/>
       <use xlink:href="#DejaVuSans-2e" transform="translate(63.623047 0)"/>
       <use xlink:href="#DejaVuSans-32" transform="translate(95.410156 0)"/>
       <use xlink:href="#DejaVuSans-30" transform="translate(159.033203 0)"/>
      </g>
     </g>
    </g>
    <g id="ytick_6">
     <g id="line2d_15">
      <path d="M 54.305938 98.762756 
L 559.485937 98.762756 
" clip-path="url(#pff3486f17c)" style="fill: none; stroke: #b0b0b0; stroke-opacity: 0.3; stroke-width: 0.8; stroke-linecap: square"/>
     </g>
     <g id="line2d_16">
      <g>
       <use xlink:href="#m4b9535a5fd" x="54.305938" y="98.762756" style="stroke: #000000; stroke-width: 0.8"/>
      </g>
     </g>
     <g id="text_10">
      <!-- 0.25 -->
      <g transform="translate(22.81375 102.941897) scale(0.11 -0.11)">
       <use xlink:href="#DejaVuSans-30"/>
       <use xlink:href="#DejaVuSans-2e" transform="translate(63.623047 0)"/>
       <use xlink:href="#DejaVuSans-32" transform="translate(95.410156 0)"/>
       <use xlink:href="#DejaVuSans-35" transform="translate(159.033203 0)"/>
      </g>
     </g>
    </g>
    <g id="ytick_7">
     <g id="line2d_17">
      <path d="M 54.305938 45.987714 
L 559.485937 45.987714 
" clip-path="url(#pff3486f17c)" style="fill: none; stroke: #b0b0b0; stroke-opacity: 0.3; stroke-width: 0.8; stroke-linecap: square"/>
     </g>
     <g id="line2d_18">
      <g>
       <use xlink:href="#m4b9535a5fd" x="54.305938" y="45.987714" style="stroke: #000000; stroke-width: 0.8"/>
      </g>
     </g>
     <g id="text_11">
      <!-- 0.30 -->
      <g transform="translate(22.81375 50.166855) scale(0.11 -0.11)">
       <defs>
        <path id="DejaVuSans-33" d="M 2597 2516 
Q 3050 2419 3304 2112 
Q 3559 1806 3559 1356 
Q 3559 666 3084 287 
Q 2609 -91 1734 -91 
Q 1441 -91 1130 -33 
Q 819 25 488 141 
L 488 750 
Q 750 597 1062 519 
Q 1375 441 1716 441 
Q 2309 441 2620 675 
Q 2931 909 2931 1356 
Q 2931 1769 2642 2001 
Q 2353 2234 1838 2234 
L 1294 2234 
L 1294 2753 
L 1863 2753 
Q 2328 2753 2575 2939 
Q 2822 3125 2822 3475 
Q 2822 3834 2567 4026 
Q 2313 4219 1838 4219 
Q 1578 4219 1281 4162 
Q 984 4106 628 3988 
L 628 4550 
Q 988 4650 1302 4700 
Q 1616 4750 1894 4750 
Q 2613 4750 3031 4423 
Q 3450 4097 3450 3541 
Q 3450 3153 3228 2886 
Q 3006 2619 2597 2516 
z
" transform="scale(0.015625)"/>
       </defs>
       <use xlink:href="#DejaVuSans-30"/>
       <use xlink:href="#DejaVuSans-2e" transform="translate(63.623047 0)"/>
       <use xlink:href="#DejaVuSans-33" transform="translate(95.410156 0)"/>
       <use xlink:href="#DejaVuSans-30" transform="translate(159.033203 0)"/>
      </g>
     </g>
    </g>
    <g id="text_12">
     <!-- Retention (mean across A-D) -->
     <g transform="translate(16.318125 290.410469) rotate(-90) scale(0.12 -0.12)">
      <defs>
       <path id="DejaVuSans-Bold-52" d="M 2297 2597 
Q 2675 2597 2839 2737 
Q 3003 2878 3003 3200 
Q 3003 3519 2839 3656 
Q 2675 3794 2297 3794 
L 1791 3794 
L 1791 2597 
L 2297 2597 
z
M 1791 1766 
L 1791 0 
L 588 0 
L 588 4666 
L 2425 4666 
Q 3347 4666 3776 4356 
Q 4206 4047 4206 3378 
Q 4206 2916 3982 2619 
Q 3759 2322 3309 2181 
Q 3556 2125 3751 1926 
Q 3947 1728 4147 1325 
L 4800 0 
L 3519 0 
L 2950 1159 
Q 2778 1509 2601 1637 
Q 2425 1766 2131 1766 
L 1791 1766 
z
" transform="scale(0.015625)"/>
       <path id="DejaVuSans-Bold-65" d="M 4031 1759 
L 4031 1441 
L 1416 1441 
Q 1456 1047 1700 850 
Q 1944 653 2381 653 
Q 2734 653 3104 758 
Q 3475 863 3866 1075 
L 3866 213 
Q 3469 63 3072 -14 
Q 2675 -91 2278 -91 
Q 1328 -91 801 392 
Q 275 875 275 1747 
Q 275 2603 792 3093 
Q 1309 3584 2216 3584 
Q 3041 3584 3536 3087 
Q 4031 2591 4031 1759 
z
M 2881 2131 
Q 2881 2450 2695 2645 
Q 2509 2841 2209 2841 
Q 1884 2841 1681 2658 
Q 1478 2475 1428 2131 
L 2881 2131 
z
" transform="scale(0.015625)"/>
       <path id="DejaVuSans-Bold-74" d="M 1759 4494 
L 1759 3500 
L 2913 3500 
L 2913 2700 
L 1759 2700 
L 1759 1216 
Q 1759 972 1856 886 
Q 1953 800 2241 800 
L 2816 800 
L 2816 0 
L 1856 0 
Q 1194 0 917 276 
Q 641 553 641 1216 
L 641 2700 
L 84 2700 
L 84 3500 
L 641 3500 
L 641 4494 
L 1759 4494 
z
" transform="scale(0.015625)"/>
       <path id="DejaVuSans-Bold-6e" d="M 4056 2131 
L 4056 0 
L 2931 0 
L 2931 347 
L 2931 1631 
Q 2931 2084 2911 2256 
Q 2891 2428 2841 2509 
Q 2775 2619 2662 2680 
Q 2550 2741 2406 2741 
Q 2056 2741 1856 2470 
Q 1656 2200 1656 1722 
L 1656 0 
L 538 0 
L 538 3500 
L 1656 3500 
L 1656 2988 
Q 1909 3294 2193 3439 
Q 2478 3584 2822 3584 
Q 3428 3584 3742 3212 
Q 4056 2841 4056 2131 
z
" transform="scale(0.015625)"/>
       <path id="DejaVuSans-Bold-69" d="M 538 3500 
L 1656 3500 
L 1656 0 
L 538 0 
L 538 3500 
z
M 538 4863 
L 1656 4863 
L 1656 3950 
L 538 3950 
L 538 4863 
z
" transform="scale(0.015625)"/>
       <path id="DejaVuSans-Bold-6f" d="M 2203 2784 
Q 1831 2784 1636 2517 
Q 1441 2250 1441 1747 
Q 1441 1244 1636 976 
Q 1831 709 2203 709 
Q 2569 709 2762 976 
Q 2956 1244 2956 1747 
Q 2956 2250 2762 2517 
Q 2569 2784 2203 2784 
z
M 2203 3584 
Q 3106 3584 3614 3096 
Q 4122 2609 4122 1747 
Q 4122 884 3614 396 
Q 3106 -91 2203 -91 
Q 1297 -91 786 396 
Q 275 884 275 1747 
Q 275 2609 786 3096 
Q 1297 3584 2203 3584 
z
" transform="scale(0.015625)"/>
       <path id="DejaVuSans-Bold-20" transform="scale(0.015625)"/>
       <path id="DejaVuSans-Bold-28" d="M 2413 -844 
L 1484 -844 
Q 1006 -72 778 623 
Q 550 1319 550 2003 
Q 550 2688 779 3389 
Q 1009 4091 1484 4856 
L 2413 4856 
Q 2013 4116 1813 3408 
Q 1613 2700 1613 2009 
Q 1613 1319 1811 609 
Q 2009 -100 2413 -844 
z
" transform="scale(0.015625)"/>
       <path id="DejaVuSans-Bold-6d" d="M 3781 2919 
Q 3994 3244 4286 3414 
Q 4578 3584 4928 3584 
Q 5531 3584 5847 3212 
Q 6163 2841 6163 2131 
L 6163 0 
L 5038 0 
L 5038 1825 
Q 5041 1866 5042 1909 
Q 5044 1953 5044 2034 
Q 5044 2406 4934 2573 
Q 4825 2741 4581 2741 
Q 4263 2741 4089 2478 
Q 3916 2216 3909 1719 
L 3909 0 
L 2784 0 
L 2784 1825 
Q 2784 2406 2684 2573 
Q 2584 2741 2328 2741 
Q 2006 2741 1831 2477 
Q 1656 2213 1656 1722 
L 1656 0 
L 531 0 
L 531 3500 
L 1656 3500 
L 1656 2988 
Q 1863 3284 2130 3434 
Q 2397 3584 2719 3584 
Q 3081 3584 3359 3409 
Q 3638 3234 3781 2919 
z
" transform="scale(0.015625)"/>
       <path id="DejaVuSans-Bold-61" d="M 2106 1575 
Q 1756 1575 1579 1456 
Q 1403 1338 1403 1106 
Q 1403 894 1545 773 
Q 1688 653 1941 653 
Q 2256 653 2472 879 
Q 2688 1106 2688 1447 
L 2688 1575 
L 2106 1575 
z
M 3816 1997 
L 3816 0 
L 2688 0 
L 2688 519 
Q 2463 200 2181 54 
Q 1900 -91 1497 -91 
Q 953 -91 614 226 
Q 275 544 275 1050 
Q 275 1666 698 1953 
Q 1122 2241 2028 2241 
L 2688 2241 
L 2688 2328 
Q 2688 2594 2478 2717 
Q 2269 2841 1825 2841 
Q 1466 2841 1156 2769 
Q 847 2697 581 2553 
L 581 3406 
Q 941 3494 1303 3539 
Q 1666 3584 2028 3584 
Q 2975 3584 3395 3211 
Q 3816 2838 3816 1997 
z
" transform="scale(0.015625)"/>
       <path id="DejaVuSans-Bold-63" d="M 3366 3391 
L 3366 2478 
Q 3138 2634 2908 2709 
Q 2678 2784 2431 2784 
Q 1963 2784 1702 2511 
Q 1441 2238 1441 1747 
Q 1441 1256 1702 982 
Q 1963 709 2431 709 
Q 2694 709 2930 787 
Q 3166 866 3366 1019 
L 3366 103 
Q 3103 6 2833 -42 
Q 2563 -91 2291 -91 
Q 1344 -91 809 395 
Q 275 881 275 1747 
Q 275 2613 809 3098 
Q 1344 3584 2291 3584 
Q 2566 3584 2833 3536 
Q 3100 3488 3366 3391 
z
" transform="scale(0.015625)"/>
       <path id="DejaVuSans-Bold-72" d="M 3138 2547 
Q 2991 2616 2845 2648 
Q 2700 2681 2553 2681 
Q 2122 2681 1889 2404 
Q 1656 2128 1656 1613 
L 1656 0 
L 538 0 
L 538 3500 
L 1656 3500 
L 1656 2925 
Q 1872 3269 2151 3426 
Q 2431 3584 2822 3584 
Q 2878 3584 2943 3579 
Q 3009 3575 3134 3559 
L 3138 2547 
z
" transform="scale(0.015625)"/>
       <path id="DejaVuSans-Bold-73" d="M 3272 3391 
L 3272 2541 
Q 2913 2691 2578 2766 
Q 2244 2841 1947 2841 
Q 1628 2841 1473 2761 
Q 1319 2681 1319 2516 
Q 1319 2381 1436 2309 
Q 1553 2238 1856 2203 
L 2053 2175 
Q 2913 2066 3209 1816 
Q 3506 1566 3506 1031 
Q 3506 472 3093 190 
Q 2681 -91 1863 -91 
Q 1516 -91 1145 -36 
Q 775 19 384 128 
L 384 978 
Q 719 816 1070 734 
Q 1422 653 1784 653 
Q 2113 653 2278 743 
Q 2444 834 2444 1013 
Q 2444 1163 2330 1236 
Q 2216 1309 1875 1350 
L 1678 1375 
Q 931 1469 631 1722 
Q 331 1975 331 2491 
Q 331 3047 712 3315 
Q 1094 3584 1881 3584 
Q 2191 3584 2531 3537 
Q 2872 3491 3272 3391 
z
" transform="scale(0.015625)"/>
       <path id="DejaVuSans-Bold-41" d="M 3419 850 
L 1538 850 
L 1241 0 
L 31 0 
L 1759 4666 
L 3194 4666 
L 4922 0 
L 3713 0 
L 3419 850 
z
M 1838 1716 
L 3116 1716 
L 2478 3572 
L 1838 1716 
z
" transform="scale(0.015625)"/>
       <path id="DejaVuSans-Bold-2d" d="M 347 2297 
L 2309 2297 
L 2309 1388 
L 347 1388 
L 347 2297 
z
" transform="scale(0.015625)"/>
       <path id="DejaVuSans-Bold-44" d="M 1791 3756 
L 1791 909 
L 2222 909 
Q 2959 909 3348 1275 
Q 3738 1641 3738 2338 
Q 3738 3031 3350 3393 
Q 2963 3756 2222 3756 
L 1791 3756 
z
M 588 4666 
L 1856 4666 
Q 2919 4666 3439 4514 
Q 3959 4363 4331 4000 
Q 4659 3684 4818 3271 
Q 4978 2859 4978 2338 
Q 4978 1809 4818 1395 
Q 4659 981 4331 666 
Q 3956 303 3431 151 
Q 2906 0 1856 0 
L 588 0 
L 588 4666 
z
" transform="scale(0.015625)"/>
       <path id="DejaVuSans-Bold-29" d="M 513 -844 
Q 913 -100 1113 609 
Q 1313 1319 1313 2009 
Q 1313 2700 1113 3408 
Q 913 4116 513 4856 
L 1441 4856 
Q 1916 4091 2145 3389 
Q 2375 2688 2375 2003 
Q 2375 1319 2147 623 
Q 1919 -72 1441 -844 
L 513 -844 
z
" transform="scale(0.015625)"/>
      </defs>
      <use xlink:href="#DejaVuSans-Bold-52"/>
      <use xlink:href="#DejaVuSans-Bold-65" transform="translate(77.001953 0)"/>
      <use xlink:href="#DejaVuSans-Bold-74" transform="translate(144.824219 0)"/>
      <use xlink:href="#DejaVuSans-Bold-65" transform="translate(192.626953 0)"/>
      <use xlink:href="#DejaVuSans-Bold-6e" transform="translate(260.449219 0)"/>
      <use xlink:href="#DejaVuSans-Bold-74" transform="translate(331.640625 0)"/>
      <use xlink:href="#DejaVuSans-Bold-69" transform="translate(379.443359 0)"/>
      <use xlink:href="#DejaVuSans-Bold-6f" transform="translate(413.720703 0)"/>
      <use xlink:href="#DejaVuSans-Bold-6e" transform="translate(482.421875 0)"/>
      <use xlink:href="#DejaVuSans-Bold-20" transform="translate(553.613281 0)"/>
      <use xlink:href="#DejaVuSans-Bold-28" transform="translate(588.427734 0)"/>
      <use xlink:href="#DejaVuSans-Bold-6d" transform="translate(634.130859 0)"/>
      <use xlink:href="#DejaVuSans-Bold-65" transform="translate(738.330078 0)"/>
      <use xlink:href="#DejaVuSans-Bold-61" transform="translate(806.152344 0)"/>
      <use xlink:href="#DejaVuSans-Bold-6e" transform="translate(873.632812 0)"/>
      <use xlink:href="#DejaVuSans-Bold-20" transform="translate(944.824219 0)"/>
      <use xlink:href="#DejaVuSans-Bold-61" transform="translate(979.638672 0)"/>
      <use xlink:href="#DejaVuSans-Bold-63" transform="translate(1047.119141 0)"/>
      <use xlink:href="#DejaVuSans-Bold-72" transform="translate(1106.396484 0)"/>
      <use xlink:href="#DejaVuSans-Bold-6f" transform="translate(1155.712891 0)"/>
      <use xlink:href="#DejaVuSans-Bold-73" transform="translate(1224.414062 0)"/>
      <use xlink:href="#DejaVuSans-Bold-73" transform="translate(1283.935547 0)"/>
      <use xlink:href="#DejaVuSans-Bold-20" transform="translate(1343.457031 0)"/>
      <use xlink:href="#DejaVuSans-Bold-41" transform="translate(1378.271484 0)"/>
      <use xlink:href="#DejaVuSans-Bold-2d" transform="translate(1455.664062 0)"/>
      <use xlink:href="#DejaVuSans-Bold-44" transform="translate(1497.167969 0)"/>
      <use xlink:href="#DejaVuSans-Bold-29" transform="translate(1580.175781 0)"/>
     </g>
    </g>
   </g>
   <g id="LineCollection_1">
    <path d="M 125.611249 74.792556 
L 125.611249 46.736561 
" clip-path="url(#pff3486f17c)" style="fill: none; stroke: #000000; stroke-width: 1.5"/>
    <path d="M 246.467708 79.691312 
L 246.467708 57.768882 
" clip-path="url(#pff3486f17c)" style="fill: none; stroke: #000000; stroke-width: 1.5"/>
    <path d="M 367.324167 326.439439 
L 367.324167 319.947079 
" clip-path="url(#pff3486f17c)" style="fill: none; stroke: #000000; stroke-width: 1.5"/>
    <path d="M 488.180626 326.439439 
L 488.180626 319.947079 
" clip-path="url(#pff3486f17c)" style="fill: none; stroke: #000000; stroke-width: 1.5"/>
   </g>
   <g id="line2d_19">
    <defs>
     <path id="m6a0db08826" d="M 6 0 
L -6 -0 
" style="stroke: #000000"/>
    </defs>
    <g clip-path="url(#pff3486f17c)">
     <use xlink:href="#m6a0db08826" x="125.611249" y="74.792556" style="stroke: #000000"/>
     <use xlink:href="#m6a0db08826" x="246.467708" y="79.691312" style="stroke: #000000"/>
     <use xlink:href="#m6a0db08826" x="367.324167" y="326.439439" style="stroke: #000000"/>
     <use xlink:href="#m6a0db08826" x="488.180626" y="326.439439" style="stroke: #000000"/>
    </g>
   </g>
   <g id="line2d_20">
    <g clip-path="url(#pff3486f17c)">
     <use xlink:href="#m6a0db08826" x="125.611249" y="46.736561" style="stroke: #000000"/>
     <use xlink:href="#m6a0db08826" x="246.467708" y="57.768882" style="stroke: #000000"/>
     <use xlink:href="#m6a0db08826" x="367.324167" y="319.947079" style="stroke: #000000"/>
     <use xlink:href="#m6a0db08826" x="488.180626" y="319.947079" style="stroke: #000000"/>
    </g>
   </g>
   <g id="line2d_21">
    <path d="M 54.305938 362.637969 
L 559.485937 362.637969 
" clip-path="url(#pff3486f17c)" style="fill: none; stroke-dasharray: 0.7,1.155; stroke-dashoffset: 0; stroke: #808080; stroke-width: 0.7"/>
   </g>
   <g id="patch_7">
    <path d="M 54.305938 362.637969 
L 54.305938 23.077969 
" style="fill: none; stroke: #000000; stroke-width: 0.8; stroke-linejoin: miter; stroke-linecap: square"/>
   </g>
   <g id="patch_8">
    <path d="M 54.305938 362.637969 
L 559.485937 362.637969 
" style="fill: none; stroke: #000000; stroke-width: 0.8; stroke-linejoin: miter; stroke-linecap: square"/>
   </g>
   <g id="text_13">
    <!-- Retention across conditions (n=10 seeds) -->
    <g transform="translate(153.820937 17.077969) scale(0.13 -0.13)">
     <defs>
      <path id="DejaVuSans-Bold-64" d="M 2919 2988 
L 2919 4863 
L 4044 4863 
L 4044 0 
L 2919 0 
L 2919 506 
Q 2688 197 2409 53 
Q 2131 -91 1766 -91 
Q 1119 -91 703 423 
Q 288 938 288 1747 
Q 288 2556 703 3070 
Q 1119 3584 1766 3584 
Q 2128 3584 2408 3439 
Q 2688 3294 2919 2988 
z
M 2181 722 
Q 2541 722 2730 984 
Q 2919 1247 2919 1747 
Q 2919 2247 2730 2509 
Q 2541 2772 2181 2772 
Q 1825 2772 1636 2509 
Q 1447 2247 1447 1747 
Q 1447 1247 1636 984 
Q 1825 722 2181 722 
z
" transform="scale(0.015625)"/>
      <path id="DejaVuSans-Bold-3d" d="M 678 3084 
L 4684 3084 
L 4684 2350 
L 678 2350 
L 678 3084 
z
M 678 1663 
L 4684 1663 
L 4684 922 
L 678 922 
L 678 1663 
z
" transform="scale(0.015625)"/>
      <path id="DejaVuSans-Bold-31" d="M 750 831 
L 1813 831 
L 1813 3847 
L 722 3622 
L 722 4441 
L 1806 4666 
L 2950 4666 
L 2950 831 
L 4013 831 
L 4013 0 
L 750 0 
L 750 831 
z
" transform="scale(0.015625)"/>
      <path id="DejaVuSans-Bold-30" d="M 2944 2338 
Q 2944 3213 2780 3570 
Q 2616 3928 2228 3928 
Q 1841 3928 1675 3570 
Q 1509 3213 1509 2338 
Q 1509 1453 1675 1090 
Q 1841 728 2228 728 
Q 2613 728 2778 1090 
Q 2944 1453 2944 2338 
z
M 4147 2328 
Q 4147 1169 3647 539 
Q 3147 -91 2228 -91 
Q 1306 -91 806 539 
Q 306 1169 306 2328 
Q 306 3491 806 4120 
Q 1306 4750 2228 4750 
Q 3147 4750 3647 4120 
Q 4147 3491 4147 2328 
z
" transform="scale(0.015625)"/>
     </defs>
     <use xlink:href="#DejaVuSans-Bold-52"/>
     <use xlink:href="#DejaVuSans-Bold-65" transform="translate(77.001953 0)"/>
     <use xlink:href="#DejaVuSans-Bold-74" transform="translate(144.824219 0)"/>
     <use xlink:href="#DejaVuSans-Bold-65" transform="translate(192.626953 0)"/>
     <use xlink:href="#DejaVuSans-Bold-6e" transform="translate(260.449219 0)"/>
     <use xlink:href="#DejaVuSans-Bold-74" transform="translate(331.640625 0)"/>
     <use xlink:href="#DejaVuSans-Bold-69" transform="translate(379.443359 0)"/>
     <use xlink:href="#DejaVuSans-Bold-6f" transform="translate(413.720703 0)"/>
     <use xlink:href="#DejaVuSans-Bold-6e" transform="translate(482.421875 0)"/>
     <use xlink:href="#DejaVuSans-Bold-20" transform="translate(553.613281 0)"/>
     <use xlink:href="#DejaVuSans-Bold-61" transform="translate(588.427734 0)"/>
     <use xlink:href="#DejaVuSans-Bold-63" transform="translate(655.908203 0)"/>
     <use xlink:href="#DejaVuSans-Bold-72" transform="translate(715.185547 0)"/>
     <use xlink:href="#DejaVuSans-Bold-6f" transform="translate(764.501953 0)"/>
     <use xlink:href="#DejaVuSans-Bold-73" transform="translate(833.203125 0)"/>
     <use xlink:href="#DejaVuSans-Bold-73" transform="translate(892.724609 0)"/>
     <use xlink:href="#DejaVuSans-Bold-20" transform="translate(952.246094 0)"/>
     <use xlink:href="#DejaVuSans-Bold-63" transform="translate(987.060547 0)"/>
     <use xlink:href="#DejaVuSans-Bold-6f" transform="translate(1046.337891 0)"/>
     <use xlink:href="#DejaVuSans-Bold-6e" transform="translate(1115.039062 0)"/>
     <use xlink:href="#DejaVuSans-Bold-64" transform="translate(1186.230469 0)"/>
     <use xlink:href="#DejaVuSans-Bold-69" transform="translate(1257.8125 0)"/>
     <use xlink:href="#DejaVuSans-Bold-74" transform="translate(1292.089844 0)"/>
     <use xlink:href="#DejaVuSans-Bold-69" transform="translate(1339.892578 0)"/>
     <use xlink:href="#DejaVuSans-Bold-6f" transform="translate(1374.169922 0)"/>
     <use xlink:href="#DejaVuSans-Bold-6e" transform="translate(1442.871094 0)"/>
     <use xlink:href="#DejaVuSans-Bold-73" transform="translate(1514.0625 0)"/>
     <use xlink:href="#DejaVuSans-Bold-20" transform="translate(1573.583984 0)"/>
     <use xlink:href="#DejaVuSans-Bold-28" transform="translate(1608.398438 0)"/>
     <use xlink:href="#DejaVuSans-Bold-6e" transform="translate(1654.101562 0)"/>
     <use xlink:href="#DejaVuSans-Bold-3d" transform="translate(1725.292969 0)"/>
     <use xlink:href="#DejaVuSans-Bold-31" transform="translate(1809.082031 0)"/>
     <use xlink:href="#DejaVuSans-Bold-30" transform="translate(1878.662109 0)"/>
     <use xlink:href="#DejaVuSans-Bold-20" transform="translate(1948.242188 0)"/>
     <use xlink:href="#DejaVuSans-Bold-73" transform="translate(1983.056641 0)"/>
     <use xlink:href="#DejaVuSans-Bold-65" transform="translate(2042.578125 0)"/>
     <use xlink:href="#DejaVuSans-Bold-65" transform="translate(2110.400391 0)"/>
     <use xlink:href="#DejaVuSans-Bold-64" transform="translate(2178.222656 0)"/>
     <use xlink:href="#DejaVuSans-Bold-73" transform="translate(2249.804688 0)"/>
     <use xlink:href="#DejaVuSans-Bold-29" transform="translate(2309.326172 0)"/>
    </g>
   </g>
   <g id="PathCollection_1">
    <defs>
     <path id="m96a2d0d787" d="M 0 2.738613 
C 0.726289 2.738613 1.422928 2.450055 1.936492 1.936492 
C 2.450055 1.422928 2.738613 0.726289 2.738613 0 
C 2.738613 -0.726289 2.450055 -1.422928 1.936492 -1.936492 
C 1.422928 -2.450055 0.726289 -2.738613 0 -2.738613 
C -0.726289 -2.738613 -1.422928 -2.450055 -1.936492 -1.936492 
C -2.450055 -1.422928 -2.738613 -0.726289 -2.738613 0 
C -2.738613 0.726289 -2.450055 1.422928 -1.936492 1.936492 
C -1.422928 2.450055 -0.726289 2.738613 0 2.738613 
z
" style="stroke: #ffffff; stroke-opacity: 0.65; stroke-width: 0.6"/>
    </defs>
    <g clip-path="url(#pff3486f17c)">
     <use xlink:href="#m96a2d0d787" x="130.57706" y="39.247493" style="fill-opacity: 0.65; stroke: #ffffff; stroke-opacity: 0.65; stroke-width: 0.6"/>
     <use xlink:href="#m96a2d0d787" x="117.26442" y="65.882069" style="fill-opacity: 0.65; stroke: #ffffff; stroke-opacity: 0.65; stroke-width: 0.6"/>
     <use xlink:href="#m96a2d0d787" x="108.968354" y="58.69368" style="fill-opacity: 0.65; stroke: #ffffff; stroke-opacity: 0.65; stroke-width: 0.6"/>
     <use xlink:href="#m96a2d0d787" x="108.082021" y="76.445402" style="fill-opacity: 0.65; stroke: #ffffff; stroke-opacity: 0.65; stroke-width: 0.6"/>
     <use xlink:href="#m96a2d0d787" x="136.969468" y="49.810992" style="fill-opacity: 0.65; stroke: #ffffff; stroke-opacity: 0.65; stroke-width: 0.6"/>
     <use xlink:href="#m96a2d0d787" x="140.576502" y="45.078532" style="fill-opacity: 0.65; stroke: #ffffff; stroke-opacity: 0.65; stroke-width: 0.6"/>
     <use xlink:href="#m96a2d0d787" x="129.477535" y="62.020038" style="fill-opacity: 0.65; stroke: #ffffff; stroke-opacity: 0.65; stroke-width: 0.6"/>
     <use xlink:href="#m96a2d0d787" x="133.932091" y="64.435347" style="fill-opacity: 0.65; stroke: #ffffff; stroke-opacity: 0.65; stroke-width: 0.6"/>
     <use xlink:href="#m96a2d0d787" x="127.192957" y="59.779091" style="fill-opacity: 0.65; stroke: #ffffff; stroke-opacity: 0.65; stroke-width: 0.6"/>
     <use xlink:href="#m96a2d0d787" x="141.385642" y="86.252945" style="fill-opacity: 0.65; stroke: #ffffff; stroke-opacity: 0.65; stroke-width: 0.6"/>
    </g>
   </g>
   <g id="PathCollection_2">
    <g clip-path="url(#pff3486f17c)">
     <use xlink:href="#m96a2d0d787" x="257.919591" y="48.44328" style="fill-opacity: 0.65; stroke: #ffffff; stroke-opacity: 0.65; stroke-width: 0.6"/>
     <use xlink:href="#m96a2d0d787" x="228.438529" y="75.466086" style="fill-opacity: 0.65; stroke: #ffffff; stroke-opacity: 0.65; stroke-width: 0.6"/>
     <use xlink:href="#m96a2d0d787" x="259.426092" y="64.646017" style="fill-opacity: 0.65; stroke: #ffffff; stroke-opacity: 0.65; stroke-width: 0.6"/>
     <use xlink:href="#m96a2d0d787" x="229.556949" y="81.434508" style="fill-opacity: 0.65; stroke: #ffffff; stroke-opacity: 0.65; stroke-width: 0.6"/>
     <use xlink:href="#m96a2d0d787" x="254.794311" y="64.276362" style="fill-opacity: 0.65; stroke: #ffffff; stroke-opacity: 0.65; stroke-width: 0.6"/>
     <use xlink:href="#m96a2d0d787" x="234.707974" y="55.241344" style="fill-opacity: 0.65; stroke: #ffffff; stroke-opacity: 0.65; stroke-width: 0.6"/>
     <use xlink:href="#m96a2d0d787" x="259.635463" y="79.609887" style="fill-opacity: 0.65; stroke: #ffffff; stroke-opacity: 0.65; stroke-width: 0.6"/>
     <use xlink:href="#m96a2d0d787" x="247.970965" y="69.325327" style="fill-opacity: 0.65; stroke: #ffffff; stroke-opacity: 0.65; stroke-width: 0.6"/>
     <use xlink:href="#m96a2d0d787" x="239.205874" y="68.912707" style="fill-opacity: 0.65; stroke: #ffffff; stroke-opacity: 0.65; stroke-width: 0.6"/>
     <use xlink:href="#m96a2d0d787" x="243.664583" y="79.945453" style="fill-opacity: 0.65; stroke: #ffffff; stroke-opacity: 0.65; stroke-width: 0.6"/>
    </g>
   </g>
   <g id="PathCollection_3">
    <g clip-path="url(#pff3486f17c)">
     <use xlink:href="#m96a2d0d787" x="350.222483" y="316.15771" style="fill-opacity: 0.65; stroke: #ffffff; stroke-opacity: 0.65; stroke-width: 0.6"/>
     <use xlink:href="#m96a2d0d787" x="353.701829" y="325.353012" style="fill-opacity: 0.65; stroke: #ffffff; stroke-opacity: 0.65; stroke-width: 0.6"/>
     <use xlink:href="#m96a2d0d787" x="373.510486" y="325.665132" style="fill-opacity: 0.65; stroke: #ffffff; stroke-opacity: 0.65; stroke-width: 0.6"/>
     <use xlink:href="#m96a2d0d787" x="372.660808" y="324.324809" style="fill-opacity: 0.65; stroke: #ffffff; stroke-opacity: 0.65; stroke-width: 0.6"/>
     <use xlink:href="#m96a2d0d787" x="371.507678" y="320.874368" style="fill-opacity: 0.65; stroke: #ffffff; stroke-opacity: 0.65; stroke-width: 0.6"/>
     <use xlink:href="#m96a2d0d787" x="363.106671" y="322.919294" style="fill-opacity: 0.65; stroke: #ffffff; stroke-opacity: 0.65; stroke-width: 0.6"/>
     <use xlink:href="#m96a2d0d787" x="385.351477" y="325.346344" style="fill-opacity: 0.65; stroke: #ffffff; stroke-opacity: 0.65; stroke-width: 0.6"/>
     <use xlink:href="#m96a2d0d787" x="384.757784" y="323.195926" style="fill-opacity: 0.65; stroke: #ffffff; stroke-opacity: 0.65; stroke-width: 0.6"/>
     <use xlink:href="#m96a2d0d787" x="374.051351" y="320.751342" style="fill-opacity: 0.65; stroke: #ffffff; stroke-opacity: 0.65; stroke-width: 0.6"/>
     <use xlink:href="#m96a2d0d787" x="372.77936" y="327.344653" style="fill-opacity: 0.65; stroke: #ffffff; stroke-opacity: 0.65; stroke-width: 0.6"/>
    </g>
   </g>
   <g id="PathCollection_4">
    <g clip-path="url(#pff3486f17c)">
     <use xlink:href="#m96a2d0d787" x="495.013128" y="316.15771" style="fill-opacity: 0.65; stroke: #ffffff; stroke-opacity: 0.65; stroke-width: 0.6"/>
     <use xlink:href="#m96a2d0d787" x="484.153257" y="325.353012" style="fill-opacity: 0.65; stroke: #ffffff; stroke-opacity: 0.65; stroke-width: 0.6"/>
     <use xlink:href="#m96a2d0d787" x="474.950343" y="325.665132" style="fill-opacity: 0.65; stroke: #ffffff; stroke-opacity: 0.65; stroke-width: 0.6"/>
     <use xlink:href="#m96a2d0d787" x="496.211115" y="324.324809" style="fill-opacity: 0.65; stroke: #ffffff; stroke-opacity: 0.65; stroke-width: 0.6"/>
     <use xlink:href="#m96a2d0d787" x="489.099897" y="320.874368" style="fill-opacity: 0.65; stroke: #ffffff; stroke-opacity: 0.65; stroke-width: 0.6"/>
     <use xlink:href="#m96a2d0d787" x="481.300578" y="322.919294" style="fill-opacity: 0.65; stroke: #ffffff; stroke-opacity: 0.65; stroke-width: 0.6"/>
     <use xlink:href="#m96a2d0d787" x="487.66706" y="325.346344" style="fill-opacity: 0.65; stroke: #ffffff; stroke-opacity: 0.65; stroke-width: 0.6"/>
     <use xlink:href="#m96a2d0d787" x="502.302263" y="323.195926" style="fill-opacity: 0.65; stroke: #ffffff; stroke-opacity: 0.65; stroke-width: 0.6"/>
     <use xlink:href="#m96a2d0d787" x="503.917715" y="320.751342" style="fill-opacity: 0.65; stroke: #ffffff; stroke-opacity: 0.65; stroke-width: 0.6"/>
     <use xlink:href="#m96a2d0d787" x="483.024716" y="327.344653" style="fill-opacity: 0.65; stroke: #ffffff; stroke-opacity: 0.65; stroke-width: 0.6"/>
    </g>
   </g>
  </g>
 </g>
 <defs>
  <clipPath id="pff3486f17c">
   <rect x="54.305938" y="23.077969" width="505.18" height="339.56"/>
  </clipPath>
 </defs>
</svg>
