<?xml version="1.0" encoding="utf-8" standalone="no"?>
<!DOCTYPE svg PUBLIC "-//W3C//DTD SVG 1.1//EN"
  "http://www.w3.org/Graphics/SVG/1.1/DTD/svg11.dtd">
<svg xmlns:xlink="http://www.w3.org/1999/xlink" width="638.829062pt" height="386.970125pt" viewBox="0 0 638.829062 386.970125" xmlns="http://www.w3.org/2000/svg" version="1.1">
 <metadata>
  <rdf:RDF xmlns:dc="http://purl.org/dc/elements/1.1/" xmlns:cc="http://creativecommons.org/ns#" xmlns:rdf="http://www.w3.org/1999/02/22-rdf-syntax-ns#">
   <cc:Work>
    <dc:type rdf:resource="http://purl.org/dc/dcmitype/StillImage"/>
    <dc:date>2026-06-05T07:44:04.775454</dc:date>
    <dc:format>image/svg+xml</dc:format>
    <dc:creator>
     <cc:Agent>
      <dc:title>Matplotlib v3.10.3, https://matplotlib.org/</dc:title>
     </cc:Agent>
    </dc:creator>
   </cc:Work>
  </rdf:RDF>
 </metadata>
 <defs>
  <style type="text/css">*{stroke-linejoin: round; stroke-linecap: butt}</style>
 </defs>
 <g id="figure_1">
  <g id="patch_1">
   <path d="M 0 386.970125 
L 638.829062 386.970125 
L 638.829062 0 
L 0 0 
z
" style="fill: #ffffff"/>
  </g>
  <g id="axes_1">
   <g id="patch_2">
    <path d="M 47.429063 346.416687 
L 631.629063 346.416687 
L 631.629063 37.736688 
L 47.429063 37.736688 
z
" style="fill: #ffffff"/>
   </g>
   <g id="FillBetweenPolyCollection_1">
    <defs>
     <path id="mefc4005413" d="M 73.983608 -75.841129 
L 73.983608 -54.584347 
L 132.993709 -240.287353 
L 192.00381 -269.403601 
L 251.013911 -263.836171 
L 310.024012 -315.759693 
L 369.034113 -228.288845 
L 428.044214 -326.43971 
L 487.054315 -230.688171 
L 546.064416 -231.047889 
L 605.074517 -281.806968 
L 605.074517 -291.209445 
L 605.074517 -291.209445 
L 546.064416 -236.278407 
L 487.054315 -235.833299 
L 428.044214 -335.202528 
L 369.034113 -238.225955 
L 310.024012 -325.706522 
L 251.013911 -269.066959 
L 192.00381 -284.700491 
L 132.993709 -259.410354 
L 73.983608 -75.841129 
z
" style="stroke: #2166ac; stroke-opacity: 0.18"/>
    </defs>
    <g clip-path="url(#pb61ac4a4ac)">
     <use xlink:href="#mefc4005413" x="0" y="386.970125" style="fill: #2166ac; fill-opacity: 0.18; stroke: #2166ac; stroke-opacity: 0.18"/>
    </g>
   </g>
   <g id="FillBetweenPolyCollection_2">
    <defs>
     <path id="m476823cd9a" d="M 73.983608 -75.841129 
L 73.983608 -54.584347 
L 132.993709 -240.287353 
L 192.00381 -55.64334 
L 251.013911 -238.769864 
L 310.024012 -58.135777 
L 369.034113 -197.861781 
L 428.044214 -58.174799 
L 487.054315 -204.52346 
L 546.064416 -204.667105 
L 605.074517 -237.588098 
L 605.074517 -250.376957 
L 605.074517 -250.376957 
L 546.064416 -213.287482 
L 487.054315 -213.153629 
L 428.044214 -78.743702 
L 369.034113 -208.270787 
L 310.024012 -78.886089 
L 251.013911 -247.119721 
L 192.00381 -76.735661 
L 132.993709 -259.410354 
L 73.983608 -75.841129 
z
" style="stroke: #5aae61; stroke-opacity: 0.18"/>
    </defs>
    <g clip-path="url(#pb61ac4a4ac)">
     <use xlink:href="#m476823cd9a" x="0" y="386.970125" style="fill: #5aae61; fill-opacity: 0.18; stroke: #5aae61; stroke-opacity: 0.18"/>
    </g>
   </g>
   <g id="FillBetweenPolyCollection_3">
    <defs>
     <path id="mc4b1b7c897" d="M 73.983608 -75.841129 
L 73.983608 -54.584347 
L 132.993709 -240.287353 
L 192.00381 -90.853986 
L 251.013911 -260.088252 
L 310.024012 -144.70108 
L 369.034113 -259.875693 
L 428.044214 -146.187778 
L 487.054315 -272.799547 
L 546.064416 -272.92232 
L 605.074517 -279.581382 
L 605.074517 -293.316588 
L 605.074517 -293.316588 
L 546.064416 -282.016884 
L 487.054315 -281.876391 
L 428.044214 -154.906874 
L 369.034113 -270.344068 
L 310.024012 -154.872507 
L 251.013911 -269.685732 
L 192.00381 -106.729039 
L 132.993709 -259.410354 
L 73.983608 -75.841129 
z
" style="stroke: #d6604d; stroke-opacity: 0.18"/>
    </defs>
    <g clip-path="url(#pb61ac4a4ac)">
     <use xlink:href="#mc4b1b7c897" x="0" y="386.970125" style="fill: #d6604d; fill-opacity: 0.18; stroke: #d6604d; stroke-opacity: 0.18"/>
    </g>
   </g>
   <g id="FillBetweenPolyCollection_4">
    <defs>
     <path id="m7084606595" d="M 73.983608 -75.841129 
L 73.983608 -54.584347 
L 132.993709 -240.287353 
L 192.00381 -90.853986 
L 251.013911 -260.088252 
L 310.024012 -144.70108 
L 369.034113 -259.875693 
L 428.044214 -146.187778 
L 487.054315 -272.799547 
L 546.064416 -272.92232 
L 605.074517 -279.581382 
L 605.074517 -293.316588 
L 605.074517 -293.316588 
L 546.064416 -282.016884 
L 487.054315 -281.876391 
L 428.044214 -154.906874 
L 369.034113 -270.344068 
L 310.024012 -154.872507 
L 251.013911 -269.685732 
L 192.00381 -106.729039 
L 132.993709 -259.410354 
L 73.983608 -75.841129 
z
" style="stroke: #b2182b; stroke-opacity: 0.18"/>
    </defs>
    <g clip-path="url(#pb61ac4a4ac)">
     <use xlink:href="#m7084606595" x="0" y="386.970125" style="fill: #b2182b; fill-opacity: 0.18; stroke: #b2182b; stroke-opacity: 0.18"/>
    </g>
   </g>
   <g id="matplotlib.axis_1">
    <g id="xtick_1">
     <g id="line2d_1">
      <path d="M 73.983608 346.416687 
L 73.983608 37.736688 
" clip-path="url(#pb61ac4a4ac)" style="fill: none; stroke: #b0b0b0; stroke-opacity: 0.3; stroke-width: 0.8; stroke-linecap: square"/>
     </g>
     <g id="line2d_2">
      <defs>
       <path id="mbc25beb829" d="M 0 0 
L 0 3.5 
" style="stroke: #000000; stroke-width: 0.8"/>
      </defs>
      <g>
       <use xlink:href="#mbc25beb829" x="73.983608" y="346.416687" style="stroke: #000000; stroke-width: 0.8"/>
      </g>
     </g>
     <g id="text_1">
      <!-- 0 -->
      <g transform="translate(70.484233 361.774969) scale(0.11 -0.11)">
       <defs>
        <path id="DejaVuSans-30" d="M 2034 4250 
Q 1547 4250 1301 3770 
Q 1056 3291 1056 2328 
Q 1056 1369 1301 889 
Q 1547 409 2034 409 
Q 2525 409 2770 889 
Q 3016 1369 3016 2328 
Q 3016 3291 2770 3770 
Q 2525 4250 2034 4250 
z
M 2034 4750 
Q 2819 4750 3233 4129 
Q 3647 3509 3647 2328 
Q 3647 1150 3233 529 
Q 2819 -91 2034 -91 
Q 1250 -91 836 529 
Q 422 1150 422 2328 
Q 422 3509 836 4129 
Q 1250 4750 2034 4750 
z
" transform="scale(0.015625)"/>
       </defs>
       <use xlink:href="#DejaVuSans-30"/>
      </g>
     </g>
    </g>
    <g id="xtick_2">
     <g id="line2d_3">
      <path d="M 192.00381 346.416687 
L 192.00381 37.736688 
" clip-path="url(#pb61ac4a4ac)" style="fill: none; stroke: #b0b0b0; stroke-opacity: 0.3; stroke-width: 0.8; stroke-linecap: square"/>
     </g>
     <g id="line2d_4">
      <g>
       <use xlink:href="#mbc25beb829" x="192.00381" y="346.416687" style="stroke: #000000; stroke-width: 0.8"/>
      </g>
     </g>
     <g id="text_2">
      <!-- 2 -->
      <g transform="translate(188.504435 361.774969) scale(0.11 -0.11)">
       <defs>
        <path id="DejaVuSans-32" d="M 1228 531 
L 3431 531 
L 3431 0 
L 469 0 
L 469 531 
Q 828 903 1448 1529 
Q 2069 2156 2228 2338 
Q 2531 2678 2651 2914 
Q 2772 3150 2772 3378 
Q 2772 3750 2511 3984 
Q 2250 4219 1831 4219 
Q 1534 4219 1204 4116 
Q 875 4013 500 3803 
L 500 4441 
Q 881 4594 1212 4672 
Q 1544 4750 1819 4750 
Q 2544 4750 2975 4387 
Q 3406 4025 3406 3419 
Q 3406 3131 3298 2873 
Q 3191 2616 2906 2266 
Q 2828 2175 2409 1742 
Q 1991 1309 1228 531 
z
" transform="scale(0.015625)"/>
       </defs>
       <use xlink:href="#DejaVuSans-32"/>
      </g>
     </g>
    </g>
    <g id="xtick_3">
     <g id="line2d_5">
      <path d="M 310.024012 346.416687 
L 310.024012 37.736688 
" clip-path="url(#pb61ac4a4ac)" style="fill: none; stroke: #b0b0b0; stroke-opacity: 0.3; stroke-width: 0.8; stroke-linecap: square"/>
     </g>
     <g id="line2d_6">
      <g>
       <use xlink:href="#mbc25beb829" x="310.024012" y="346.416687" style="stroke: #000000; stroke-width: 0.8"/>
      </g>
     </g>
     <g id="text_3">
      <!-- 4 -->
      <g transform="translate(306.524637 361.774969) scale(0.11 -0.11)">
       <defs>
        <path id="DejaVuSans-34" d="M 2419 4116 
L 825 1625 
L 2419 1625 
L 2419 4116 
z
M 2253 4666 
L 3047 4666 
L 3047 1625 
L 3713 1625 
L 3713 1100 
L 3047 1100 
L 3047 0 
L 2419 0 
L 2419 1100 
L 313 1100 
L 313 1709 
L 2253 4666 
z
" transform="scale(0.015625)"/>
       </defs>
       <use xlink:href="#DejaVuSans-34"/>
      </g>
     </g>
    </g>
    <g id="xtick_4">
     <g id="line2d_7">
      <path d="M 428.044214 346.416687 
L 428.044214 37.736688 
" clip-path="url(#pb61ac4a4ac)" style="fill: none; stroke: #b0b0b0; stroke-opacity: 0.3; stroke-width: 0.8; stroke-linecap: square"/>
     </g>
     <g id="line2d_8">
      <g>
       <use xlink:href="#mbc25beb829" x="428.044214" y="346.416687" style="stroke: #000000; stroke-width: 0.8"/>
      </g>
     </g>
     <g id="text_4">
      <!-- 6 -->
      <g transform="translate(424.544839 361.774969) scale(0.11 -0.11)">
       <defs>
        <path id="DejaVuSans-36" d="M 2113 2584 
Q 1688 2584 1439 2293 
Q 1191 2003 1191 1497 
Q 1191 994 1439 701 
Q 1688 409 2113 409 
Q 2538 409 2786 701 
Q 3034 994 3034 1497 
Q 3034 2003 2786 2293 
Q 2538 2584 2113 2584 
z
M 3366 4563 
L 3366 3988 
Q 3128 4100 2886 4159 
Q 2644 4219 2406 4219 
Q 1781 4219 1451 3797 
Q 1122 3375 1075 2522 
Q 1259 2794 1537 2939 
Q 1816 3084 2150 3084 
Q 2853 3084 3261 2657 
Q 3669 2231 3669 1497 
Q 3669 778 3244 343 
Q 2819 -91 2113 -91 
Q 1303 -91 875 529 
Q 447 1150 447 2328 
Q 447 3434 972 4092 
Q 1497 4750 2381 4750 
Q 2619 4750 2861 4703 
Q 3103 4656 3366 4563 
z
" transform="scale(0.015625)"/>
       </defs>
       <use xlink:href="#DejaVuSans-36"/>
      </g>
     </g>
    </g>
    <g id="xtick_5">
     <g id="line2d_9">
      <path d="M 546.064416 346.416687 
L 546.064416 37.736688 
" clip-path="url(#pb61ac4a4ac)" style="fill: none; stroke: #b0b0b0; stroke-opacity: 0.3; stroke-width: 0.8; stroke-linecap: square"/>
     </g>
     <g id="line2d_10">
      <g>
       <use xlink:href="#mbc25beb829" x="546.064416" y="346.416687" style="stroke: #000000; stroke-width: 0.8"/>
      </g>
     </g>
     <g id="text_5">
      <!-- 8 -->
      <g transform="translate(542.565041 361.774969) scale(0.11 -0.11)">
       <defs>
        <path id="DejaVuSans-38" d="M 2034 2216 
Q 1584 2216 1326 1975 
Q 1069 1734 1069 1313 
Q 1069 891 1326 650 
Q 1584 409 2034 409 
Q 2484 409 2743 651 
Q 3003 894 3003 1313 
Q 3003 1734 2745 1975 
Q 2488 2216 2034 2216 
z
M 1403 2484 
Q 997 2584 770 2862 
Q 544 3141 544 3541 
Q 544 4100 942 4425 
Q 1341 4750 2034 4750 
Q 2731 4750 3128 4425 
Q 3525 4100 3525 3541 
Q 3525 3141 3298 2862 
Q 3072 2584 2669 2484 
Q 3125 2378 3379 2068 
Q 3634 1759 3634 1313 
Q 3634 634 3220 271 
Q 2806 -91 2034 -91 
Q 1263 -91 848 271 
Q 434 634 434 1313 
Q 434 1759 690 2068 
Q 947 2378 1403 2484 
z
M 1172 3481 
Q 1172 3119 1398 2916 
Q 1625 2713 2034 2713 
Q 2441 2713 2670 2916 
Q 2900 3119 2900 3481 
Q 2900 3844 2670 4047 
Q 2441 4250 2034 4250 
Q 1625 4250 1398 4047 
Q 1172 3844 1172 3481 
z
" transform="scale(0.015625)"/>
       </defs>
       <use xlink:href="#DejaVuSans-38"/>
      </g>
     </g>
    </g>
    <g id="text_6">
     <!-- Checkpoint (baseline → encode/replay per memory → final) -->
     <g transform="translate(141.362188 377.18075) scale(0.12 -0.12)">
      <defs>
       <path id="DejaVuSans-Bold-43" d="M 4288 256 
Q 3956 84 3597 -3 
Q 3238 -91 2847 -91 
Q 1681 -91 1000 561 
Q 319 1213 319 2328 
Q 319 3447 1000 4098 
Q 1681 4750 2847 4750 
Q 3238 4750 3597 4662 
Q 3956 4575 4288 4403 
L 4288 3438 
Q 3953 3666 3628 3772 
Q 3303 3878 2944 3878 
Q 2300 3878 1931 3465 
Q 1563 3053 1563 2328 
Q 1563 1606 1931 1193 
Q 2300 781 2944 781 
Q 3303 781 3628 887 
Q 3953 994 4288 1222 
L 4288 256 
z
" transform="scale(0.015625)"/>
       <path id="DejaVuSans-Bold-68" d="M 4056 2131 
L 4056 0 
L 2931 0 
L 2931 347 
L 2931 1625 
Q 2931 2084 2911 2256 
Q 2891 2428 2841 2509 
Q 2775 2619 2662 2680 
Q 2550 2741 2406 2741 
Q 2056 2741 1856 2470 
Q 1656 2200 1656 1722 
L 1656 0 
L 538 0 
L 538 4863 
L 1656 4863 
L 1656 2988 
Q 1909 3294 2193 3439 
Q 2478 3584 2822 3584 
Q 3428 3584 3742 3212 
Q 4056 2841 4056 2131 
z
" transform="scale(0.015625)"/>
       <path id="DejaVuSans-Bold-65" d="M 4031 1759 
L 4031 1441 
L 1416 1441 
Q 1456 1047 1700 850 
Q 1944 653 2381 653 
Q 2734 653 3104 758 
Q 3475 863 3866 1075 
L 3866 213 
Q 3469 63 3072 -14 
Q 2675 -91 2278 -91 
Q 1328 -91 801 392 
Q 275 875 275 1747 
Q 275 2603 792 3093 
Q 1309 3584 2216 3584 
Q 3041 3584 3536 3087 
Q 4031 2591 4031 1759 
z
M 2881 2131 
Q 2881 2450 2695 2645 
Q 2509 2841 2209 2841 
Q 1884 2841 1681 2658 
Q 1478 2475 1428 2131 
L 2881 2131 
z
" transform="scale(0.015625)"/>
       <path id="DejaVuSans-Bold-63" d="M 3366 3391 
L 3366 2478 
Q 3138 2634 2908 2709 
Q 2678 2784 2431 2784 
Q 1963 2784 1702 2511 
Q 1441 2238 1441 1747 
Q 1441 1256 1702 982 
Q 1963 709 2431 709 
Q 2694 709 2930 787 
Q 3166 866 3366 1019 
L 3366 103 
Q 3103 6 2833 -42 
Q 2563 -91 2291 -91 
Q 1344 -91 809 395 
Q 275 881 275 1747 
Q 275 2613 809 3098 
Q 1344 3584 2291 3584 
Q 2566 3584 2833 3536 
Q 3100 3488 3366 3391 
z
" transform="scale(0.015625)"/>
       <path id="DejaVuSans-Bold-6b" d="M 538 4863 
L 1656 4863 
L 1656 2216 
L 2944 3500 
L 4244 3500 
L 2534 1894 
L 4378 0 
L 3022 0 
L 1656 1459 
L 1656 0 
L 538 0 
L 538 4863 
z
" transform="scale(0.015625)"/>
       <path id="DejaVuSans-Bold-70" d="M 1656 506 
L 1656 -1331 
L 538 -1331 
L 538 3500 
L 1656 3500 
L 1656 2988 
Q 1888 3294 2169 3439 
Q 2450 3584 2816 3584 
Q 3463 3584 3878 3070 
Q 4294 2556 4294 1747 
Q 4294 938 3878 423 
Q 3463 -91 2816 -91 
Q 2450 -91 2169 54 
Q 1888 200 1656 506 
z
M 2400 2772 
Q 2041 2772 1848 2508 
Q 1656 2244 1656 1747 
Q 1656 1250 1848 986 
Q 2041 722 2400 722 
Q 2759 722 2948 984 
Q 3138 1247 3138 1747 
Q 3138 2247 2948 2509 
Q 2759 2772 2400 2772 
z
" transform="scale(0.015625)"/>
       <path id="DejaVuSans-Bold-6f" d="M 2203 2784 
Q 1831 2784 1636 2517 
Q 1441 2250 1441 1747 
Q 1441 1244 1636 976 
Q 1831 709 2203 709 
Q 2569 709 2762 976 
Q 2956 1244 2956 1747 
Q 2956 2250 2762 2517 
Q 2569 2784 2203 2784 
z
M 2203 3584 
Q 3106 3584 3614 3096 
Q 4122 2609 4122 1747 
Q 4122 884 3614 396 
Q 3106 -91 2203 -91 
Q 1297 -91 786 396 
Q 275 884 275 1747 
Q 275 2609 786 3096 
Q 1297 3584 2203 3584 
z
" transform="scale(0.015625)"/>
       <path id="DejaVuSans-Bold-69" d="M 538 3500 
L 1656 3500 
L 1656 0 
L 538 0 
L 538 3500 
z
M 538 4863 
L 1656 4863 
L 1656 3950 
L 538 3950 
L 538 4863 
z
" transform="scale(0.015625)"/>
       <path id="DejaVuSans-Bold-6e" d="M 4056 2131 
L 4056 0 
L 2931 0 
L 2931 347 
L 2931 1631 
Q 2931 2084 2911 2256 
Q 2891 2428 2841 2509 
Q 2775 2619 2662 2680 
Q 2550 2741 2406 2741 
Q 2056 2741 1856 2470 
Q 1656 2200 1656 1722 
L 1656 0 
L 538 0 
L 538 3500 
L 1656 3500 
L 1656 2988 
Q 1909 3294 2193 3439 
Q 2478 3584 2822 3584 
Q 3428 3584 3742 3212 
Q 4056 2841 4056 2131 
z
" transform="scale(0.015625)"/>
       <path id="DejaVuSans-Bold-74" d="M 1759 4494 
L 1759 3500 
L 2913 3500 
L 2913 2700 
L 1759 2700 
L 1759 1216 
Q 1759 972 1856 886 
Q 1953 800 2241 800 
L 2816 800 
L 2816 0 
L 1856 0 
Q 1194 0 917 276 
Q 641 553 641 1216 
L 641 2700 
L 84 2700 
L 84 3500 
L 641 3500 
L 641 4494 
L 1759 4494 
z
" transform="scale(0.015625)"/>
       <path id="DejaVuSans-Bold-20" transform="scale(0.015625)"/>
       <path id="DejaVuSans-Bold-28" d="M 2413 -844 
L 1484 -844 
Q 1006 -72 778 623 
Q 550 1319 550 2003 
Q 550 2688 779 3389 
Q 1009 4091 1484 4856 
L 2413 4856 
Q 2013 4116 1813 3408 
Q 1613 2700 1613 2009 
Q 1613 1319 1811 609 
Q 2009 -100 2413 -844 
z
" transform="scale(0.015625)"/>
       <path id="DejaVuSans-Bold-62" d="M 2400 722 
Q 2759 722 2948 984 
Q 3138 1247 3138 1747 
Q 3138 2247 2948 2509 
Q 2759 2772 2400 2772 
Q 2041 2772 1848 2508 
Q 1656 2244 1656 1747 
Q 1656 1250 1848 986 
Q 2041 722 2400 722 
z
M 1656 2988 
Q 1888 3294 2169 3439 
Q 2450 3584 2816 3584 
Q 3463 3584 3878 3070 
Q 4294 2556 4294 1747 
Q 4294 938 3878 423 
Q 3463 -91 2816 -91 
Q 2450 -91 2169 54 
Q 1888 200 1656 506 
L 1656 0 
L 538 0 
L 538 4863 
L 1656 4863 
L 1656 2988 
z
" transform="scale(0.015625)"/>
       <path id="DejaVuSans-Bold-61" d="M 2106 1575 
Q 1756 1575 1579 1456 
Q 1403 1338 1403 1106 
Q 1403 894 1545 773 
Q 1688 653 1941 653 
Q 2256 653 2472 879 
Q 2688 1106 2688 1447 
L 2688 1575 
L 2106 1575 
z
M 3816 1997 
L 3816 0 
L 2688 0 
L 2688 519 
Q 2463 200 2181 54 
Q 1900 -91 1497 -91 
Q 953 -91 614 226 
Q 275 544 275 1050 
Q 275 1666 698 1953 
Q 1122 2241 2028 2241 
L 2688 2241 
L 2688 2328 
Q 2688 2594 2478 2717 
Q 2269 2841 1825 2841 
Q 1466 2841 1156 2769 
Q 847 2697 581 2553 
L 581 3406 
Q 941 3494 1303 3539 
Q 1666 3584 2028 3584 
Q 2975 3584 3395 3211 
Q 3816 2838 3816 1997 
z
" transform="scale(0.015625)"/>
       <path id="DejaVuSans-Bold-73" d="M 3272 3391 
L 3272 2541 
Q 2913 2691 2578 2766 
Q 2244 2841 1947 2841 
Q 1628 2841 1473 2761 
Q 1319 2681 1319 2516 
Q 1319 2381 1436 2309 
Q 1553 2238 1856 2203 
L 2053 2175 
Q 2913 2066 3209 1816 
Q 3506 1566 3506 1031 
Q 3506 472 3093 190 
Q 2681 -91 1863 -91 
Q 1516 -91 1145 -36 
Q 775 19 384 128 
L 384 978 
Q 719 816 1070 734 
Q 1422 653 1784 653 
Q 2113 653 2278 743 
Q 2444 834 2444 1013 
Q 2444 1163 2330 1236 
Q 2216 1309 1875 1350 
L 1678 1375 
Q 931 1469 631 1722 
Q 331 1975 331 2491 
Q 331 3047 712 3315 
Q 1094 3584 1881 3584 
Q 2191 3584 2531 3537 
Q 2872 3491 3272 3391 
z
" transform="scale(0.015625)"/>
       <path id="DejaVuSans-Bold-6c" d="M 538 4863 
L 1656 4863 
L 1656 0 
L 538 0 
L 538 4863 
z
" transform="scale(0.015625)"/>
       <path id="DejaVuSans-Bold-2192" d="M 5050 2225 
L 5050 1788 
L 3822 559 
L 3369 1013 
L 3988 1631 
L 366 1631 
L 366 2381 
L 3988 2381 
L 3369 3000 
L 3822 3453 
L 5050 2225 
z
" transform="scale(0.015625)"/>
       <path id="DejaVuSans-Bold-64" d="M 2919 2988 
L 2919 4863 
L 4044 4863 
L 4044 0 
L 2919 0 
L 2919 506 
Q 2688 197 2409 53 
Q 2131 -91 1766 -91 
Q 1119 -91 703 423 
Q 288 938 288 1747 
Q 288 2556 703 3070 
Q 1119 3584 1766 3584 
Q 2128 3584 2408 3439 
Q 2688 3294 2919 2988 
z
M 2181 722 
Q 2541 722 2730 984 
Q 2919 1247 2919 1747 
Q 2919 2247 2730 2509 
Q 2541 2772 2181 2772 
Q 1825 2772 1636 2509 
Q 1447 2247 1447 1747 
Q 1447 1247 1636 984 
Q 1825 722 2181 722 
z
" transform="scale(0.015625)"/>
       <path id="DejaVuSans-Bold-2f" d="M 1644 4666 
L 2338 4666 
L 691 -594 
L 0 -594 
L 1644 4666 
z
" transform="scale(0.015625)"/>
       <path id="DejaVuSans-Bold-72" d="M 3138 2547 
Q 2991 2616 2845 2648 
Q 2700 2681 2553 2681 
Q 2122 2681 1889 2404 
Q 1656 2128 1656 1613 
L 1656 0 
L 538 0 
L 538 3500 
L 1656 3500 
L 1656 2925 
Q 1872 3269 2151 3426 
Q 2431 3584 2822 3584 
Q 2878 3584 2943 3579 
Q 3009 3575 3134 3559 
L 3138 2547 
z
" transform="scale(0.015625)"/>
       <path id="DejaVuSans-Bold-79" d="M 78 3500 
L 1197 3500 
L 2138 1125 
L 2938 3500 
L 4056 3500 
L 2584 -331 
Q 2363 -916 2067 -1148 
Q 1772 -1381 1288 -1381 
L 641 -1381 
L 641 -647 
L 991 -647 
Q 1275 -647 1404 -556 
Q 1534 -466 1606 -231 
L 1638 -134 
L 78 3500 
z
" transform="scale(0.015625)"/>
       <path id="DejaVuSans-Bold-6d" d="M 3781 2919 
Q 3994 3244 4286 3414 
Q 4578 3584 4928 3584 
Q 5531 3584 5847 3212 
Q 6163 2841 6163 2131 
L 6163 0 
L 5038 0 
L 5038 1825 
Q 5041 1866 5042 1909 
Q 5044 1953 5044 2034 
Q 5044 2406 4934 2573 
Q 4825 2741 4581 2741 
Q 4263 2741 4089 2478 
Q 3916 2216 3909 1719 
L 3909 0 
L 2784 0 
L 2784 1825 
Q 2784 2406 2684 2573 
Q 2584 2741 2328 2741 
Q 2006 2741 1831 2477 
Q 1656 2213 1656 1722 
L 1656 0 
L 531 0 
L 531 3500 
L 1656 3500 
L 1656 2988 
Q 1863 3284 2130 3434 
Q 2397 3584 2719 3584 
Q 3081 3584 3359 3409 
Q 3638 3234 3781 2919 
z
" transform="scale(0.015625)"/>
       <path id="DejaVuSans-Bold-66" d="M 2841 4863 
L 2841 4128 
L 2222 4128 
Q 1984 4128 1890 4042 
Q 1797 3956 1797 3744 
L 1797 3500 
L 2753 3500 
L 2753 2700 
L 1797 2700 
L 1797 0 
L 678 0 
L 678 2700 
L 122 2700 
L 122 3500 
L 678 3500 
L 678 3744 
Q 678 4316 997 4589 
Q 1316 4863 1984 4863 
L 2841 4863 
z
" transform="scale(0.015625)"/>
       <path id="DejaVuSans-Bold-29" d="M 513 -844 
Q 913 -100 1113 609 
Q 1313 1319 1313 2009 
Q 1313 2700 1113 3408 
Q 913 4116 513 4856 
L 1441 4856 
Q 1916 4091 2145 3389 
Q 2375 2688 2375 2003 
Q 2375 1319 2147 623 
Q 1919 -72 1441 -844 
L 513 -844 
z
" transform="scale(0.015625)"/>
      </defs>
      <use xlink:href="#DejaVuSans-Bold-43"/>
      <use xlink:href="#DejaVuSans-Bold-68" transform="translate(73.388672 0)"/>
      <use xlink:href="#DejaVuSans-Bold-65" transform="translate(144.580078 0)"/>
      <use xlink:href="#DejaVuSans-Bold-63" transform="translate(212.402344 0)"/>
      <use xlink:href="#DejaVuSans-Bold-6b" transform="translate(271.679688 0)"/>
      <use xlink:href="#DejaVuSans-Bold-70" transform="translate(338.183594 0)"/>
      <use xlink:href="#DejaVuSans-Bold-6f" transform="translate(409.765625 0)"/>
      <use xlink:href="#DejaVuSans-Bold-69" transform="translate(478.466797 0)"/>
      <use xlink:href="#DejaVuSans-Bold-6e" transform="translate(512.744141 0)"/>
      <use xlink:href="#DejaVuSans-Bold-74" transform="translate(583.935547 0)"/>
      <use xlink:href="#DejaVuSans-Bold-20" transform="translate(631.738281 0)"/>
      <use xlink:href="#DejaVuSans-Bold-28" transform="translate(666.552734 0)"/>
      <use xlink:href="#DejaVuSans-Bold-62" transform="translate(712.255859 0)"/>
      <use xlink:href="#DejaVuSans-Bold-61" transform="translate(783.837891 0)"/>
      <use xlink:href="#DejaVuSans-Bold-73" transform="translate(851.318359 0)"/>
      <use xlink:href="#DejaVuSans-Bold-65" transform="translate(910.839844 0)"/>
      <use xlink:href="#DejaVuSans-Bold-6c" transform="translate(978.662109 0)"/>
      <use xlink:href="#DejaVuSans-Bold-69" transform="translate(1012.939453 0)"/>
      <use xlink:href="#DejaVuSans-Bold-6e" transform="translate(1047.216797 0)"/>
      <use xlink:href="#DejaVuSans-Bold-65" transform="translate(1118.408203 0)"/>
      <use xlink:href="#DejaVuSans-Bold-20" transform="translate(1186.230469 0)"/>
      <use xlink:href="#DejaVuSans-Bold-2192" transform="translate(1221.044922 0)"/>
      <use xlink:href="#DejaVuSans-Bold-20" transform="translate(1304.833984 0)"/>
      <use xlink:href="#DejaVuSans-Bold-65" transform="translate(1339.648438 0)"/>
      <use xlink:href="#DejaVuSans-Bold-6e" transform="translate(1407.470703 0)"/>
      <use xlink:href="#DejaVuSans-Bold-63" transform="translate(1478.662109 0)"/>
      <use xlink:href="#DejaVuSans-Bold-6f" transform="translate(1537.939453 0)"/>
      <use xlink:href="#DejaVuSans-Bold-64" transform="translate(1606.640625 0)"/>
      <use xlink:href="#DejaVuSans-Bold-65" transform="translate(1678.222656 0)"/>
      <use xlink:href="#DejaVuSans-Bold-2f" transform="translate(1746.044922 0)"/>
      <use xlink:href="#DejaVuSans-Bold-72" transform="translate(1782.568359 0)"/>
      <use xlink:href="#DejaVuSans-Bold-65" transform="translate(1831.884766 0)"/>
      <use xlink:href="#DejaVuSans-Bold-70" transform="translate(1899.707031 0)"/>
      <use xlink:href="#DejaVuSans-Bold-6c" transform="translate(1971.289062 0)"/>
      <use xlink:href="#DejaVuSans-Bold-61" transform="translate(2005.566406 0)"/>
      <use xlink:href="#DejaVuSans-Bold-79" transform="translate(2069.921875 0)"/>
      <use xlink:href="#DejaVuSans-Bold-20" transform="translate(2135.107422 0)"/>
      <use xlink:href="#DejaVuSans-Bold-70" transform="translate(2169.921875 0)"/>
      <use xlink:href="#DejaVuSans-Bold-65" transform="translate(2241.503906 0)"/>
      <use xlink:href="#DejaVuSans-Bold-72" transform="translate(2309.326172 0)"/>
      <use xlink:href="#DejaVuSans-Bold-20" transform="translate(2358.642578 0)"/>
      <use xlink:href="#DejaVuSans-Bold-6d" transform="translate(2393.457031 0)"/>
      <use xlink:href="#DejaVuSans-Bold-65" transform="translate(2497.65625 0)"/>
      <use xlink:href="#DejaVuSans-Bold-6d" transform="translate(2565.478516 0)"/>
      <use xlink:href="#DejaVuSans-Bold-6f" transform="translate(2669.677734 0)"/>
      <use xlink:href="#DejaVuSans-Bold-72" transform="translate(2738.378906 0)"/>
      <use xlink:href="#DejaVuSans-Bold-79" transform="translate(2787.695312 0)"/>
      <use xlink:href="#DejaVuSans-Bold-20" transform="translate(2852.880859 0)"/>
      <use xlink:href="#DejaVuSans-Bold-2192" transform="translate(2887.695312 0)"/>
      <use xlink:href="#DejaVuSans-Bold-20" transform="translate(2971.484375 0)"/>
      <use xlink:href="#DejaVuSans-Bold-66" transform="translate(3006.298828 0)"/>
      <use xlink:href="#DejaVuSans-Bold-69" transform="translate(3049.804688 0)"/>
      <use xlink:href="#DejaVuSans-Bold-6e" transform="translate(3084.082031 0)"/>
      <use xlink:href="#DejaVuSans-Bold-61" transform="translate(3155.273438 0)"/>
      <use xlink:href="#DejaVuSans-Bold-6c" transform="translate(3222.753906 0)"/>
      <use xlink:href="#DejaVuSans-Bold-29" transform="translate(3257.03125 0)"/>
     </g>
    </g>
   </g>
   <g id="matplotlib.axis_2">
    <g id="ytick_1">
     <g id="line2d_11">
      <path d="M 47.429063 333.778081 
L 631.629063 333.778081 
" clip-path="url(#pb61ac4a4ac)" style="fill: none; stroke: #b0b0b0; stroke-opacity: 0.3; stroke-width: 0.8; stroke-linecap: square"/>
     </g>
     <g id="line2d_12">
      <defs>
       <path id="m3795c7dadb" d="M 0 0 
L -3.5 0 
" style="stroke: #000000; stroke-width: 0.8"/>
      </defs>
      <g>
       <use xlink:href="#m3795c7dadb" x="47.429063" y="333.778081" style="stroke: #000000; stroke-width: 0.8"/>
      </g>
     </g>
     <g id="text_7">
      <!-- 0.0 -->
      <g transform="translate(22.935625 337.957221) scale(0.11 -0.11)">
       <defs>
        <path id="DejaVuSans-2e" d="M 684 794 
L 1344 794 
L 1344 0 
L 684 0 
L 684 794 
z
" transform="scale(0.015625)"/>
       </defs>
       <use xlink:href="#DejaVuSans-30"/>
       <use xlink:href="#DejaVuSans-2e" transform="translate(63.623047 0)"/>
       <use xlink:href="#DejaVuSans-30" transform="translate(95.410156 0)"/>
      </g>
     </g>
    </g>
    <g id="ytick_2">
     <g id="line2d_13">
      <path d="M 47.429063 287.191531 
L 631.629063 287.191531 
" clip-path="url(#pb61ac4a4ac)" style="fill: none; stroke: #b0b0b0; stroke-opacity: 0.3; stroke-width: 0.8; stroke-linecap: square"/>
     </g>
     <g id="line2d_14">
      <g>
       <use xlink:href="#m3795c7dadb" x="47.429063" y="287.191531" style="stroke: #000000; stroke-width: 0.8"/>
      </g>
     </g>
     <g id="text_8">
      <!-- 0.1 -->
      <g transform="translate(22.935625 291.370672) scale(0.11 -0.11)">
       <defs>
        <path id="DejaVuSans-31" d="M 794 531 
L 1825 531 
L 1825 4091 
L 703 3866 
L 703 4441 
L 1819 4666 
L 2450 4666 
L 2450 531 
L 3481 531 
L 3481 0 
L 794 0 
L 794 531 
z
" transform="scale(0.015625)"/>
       </defs>
       <use xlink:href="#DejaVuSans-30"/>
       <use xlink:href="#DejaVuSans-2e" transform="translate(63.623047 0)"/>
       <use xlink:href="#DejaVuSans-31" transform="translate(95.410156 0)"/>
      </g>
     </g>
    </g>
    <g id="ytick_3">
     <g id="line2d_15">
      <path d="M 47.429063 240.604982 
L 631.629063 240.604982 
" clip-path="url(#pb61ac4a4ac)" style="fill: none; stroke: #b0b0b0; stroke-opacity: 0.3; stroke-width: 0.8; stroke-linecap: square"/>
     </g>
     <g id="line2d_16">
      <g>
       <use xlink:href="#m3795c7dadb" x="47.429063" y="240.604982" style="stroke: #000000; stroke-width: 0.8"/>
      </g>
     </g>
     <g id="text_9">
      <!-- 0.2 -->
      <g transform="translate(22.935625 244.784122) scale(0.11 -0.11)">
       <use xlink:href="#DejaVuSans-30"/>
       <use xlink:href="#DejaVuSans-2e" transform="translate(63.623047 0)"/>
       <use xlink:href="#DejaVuSans-32" transform="translate(95.410156 0)"/>
      </g>
     </g>
    </g>
    <g id="ytick_4">
     <g id="line2d_17">
      <path d="M 47.429063 194.018432 
L 631.629063 194.018432 
" clip-path="url(#pb61ac4a4ac)" style="fill: none; stroke: #b0b0b0; stroke-opacity: 0.3; stroke-width: 0.8; stroke-linecap: square"/>
     </g>
     <g id="line2d_18">
      <g>
       <use xlink:href="#m3795c7dadb" x="47.429063" y="194.018432" style="stroke: #000000; stroke-width: 0.8"/>
      </g>
     </g>
     <g id="text_10">
      <!-- 0.3 -->
      <g transform="translate(22.935625 198.197573) scale(0.11 -0.11)">
       <defs>
        <path id="DejaVuSans-33" d="M 2597 2516 
Q 3050 2419 3304 2112 
Q 3559 1806 3559 1356 
Q 3559 666 3084 287 
Q 2609 -91 1734 -91 
Q 1441 -91 1130 -33 
Q 819 25 488 141 
L 488 750 
Q 750 597 1062 519 
Q 1375 441 1716 441 
Q 2309 441 2620 675 
Q 2931 909 2931 1356 
Q 2931 1769 2642 2001 
Q 2353 2234 1838 2234 
L 1294 2234 
L 1294 2753 
L 1863 2753 
Q 2328 2753 2575 2939 
Q 2822 3125 2822 3475 
Q 2822 3834 2567 4026 
Q 2313 4219 1838 4219 
Q 1578 4219 1281 4162 
Q 984 4106 628 3988 
L 628 4550 
Q 988 4650 1302 4700 
Q 1616 4750 1894 4750 
Q 2613 4750 3031 4423 
Q 3450 4097 3450 3541 
Q 3450 3153 3228 2886 
Q 3006 2619 2597 2516 
z
" transform="scale(0.015625)"/>
       </defs>
       <use xlink:href="#DejaVuSans-30"/>
       <use xlink:href="#DejaVuSans-2e" transform="translate(63.623047 0)"/>
       <use xlink:href="#DejaVuSans-33" transform="translate(95.410156 0)"/>
      </g>
     </g>
    </g>
    <g id="ytick_5">
     <g id="line2d_19">
      <path d="M 47.429063 147.431882 
L 631.629063 147.431882 
" clip-path="url(#pb61ac4a4ac)" style="fill: none; stroke: #b0b0b0; stroke-opacity: 0.3; stroke-width: 0.8; stroke-linecap: square"/>
     </g>
     <g id="line2d_20">
      <g>
       <use xlink:href="#m3795c7dadb" x="47.429063" y="147.431882" style="stroke: #000000; stroke-width: 0.8"/>
      </g>
     </g>
     <g id="text_11">
      <!-- 0.4 -->
      <g transform="translate(22.935625 151.611023) scale(0.11 -0.11)">
       <use xlink:href="#DejaVuSans-30"/>
       <use xlink:href="#DejaVuSans-2e" transform="translate(63.623047 0)"/>
       <use xlink:href="#DejaVuSans-34" transform="translate(95.410156 0)"/>
      </g>
     </g>
    </g>
    <g id="ytick_6">
     <g id="line2d_21">
      <path d="M 47.429063 100.845333 
L 631.629063 100.845333 
" clip-path="url(#pb61ac4a4ac)" style="fill: none; stroke: #b0b0b0; stroke-opacity: 0.3; stroke-width: 0.8; stroke-linecap: square"/>
     </g>
     <g id="line2d_22">
      <g>
       <use xlink:href="#m3795c7dadb" x="47.429063" y="100.845333" style="stroke: #000000; stroke-width: 0.8"/>
      </g>
     </g>
     <g id="text_12">
      <!-- 0.5 -->
      <g transform="translate(22.935625 105.024473) scale(0.11 -0.11)">
       <defs>
        <path id="DejaVuSans-35" d="M 691 4666 
L 3169 4666 
L 3169 4134 
L 1269 4134 
L 1269 2991 
Q 1406 3038 1543 3061 
Q 1681 3084 1819 3084 
Q 2600 3084 3056 2656 
Q 3513 2228 3513 1497 
Q 3513 744 3044 326 
Q 2575 -91 1722 -91 
Q 1428 -91 1123 -41 
Q 819 9 494 109 
L 494 744 
Q 775 591 1075 516 
Q 1375 441 1709 441 
Q 2250 441 2565 725 
Q 2881 1009 2881 1497 
Q 2881 1984 2565 2268 
Q 2250 2553 1709 2553 
Q 1456 2553 1204 2497 
Q 953 2441 691 2322 
L 691 4666 
z
" transform="scale(0.015625)"/>
       </defs>
       <use xlink:href="#DejaVuSans-30"/>
       <use xlink:href="#DejaVuSans-2e" transform="translate(63.623047 0)"/>
       <use xlink:href="#DejaVuSans-35" transform="translate(95.410156 0)"/>
      </g>
     </g>
    </g>
    <g id="ytick_7">
     <g id="line2d_23">
      <path d="M 47.429063 54.258783 
L 631.629063 54.258783 
" clip-path="url(#pb61ac4a4ac)" style="fill: none; stroke: #b0b0b0; stroke-opacity: 0.3; stroke-width: 0.8; stroke-linecap: square"/>
     </g>
     <g id="line2d_24">
      <g>
       <use xlink:href="#m3795c7dadb" x="47.429063" y="54.258783" style="stroke: #000000; stroke-width: 0.8"/>
      </g>
     </g>
     <g id="text_13">
      <!-- 0.6 -->
      <g transform="translate(22.935625 58.437924) scale(0.11 -0.11)">
       <use xlink:href="#DejaVuSans-30"/>
       <use xlink:href="#DejaVuSans-2e" transform="translate(63.623047 0)"/>
       <use xlink:href="#DejaVuSans-36" transform="translate(95.410156 0)"/>
      </g>
     </g>
    </g>
    <g id="text_14">
     <!-- REAL_SCHEMA -->
     <g transform="translate(16.10625 240.72075) rotate(-90) scale(0.12 -0.12)">
      <defs>
       <path id="DejaVuSans-Bold-52" d="M 2297 2597 
Q 2675 2597 2839 2737 
Q 3003 2878 3003 3200 
Q 3003 3519 2839 3656 
Q 2675 3794 2297 3794 
L 1791 3794 
L 1791 2597 
L 2297 2597 
z
M 1791 1766 
L 1791 0 
L 588 0 
L 588 4666 
L 2425 4666 
Q 3347 4666 3776 4356 
Q 4206 4047 4206 3378 
Q 4206 2916 3982 2619 
Q 3759 2322 3309 2181 
Q 3556 2125 3751 1926 
Q 3947 1728 4147 1325 
L 4800 0 
L 3519 0 
L 2950 1159 
Q 2778 1509 2601 1637 
Q 2425 1766 2131 1766 
L 1791 1766 
z
" transform="scale(0.015625)"/>
       <path id="DejaVuSans-Bold-45" d="M 588 4666 
L 3834 4666 
L 3834 3756 
L 1791 3756 
L 1791 2888 
L 3713 2888 
L 3713 1978 
L 1791 1978 
L 1791 909 
L 3903 909 
L 3903 0 
L 588 0 
L 588 4666 
z
" transform="scale(0.015625)"/>
       <path id="DejaVuSans-Bold-41" d="M 3419 850 
L 1538 850 
L 1241 0 
L 31 0 
L 1759 4666 
L 3194 4666 
L 4922 0 
L 3713 0 
L 3419 850 
z
M 1838 1716 
L 3116 1716 
L 2478 3572 
L 1838 1716 
z
" transform="scale(0.015625)"/>
       <path id="DejaVuSans-Bold-4c" d="M 588 4666 
L 1791 4666 
L 1791 909 
L 3903 909 
L 3903 0 
L 588 0 
L 588 4666 
z
" transform="scale(0.015625)"/>
       <path id="DejaVuSans-Bold-5f" d="M 3200 -916 
L 3200 -1509 
L 0 -1509 
L 0 -916 
L 3200 -916 
z
" transform="scale(0.015625)"/>
       <path id="DejaVuSans-Bold-53" d="M 3834 4519 
L 3834 3531 
Q 3450 3703 3084 3790 
Q 2719 3878 2394 3878 
Q 1963 3878 1756 3759 
Q 1550 3641 1550 3391 
Q 1550 3203 1689 3098 
Q 1828 2994 2194 2919 
L 2706 2816 
Q 3484 2659 3812 2340 
Q 4141 2022 4141 1434 
Q 4141 663 3683 286 
Q 3225 -91 2284 -91 
Q 1841 -91 1394 -6 
Q 947 78 500 244 
L 500 1259 
Q 947 1022 1364 901 
Q 1781 781 2169 781 
Q 2563 781 2772 912 
Q 2981 1044 2981 1288 
Q 2981 1506 2839 1625 
Q 2697 1744 2272 1838 
L 1806 1941 
Q 1106 2091 782 2419 
Q 459 2747 459 3303 
Q 459 4000 909 4375 
Q 1359 4750 2203 4750 
Q 2588 4750 2994 4692 
Q 3400 4634 3834 4519 
z
" transform="scale(0.015625)"/>
       <path id="DejaVuSans-Bold-48" d="M 588 4666 
L 1791 4666 
L 1791 2888 
L 3566 2888 
L 3566 4666 
L 4769 4666 
L 4769 0 
L 3566 0 
L 3566 1978 
L 1791 1978 
L 1791 0 
L 588 0 
L 588 4666 
z
" transform="scale(0.015625)"/>
       <path id="DejaVuSans-Bold-4d" d="M 588 4666 
L 2119 4666 
L 3181 2169 
L 4250 4666 
L 5778 4666 
L 5778 0 
L 4641 0 
L 4641 3413 
L 3566 897 
L 2803 897 
L 1728 3413 
L 1728 0 
L 588 0 
L 588 4666 
z
" transform="scale(0.015625)"/>
      </defs>
      <use xlink:href="#DejaVuSans-Bold-52"/>
      <use xlink:href="#DejaVuSans-Bold-45" transform="translate(77.001953 0)"/>
      <use xlink:href="#DejaVuSans-Bold-41" transform="translate(145.3125 0)"/>
      <use xlink:href="#DejaVuSans-Bold-4c" transform="translate(222.705078 0)"/>
      <use xlink:href="#DejaVuSans-Bold-5f" transform="translate(286.425781 0)"/>
      <use xlink:href="#DejaVuSans-Bold-53" transform="translate(336.425781 0)"/>
      <use xlink:href="#DejaVuSans-Bold-43" transform="translate(408.447266 0)"/>
      <use xlink:href="#DejaVuSans-Bold-48" transform="translate(481.835938 0)"/>
      <use xlink:href="#DejaVuSans-Bold-45" transform="translate(565.527344 0)"/>
      <use xlink:href="#DejaVuSans-Bold-4d" transform="translate(633.837891 0)"/>
      <use xlink:href="#DejaVuSans-Bold-41" transform="translate(733.349609 0)"/>
     </g>
    </g>
   </g>
   <g id="line2d_25">
    <path d="M 73.983608 321.757387 
L 132.993709 137.121271 
L 192.00381 109.918079 
L 251.013911 120.51856 
L 310.024012 66.237017 
L 369.034113 153.712725 
L 428.044214 56.149006 
L 487.054315 153.70939 
L 546.064416 153.306977 
L 605.074517 100.461918 
" clip-path="url(#pb61ac4a4ac)" style="fill: none; stroke: #2166ac; stroke-width: 2.2; stroke-linecap: square"/>
    <defs>
     <path id="ma7c41a2df0" d="M 0 3 
C 0.795609 3 1.55874 2.683901 2.12132 2.12132 
C 2.683901 1.55874 3 0.795609 3 0 
C 3 -0.795609 2.683901 -1.55874 2.12132 -2.12132 
C 1.55874 -2.683901 0.795609 -3 0 -3 
C -0.795609 -3 -1.55874 -2.683901 -2.12132 -2.12132 
C -2.683901 -1.55874 -3 -0.795609 -3 0 
C -3 0.795609 -2.683901 1.55874 -2.12132 2.12132 
C -1.55874 2.683901 -0.795609 3 0 3 
z
" style="stroke: #2166ac"/>
    </defs>
    <g clip-path="url(#pb61ac4a4ac)">
     <use xlink:href="#ma7c41a2df0" x="73.983608" y="321.757387" style="fill: #2166ac; stroke: #2166ac"/>
     <use xlink:href="#ma7c41a2df0" x="132.993709" y="137.121271" style="fill: #2166ac; stroke: #2166ac"/>
     <use xlink:href="#ma7c41a2df0" x="192.00381" y="109.918079" style="fill: #2166ac; stroke: #2166ac"/>
     <use xlink:href="#ma7c41a2df0" x="251.013911" y="120.51856" style="fill: #2166ac; stroke: #2166ac"/>
     <use xlink:href="#ma7c41a2df0" x="310.024012" y="66.237017" style="fill: #2166ac; stroke: #2166ac"/>
     <use xlink:href="#ma7c41a2df0" x="369.034113" y="153.712725" style="fill: #2166ac; stroke: #2166ac"/>
     <use xlink:href="#ma7c41a2df0" x="428.044214" y="56.149006" style="fill: #2166ac; stroke: #2166ac"/>
     <use xlink:href="#ma7c41a2df0" x="487.054315" y="153.70939" style="fill: #2166ac; stroke: #2166ac"/>
     <use xlink:href="#ma7c41a2df0" x="546.064416" y="153.306977" style="fill: #2166ac; stroke: #2166ac"/>
     <use xlink:href="#ma7c41a2df0" x="605.074517" y="100.461918" style="fill: #2166ac; stroke: #2166ac"/>
    </g>
   </g>
   <g id="line2d_26">
    <path d="M 73.983608 321.757387 
L 132.993709 137.121271 
L 192.00381 320.780625 
L 251.013911 144.025332 
L 310.024012 318.459192 
L 369.034113 183.903841 
L 428.044214 318.510874 
L 487.054315 178.13158 
L 546.064416 177.992832 
L 605.074517 142.987597 
" clip-path="url(#pb61ac4a4ac)" style="fill: none; stroke: #5aae61; stroke-width: 2.2; stroke-linecap: square"/>
    <defs>
     <path id="m21d872e7d1" d="M 0 3 
C 0.795609 3 1.55874 2.683901 2.12132 2.12132 
C 2.683901 1.55874 3 0.795609 3 0 
C 3 -0.795609 2.683901 -1.55874 2.12132 -2.12132 
C 1.55874 -2.683901 0.795609 -3 0 -3 
C -0.795609 -3 -1.55874 -2.683901 -2.12132 -2.12132 
C -2.683901 -1.55874 -3 -0.795609 -3 0 
C -3 0.795609 -2.683901 1.55874 -2.12132 2.12132 
C -1.55874 2.683901 -0.795609 3 0 3 
z
" style="stroke: #5aae61"/>
    </defs>
    <g clip-path="url(#pb61ac4a4ac)">
     <use xlink:href="#m21d872e7d1" x="73.983608" y="321.757387" style="fill: #5aae61; stroke: #5aae61"/>
     <use xlink:href="#m21d872e7d1" x="132.993709" y="137.121271" style="fill: #5aae61; stroke: #5aae61"/>
     <use xlink:href="#m21d872e7d1" x="192.00381" y="320.780625" style="fill: #5aae61; stroke: #5aae61"/>
     <use xlink:href="#m21d872e7d1" x="251.013911" y="144.025332" style="fill: #5aae61; stroke: #5aae61"/>
     <use xlink:href="#m21d872e7d1" x="310.024012" y="318.459192" style="fill: #5aae61; stroke: #5aae61"/>
     <use xlink:href="#m21d872e7d1" x="369.034113" y="183.903841" style="fill: #5aae61; stroke: #5aae61"/>
     <use xlink:href="#m21d872e7d1" x="428.044214" y="318.510874" style="fill: #5aae61; stroke: #5aae61"/>
     <use xlink:href="#m21d872e7d1" x="487.054315" y="178.13158" style="fill: #5aae61; stroke: #5aae61"/>
     <use xlink:href="#m21d872e7d1" x="546.064416" y="177.992832" style="fill: #5aae61; stroke: #5aae61"/>
     <use xlink:href="#m21d872e7d1" x="605.074517" y="142.987597" style="fill: #5aae61; stroke: #5aae61"/>
    </g>
   </g>
   <g id="line2d_27">
    <path d="M 73.983608 321.757387 
L 132.993709 137.121271 
L 192.00381 288.178612 
L 251.013911 122.083133 
L 310.024012 237.183331 
L 369.034113 121.860244 
L 428.044214 236.422799 
L 487.054315 109.632156 
L 546.064416 109.500523 
L 605.074517 100.52114 
" clip-path="url(#pb61ac4a4ac)" style="fill: none; stroke: #d6604d; stroke-width: 2.2; stroke-linecap: square"/>
    <defs>
     <path id="mbc205e38bb" d="M 0 3 
C 0.795609 3 1.55874 2.683901 2.12132 2.12132 
C 2.683901 1.55874 3 0.795609 3 0 
C 3 -0.795609 2.683901 -1.55874 2.12132 -2.12132 
C 1.55874 -2.683901 0.795609 -3 0 -3 
C -0.795609 -3 -1.55874 -2.683901 -2.12132 -2.12132 
C -2.683901 -1.55874 -3 -0.795609 -3 0 
C -3 0.795609 -2.683901 1.55874 -2.12132 2.12132 
C -1.55874 2.683901 -0.795609 3 0 3 
z
" style="stroke: #d6604d"/>
    </defs>
    <g clip-path="url(#pb61ac4a4ac)">
     <use xlink:href="#mbc205e38bb" x="73.983608" y="321.757387" style="fill: #d6604d; stroke: #d6604d"/>
     <use xlink:href="#mbc205e38bb" x="132.993709" y="137.121271" style="fill: #d6604d; stroke: #d6604d"/>
     <use xlink:href="#mbc205e38bb" x="192.00381" y="288.178612" style="fill: #d6604d; stroke: #d6604d"/>
     <use xlink:href="#mbc205e38bb" x="251.013911" y="122.083133" style="fill: #d6604d; stroke: #d6604d"/>
     <use xlink:href="#mbc205e38bb" x="310.024012" y="237.183331" style="fill: #d6604d; stroke: #d6604d"/>
     <use xlink:href="#mbc205e38bb" x="369.034113" y="121.860244" style="fill: #d6604d; stroke: #d6604d"/>
     <use xlink:href="#mbc205e38bb" x="428.044214" y="236.422799" style="fill: #d6604d; stroke: #d6604d"/>
     <use xlink:href="#mbc205e38bb" x="487.054315" y="109.632156" style="fill: #d6604d; stroke: #d6604d"/>
     <use xlink:href="#mbc205e38bb" x="546.064416" y="109.500523" style="fill: #d6604d; stroke: #d6604d"/>
     <use xlink:href="#mbc205e38bb" x="605.074517" y="100.52114" style="fill: #d6604d; stroke: #d6604d"/>
    </g>
   </g>
   <g id="line2d_28">
    <path d="M 73.983608 321.757387 
L 132.993709 137.121271 
L 192.00381 288.178612 
L 251.013911 122.083133 
L 310.024012 237.183331 
L 369.034113 121.860244 
L 428.044214 236.422799 
L 487.054315 109.632156 
L 546.064416 109.500523 
L 605.074517 100.52114 
" clip-path="url(#pb61ac4a4ac)" style="fill: none; stroke: #b2182b; stroke-width: 2.2; stroke-linecap: square"/>
    <defs>
     <path id="mb3e809ab54" d="M 0 3 
C 0.795609 3 1.55874 2.683901 2.12132 2.12132 
C 2.683901 1.55874 3 0.795609 3 0 
C 3 -0.795609 2.683901 -1.55874 2.12132 -2.12132 
C 1.55874 -2.683901 0.795609 -3 0 -3 
C -0.795609 -3 -1.55874 -2.683901 -2.12132 -2.12132 
C -2.683901 -1.55874 -3 -0.795609 -3 0 
C -3 0.795609 -2.683901 1.55874 -2.12132 2.12132 
C -1.55874 2.683901 -0.795609 3 0 3 
z
" style="stroke: #b2182b"/>
    </defs>
    <g clip-path="url(#pb61ac4a4ac)">
     <use xlink:href="#mb3e809ab54" x="73.983608" y="321.757387" style="fill: #b2182b; stroke: #b2182b"/>
     <use xlink:href="#mb3e809ab54" x="132.993709" y="137.121271" style="fill: #b2182b; stroke: #b2182b"/>
     <use xlink:href="#mb3e809ab54" x="192.00381" y="288.178612" style="fill: #b2182b; stroke: #b2182b"/>
     <use xlink:href="#mb3e809ab54" x="251.013911" y="122.083133" style="fill: #b2182b; stroke: #b2182b"/>
     <use xlink:href="#mb3e809ab54" x="310.024012" y="237.183331" style="fill: #b2182b; stroke: #b2182b"/>
     <use xlink:href="#mb3e809ab54" x="369.034113" y="121.860244" style="fill: #b2182b; stroke: #b2182b"/>
     <use xlink:href="#mb3e809ab54" x="428.044214" y="236.422799" style="fill: #b2182b; stroke: #b2182b"/>
     <use xlink:href="#mb3e809ab54" x="487.054315" y="109.632156" style="fill: #b2182b; stroke: #b2182b"/>
     <use xlink:href="#mb3e809ab54" x="546.064416" y="109.500523" style="fill: #b2182b; stroke: #b2182b"/>
     <use xlink:href="#mb3e809ab54" x="605.074517" y="100.52114" style="fill: #b2182b; stroke: #b2182b"/>
    </g>
   </g>
   <g id="patch_3">
    <path d="M 47.429063 346.416687 
L 47.429063 37.736687 
" style="fill: none; stroke: #000000; stroke-width: 0.8; stroke-linejoin: miter; stroke-linecap: square"/>
   </g>
   <g id="patch_4">
    <path d="M 47.429063 346.416687 
L 631.629063 346.416687 
" style="fill: none; stroke: #000000; stroke-width: 0.8; stroke-linejoin: miter; stroke-linecap: square"/>
   </g>
   <g id="text_15">
    <!-- RS evolution over training -->
    <g transform="translate(243.280313 17.077969) scale(0.13 -0.13)">
     <defs>
      <path id="DejaVuSans-Bold-76" d="M 97 3500 
L 1216 3500 
L 2088 1081 
L 2956 3500 
L 4078 3500 
L 2700 0 
L 1472 0 
L 97 3500 
z
" transform="scale(0.015625)"/>
      <path id="DejaVuSans-Bold-75" d="M 500 1363 
L 500 3500 
L 1625 3500 
L 1625 3150 
Q 1625 2866 1622 2436 
Q 1619 2006 1619 1863 
Q 1619 1441 1641 1255 
Q 1663 1069 1716 984 
Q 1784 875 1895 815 
Q 2006 756 2150 756 
Q 2500 756 2700 1025 
Q 2900 1294 2900 1772 
L 2900 3500 
L 4019 3500 
L 4019 0 
L 2900 0 
L 2900 506 
Q 2647 200 2364 54 
Q 2081 -91 1741 -91 
Q 1134 -91 817 281 
Q 500 653 500 1363 
z
" transform="scale(0.015625)"/>
      <path id="DejaVuSans-Bold-67" d="M 2919 594 
Q 2688 288 2409 144 
Q 2131 0 1766 0 
Q 1125 0 706 504 
Q 288 1009 288 1791 
Q 288 2575 706 3076 
Q 1125 3578 1766 3578 
Q 2131 3578 2409 3434 
Q 2688 3291 2919 2981 
L 2919 3500 
L 4044 3500 
L 4044 353 
Q 4044 -491 3511 -936 
Q 2978 -1381 1966 -1381 
Q 1638 -1381 1331 -1331 
Q 1025 -1281 716 -1178 
L 716 -306 
Q 1009 -475 1290 -558 
Q 1572 -641 1856 -641 
Q 2406 -641 2662 -400 
Q 2919 -159 2919 353 
L 2919 594 
z
M 2181 2772 
Q 1834 2772 1640 2515 
Q 1447 2259 1447 1791 
Q 1447 1309 1634 1061 
Q 1822 813 2181 813 
Q 2531 813 2725 1069 
Q 2919 1325 2919 1791 
Q 2919 2259 2725 2515 
Q 2531 2772 2181 2772 
z
" transform="scale(0.015625)"/>
     </defs>
     <use xlink:href="#DejaVuSans-Bold-52"/>
     <use xlink:href="#DejaVuSans-Bold-53" transform="translate(77.001953 0)"/>
     <use xlink:href="#DejaVuSans-Bold-20" transform="translate(149.023438 0)"/>
     <use xlink:href="#DejaVuSans-Bold-65" transform="translate(183.837891 0)"/>
     <use xlink:href="#DejaVuSans-Bold-76" transform="translate(251.660156 0)"/>
     <use xlink:href="#DejaVuSans-Bold-6f" transform="translate(316.845703 0)"/>
     <use xlink:href="#DejaVuSans-Bold-6c" transform="translate(385.546875 0)"/>
     <use xlink:href="#DejaVuSans-Bold-75" transform="translate(419.824219 0)"/>
     <use xlink:href="#DejaVuSans-Bold-74" transform="translate(491.015625 0)"/>
     <use xlink:href="#DejaVuSans-Bold-69" transform="translate(538.818359 0)"/>
     <use xlink:href="#DejaVuSans-Bold-6f" transform="translate(573.095703 0)"/>
     <use xlink:href="#DejaVuSans-Bold-6e" transform="translate(641.796875 0)"/>
     <use xlink:href="#DejaVuSans-Bold-20" transform="translate(712.988281 0)"/>
     <use xlink:href="#DejaVuSans-Bold-6f" transform="translate(747.802734 0)"/>
     <use xlink:href="#DejaVuSans-Bold-76" transform="translate(816.503906 0)"/>
     <use xlink:href="#DejaVuSans-Bold-65" transform="translate(881.689453 0)"/>
     <use xlink:href="#DejaVuSans-Bold-72" transform="translate(949.511719 0)"/>
     <use xlink:href="#DejaVuSans-Bold-20" transform="translate(998.828125 0)"/>
     <use xlink:href="#DejaVuSans-Bold-74" transform="translate(1033.642578 0)"/>
     <use xlink:href="#DejaVuSans-Bold-72" transform="translate(1081.445312 0)"/>
     <use xlink:href="#DejaVuSans-Bold-61" transform="translate(1130.761719 0)"/>
     <use xlink:href="#DejaVuSans-Bold-69" transform="translate(1198.242188 0)"/>
     <use xlink:href="#DejaVuSans-Bold-6e" transform="translate(1232.519531 0)"/>
     <use xlink:href="#DejaVuSans-Bold-69" transform="translate(1303.710938 0)"/>
     <use xlink:href="#DejaVuSans-Bold-6e" transform="translate(1337.988281 0)"/>
     <use xlink:href="#DejaVuSans-Bold-67" transform="translate(1409.179688 0)"/>
    </g>
    <!-- (mean ± SEM across seeds) -->
    <g transform="translate(238.448984 31.736688) scale(0.13 -0.13)">
     <defs>
      <path id="DejaVuSans-Bold-b1" d="M 3053 4013 
L 3053 2906 
L 4684 2906 
L 4684 2169 
L 3053 2169 
L 3053 1063 
L 2309 1063 
L 2309 2169 
L 678 2169 
L 678 2906 
L 2309 2906 
L 2309 4013 
L 3053 4013 
z
M 678 744 
L 4684 744 
L 4684 0 
L 678 0 
L 678 744 
z
" transform="scale(0.015625)"/>
     </defs>
     <use xlink:href="#DejaVuSans-Bold-28"/>
     <use xlink:href="#DejaVuSans-Bold-6d" transform="translate(45.703125 0)"/>
     <use xlink:href="#DejaVuSans-Bold-65" transform="translate(149.902344 0)"/>
     <use xlink:href="#DejaVuSans-Bold-61" transform="translate(217.724609 0)"/>
     <use xlink:href="#DejaVuSans-Bold-6e" transform="translate(285.205078 0)"/>
     <use xlink:href="#DejaVuSans-Bold-20" transform="translate(356.396484 0)"/>
     <use xlink:href="#DejaVuSans-Bold-b1" transform="translate(391.210938 0)"/>
     <use xlink:href="#DejaVuSans-Bold-20" transform="translate(475 0)"/>
     <use xlink:href="#DejaVuSans-Bold-53" transform="translate(509.814453 0)"/>
     <use xlink:href="#DejaVuSans-Bold-45" transform="translate(581.835938 0)"/>
     <use xlink:href="#DejaVuSans-Bold-4d" transform="translate(650.146484 0)"/>
     <use xlink:href="#DejaVuSans-Bold-20" transform="translate(749.658203 0)"/>
     <use xlink:href="#DejaVuSans-Bold-61" transform="translate(784.472656 0)"/>
     <use xlink:href="#DejaVuSans-Bold-63" transform="translate(851.953125 0)"/>
     <use xlink:href="#DejaVuSans-Bold-72" transform="translate(911.230469 0)"/>
     <use xlink:href="#DejaVuSans-Bold-6f" transform="translate(960.546875 0)"/>
     <use xlink:href="#DejaVuSans-Bold-73" transform="translate(1029.248047 0)"/>
     <use xlink:href="#DejaVuSans-Bold-73" transform="translate(1088.769531 0)"/>
     <use xlink:href="#DejaVuSans-Bold-20" transform="translate(1148.291016 0)"/>
     <use xlink:href="#DejaVuSans-Bold-73" transform="translate(1183.105469 0)"/>
     <use xlink:href="#DejaVuSans-Bold-65" transform="translate(1242.626953 0)"/>
     <use xlink:href="#DejaVuSans-Bold-65" transform="translate(1310.449219 0)"/>
     <use xlink:href="#DejaVuSans-Bold-64" transform="translate(1378.271484 0)"/>
     <use xlink:href="#DejaVuSans-Bold-73" transform="translate(1449.853516 0)"/>
     <use xlink:href="#DejaVuSans-Bold-29" transform="translate(1509.375 0)"/>
    </g>
   </g>
   <g id="legend_1">
    <g id="patch_5">
     <path d="M 455.743125 341.416687 
L 624.629063 341.416687 
Q 626.629063 341.416687 626.629063 339.416687 
L 626.629063 280.869812 
Q 626.629063 278.869812 624.629063 278.869812 
L 455.743125 278.869812 
Q 453.743125 278.869812 453.743125 280.869812 
L 453.743125 339.416687 
Q 453.743125 341.416687 455.743125 341.416687 
z
" style="fill: #ffffff; opacity: 0.9; stroke: #cccccc; stroke-linejoin: miter"/>
    </g>
    <g id="line2d_29">
     <path d="M 457.743125 286.96825 
L 467.743125 286.96825 
L 477.743125 286.96825 
" style="fill: none; stroke: #2166ac; stroke-width: 2.2; stroke-linecap: square"/>
     <g>
      <use xlink:href="#ma7c41a2df0" x="467.743125" y="286.96825" style="fill: #2166ac; stroke: #2166ac"/>
     </g>
    </g>
    <g id="text_16">
     <!-- FULL (n=10) -->
     <g transform="translate(485.743125 290.46825) scale(0.1 -0.1)">
      <defs>
       <path id="DejaVuSans-46" d="M 628 4666 
L 3309 4666 
L 3309 4134 
L 1259 4134 
L 1259 2759 
L 3109 2759 
L 3109 2228 
L 1259 2228 
L 1259 0 
L 628 0 
L 628 4666 
z
" transform="scale(0.015625)"/>
       <path id="DejaVuSans-55" d="M 556 4666 
L 1191 4666 
L 1191 1831 
Q 1191 1081 1462 751 
Q 1734 422 2344 422 
Q 2950 422 3222 751 
Q 3494 1081 3494 1831 
L 3494 4666 
L 4128 4666 
L 4128 1753 
Q 4128 841 3676 375 
Q 3225 -91 2344 -91 
Q 1459 -91 1007 375 
Q 556 841 556 1753 
L 556 4666 
z
" transform="scale(0.015625)"/>
       <path id="DejaVuSans-4c" d="M 628 4666 
L 1259 4666 
L 1259 531 
L 3531 531 
L 3531 0 
L 628 0 
L 628 4666 
z
" transform="scale(0.015625)"/>
       <path id="DejaVuSans-20" transform="scale(0.015625)"/>
       <path id="DejaVuSans-28" d="M 1984 4856 
Q 1566 4138 1362 3434 
Q 1159 2731 1159 2009 
Q 1159 1288 1364 580 
Q 1569 -128 1984 -844 
L 1484 -844 
Q 1016 -109 783 600 
Q 550 1309 550 2009 
Q 550 2706 781 3412 
Q 1013 4119 1484 4856 
L 1984 4856 
z
" transform="scale(0.015625)"/>
       <path id="DejaVuSans-6e" d="M 3513 2113 
L 3513 0 
L 2938 0 
L 2938 2094 
Q 2938 2591 2744 2837 
Q 2550 3084 2163 3084 
Q 1697 3084 1428 2787 
Q 1159 2491 1159 1978 
L 1159 0 
L 581 0 
L 581 3500 
L 1159 3500 
L 1159 2956 
Q 1366 3272 1645 3428 
Q 1925 3584 2291 3584 
Q 2894 3584 3203 3211 
Q 3513 2838 3513 2113 
z
" transform="scale(0.015625)"/>
       <path id="DejaVuSans-3d" d="M 678 2906 
L 4684 2906 
L 4684 2381 
L 678 2381 
L 678 2906 
z
M 678 1631 
L 4684 1631 
L 4684 1100 
L 678 1100 
L 678 1631 
z
" transform="scale(0.015625)"/>
       <path id="DejaVuSans-29" d="M 513 4856 
L 1013 4856 
Q 1481 4119 1714 3412 
Q 1947 2706 1947 2009 
Q 1947 1309 1714 600 
Q 1481 -109 1013 -844 
L 513 -844 
Q 928 -128 1133 580 
Q 1338 1288 1338 2009 
Q 1338 2731 1133 3434 
Q 928 4138 513 4856 
z
" transform="scale(0.015625)"/>
      </defs>
      <use xlink:href="#DejaVuSans-46"/>
      <use xlink:href="#DejaVuSans-55" transform="translate(57.519531 0)"/>
      <use xlink:href="#DejaVuSans-4c" transform="translate(130.712891 0)"/>
      <use xlink:href="#DejaVuSans-4c" transform="translate(186.425781 0)"/>
      <use xlink:href="#DejaVuSans-20" transform="translate(242.138672 0)"/>
      <use xlink:href="#DejaVuSans-28" transform="translate(273.925781 0)"/>
      <use xlink:href="#DejaVuSans-6e" transform="translate(312.939453 0)"/>
      <use xlink:href="#DejaVuSans-3d" transform="translate(376.318359 0)"/>
      <use xlink:href="#DejaVuSans-31" transform="translate(460.107422 0)"/>
      <use xlink:href="#DejaVuSans-30" transform="translate(523.730469 0)"/>
      <use xlink:href="#DejaVuSans-29" transform="translate(587.353516 0)"/>
     </g>
    </g>
    <g id="line2d_30">
     <path d="M 457.743125 301.646375 
L 467.743125 301.646375 
L 477.743125 301.646375 
" style="fill: none; stroke: #5aae61; stroke-width: 2.2; stroke-linecap: square"/>
     <g>
      <use xlink:href="#m21d872e7d1" x="467.743125" y="301.646375" style="fill: #5aae61; stroke: #5aae61"/>
     </g>
    </g>
    <g id="text_17">
     <!-- FULL_NO_MB (n=10) -->
     <g transform="translate(485.743125 305.146375) scale(0.1 -0.1)">
      <defs>
       <path id="DejaVuSans-5f" d="M 3263 -1063 
L 3263 -1509 
L -63 -1509 
L -63 -1063 
L 3263 -1063 
z
" transform="scale(0.015625)"/>
       <path id="DejaVuSans-4e" d="M 628 4666 
L 1478 4666 
L 3547 763 
L 3547 4666 
L 4159 4666 
L 4159 0 
L 3309 0 
L 1241 3903 
L 1241 0 
L 628 0 
L 628 4666 
z
" transform="scale(0.015625)"/>
       <path id="DejaVuSans-4f" d="M 2522 4238 
Q 1834 4238 1429 3725 
Q 1025 3213 1025 2328 
Q 1025 1447 1429 934 
Q 1834 422 2522 422 
Q 3209 422 3611 934 
Q 4013 1447 4013 2328 
Q 4013 3213 3611 3725 
Q 3209 4238 2522 4238 
z
M 2522 4750 
Q 3503 4750 4090 4092 
Q 4678 3434 4678 2328 
Q 4678 1225 4090 567 
Q 3503 -91 2522 -91 
Q 1538 -91 948 565 
Q 359 1222 359 2328 
Q 359 3434 948 4092 
Q 1538 4750 2522 4750 
z
" transform="scale(0.015625)"/>
       <path id="DejaVuSans-4d" d="M 628 4666 
L 1569 4666 
L 2759 1491 
L 3956 4666 
L 4897 4666 
L 4897 0 
L 4281 0 
L 4281 4097 
L 3078 897 
L 2444 897 
L 1241 4097 
L 1241 0 
L 628 0 
L 628 4666 
z
" transform="scale(0.015625)"/>
       <path id="DejaVuSans-42" d="M 1259 2228 
L 1259 519 
L 2272 519 
Q 2781 519 3026 730 
Q 3272 941 3272 1375 
Q 3272 1813 3026 2020 
Q 2781 2228 2272 2228 
L 1259 2228 
z
M 1259 4147 
L 1259 2741 
L 2194 2741 
Q 2656 2741 2882 2914 
Q 3109 3088 3109 3444 
Q 3109 3797 2882 3972 
Q 2656 4147 2194 4147 
L 1259 4147 
z
M 628 4666 
L 2241 4666 
Q 2963 4666 3353 4366 
Q 3744 4066 3744 3513 
Q 3744 3084 3544 2831 
Q 3344 2578 2956 2516 
Q 3422 2416 3680 2098 
Q 3938 1781 3938 1306 
Q 3938 681 3513 340 
Q 3088 0 2303 0 
L 628 0 
L 628 4666 
z
" transform="scale(0.015625)"/>
      </defs>
      <use xlink:href="#DejaVuSans-46"/>
      <use xlink:href="#DejaVuSans-55" transform="translate(57.519531 0)"/>
      <use xlink:href="#DejaVuSans-4c" transform="translate(130.712891 0)"/>
      <use xlink:href="#DejaVuSans-4c" transform="translate(186.425781 0)"/>
      <use xlink:href="#DejaVuSans-5f" transform="translate(242.138672 0)"/>
      <use xlink:href="#DejaVuSans-4e" transform="translate(292.138672 0)"/>
      <use xlink:href="#DejaVuSans-4f" transform="translate(366.943359 0)"/>
      <use xlink:href="#DejaVuSans-5f" transform="translate(445.654297 0)"/>
      <use xlink:href="#DejaVuSans-4d" transform="translate(495.654297 0)"/>
      <use xlink:href="#DejaVuSans-42" transform="translate(581.933594 0)"/>
      <use xlink:href="#DejaVuSans-20" transform="translate(650.537109 0)"/>
      <use xlink:href="#DejaVuSans-28" transform="translate(682.324219 0)"/>
      <use xlink:href="#DejaVuSans-6e" transform="translate(721.337891 0)"/>
      <use xlink:href="#DejaVuSans-3d" transform="translate(784.716797 0)"/>
      <use xlink:href="#DejaVuSans-31" transform="translate(868.505859 0)"/>
      <use xlink:href="#DejaVuSans-30" transform="translate(932.128906 0)"/>
      <use xlink:href="#DejaVuSans-29" transform="translate(995.751953 0)"/>
     </g>
    </g>
    <g id="line2d_31">
     <path d="M 457.743125 316.602625 
L 467.743125 316.602625 
L 477.743125 316.602625 
" style="fill: none; stroke: #d6604d; stroke-width: 2.2; stroke-linecap: square"/>
     <g>
      <use xlink:href="#mbc205e38bb" x="467.743125" y="316.602625" style="fill: #d6604d; stroke: #d6604d"/>
     </g>
    </g>
    <g id="text_18">
     <!-- NO_REPLAY (n=10) -->
     <g transform="translate(485.743125 320.102625) scale(0.1 -0.1)">
      <defs>
       <path id="DejaVuSans-52" d="M 2841 2188 
Q 3044 2119 3236 1894 
Q 3428 1669 3622 1275 
L 4263 0 
L 3584 0 
L 2988 1197 
Q 2756 1666 2539 1819 
Q 2322 1972 1947 1972 
L 1259 1972 
L 1259 0 
L 628 0 
L 628 4666 
L 2053 4666 
Q 2853 4666 3247 4331 
Q 3641 3997 3641 3322 
Q 3641 2881 3436 2590 
Q 3231 2300 2841 2188 
z
M 1259 4147 
L 1259 2491 
L 2053 2491 
Q 2509 2491 2742 2702 
Q 2975 2913 2975 3322 
Q 2975 3731 2742 3939 
Q 2509 4147 2053 4147 
L 1259 4147 
z
" transform="scale(0.015625)"/>
       <path id="DejaVuSans-45" d="M 628 4666 
L 3578 4666 
L 3578 4134 
L 1259 4134 
L 1259 2753 
L 3481 2753 
L 3481 2222 
L 1259 2222 
L 1259 531 
L 3634 531 
L 3634 0 
L 628 0 
L 628 4666 
z
" transform="scale(0.015625)"/>
       <path id="DejaVuSans-50" d="M 1259 4147 
L 1259 2394 
L 2053 2394 
Q 2494 2394 2734 2622 
Q 2975 2850 2975 3272 
Q 2975 3691 2734 3919 
Q 2494 4147 2053 4147 
L 1259 4147 
z
M 628 4666 
L 2053 4666 
Q 2838 4666 3239 4311 
Q 3641 3956 3641 3272 
Q 3641 2581 3239 2228 
Q 2838 1875 2053 1875 
L 1259 1875 
L 1259 0 
L 628 0 
L 628 4666 
z
" transform="scale(0.015625)"/>
       <path id="DejaVuSans-41" d="M 2188 4044 
L 1331 1722 
L 3047 1722 
L 2188 4044 
z
M 1831 4666 
L 2547 4666 
L 4325 0 
L 3669 0 
L 3244 1197 
L 1141 1197 
L 716 0 
L 50 0 
L 1831 4666 
z
" transform="scale(0.015625)"/>
       <path id="DejaVuSans-59" d="M -13 4666 
L 666 4666 
L 1959 2747 
L 3244 4666 
L 3922 4666 
L 2272 2222 
L 2272 0 
L 1638 0 
L 1638 2222 
L -13 4666 
z
" transform="scale(0.015625)"/>
      </defs>
      <use xlink:href="#DejaVuSans-4e"/>
      <use xlink:href="#DejaVuSans-4f" transform="translate(74.804688 0)"/>
      <use xlink:href="#DejaVuSans-5f" transform="translate(153.515625 0)"/>
      <use xlink:href="#DejaVuSans-52" transform="translate(203.515625 0)"/>
      <use xlink:href="#DejaVuSans-45" transform="translate(272.998047 0)"/>
      <use xlink:href="#DejaVuSans-50" transform="translate(336.181641 0)"/>
      <use xlink:href="#DejaVuSans-4c" transform="translate(396.484375 0)"/>
      <use xlink:href="#DejaVuSans-41" transform="translate(454.447266 0)"/>
      <use xlink:href="#DejaVuSans-59" transform="translate(515.105469 0)"/>
      <use xlink:href="#DejaVuSans-20" transform="translate(576.189453 0)"/>
      <use xlink:href="#DejaVuSans-28" transform="translate(607.976562 0)"/>
      <use xlink:href="#DejaVuSans-6e" transform="translate(646.990234 0)"/>
      <use xlink:href="#DejaVuSans-3d" transform="translate(710.369141 0)"/>
      <use xlink:href="#DejaVuSans-31" transform="translate(794.158203 0)"/>
      <use xlink:href="#DejaVuSans-30" transform="translate(857.78125 0)"/>
      <use xlink:href="#DejaVuSans-29" transform="translate(921.404297 0)"/>
     </g>
    </g>
    <g id="line2d_32">
     <path d="M 457.743125 331.558875 
L 467.743125 331.558875 
L 477.743125 331.558875 
" style="fill: none; stroke: #b2182b; stroke-width: 2.2; stroke-linecap: square"/>
     <g>
      <use xlink:href="#mb3e809ab54" x="467.743125" y="331.558875" style="fill: #b2182b; stroke: #b2182b"/>
     </g>
    </g>
    <g id="text_19">
     <!-- NO_REPLAY_NO_MB (n=10) -->
     <g transform="translate(485.743125 335.058875) scale(0.1 -0.1)">
      <use xlink:href="#DejaVuSans-4e"/>
      <use xlink:href="#DejaVuSans-4f" transform="translate(74.804688 0)"/>
      <use xlink:href="#DejaVuSans-5f" transform="translate(153.515625 0)"/>
      <use xlink:href="#DejaVuSans-52" transform="translate(203.515625 0)"/>
      <use xlink:href="#DejaVuSans-45" transform="translate(272.998047 0)"/>
      <use xlink:href="#DejaVuSans-50" transform="translate(336.181641 0)"/>
      <use xlink:href="#DejaVuSans-4c" transform="translate(396.484375 0)"/>
      <use xlink:href="#DejaVuSans-41" transform="translate(454.447266 0)"/>
      <use xlink:href="#DejaVuSans-59" transform="translate(515.105469 0)"/>
      <use xlink:href="#DejaVuSans-5f" transform="translate(576.189453 0)"/>
      <use xlink:href="#DejaVuSans-4e" transform="translate(626.189453 0)"/>
      <use xlink:href="#DejaVuSans-4f" transform="translate(700.994141 0)"/>
      <use xlink:href="#DejaVuSans-5f" transform="translate(779.705078 0)"/>
      <use xlink:href="#DejaVuSans-4d" transform="translate(829.705078 0)"/>
      <use xlink:href="#DejaVuSans-42" transform="translate(915.984375 0)"/>
      <use xlink:href="#DejaVuSans-20" transform="translate(984.587891 0)"/>
      <use xlink:href="#DejaVuSans-28" transform="translate(1016.375 0)"/>
      <use xlink:href="#DejaVuSans-6e" transform="translate(1055.388672 0)"/>
      <use xlink:href="#DejaVuSans-3d" transform="translate(1118.767578 0)"/>
      <use xlink:href="#DejaVuSans-31" transform="translate(1202.556641 0)"/>
      <use xlink:href="#DejaVuSans-30" transform="translate(1266.179688 0)"/>
      <use xlink:href="#DejaVuSans-29" transform="translate(1329.802734 0)"/>
     </g>
    </g>
   </g>
  </g>
 </g>
 <defs>
  <clipPath id="pb61ac4a4ac">
   <rect x="47.429063" y="37.736688" width="584.2" height="308.68"/>
  </clipPath>
 </defs>
</svg>
