<?xml version="1.0" encoding="utf-8" standalone="no"?>
<!DOCTYPE svg PUBLIC "-//W3C//DTD SVG 1.1//EN"
  "http://www.w3.org/Graphics/SVG/1.1/DTD/svg11.dtd">
<svg xmlns:xlink="http://www.w3.org/1999/xlink" width="566.685937pt" height="386.617656pt" viewBox="0 0 566.685937 386.617656" xmlns="http://www.w3.org/2000/svg" version="1.1">
 <metadata>
  <rdf:RDF xmlns:dc="http://purl.org/dc/elements/1.1/" xmlns:cc="http://creativecommons.org/ns#" xmlns:rdf="http://www.w3.org/1999/02/22-rdf-syntax-ns#">
   <cc:Work>
    <dc:type rdf:resource="http://purl.org/dc/dcmitype/StillImage"/>
    <dc:date>2026-06-05T14:47:49.249814</dc:date>
    <dc:format>image/svg+xml</dc:format>
    <dc:creator>
     <cc:Agent>
      <dc:title>Matplotlib v3.10.3, https://matplotlib.org/</dc:title>
     </cc:Agent>
    </dc:creator>
   </cc:Work>
  </rdf:RDF>
 </metadata>
 <defs>
  <style type="text/css">*{stroke-linejoin: round; stroke-linecap: butt}</style>
 </defs>
 <g id="figure_1">
  <g id="patch_1">
   <path d="M 0 386.617656 
L 566.685937 386.617656 
L 566.685937 0 
L 0 0 
z
" style="fill: #ffffff"/>
  </g>
  <g id="axes_1">
   <g id="patch_2">
    <path d="M 54.305938 362.637969 
L 559.485937 362.637969 
L 559.485937 23.077969 
L 54.305938 23.077969 
z
" style="fill: #ffffff"/>
   </g>
   <g id="patch_3">
    <path d="M 77.268665 362.637969 
L 208.484249 362.637969 
L 208.484249 60.764559 
L 77.268665 60.764559 
z
" clip-path="url(#p685ba8bee2)" style="fill: #2166ac; opacity: 0.85; stroke: #000000; stroke-linejoin: miter"/>
   </g>
   <g id="patch_4">
    <path d="M 241.288145 362.637969 
L 372.50373 362.637969 
L 372.50373 335.037297 
L 241.288145 335.037297 
z
" clip-path="url(#p685ba8bee2)" style="fill: #d6604d; opacity: 0.85; stroke: #000000; stroke-linejoin: miter"/>
   </g>
   <g id="patch_5">
    <path d="M 405.307626 362.637969 
L 536.52321 362.637969 
L 536.52321 277.709111 
L 405.307626 277.709111 
z
" clip-path="url(#p685ba8bee2)" style="fill: #5aae61; opacity: 0.85; stroke: #000000; stroke-linejoin: miter"/>
   </g>
   <g id="matplotlib.axis_1">
    <g id="xtick_1">
     <g id="line2d_1">
      <defs>
       <path id="mdcbba58daa" d="M 0 0 
L 0 3.5 
" style="stroke: #000000; stroke-width: 0.8"/>
      </defs>
      <g>
       <use xlink:href="#mdcbba58daa" x="142.876457" y="362.637969" style="stroke: #000000; stroke-width: 0.8"/>
      </g>
     </g>
     <g id="text_1">
      <!-- FULL -->
      <g transform="translate(130.769426 377.236406) scale(0.1 -0.1)">
       <defs>
        <path id="DejaVuSans-46" d="M 628 4666 
L 3309 4666 
L 3309 4134 
L 1259 4134 
L 1259 2759 
L 3109 2759 
L 3109 2228 
L 1259 2228 
L 1259 0 
L 628 0 
L 628 4666 
z
" transform="scale(0.015625)"/>
        <path id="DejaVuSans-55" d="M 556 4666 
L 1191 4666 
L 1191 1831 
Q 1191 1081 1462 751 
Q 1734 422 2344 422 
Q 2950 422 3222 751 
Q 3494 1081 3494 1831 
L 3494 4666 
L 4128 4666 
L 4128 1753 
Q 4128 841 3676 375 
Q 3225 -91 2344 -91 
Q 1459 -91 1007 375 
Q 556 841 556 1753 
L 556 4666 
z
" transform="scale(0.015625)"/>
        <path id="DejaVuSans-4c" d="M 628 4666 
L 1259 4666 
L 1259 531 
L 3531 531 
L 3531 0 
L 628 0 
L 628 4666 
z
" transform="scale(0.015625)"/>
       </defs>
       <use xlink:href="#DejaVuSans-46"/>
       <use xlink:href="#DejaVuSans-55" transform="translate(57.519531 0)"/>
       <use xlink:href="#DejaVuSans-4c" transform="translate(130.712891 0)"/>
       <use xlink:href="#DejaVuSans-4c" transform="translate(186.425781 0)"/>
      </g>
     </g>
    </g>
    <g id="xtick_2">
     <g id="line2d_2">
      <g>
       <use xlink:href="#mdcbba58daa" x="306.895937" y="362.637969" style="stroke: #000000; stroke-width: 0.8"/>
      </g>
     </g>
     <g id="text_2">
      <!-- NO_CORE_STIM -->
      <g transform="translate(268.14125 377.059844) scale(0.1 -0.1)">
       <defs>
        <path id="DejaVuSans-4e" d="M 628 4666 
L 1478 4666 
L 3547 763 
L 3547 4666 
L 4159 4666 
L 4159 0 
L 3309 0 
L 1241 3903 
L 1241 0 
L 628 0 
L 628 4666 
z
" transform="scale(0.015625)"/>
        <path id="DejaVuSans-4f" d="M 2522 4238 
Q 1834 4238 1429 3725 
Q 1025 3213 1025 2328 
Q 1025 1447 1429 934 
Q 1834 422 2522 422 
Q 3209 422 3611 934 
Q 4013 1447 4013 2328 
Q 4013 3213 3611 3725 
Q 3209 4238 2522 4238 
z
M 2522 4750 
Q 3503 4750 4090 4092 
Q 4678 3434 4678 2328 
Q 4678 1225 4090 567 
Q 3503 -91 2522 -91 
Q 1538 -91 948 565 
Q 359 1222 359 2328 
Q 359 3434 948 4092 
Q 1538 4750 2522 4750 
z
" transform="scale(0.015625)"/>
        <path id="DejaVuSans-5f" d="M 3263 -1063 
L 3263 -1509 
L -63 -1509 
L -63 -1063 
L 3263 -1063 
z
" transform="scale(0.015625)"/>
        <path id="DejaVuSans-43" d="M 4122 4306 
L 4122 3641 
Q 3803 3938 3442 4084 
Q 3081 4231 2675 4231 
Q 1875 4231 1450 3742 
Q 1025 3253 1025 2328 
Q 1025 1406 1450 917 
Q 1875 428 2675 428 
Q 3081 428 3442 575 
Q 3803 722 4122 1019 
L 4122 359 
Q 3791 134 3420 21 
Q 3050 -91 2638 -91 
Q 1578 -91 968 557 
Q 359 1206 359 2328 
Q 359 3453 968 4101 
Q 1578 4750 2638 4750 
Q 3056 4750 3426 4639 
Q 3797 4528 4122 4306 
z
" transform="scale(0.015625)"/>
        <path id="DejaVuSans-52" d="M 2841 2188 
Q 3044 2119 3236 1894 
Q 3428 1669 3622 1275 
L 4263 0 
L 3584 0 
L 2988 1197 
Q 2756 1666 2539 1819 
Q 2322 1972 1947 1972 
L 1259 1972 
L 1259 0 
L 628 0 
L 628 4666 
L 2053 4666 
Q 2853 4666 3247 4331 
Q 3641 3997 3641 3322 
Q 3641 2881 3436 2590 
Q 3231 2300 2841 2188 
z
M 1259 4147 
L 1259 2491 
L 2053 2491 
Q 2509 2491 2742 2702 
Q 2975 2913 2975 3322 
Q 2975 3731 2742 3939 
Q 2509 4147 2053 4147 
L 1259 4147 
z
" transform="scale(0.015625)"/>
        <path id="DejaVuSans-45" d="M 628 4666 
L 3578 4666 
L 3578 4134 
L 1259 4134 
L 1259 2753 
L 3481 2753 
L 3481 2222 
L 1259 2222 
L 1259 531 
L 3634 531 
L 3634 0 
L 628 0 
L 628 4666 
z
" transform="scale(0.015625)"/>
        <path id="DejaVuSans-53" d="M 3425 4513 
L 3425 3897 
Q 3066 4069 2747 4153 
Q 2428 4238 2131 4238 
Q 1616 4238 1336 4038 
Q 1056 3838 1056 3469 
Q 1056 3159 1242 3001 
Q 1428 2844 1947 2747 
L 2328 2669 
Q 3034 2534 3370 2195 
Q 3706 1856 3706 1288 
Q 3706 609 3251 259 
Q 2797 -91 1919 -91 
Q 1588 -91 1214 -16 
Q 841 59 441 206 
L 441 856 
Q 825 641 1194 531 
Q 1563 422 1919 422 
Q 2459 422 2753 634 
Q 3047 847 3047 1241 
Q 3047 1584 2836 1778 
Q 2625 1972 2144 2069 
L 1759 2144 
Q 1053 2284 737 2584 
Q 422 2884 422 3419 
Q 422 4038 858 4394 
Q 1294 4750 2059 4750 
Q 2388 4750 2728 4690 
Q 3069 4631 3425 4513 
z
" transform="scale(0.015625)"/>
        <path id="DejaVuSans-54" d="M -19 4666 
L 3928 4666 
L 3928 4134 
L 2272 4134 
L 2272 0 
L 1638 0 
L 1638 4134 
L -19 4134 
L -19 4666 
z
" transform="scale(0.015625)"/>
        <path id="DejaVuSans-49" d="M 628 4666 
L 1259 4666 
L 1259 0 
L 628 0 
L 628 4666 
z
" transform="scale(0.015625)"/>
        <path id="DejaVuSans-4d" d="M 628 4666 
L 1569 4666 
L 2759 1491 
L 3956 4666 
L 4897 4666 
L 4897 0 
L 4281 0 
L 4281 4097 
L 3078 897 
L 2444 897 
L 1241 4097 
L 1241 0 
L 628 0 
L 628 4666 
z
" transform="scale(0.015625)"/>
       </defs>
       <use xlink:href="#DejaVuSans-4e"/>
       <use xlink:href="#DejaVuSans-4f" transform="translate(74.804688 0)"/>
       <use xlink:href="#DejaVuSans-5f" transform="translate(153.515625 0)"/>
       <use xlink:href="#DejaVuSans-43" transform="translate(203.515625 0)"/>
       <use xlink:href="#DejaVuSans-4f" transform="translate(273.339844 0)"/>
       <use xlink:href="#DejaVuSans-52" transform="translate(352.050781 0)"/>
       <use xlink:href="#DejaVuSans-45" transform="translate(421.533203 0)"/>
       <use xlink:href="#DejaVuSans-5f" transform="translate(484.716797 0)"/>
       <use xlink:href="#DejaVuSans-53" transform="translate(534.716797 0)"/>
       <use xlink:href="#DejaVuSans-54" transform="translate(598.193359 0)"/>
       <use xlink:href="#DejaVuSans-49" transform="translate(659.277344 0)"/>
       <use xlink:href="#DejaVuSans-4d" transform="translate(688.769531 0)"/>
      </g>
     </g>
    </g>
    <g id="xtick_3">
     <g id="line2d_3">
      <g>
       <use xlink:href="#mdcbba58daa" x="470.915418" y="362.637969" style="stroke: #000000; stroke-width: 0.8"/>
      </g>
     </g>
     <g id="text_3">
      <!-- HALF_STIM -->
      <g transform="translate(443.556043 377.059844) scale(0.1 -0.1)">
       <defs>
        <path id="DejaVuSans-48" d="M 628 4666 
L 1259 4666 
L 1259 2753 
L 3553 2753 
L 3553 4666 
L 4184 4666 
L 4184 0 
L 3553 0 
L 3553 2222 
L 1259 2222 
L 1259 0 
L 628 0 
L 628 4666 
z
" transform="scale(0.015625)"/>
        <path id="DejaVuSans-41" d="M 2188 4044 
L 1331 1722 
L 3047 1722 
L 2188 4044 
z
M 1831 4666 
L 2547 4666 
L 4325 0 
L 3669 0 
L 3244 1197 
L 1141 1197 
L 716 0 
L 50 0 
L 1831 4666 
z
" transform="scale(0.015625)"/>
       </defs>
       <use xlink:href="#DejaVuSans-48"/>
       <use xlink:href="#DejaVuSans-41" transform="translate(75.195312 0)"/>
       <use xlink:href="#DejaVuSans-4c" transform="translate(143.603516 0)"/>
       <use xlink:href="#DejaVuSans-46" transform="translate(199.316406 0)"/>
       <use xlink:href="#DejaVuSans-5f" transform="translate(256.835938 0)"/>
       <use xlink:href="#DejaVuSans-53" transform="translate(306.835938 0)"/>
       <use xlink:href="#DejaVuSans-54" transform="translate(370.3125 0)"/>
       <use xlink:href="#DejaVuSans-49" transform="translate(431.396484 0)"/>
       <use xlink:href="#DejaVuSans-4d" transform="translate(460.888672 0)"/>
      </g>
     </g>
    </g>
   </g>
   <g id="matplotlib.axis_2">
    <g id="ytick_1">
     <g id="line2d_4">
      <path d="M 54.305938 362.637969 
L 559.485937 362.637969 
" clip-path="url(#p685ba8bee2)" style="fill: none; stroke: #b0b0b0; stroke-opacity: 0.3; stroke-width: 0.8; stroke-linecap: square"/>
     </g>
     <g id="line2d_5">
      <defs>
       <path id="m8282219b69" d="M 0 0 
L -3.5 0 
" style="stroke: #000000; stroke-width: 0.8"/>
      </defs>
      <g>
       <use xlink:href="#m8282219b69" x="54.305938" y="362.637969" style="stroke: #000000; stroke-width: 0.8"/>
      </g>
     </g>
     <g id="text_4">
      <!-- 0.00 -->
      <g transform="translate(22.81375 366.817109) scale(0.11 -0.11)">
       <defs>
        <path id="DejaVuSans-30" d="M 2034 4250 
Q 1547 4250 1301 3770 
Q 1056 3291 1056 2328 
Q 1056 1369 1301 889 
Q 1547 409 2034 409 
Q 2525 409 2770 889 
Q 3016 1369 3016 2328 
Q 3016 3291 2770 3770 
Q 2525 4250 2034 4250 
z
M 2034 4750 
Q 2819 4750 3233 4129 
Q 3647 3509 3647 2328 
Q 3647 1150 3233 529 
Q 2819 -91 2034 -91 
Q 1250 -91 836 529 
Q 422 1150 422 2328 
Q 422 3509 836 4129 
Q 1250 4750 2034 4750 
z
" transform="scale(0.015625)"/>
        <path id="DejaVuSans-2e" d="M 684 794 
L 1344 794 
L 1344 0 
L 684 0 
L 684 794 
z
" transform="scale(0.015625)"/>
       </defs>
       <use xlink:href="#DejaVuSans-30"/>
       <use xlink:href="#DejaVuSans-2e" transform="translate(63.623047 0)"/>
       <use xlink:href="#DejaVuSans-30" transform="translate(95.410156 0)"/>
       <use xlink:href="#DejaVuSans-30" transform="translate(159.033203 0)"/>
      </g>
     </g>
    </g>
    <g id="ytick_2">
     <g id="line2d_6">
      <path d="M 54.305938 309.862926 
L 559.485937 309.862926 
" clip-path="url(#p685ba8bee2)" style="fill: none; stroke: #b0b0b0; stroke-opacity: 0.3; stroke-width: 0.8; stroke-linecap: square"/>
     </g>
     <g id="line2d_7">
      <g>
       <use xlink:href="#m8282219b69" x="54.305938" y="309.862926" style="stroke: #000000; stroke-width: 0.8"/>
      </g>
     </g>
     <g id="text_5">
      <!-- 0.05 -->
      <g transform="translate(22.81375 314.042067) scale(0.11 -0.11)">
       <defs>
        <path id="DejaVuSans-35" d="M 691 4666 
L 3169 4666 
L 3169 4134 
L 1269 4134 
L 1269 2991 
Q 1406 3038 1543 3061 
Q 1681 3084 1819 3084 
Q 2600 3084 3056 2656 
Q 3513 2228 3513 1497 
Q 3513 744 3044 326 
Q 2575 -91 1722 -91 
Q 1428 -91 1123 -41 
Q 819 9 494 109 
L 494 744 
Q 775 591 1075 516 
Q 1375 441 1709 441 
Q 2250 441 2565 725 
Q 2881 1009 2881 1497 
Q 2881 1984 2565 2268 
Q 2250 2553 1709 2553 
Q 1456 2553 1204 2497 
Q 953 2441 691 2322 
L 691 4666 
z
" transform="scale(0.015625)"/>
       </defs>
       <use xlink:href="#DejaVuSans-30"/>
       <use xlink:href="#DejaVuSans-2e" transform="translate(63.623047 0)"/>
       <use xlink:href="#DejaVuSans-30" transform="translate(95.410156 0)"/>
       <use xlink:href="#DejaVuSans-35" transform="translate(159.033203 0)"/>
      </g>
     </g>
    </g>
    <g id="ytick_3">
     <g id="line2d_8">
      <path d="M 54.305938 257.087884 
L 559.485937 257.087884 
" clip-path="url(#p685ba8bee2)" style="fill: none; stroke: #b0b0b0; stroke-opacity: 0.3; stroke-width: 0.8; stroke-linecap: square"/>
     </g>
     <g id="line2d_9">
      <g>
       <use xlink:href="#m8282219b69" x="54.305938" y="257.087884" style="stroke: #000000; stroke-width: 0.8"/>
      </g>
     </g>
     <g id="text_6">
      <!-- 0.10 -->
      <g transform="translate(22.81375 261.267024) scale(0.11 -0.11)">
       <defs>
        <path id="DejaVuSans-31" d="M 794 531 
L 1825 531 
L 1825 4091 
L 703 3866 
L 703 4441 
L 1819 4666 
L 2450 4666 
L 2450 531 
L 3481 531 
L 3481 0 
L 794 0 
L 794 531 
z
" transform="scale(0.015625)"/>
       </defs>
       <use xlink:href="#DejaVuSans-30"/>
       <use xlink:href="#DejaVuSans-2e" transform="translate(63.623047 0)"/>
       <use xlink:href="#DejaVuSans-31" transform="translate(95.410156 0)"/>
       <use xlink:href="#DejaVuSans-30" transform="translate(159.033203 0)"/>
      </g>
     </g>
    </g>
    <g id="ytick_4">
     <g id="line2d_10">
      <path d="M 54.305938 204.312841 
L 559.485937 204.312841 
" clip-path="url(#p685ba8bee2)" style="fill: none; stroke: #b0b0b0; stroke-opacity: 0.3; stroke-width: 0.8; stroke-linecap: square"/>
     </g>
     <g id="line2d_11">
      <g>
       <use xlink:href="#m8282219b69" x="54.305938" y="204.312841" style="stroke: #000000; stroke-width: 0.8"/>
      </g>
     </g>
     <g id="text_7">
      <!-- 0.15 -->
      <g transform="translate(22.81375 208.491982) scale(0.11 -0.11)">
       <use xlink:href="#DejaVuSans-30"/>
       <use xlink:href="#DejaVuSans-2e" transform="translate(63.623047 0)"/>
       <use xlink:href="#DejaVuSans-31" transform="translate(95.410156 0)"/>
       <use xlink:href="#DejaVuSans-35" transform="translate(159.033203 0)"/>
      </g>
     </g>
    </g>
    <g id="ytick_5">
     <g id="line2d_12">
      <path d="M 54.305938 151.537799 
L 559.485937 151.537799 
" clip-path="url(#p685ba8bee2)" style="fill: none; stroke: #b0b0b0; stroke-opacity: 0.3; stroke-width: 0.8; stroke-linecap: square"/>
     </g>
     <g id="line2d_13">
      <g>
       <use xlink:href="#m8282219b69" x="54.305938" y="151.537799" style="stroke: #000000; stroke-width: 0.8"/>
      </g>
     </g>
     <g id="text_8">
      <!-- 0.20 -->
      <g transform="translate(22.81375 155.71694) scale(0.11 -0.11)">
       <defs>
        <path id="DejaVuSans-32" d="M 1228 531 
L 3431 531 
L 3431 0 
L 469 0 
L 469 531 
Q 828 903 1448 1529 
Q 2069 2156 2228 2338 
Q 2531 2678 2651 2914 
Q 2772 3150 2772 3378 
Q 2772 3750 2511 3984 
Q 2250 4219 1831 4219 
Q 1534 4219 1204 4116 
Q 875 4013 500 3803 
L 500 4441 
Q 881 4594 1212 4672 
Q 1544 4750 1819 4750 
Q 2544 4750 2975 4387 
Q 3406 4025 3406 3419 
Q 3406 3131 3298 2873 
Q 3191 2616 2906 2266 
Q 2828 2175 2409 1742 
Q 1991 1309 1228 531 
z
" transform="scale(0.015625)"/>
       </defs>
       <use xlink:href="#DejaVuSans-30"/>
       <use xlink:href="#DejaVuSans-2e" transform="translate(63.623047 0)"/>
       <use xlink:href="#DejaVuSans-32" transform="translate(95.410156 0)"/>
       <use xlink:href="#DejaVuSans-30" transform="translate(159.033203 0)"/>
      </g>
     </g>
    </g>
    <g id="ytick_6">
     <g id="line2d_14">
      <path d="M 54.305938 98.762756 
L 559.485937 98.762756 
" clip-path="url(#p685ba8bee2)" style="fill: none; stroke: #b0b0b0; stroke-opacity: 0.3; stroke-width: 0.8; stroke-linecap: square"/>
     </g>
     <g id="line2d_15">
      <g>
       <use xlink:href="#m8282219b69" x="54.305938" y="98.762756" style="stroke: #000000; stroke-width: 0.8"/>
      </g>
     </g>
     <g id="text_9">
      <!-- 0.25 -->
      <g transform="translate(22.81375 102.941897) scale(0.11 -0.11)">
       <use xlink:href="#DejaVuSans-30"/>
       <use xlink:href="#DejaVuSans-2e" transform="translate(63.623047 0)"/>
       <use xlink:href="#DejaVuSans-32" transform="translate(95.410156 0)"/>
       <use xlink:href="#DejaVuSans-35" transform="translate(159.033203 0)"/>
      </g>
     </g>
    </g>
    <g id="ytick_7">
     <g id="line2d_16">
      <path d="M 54.305938 45.987714 
L 559.485937 45.987714 
" clip-path="url(#p685ba8bee2)" style="fill: none; stroke: #b0b0b0; stroke-opacity: 0.3; stroke-width: 0.8; stroke-linecap: square"/>
     </g>
     <g id="line2d_17">
      <g>
       <use xlink:href="#m8282219b69" x="54.305938" y="45.987714" style="stroke: #000000; stroke-width: 0.8"/>
      </g>
     </g>
     <g id="text_10">
      <!-- 0.30 -->
      <g transform="translate(22.81375 50.166855) scale(0.11 -0.11)">
       <defs>
        <path id="DejaVuSans-33" d="M 2597 2516 
Q 3050 2419 3304 2112 
Q 3559 1806 3559 1356 
Q 3559 666 3084 287 
Q 2609 -91 1734 -91 
Q 1441 -91 1130 -33 
Q 819 25 488 141 
L 488 750 
Q 750 597 1062 519 
Q 1375 441 1716 441 
Q 2309 441 2620 675 
Q 2931 909 2931 1356 
Q 2931 1769 2642 2001 
Q 2353 2234 1838 2234 
L 1294 2234 
L 1294 2753 
L 1863 2753 
Q 2328 2753 2575 2939 
Q 2822 3125 2822 3475 
Q 2822 3834 2567 4026 
Q 2313 4219 1838 4219 
Q 1578 4219 1281 4162 
Q 984 4106 628 3988 
L 628 4550 
Q 988 4650 1302 4700 
Q 1616 4750 1894 4750 
Q 2613 4750 3031 4423 
Q 3450 4097 3450 3541 
Q 3450 3153 3228 2886 
Q 3006 2619 2597 2516 
z
" transform="scale(0.015625)"/>
       </defs>
       <use xlink:href="#DejaVuSans-30"/>
       <use xlink:href="#DejaVuSans-2e" transform="translate(63.623047 0)"/>
       <use xlink:href="#DejaVuSans-33" transform="translate(95.410156 0)"/>
       <use xlink:href="#DejaVuSans-30" transform="translate(159.033203 0)"/>
      </g>
     </g>
    </g>
    <g id="text_11">
     <!-- Retention (mean) -->
     <g transform="translate(16.318125 252.289844) rotate(-90) scale(0.12 -0.12)">
      <defs>
       <path id="DejaVuSans-Bold-52" d="M 2297 2597 
Q 2675 2597 2839 2737 
Q 3003 2878 3003 3200 
Q 3003 3519 2839 3656 
Q 2675 3794 2297 3794 
L 1791 3794 
L 1791 2597 
L 2297 2597 
z
M 1791 1766 
L 1791 0 
L 588 0 
L 588 4666 
L 2425 4666 
Q 3347 4666 3776 4356 
Q 4206 4047 4206 3378 
Q 4206 2916 3982 2619 
Q 3759 2322 3309 2181 
Q 3556 2125 3751 1926 
Q 3947 1728 4147 1325 
L 4800 0 
L 3519 0 
L 2950 1159 
Q 2778 1509 2601 1637 
Q 2425 1766 2131 1766 
L 1791 1766 
z
" transform="scale(0.015625)"/>
       <path id="DejaVuSans-Bold-65" d="M 4031 1759 
L 4031 1441 
L 1416 1441 
Q 1456 1047 1700 850 
Q 1944 653 2381 653 
Q 2734 653 3104 758 
Q 3475 863 3866 1075 
L 3866 213 
Q 3469 63 3072 -14 
Q 2675 -91 2278 -91 
Q 1328 -91 801 392 
Q 275 875 275 1747 
Q 275 2603 792 3093 
Q 1309 3584 2216 3584 
Q 3041 3584 3536 3087 
Q 4031 2591 4031 1759 
z
M 2881 2131 
Q 2881 2450 2695 2645 
Q 2509 2841 2209 2841 
Q 1884 2841 1681 2658 
Q 1478 2475 1428 2131 
L 2881 2131 
z
" transform="scale(0.015625)"/>
       <path id="DejaVuSans-Bold-74" d="M 1759 4494 
L 1759 3500 
L 2913 3500 
L 2913 2700 
L 1759 2700 
L 1759 1216 
Q 1759 972 1856 886 
Q 1953 800 2241 800 
L 2816 800 
L 2816 0 
L 1856 0 
Q 1194 0 917 276 
Q 641 553 641 1216 
L 641 2700 
L 84 2700 
L 84 3500 
L 641 3500 
L 641 4494 
L 1759 4494 
z
" transform="scale(0.015625)"/>
       <path id="DejaVuSans-Bold-6e" d="M 4056 2131 
L 4056 0 
L 2931 0 
L 2931 347 
L 2931 1631 
Q 2931 2084 2911 2256 
Q 2891 2428 2841 2509 
Q 2775 2619 2662 2680 
Q 2550 2741 2406 2741 
Q 2056 2741 1856 2470 
Q 1656 2200 1656 1722 
L 1656 0 
L 538 0 
L 538 3500 
L 1656 3500 
L 1656 2988 
Q 1909 3294 2193 3439 
Q 2478 3584 2822 3584 
Q 3428 3584 3742 3212 
Q 4056 2841 4056 2131 
z
" transform="scale(0.015625)"/>
       <path id="DejaVuSans-Bold-69" d="M 538 3500 
L 1656 3500 
L 1656 0 
L 538 0 
L 538 3500 
z
M 538 4863 
L 1656 4863 
L 1656 3950 
L 538 3950 
L 538 4863 
z
" transform="scale(0.015625)"/>
       <path id="DejaVuSans-Bold-6f" d="M 2203 2784 
Q 1831 2784 1636 2517 
Q 1441 2250 1441 1747 
Q 1441 1244 1636 976 
Q 1831 709 2203 709 
Q 2569 709 2762 976 
Q 2956 1244 2956 1747 
Q 2956 2250 2762 2517 
Q 2569 2784 2203 2784 
z
M 2203 3584 
Q 3106 3584 3614 3096 
Q 4122 2609 4122 1747 
Q 4122 884 3614 396 
Q 3106 -91 2203 -91 
Q 1297 -91 786 396 
Q 275 884 275 1747 
Q 275 2609 786 3096 
Q 1297 3584 2203 3584 
z
" transform="scale(0.015625)"/>
       <path id="DejaVuSans-Bold-20" transform="scale(0.015625)"/>
       <path id="DejaVuSans-Bold-28" d="M 2413 -844 
L 1484 -844 
Q 1006 -72 778 623 
Q 550 1319 550 2003 
Q 550 2688 779 3389 
Q 1009 4091 1484 4856 
L 2413 4856 
Q 2013 4116 1813 3408 
Q 1613 2700 1613 2009 
Q 1613 1319 1811 609 
Q 2009 -100 2413 -844 
z
" transform="scale(0.015625)"/>
       <path id="DejaVuSans-Bold-6d" d="M 3781 2919 
Q 3994 3244 4286 3414 
Q 4578 3584 4928 3584 
Q 5531 3584 5847 3212 
Q 6163 2841 6163 2131 
L 6163 0 
L 5038 0 
L 5038 1825 
Q 5041 1866 5042 1909 
Q 5044 1953 5044 2034 
Q 5044 2406 4934 2573 
Q 4825 2741 4581 2741 
Q 4263 2741 4089 2478 
Q 3916 2216 3909 1719 
L 3909 0 
L 2784 0 
L 2784 1825 
Q 2784 2406 2684 2573 
Q 2584 2741 2328 2741 
Q 2006 2741 1831 2477 
Q 1656 2213 1656 1722 
L 1656 0 
L 531 0 
L 531 3500 
L 1656 3500 
L 1656 2988 
Q 1863 3284 2130 3434 
Q 2397 3584 2719 3584 
Q 3081 3584 3359 3409 
Q 3638 3234 3781 2919 
z
" transform="scale(0.015625)"/>
       <path id="DejaVuSans-Bold-61" d="M 2106 1575 
Q 1756 1575 1579 1456 
Q 1403 1338 1403 1106 
Q 1403 894 1545 773 
Q 1688 653 1941 653 
Q 2256 653 2472 879 
Q 2688 1106 2688 1447 
L 2688 1575 
L 2106 1575 
z
M 3816 1997 
L 3816 0 
L 2688 0 
L 2688 519 
Q 2463 200 2181 54 
Q 1900 -91 1497 -91 
Q 953 -91 614 226 
Q 275 544 275 1050 
Q 275 1666 698 1953 
Q 1122 2241 2028 2241 
L 2688 2241 
L 2688 2328 
Q 2688 2594 2478 2717 
Q 2269 2841 1825 2841 
Q 1466 2841 1156 2769 
Q 847 2697 581 2553 
L 581 3406 
Q 941 3494 1303 3539 
Q 1666 3584 2028 3584 
Q 2975 3584 3395 3211 
Q 3816 2838 3816 1997 
z
" transform="scale(0.015625)"/>
       <path id="DejaVuSans-Bold-29" d="M 513 -844 
Q 913 -100 1113 609 
Q 1313 1319 1313 2009 
Q 1313 2700 1113 3408 
Q 913 4116 513 4856 
L 1441 4856 
Q 1916 4091 2145 3389 
Q 2375 2688 2375 2003 
Q 2375 1319 2147 623 
Q 1919 -72 1441 -844 
L 513 -844 
z
" transform="scale(0.015625)"/>
      </defs>
      <use xlink:href="#DejaVuSans-Bold-52"/>
      <use xlink:href="#DejaVuSans-Bold-65" transform="translate(77.001953 0)"/>
      <use xlink:href="#DejaVuSans-Bold-74" transform="translate(144.824219 0)"/>
      <use xlink:href="#DejaVuSans-Bold-65" transform="translate(192.626953 0)"/>
      <use xlink:href="#DejaVuSans-Bold-6e" transform="translate(260.449219 0)"/>
      <use xlink:href="#DejaVuSans-Bold-74" transform="translate(331.640625 0)"/>
      <use xlink:href="#DejaVuSans-Bold-69" transform="translate(379.443359 0)"/>
      <use xlink:href="#DejaVuSans-Bold-6f" transform="translate(413.720703 0)"/>
      <use xlink:href="#DejaVuSans-Bold-6e" transform="translate(482.421875 0)"/>
      <use xlink:href="#DejaVuSans-Bold-20" transform="translate(553.613281 0)"/>
      <use xlink:href="#DejaVuSans-Bold-28" transform="translate(588.427734 0)"/>
      <use xlink:href="#DejaVuSans-Bold-6d" transform="translate(634.130859 0)"/>
      <use xlink:href="#DejaVuSans-Bold-65" transform="translate(738.330078 0)"/>
      <use xlink:href="#DejaVuSans-Bold-61" transform="translate(806.152344 0)"/>
      <use xlink:href="#DejaVuSans-Bold-6e" transform="translate(873.632812 0)"/>
      <use xlink:href="#DejaVuSans-Bold-29" transform="translate(944.824219 0)"/>
     </g>
    </g>
   </g>
   <g id="LineCollection_1">
    <path d="M 142.876457 74.792556 
L 142.876457 46.736561 
" clip-path="url(#p685ba8bee2)" style="fill: none; stroke: #000000; stroke-width: 1.5"/>
    <path d="M 306.895937 341.213134 
L 306.895937 328.861461 
" clip-path="url(#p685ba8bee2)" style="fill: none; stroke: #000000; stroke-width: 1.5"/>
    <path d="M 470.915418 284.666652 
L 470.915418 270.751569 
" clip-path="url(#p685ba8bee2)" style="fill: none; stroke: #000000; stroke-width: 1.5"/>
   </g>
   <g id="line2d_18">
    <defs>
     <path id="m66cd2c5a50" d="M 6 0 
L -6 -0 
" style="stroke: #000000"/>
    </defs>
    <g clip-path="url(#p685ba8bee2)">
     <use xlink:href="#m66cd2c5a50" x="142.876457" y="74.792556" style="stroke: #000000"/>
     <use xlink:href="#m66cd2c5a50" x="306.895937" y="341.213134" style="stroke: #000000"/>
     <use xlink:href="#m66cd2c5a50" x="470.915418" y="284.666652" style="stroke: #000000"/>
    </g>
   </g>
   <g id="line2d_19">
    <g clip-path="url(#p685ba8bee2)">
     <use xlink:href="#m66cd2c5a50" x="142.876457" y="46.736561" style="stroke: #000000"/>
     <use xlink:href="#m66cd2c5a50" x="306.895937" y="328.861461" style="stroke: #000000"/>
     <use xlink:href="#m66cd2c5a50" x="470.915418" y="270.751569" style="stroke: #000000"/>
    </g>
   </g>
   <g id="patch_6">
    <path d="M 54.305938 362.637969 
L 54.305938 23.077969 
" style="fill: none; stroke: #000000; stroke-width: 0.8; stroke-linejoin: miter; stroke-linecap: square"/>
   </g>
   <g id="patch_7">
    <path d="M 54.305937 362.637969 
L 559.485937 362.637969 
" style="fill: none; stroke: #000000; stroke-width: 0.8; stroke-linejoin: miter; stroke-linecap: square"/>
   </g>
   <g id="text_12">
    <!-- Retention across core-necessity conditions (n=10 seeds) -->
    <g transform="translate(98.320078 17.077969) scale(0.13 -0.13)">
     <defs>
      <path id="DejaVuSans-Bold-63" d="M 3366 3391 
L 3366 2478 
Q 3138 2634 2908 2709 
Q 2678 2784 2431 2784 
Q 1963 2784 1702 2511 
Q 1441 2238 1441 1747 
Q 1441 1256 1702 982 
Q 1963 709 2431 709 
Q 2694 709 2930 787 
Q 3166 866 3366 1019 
L 3366 103 
Q 3103 6 2833 -42 
Q 2563 -91 2291 -91 
Q 1344 -91 809 395 
Q 275 881 275 1747 
Q 275 2613 809 3098 
Q 1344 3584 2291 3584 
Q 2566 3584 2833 3536 
Q 3100 3488 3366 3391 
z
" transform="scale(0.015625)"/>
      <path id="DejaVuSans-Bold-72" d="M 3138 2547 
Q 2991 2616 2845 2648 
Q 2700 2681 2553 2681 
Q 2122 2681 1889 2404 
Q 1656 2128 1656 1613 
L 1656 0 
L 538 0 
L 538 3500 
L 1656 3500 
L 1656 2925 
Q 1872 3269 2151 3426 
Q 2431 3584 2822 3584 
Q 2878 3584 2943 3579 
Q 3009 3575 3134 3559 
L 3138 2547 
z
" transform="scale(0.015625)"/>
      <path id="DejaVuSans-Bold-73" d="M 3272 3391 
L 3272 2541 
Q 2913 2691 2578 2766 
Q 2244 2841 1947 2841 
Q 1628 2841 1473 2761 
Q 1319 2681 1319 2516 
Q 1319 2381 1436 2309 
Q 1553 2238 1856 2203 
L 2053 2175 
Q 2913 2066 3209 1816 
Q 3506 1566 3506 1031 
Q 3506 472 3093 190 
Q 2681 -91 1863 -91 
Q 1516 -91 1145 -36 
Q 775 19 384 128 
L 384 978 
Q 719 816 1070 734 
Q 1422 653 1784 653 
Q 2113 653 2278 743 
Q 2444 834 2444 1013 
Q 2444 1163 2330 1236 
Q 2216 1309 1875 1350 
L 1678 1375 
Q 931 1469 631 1722 
Q 331 1975 331 2491 
Q 331 3047 712 3315 
Q 1094 3584 1881 3584 
Q 2191 3584 2531 3537 
Q 2872 3491 3272 3391 
z
" transform="scale(0.015625)"/>
      <path id="DejaVuSans-Bold-2d" d="M 347 2297 
L 2309 2297 
L 2309 1388 
L 347 1388 
L 347 2297 
z
" transform="scale(0.015625)"/>
      <path id="DejaVuSans-Bold-79" d="M 78 3500 
L 1197 3500 
L 2138 1125 
L 2938 3500 
L 4056 3500 
L 2584 -331 
Q 2363 -916 2067 -1148 
Q 1772 -1381 1288 -1381 
L 641 -1381 
L 641 -647 
L 991 -647 
Q 1275 -647 1404 -556 
Q 1534 -466 1606 -231 
L 1638 -134 
L 78 3500 
z
" transform="scale(0.015625)"/>
      <path id="DejaVuSans-Bold-64" d="M 2919 2988 
L 2919 4863 
L 4044 4863 
L 4044 0 
L 2919 0 
L 2919 506 
Q 2688 197 2409 53 
Q 2131 -91 1766 -91 
Q 1119 -91 703 423 
Q 288 938 288 1747 
Q 288 2556 703 3070 
Q 1119 3584 1766 3584 
Q 2128 3584 2408 3439 
Q 2688 3294 2919 2988 
z
M 2181 722 
Q 2541 722 2730 984 
Q 2919 1247 2919 1747 
Q 2919 2247 2730 2509 
Q 2541 2772 2181 2772 
Q 1825 2772 1636 2509 
Q 1447 2247 1447 1747 
Q 1447 1247 1636 984 
Q 1825 722 2181 722 
z
" transform="scale(0.015625)"/>
      <path id="DejaVuSans-Bold-3d" d="M 678 3084 
L 4684 3084 
L 4684 2350 
L 678 2350 
L 678 3084 
z
M 678 1663 
L 4684 1663 
L 4684 922 
L 678 922 
L 678 1663 
z
" transform="scale(0.015625)"/>
      <path id="DejaVuSans-Bold-31" d="M 750 831 
L 1813 831 
L 1813 3847 
L 722 3622 
L 722 4441 
L 1806 4666 
L 2950 4666 
L 2950 831 
L 4013 831 
L 4013 0 
L 750 0 
L 750 831 
z
" transform="scale(0.015625)"/>
      <path id="DejaVuSans-Bold-30" d="M 2944 2338 
Q 2944 3213 2780 3570 
Q 2616 3928 2228 3928 
Q 1841 3928 1675 3570 
Q 1509 3213 1509 2338 
Q 1509 1453 1675 1090 
Q 1841 728 2228 728 
Q 2613 728 2778 1090 
Q 2944 1453 2944 2338 
z
M 4147 2328 
Q 4147 1169 3647 539 
Q 3147 -91 2228 -91 
Q 1306 -91 806 539 
Q 306 1169 306 2328 
Q 306 3491 806 4120 
Q 1306 4750 2228 4750 
Q 3147 4750 3647 4120 
Q 4147 3491 4147 2328 
z
" transform="scale(0.015625)"/>
     </defs>
     <use xlink:href="#DejaVuSans-Bold-52"/>
     <use xlink:href="#DejaVuSans-Bold-65" transform="translate(77.001953 0)"/>
     <use xlink:href="#DejaVuSans-Bold-74" transform="translate(144.824219 0)"/>
     <use xlink:href="#DejaVuSans-Bold-65" transform="translate(192.626953 0)"/>
     <use xlink:href="#DejaVuSans-Bold-6e" transform="translate(260.449219 0)"/>
     <use xlink:href="#DejaVuSans-Bold-74" transform="translate(331.640625 0)"/>
     <use xlink:href="#DejaVuSans-Bold-69" transform="translate(379.443359 0)"/>
     <use xlink:href="#DejaVuSans-Bold-6f" transform="translate(413.720703 0)"/>
     <use xlink:href="#DejaVuSans-Bold-6e" transform="translate(482.421875 0)"/>
     <use xlink:href="#DejaVuSans-Bold-20" transform="translate(553.613281 0)"/>
     <use xlink:href="#DejaVuSans-Bold-61" transform="translate(588.427734 0)"/>
     <use xlink:href="#DejaVuSans-Bold-63" transform="translate(655.908203 0)"/>
     <use xlink:href="#DejaVuSans-Bold-72" transform="translate(715.185547 0)"/>
     <use xlink:href="#DejaVuSans-Bold-6f" transform="translate(764.501953 0)"/>
     <use xlink:href="#DejaVuSans-Bold-73" transform="translate(833.203125 0)"/>
     <use xlink:href="#DejaVuSans-Bold-73" transform="translate(892.724609 0)"/>
     <use xlink:href="#DejaVuSans-Bold-20" transform="translate(952.246094 0)"/>
     <use xlink:href="#DejaVuSans-Bold-63" transform="translate(987.060547 0)"/>
     <use xlink:href="#DejaVuSans-Bold-6f" transform="translate(1046.337891 0)"/>
     <use xlink:href="#DejaVuSans-Bold-72" transform="translate(1115.039062 0)"/>
     <use xlink:href="#DejaVuSans-Bold-65" transform="translate(1164.355469 0)"/>
     <use xlink:href="#DejaVuSans-Bold-2d" transform="translate(1232.177734 0)"/>
     <use xlink:href="#DejaVuSans-Bold-6e" transform="translate(1273.681641 0)"/>
     <use xlink:href="#DejaVuSans-Bold-65" transform="translate(1344.873047 0)"/>
     <use xlink:href="#DejaVuSans-Bold-63" transform="translate(1412.695312 0)"/>
     <use xlink:href="#DejaVuSans-Bold-65" transform="translate(1471.972656 0)"/>
     <use xlink:href="#DejaVuSans-Bold-73" transform="translate(1539.794922 0)"/>
     <use xlink:href="#DejaVuSans-Bold-73" transform="translate(1599.316406 0)"/>
     <use xlink:href="#DejaVuSans-Bold-69" transform="translate(1658.837891 0)"/>
     <use xlink:href="#DejaVuSans-Bold-74" transform="translate(1693.115234 0)"/>
     <use xlink:href="#DejaVuSans-Bold-79" transform="translate(1740.917969 0)"/>
     <use xlink:href="#DejaVuSans-Bold-20" transform="translate(1806.103516 0)"/>
     <use xlink:href="#DejaVuSans-Bold-63" transform="translate(1840.917969 0)"/>
     <use xlink:href="#DejaVuSans-Bold-6f" transform="translate(1900.195312 0)"/>
     <use xlink:href="#DejaVuSans-Bold-6e" transform="translate(1968.896484 0)"/>
     <use xlink:href="#DejaVuSans-Bold-64" transform="translate(2040.087891 0)"/>
     <use xlink:href="#DejaVuSans-Bold-69" transform="translate(2111.669922 0)"/>
     <use xlink:href="#DejaVuSans-Bold-74" transform="translate(2145.947266 0)"/>
     <use xlink:href="#DejaVuSans-Bold-69" transform="translate(2193.75 0)"/>
     <use xlink:href="#DejaVuSans-Bold-6f" transform="translate(2228.027344 0)"/>
     <use xlink:href="#DejaVuSans-Bold-6e" transform="translate(2296.728516 0)"/>
     <use xlink:href="#DejaVuSans-Bold-73" transform="translate(2367.919922 0)"/>
     <use xlink:href="#DejaVuSans-Bold-20" transform="translate(2427.441406 0)"/>
     <use xlink:href="#DejaVuSans-Bold-28" transform="translate(2462.255859 0)"/>
     <use xlink:href="#DejaVuSans-Bold-6e" transform="translate(2507.958984 0)"/>
     <use xlink:href="#DejaVuSans-Bold-3d" transform="translate(2579.150391 0)"/>
     <use xlink:href="#DejaVuSans-Bold-31" transform="translate(2662.939453 0)"/>
     <use xlink:href="#DejaVuSans-Bold-30" transform="translate(2732.519531 0)"/>
     <use xlink:href="#DejaVuSans-Bold-20" transform="translate(2802.099609 0)"/>
     <use xlink:href="#DejaVuSans-Bold-73" transform="translate(2836.914062 0)"/>
     <use xlink:href="#DejaVuSans-Bold-65" transform="translate(2896.435547 0)"/>
     <use xlink:href="#DejaVuSans-Bold-65" transform="translate(2964.257812 0)"/>
     <use xlink:href="#DejaVuSans-Bold-64" transform="translate(3032.080078 0)"/>
     <use xlink:href="#DejaVuSans-Bold-73" transform="translate(3103.662109 0)"/>
     <use xlink:href="#DejaVuSans-Bold-29" transform="translate(3163.183594 0)"/>
    </g>
   </g>
   <g id="PathCollection_1">
    <defs>
     <path id="m278261cc26" d="M 0 2.738613 
C 0.726289 2.738613 1.422928 2.450055 1.936492 1.936492 
C 2.450055 1.422928 2.738613 0.726289 2.738613 0 
C 2.738613 -0.726289 2.450055 -1.422928 1.936492 -1.936492 
C 1.422928 -2.450055 0.726289 -2.738613 0 -2.738613 
C -0.726289 -2.738613 -1.422928 -2.450055 -1.936492 -1.936492 
C -2.450055 -1.422928 -2.738613 -0.726289 -2.738613 0 
C -2.738613 0.726289 -2.450055 1.422928 -1.936492 1.936492 
C -1.422928 2.450055 -0.726289 2.738613 0 2.738613 
z
" style="stroke: #ffffff; stroke-opacity: 0.65; stroke-width: 0.6"/>
    </defs>
    <g clip-path="url(#p685ba8bee2)">
     <use xlink:href="#m278261cc26" x="149.615772" y="39.247493" style="fill-opacity: 0.65; stroke: #ffffff; stroke-opacity: 0.65; stroke-width: 0.6"/>
     <use xlink:href="#m278261cc26" x="131.548618" y="65.882069" style="fill-opacity: 0.65; stroke: #ffffff; stroke-opacity: 0.65; stroke-width: 0.6"/>
     <use xlink:href="#m278261cc26" x="120.289672" y="58.69368" style="fill-opacity: 0.65; stroke: #ffffff; stroke-opacity: 0.65; stroke-width: 0.6"/>
     <use xlink:href="#m278261cc26" x="119.086791" y="76.445402" style="fill-opacity: 0.65; stroke: #ffffff; stroke-opacity: 0.65; stroke-width: 0.6"/>
     <use xlink:href="#m278261cc26" x="158.291184" y="49.810992" style="fill-opacity: 0.65; stroke: #ffffff; stroke-opacity: 0.65; stroke-width: 0.6"/>
     <use xlink:href="#m278261cc26" x="163.186444" y="45.078532" style="fill-opacity: 0.65; stroke: #ffffff; stroke-opacity: 0.65; stroke-width: 0.6"/>
     <use xlink:href="#m278261cc26" x="148.12356" y="62.020038" style="fill-opacity: 0.65; stroke: #ffffff; stroke-opacity: 0.65; stroke-width: 0.6"/>
     <use xlink:href="#m278261cc26" x="154.169029" y="64.435347" style="fill-opacity: 0.65; stroke: #ffffff; stroke-opacity: 0.65; stroke-width: 0.6"/>
     <use xlink:href="#m278261cc26" x="145.023062" y="59.779091" style="fill-opacity: 0.65; stroke: #ffffff; stroke-opacity: 0.65; stroke-width: 0.6"/>
     <use xlink:href="#m278261cc26" x="164.284563" y="86.252945" style="fill-opacity: 0.65; stroke: #ffffff; stroke-opacity: 0.65; stroke-width: 0.6"/>
    </g>
   </g>
   <g id="PathCollection_2">
    <g clip-path="url(#p685ba8bee2)">
     <use xlink:href="#m278261cc26" x="322.437778" y="321.189354" style="fill-opacity: 0.65; stroke: #ffffff; stroke-opacity: 0.65; stroke-width: 0.6"/>
     <use xlink:href="#m278261cc26" x="282.427766" y="339.647249" style="fill-opacity: 0.65; stroke: #ffffff; stroke-opacity: 0.65; stroke-width: 0.6"/>
     <use xlink:href="#m278261cc26" x="324.482317" y="337.995173" style="fill-opacity: 0.65; stroke: #ffffff; stroke-opacity: 0.65; stroke-width: 0.6"/>
     <use xlink:href="#m278261cc26" x="283.945622" y="339.391059" style="fill-opacity: 0.65; stroke: #ffffff; stroke-opacity: 0.65; stroke-width: 0.6"/>
     <use xlink:href="#m278261cc26" x="318.196328" y="331.653527" style="fill-opacity: 0.65; stroke: #ffffff; stroke-opacity: 0.65; stroke-width: 0.6"/>
     <use xlink:href="#m278261cc26" x="290.936299" y="330.897442" style="fill-opacity: 0.65; stroke: #ffffff; stroke-opacity: 0.65; stroke-width: 0.6"/>
     <use xlink:href="#m278261cc26" x="324.766463" y="336.545634" style="fill-opacity: 0.65; stroke: #ffffff; stroke-opacity: 0.65; stroke-width: 0.6"/>
     <use xlink:href="#m278261cc26" x="308.936072" y="337.680907" style="fill-opacity: 0.65; stroke: #ffffff; stroke-opacity: 0.65; stroke-width: 0.6"/>
     <use xlink:href="#m278261cc26" x="297.040592" y="332.653399" style="fill-opacity: 0.65; stroke: #ffffff; stroke-opacity: 0.65; stroke-width: 0.6"/>
     <use xlink:href="#m278261cc26" x="303.091697" y="342.719232" style="fill-opacity: 0.65; stroke: #ffffff; stroke-opacity: 0.65; stroke-width: 0.6"/>
    </g>
   </g>
   <g id="PathCollection_3">
    <g clip-path="url(#p685ba8bee2)">
     <use xlink:href="#m278261cc26" x="447.705989" y="264.705459" style="fill-opacity: 0.65; stroke: #ffffff; stroke-opacity: 0.65; stroke-width: 0.6"/>
     <use xlink:href="#m278261cc26" x="452.427959" y="284.249745" style="fill-opacity: 0.65; stroke: #ffffff; stroke-opacity: 0.65; stroke-width: 0.6"/>
     <use xlink:href="#m278261cc26" x="479.311136" y="281.45093" style="fill-opacity: 0.65; stroke: #ffffff; stroke-opacity: 0.65; stroke-width: 0.6"/>
     <use xlink:href="#m278261cc26" x="478.158002" y="279.784632" style="fill-opacity: 0.65; stroke: #ffffff; stroke-opacity: 0.65; stroke-width: 0.6"/>
     <use xlink:href="#m278261cc26" x="476.59304" y="274.064774" style="fill-opacity: 0.65; stroke: #ffffff; stroke-opacity: 0.65; stroke-width: 0.6"/>
     <use xlink:href="#m278261cc26" x="465.191674" y="273.374777" style="fill-opacity: 0.65; stroke: #ffffff; stroke-opacity: 0.65; stroke-width: 0.6"/>
     <use xlink:href="#m278261cc26" x="495.381053" y="279.026811" style="fill-opacity: 0.65; stroke: #ffffff; stroke-opacity: 0.65; stroke-width: 0.6"/>
     <use xlink:href="#m278261cc26" x="494.575327" y="278.144214" style="fill-opacity: 0.65; stroke: #ffffff; stroke-opacity: 0.65; stroke-width: 0.6"/>
     <use xlink:href="#m278261cc26" x="480.045168" y="272.546036" style="fill-opacity: 0.65; stroke: #ffffff; stroke-opacity: 0.65; stroke-width: 0.6"/>
     <use xlink:href="#m278261cc26" x="478.318894" y="289.743726" style="fill-opacity: 0.65; stroke: #ffffff; stroke-opacity: 0.65; stroke-width: 0.6"/>
    </g>
   </g>
  </g>
 </g>
 <defs>
  <clipPath id="p685ba8bee2">
   <rect x="54.305938" y="23.077969" width="505.18" height="339.56"/>
  </clipPath>
 </defs>
</svg>
