<?xml version="1.0" encoding="utf-8" standalone="no"?>
<!DOCTYPE svg PUBLIC "-//W3C//DTD SVG 1.1//EN"
  "http://www.w3.org/Graphics/SVG/1.1/DTD/svg11.dtd">
<svg xmlns:xlink="http://www.w3.org/1999/xlink" width="856.771562pt" height="355.844062pt" viewBox="0 0 856.771562 355.844062" xmlns="http://www.w3.org/2000/svg" version="1.1">
 <metadata>
  <rdf:RDF xmlns:dc="http://purl.org/dc/elements/1.1/" xmlns:cc="http://creativecommons.org/ns#" xmlns:rdf="http://www.w3.org/1999/02/22-rdf-syntax-ns#">
   <cc:Work>
    <dc:type rdf:resource="http://purl.org/dc/dcmitype/StillImage"/>
    <dc:date>2026-06-09T17:56:53.744799</dc:date>
    <dc:format>image/svg+xml</dc:format>
    <dc:creator>
     <cc:Agent>
      <dc:title>Matplotlib v3.10.3, https://matplotlib.org/</dc:title>
     </cc:Agent>
    </dc:creator>
   </cc:Work>
  </rdf:RDF>
 </metadata>
 <defs>
  <style type="text/css">*{stroke-linejoin: round; stroke-linecap: butt}</style>
 </defs>
 <g id="figure_1">
  <g id="patch_1">
   <path d="M 0 355.844062 
L 856.771562 355.844062 
L 856.771562 0 
L 0 0 
z
" style="fill: #ffffff"/>
  </g>
  <g id="axes_1">
   <g id="patch_2">
    <path d="M 51.111563 317.32 
L 418.786563 317.32 
L 418.786563 60.144 
L 51.111563 60.144 
z
" style="fill: #ffffff"/>
   </g>
   <g id="matplotlib.axis_1">
    <g id="xtick_1">
     <g id="line2d_1">
      <defs>
       <path id="m953b567025" d="M 0 0 
L 0 3.5 
" style="stroke: #000000; stroke-width: 0.8"/>
      </defs>
      <g>
       <use xlink:href="#m953b567025" x="75.488159" y="317.32" style="stroke: #000000; stroke-width: 0.8"/>
      </g>
     </g>
     <g id="text_1">
      <!-- M0 -->
      <g transform="translate(67.992846 331.918437) scale(0.1 -0.1)">
       <defs>
        <path id="DejaVuSans-4d" d="M 628 4666 
L 1569 4666 
L 2759 1491 
L 3956 4666 
L 4897 4666 
L 4897 0 
L 4281 0 
L 4281 4097 
L 3078 897 
L 2444 897 
L 1241 4097 
L 1241 0 
L 628 0 
L 628 4666 
z
" transform="scale(0.015625)"/>
        <path id="DejaVuSans-30" d="M 2034 4250 
Q 1547 4250 1301 3770 
Q 1056 3291 1056 2328 
Q 1056 1369 1301 889 
Q 1547 409 2034 409 
Q 2525 409 2770 889 
Q 3016 1369 3016 2328 
Q 3016 3291 2770 3770 
Q 2525 4250 2034 4250 
z
M 2034 4750 
Q 2819 4750 3233 4129 
Q 3647 3509 3647 2328 
Q 3647 1150 3233 529 
Q 2819 -91 2034 -91 
Q 1250 -91 836 529 
Q 422 1150 422 2328 
Q 422 3509 836 4129 
Q 1250 4750 2034 4750 
z
" transform="scale(0.015625)"/>
       </defs>
       <use xlink:href="#DejaVuSans-4d"/>
       <use xlink:href="#DejaVuSans-30" transform="translate(86.279297 0)"/>
      </g>
     </g>
    </g>
    <g id="xtick_2">
     <g id="line2d_2">
      <g>
       <use xlink:href="#m953b567025" x="181.982393" y="317.32" style="stroke: #000000; stroke-width: 0.8"/>
      </g>
     </g>
     <g id="text_2">
      <!-- M1 -->
      <g transform="translate(174.48708 331.918437) scale(0.1 -0.1)">
       <defs>
        <path id="DejaVuSans-31" d="M 794 531 
L 1825 531 
L 1825 4091 
L 703 3866 
L 703 4441 
L 1819 4666 
L 2450 4666 
L 2450 531 
L 3481 531 
L 3481 0 
L 794 0 
L 794 531 
z
" transform="scale(0.015625)"/>
       </defs>
       <use xlink:href="#DejaVuSans-4d"/>
       <use xlink:href="#DejaVuSans-31" transform="translate(86.279297 0)"/>
      </g>
     </g>
    </g>
    <g id="xtick_3">
     <g id="line2d_3">
      <g>
       <use xlink:href="#m953b567025" x="288.476627" y="317.32" style="stroke: #000000; stroke-width: 0.8"/>
      </g>
     </g>
     <g id="text_3">
      <!-- M2 -->
      <g transform="translate(280.981314 331.918437) scale(0.1 -0.1)">
       <defs>
        <path id="DejaVuSans-32" d="M 1228 531 
L 3431 531 
L 3431 0 
L 469 0 
L 469 531 
Q 828 903 1448 1529 
Q 2069 2156 2228 2338 
Q 2531 2678 2651 2914 
Q 2772 3150 2772 3378 
Q 2772 3750 2511 3984 
Q 2250 4219 1831 4219 
Q 1534 4219 1204 4116 
Q 875 4013 500 3803 
L 500 4441 
Q 881 4594 1212 4672 
Q 1544 4750 1819 4750 
Q 2544 4750 2975 4387 
Q 3406 4025 3406 3419 
Q 3406 3131 3298 2873 
Q 3191 2616 2906 2266 
Q 2828 2175 2409 1742 
Q 1991 1309 1228 531 
z
" transform="scale(0.015625)"/>
       </defs>
       <use xlink:href="#DejaVuSans-4d"/>
       <use xlink:href="#DejaVuSans-32" transform="translate(86.279297 0)"/>
      </g>
     </g>
    </g>
    <g id="xtick_4">
     <g id="line2d_4">
      <g>
       <use xlink:href="#m953b567025" x="394.970861" y="317.32" style="stroke: #000000; stroke-width: 0.8"/>
      </g>
     </g>
     <g id="text_4">
      <!-- M3 -->
      <g transform="translate(387.475549 331.918437) scale(0.1 -0.1)">
       <defs>
        <path id="DejaVuSans-33" d="M 2597 2516 
Q 3050 2419 3304 2112 
Q 3559 1806 3559 1356 
Q 3559 666 3084 287 
Q 2609 -91 1734 -91 
Q 1441 -91 1130 -33 
Q 819 25 488 141 
L 488 750 
Q 750 597 1062 519 
Q 1375 441 1716 441 
Q 2309 441 2620 675 
Q 2931 909 2931 1356 
Q 2931 1769 2642 2001 
Q 2353 2234 1838 2234 
L 1294 2234 
L 1294 2753 
L 1863 2753 
Q 2328 2753 2575 2939 
Q 2822 3125 2822 3475 
Q 2822 3834 2567 4026 
Q 2313 4219 1838 4219 
Q 1578 4219 1281 4162 
Q 984 4106 628 3988 
L 628 4550 
Q 988 4650 1302 4700 
Q 1616 4750 1894 4750 
Q 2613 4750 3031 4423 
Q 3450 4097 3450 3541 
Q 3450 3153 3228 2886 
Q 3006 2619 2597 2516 
z
" transform="scale(0.015625)"/>
       </defs>
       <use xlink:href="#DejaVuSans-4d"/>
       <use xlink:href="#DejaVuSans-33" transform="translate(86.279297 0)"/>
      </g>
     </g>
    </g>
    <g id="text_5">
     <!-- Encoding position k -->
     <g transform="translate(181.135859 346.356406) scale(0.11 -0.11)">
      <defs>
       <path id="DejaVuSans-45" d="M 628 4666 
L 3578 4666 
L 3578 4134 
L 1259 4134 
L 1259 2753 
L 3481 2753 
L 3481 2222 
L 1259 2222 
L 1259 531 
L 3634 531 
L 3634 0 
L 628 0 
L 628 4666 
z
" transform="scale(0.015625)"/>
       <path id="DejaVuSans-6e" d="M 3513 2113 
L 3513 0 
L 2938 0 
L 2938 2094 
Q 2938 2591 2744 2837 
Q 2550 3084 2163 3084 
Q 1697 3084 1428 2787 
Q 1159 2491 1159 1978 
L 1159 0 
L 581 0 
L 581 3500 
L 1159 3500 
L 1159 2956 
Q 1366 3272 1645 3428 
Q 1925 3584 2291 3584 
Q 2894 3584 3203 3211 
Q 3513 2838 3513 2113 
z
" transform="scale(0.015625)"/>
       <path id="DejaVuSans-63" d="M 3122 3366 
L 3122 2828 
Q 2878 2963 2633 3030 
Q 2388 3097 2138 3097 
Q 1578 3097 1268 2742 
Q 959 2388 959 1747 
Q 959 1106 1268 751 
Q 1578 397 2138 397 
Q 2388 397 2633 464 
Q 2878 531 3122 666 
L 3122 134 
Q 2881 22 2623 -34 
Q 2366 -91 2075 -91 
Q 1284 -91 818 406 
Q 353 903 353 1747 
Q 353 2603 823 3093 
Q 1294 3584 2113 3584 
Q 2378 3584 2631 3529 
Q 2884 3475 3122 3366 
z
" transform="scale(0.015625)"/>
       <path id="DejaVuSans-6f" d="M 1959 3097 
Q 1497 3097 1228 2736 
Q 959 2375 959 1747 
Q 959 1119 1226 758 
Q 1494 397 1959 397 
Q 2419 397 2687 759 
Q 2956 1122 2956 1747 
Q 2956 2369 2687 2733 
Q 2419 3097 1959 3097 
z
M 1959 3584 
Q 2709 3584 3137 3096 
Q 3566 2609 3566 1747 
Q 3566 888 3137 398 
Q 2709 -91 1959 -91 
Q 1206 -91 779 398 
Q 353 888 353 1747 
Q 353 2609 779 3096 
Q 1206 3584 1959 3584 
z
" transform="scale(0.015625)"/>
       <path id="DejaVuSans-64" d="M 2906 2969 
L 2906 4863 
L 3481 4863 
L 3481 0 
L 2906 0 
L 2906 525 
Q 2725 213 2448 61 
Q 2172 -91 1784 -91 
Q 1150 -91 751 415 
Q 353 922 353 1747 
Q 353 2572 751 3078 
Q 1150 3584 1784 3584 
Q 2172 3584 2448 3432 
Q 2725 3281 2906 2969 
z
M 947 1747 
Q 947 1113 1208 752 
Q 1469 391 1925 391 
Q 2381 391 2643 752 
Q 2906 1113 2906 1747 
Q 2906 2381 2643 2742 
Q 2381 3103 1925 3103 
Q 1469 3103 1208 2742 
Q 947 2381 947 1747 
z
" transform="scale(0.015625)"/>
       <path id="DejaVuSans-69" d="M 603 3500 
L 1178 3500 
L 1178 0 
L 603 0 
L 603 3500 
z
M 603 4863 
L 1178 4863 
L 1178 4134 
L 603 4134 
L 603 4863 
z
" transform="scale(0.015625)"/>
       <path id="DejaVuSans-67" d="M 2906 1791 
Q 2906 2416 2648 2759 
Q 2391 3103 1925 3103 
Q 1463 3103 1205 2759 
Q 947 2416 947 1791 
Q 947 1169 1205 825 
Q 1463 481 1925 481 
Q 2391 481 2648 825 
Q 2906 1169 2906 1791 
z
M 3481 434 
Q 3481 -459 3084 -895 
Q 2688 -1331 1869 -1331 
Q 1566 -1331 1297 -1286 
Q 1028 -1241 775 -1147 
L 775 -588 
Q 1028 -725 1275 -790 
Q 1522 -856 1778 -856 
Q 2344 -856 2625 -561 
Q 2906 -266 2906 331 
L 2906 616 
Q 2728 306 2450 153 
Q 2172 0 1784 0 
Q 1141 0 747 490 
Q 353 981 353 1791 
Q 353 2603 747 3093 
Q 1141 3584 1784 3584 
Q 2172 3584 2450 3431 
Q 2728 3278 2906 2969 
L 2906 3500 
L 3481 3500 
L 3481 434 
z
" transform="scale(0.015625)"/>
       <path id="DejaVuSans-20" transform="scale(0.015625)"/>
       <path id="DejaVuSans-70" d="M 1159 525 
L 1159 -1331 
L 581 -1331 
L 581 3500 
L 1159 3500 
L 1159 2969 
Q 1341 3281 1617 3432 
Q 1894 3584 2278 3584 
Q 2916 3584 3314 3078 
Q 3713 2572 3713 1747 
Q 3713 922 3314 415 
Q 2916 -91 2278 -91 
Q 1894 -91 1617 61 
Q 1341 213 1159 525 
z
M 3116 1747 
Q 3116 2381 2855 2742 
Q 2594 3103 2138 3103 
Q 1681 3103 1420 2742 
Q 1159 2381 1159 1747 
Q 1159 1113 1420 752 
Q 1681 391 2138 391 
Q 2594 391 2855 752 
Q 3116 1113 3116 1747 
z
" transform="scale(0.015625)"/>
       <path id="DejaVuSans-73" d="M 2834 3397 
L 2834 2853 
Q 2591 2978 2328 3040 
Q 2066 3103 1784 3103 
Q 1356 3103 1142 2972 
Q 928 2841 928 2578 
Q 928 2378 1081 2264 
Q 1234 2150 1697 2047 
L 1894 2003 
Q 2506 1872 2764 1633 
Q 3022 1394 3022 966 
Q 3022 478 2636 193 
Q 2250 -91 1575 -91 
Q 1294 -91 989 -36 
Q 684 19 347 128 
L 347 722 
Q 666 556 975 473 
Q 1284 391 1588 391 
Q 1994 391 2212 530 
Q 2431 669 2431 922 
Q 2431 1156 2273 1281 
Q 2116 1406 1581 1522 
L 1381 1569 
Q 847 1681 609 1914 
Q 372 2147 372 2553 
Q 372 3047 722 3315 
Q 1072 3584 1716 3584 
Q 2034 3584 2315 3537 
Q 2597 3491 2834 3397 
z
" transform="scale(0.015625)"/>
       <path id="DejaVuSans-74" d="M 1172 4494 
L 1172 3500 
L 2356 3500 
L 2356 3053 
L 1172 3053 
L 1172 1153 
Q 1172 725 1289 603 
Q 1406 481 1766 481 
L 2356 481 
L 2356 0 
L 1766 0 
Q 1100 0 847 248 
Q 594 497 594 1153 
L 594 3053 
L 172 3053 
L 172 3500 
L 594 3500 
L 594 4494 
L 1172 4494 
z
" transform="scale(0.015625)"/>
       <path id="DejaVuSans-6b" d="M 581 4863 
L 1159 4863 
L 1159 1991 
L 2875 3500 
L 3609 3500 
L 1753 1863 
L 3688 0 
L 2938 0 
L 1159 1709 
L 1159 0 
L 581 0 
L 581 4863 
z
" transform="scale(0.015625)"/>
      </defs>
      <use xlink:href="#DejaVuSans-45"/>
      <use xlink:href="#DejaVuSans-6e" transform="translate(63.183594 0)"/>
      <use xlink:href="#DejaVuSans-63" transform="translate(126.5625 0)"/>
      <use xlink:href="#DejaVuSans-6f" transform="translate(181.542969 0)"/>
      <use xlink:href="#DejaVuSans-64" transform="translate(242.724609 0)"/>
      <use xlink:href="#DejaVuSans-69" transform="translate(306.201172 0)"/>
      <use xlink:href="#DejaVuSans-6e" transform="translate(333.984375 0)"/>
      <use xlink:href="#DejaVuSans-67" transform="translate(397.363281 0)"/>
      <use xlink:href="#DejaVuSans-20" transform="translate(460.839844 0)"/>
      <use xlink:href="#DejaVuSans-70" transform="translate(492.626953 0)"/>
      <use xlink:href="#DejaVuSans-6f" transform="translate(556.103516 0)"/>
      <use xlink:href="#DejaVuSans-73" transform="translate(617.285156 0)"/>
      <use xlink:href="#DejaVuSans-69" transform="translate(669.384766 0)"/>
      <use xlink:href="#DejaVuSans-74" transform="translate(697.167969 0)"/>
      <use xlink:href="#DejaVuSans-69" transform="translate(736.376953 0)"/>
      <use xlink:href="#DejaVuSans-6f" transform="translate(764.160156 0)"/>
      <use xlink:href="#DejaVuSans-6e" transform="translate(825.341797 0)"/>
      <use xlink:href="#DejaVuSans-20" transform="translate(888.720703 0)"/>
      <use xlink:href="#DejaVuSans-6b" transform="translate(920.507812 0)"/>
     </g>
    </g>
   </g>
   <g id="matplotlib.axis_2">
    <g id="ytick_1">
     <g id="line2d_5">
      <defs>
       <path id="ma0dd9a127c" d="M 0 0 
L -3.5 0 
" style="stroke: #000000; stroke-width: 0.8"/>
      </defs>
      <g>
       <use xlink:href="#ma0dd9a127c" x="51.111563" y="314.640536" style="stroke: #000000; stroke-width: 0.8"/>
      </g>
     </g>
     <g id="text_6">
      <!-- 0.22 -->
      <g transform="translate(21.845938 318.439755) scale(0.1 -0.1)">
       <defs>
        <path id="DejaVuSans-2e" d="M 684 794 
L 1344 794 
L 1344 0 
L 684 0 
L 684 794 
z
" transform="scale(0.015625)"/>
       </defs>
       <use xlink:href="#DejaVuSans-30"/>
       <use xlink:href="#DejaVuSans-2e" transform="translate(63.623047 0)"/>
       <use xlink:href="#DejaVuSans-32" transform="translate(95.410156 0)"/>
       <use xlink:href="#DejaVuSans-32" transform="translate(159.033203 0)"/>
      </g>
     </g>
    </g>
    <g id="ytick_2">
     <g id="line2d_6">
      <g>
       <use xlink:href="#ma0dd9a127c" x="51.111563" y="275.796814" style="stroke: #000000; stroke-width: 0.8"/>
      </g>
     </g>
     <g id="text_7">
      <!-- 0.24 -->
      <g transform="translate(21.845938 279.596033) scale(0.1 -0.1)">
       <defs>
        <path id="DejaVuSans-34" d="M 2419 4116 
L 825 1625 
L 2419 1625 
L 2419 4116 
z
M 2253 4666 
L 3047 4666 
L 3047 1625 
L 3713 1625 
L 3713 1100 
L 3047 1100 
L 3047 0 
L 2419 0 
L 2419 1100 
L 313 1100 
L 313 1709 
L 2253 4666 
z
" transform="scale(0.015625)"/>
       </defs>
       <use xlink:href="#DejaVuSans-30"/>
       <use xlink:href="#DejaVuSans-2e" transform="translate(63.623047 0)"/>
       <use xlink:href="#DejaVuSans-32" transform="translate(95.410156 0)"/>
       <use xlink:href="#DejaVuSans-34" transform="translate(159.033203 0)"/>
      </g>
     </g>
    </g>
    <g id="ytick_3">
     <g id="line2d_7">
      <g>
       <use xlink:href="#ma0dd9a127c" x="51.111563" y="236.953093" style="stroke: #000000; stroke-width: 0.8"/>
      </g>
     </g>
     <g id="text_8">
      <!-- 0.26 -->
      <g transform="translate(21.845938 240.752312) scale(0.1 -0.1)">
       <defs>
        <path id="DejaVuSans-36" d="M 2113 2584 
Q 1688 2584 1439 2293 
Q 1191 2003 1191 1497 
Q 1191 994 1439 701 
Q 1688 409 2113 409 
Q 2538 409 2786 701 
Q 3034 994 3034 1497 
Q 3034 2003 2786 2293 
Q 2538 2584 2113 2584 
z
M 3366 4563 
L 3366 3988 
Q 3128 4100 2886 4159 
Q 2644 4219 2406 4219 
Q 1781 4219 1451 3797 
Q 1122 3375 1075 2522 
Q 1259 2794 1537 2939 
Q 1816 3084 2150 3084 
Q 2853 3084 3261 2657 
Q 3669 2231 3669 1497 
Q 3669 778 3244 343 
Q 2819 -91 2113 -91 
Q 1303 -91 875 529 
Q 447 1150 447 2328 
Q 447 3434 972 4092 
Q 1497 4750 2381 4750 
Q 2619 4750 2861 4703 
Q 3103 4656 3366 4563 
z
" transform="scale(0.015625)"/>
       </defs>
       <use xlink:href="#DejaVuSans-30"/>
       <use xlink:href="#DejaVuSans-2e" transform="translate(63.623047 0)"/>
       <use xlink:href="#DejaVuSans-32" transform="translate(95.410156 0)"/>
       <use xlink:href="#DejaVuSans-36" transform="translate(159.033203 0)"/>
      </g>
     </g>
    </g>
    <g id="ytick_4">
     <g id="line2d_8">
      <g>
       <use xlink:href="#ma0dd9a127c" x="51.111563" y="198.109371" style="stroke: #000000; stroke-width: 0.8"/>
      </g>
     </g>
     <g id="text_9">
      <!-- 0.28 -->
      <g transform="translate(21.845938 201.90859) scale(0.1 -0.1)">
       <defs>
        <path id="DejaVuSans-38" d="M 2034 2216 
Q 1584 2216 1326 1975 
Q 1069 1734 1069 1313 
Q 1069 891 1326 650 
Q 1584 409 2034 409 
Q 2484 409 2743 651 
Q 3003 894 3003 1313 
Q 3003 1734 2745 1975 
Q 2488 2216 2034 2216 
z
M 1403 2484 
Q 997 2584 770 2862 
Q 544 3141 544 3541 
Q 544 4100 942 4425 
Q 1341 4750 2034 4750 
Q 2731 4750 3128 4425 
Q 3525 4100 3525 3541 
Q 3525 3141 3298 2862 
Q 3072 2584 2669 2484 
Q 3125 2378 3379 2068 
Q 3634 1759 3634 1313 
Q 3634 634 3220 271 
Q 2806 -91 2034 -91 
Q 1263 -91 848 271 
Q 434 634 434 1313 
Q 434 1759 690 2068 
Q 947 2378 1403 2484 
z
M 1172 3481 
Q 1172 3119 1398 2916 
Q 1625 2713 2034 2713 
Q 2441 2713 2670 2916 
Q 2900 3119 2900 3481 
Q 2900 3844 2670 4047 
Q 2441 4250 2034 4250 
Q 1625 4250 1398 4047 
Q 1172 3844 1172 3481 
z
" transform="scale(0.015625)"/>
       </defs>
       <use xlink:href="#DejaVuSans-30"/>
       <use xlink:href="#DejaVuSans-2e" transform="translate(63.623047 0)"/>
       <use xlink:href="#DejaVuSans-32" transform="translate(95.410156 0)"/>
       <use xlink:href="#DejaVuSans-38" transform="translate(159.033203 0)"/>
      </g>
     </g>
    </g>
    <g id="ytick_5">
     <g id="line2d_9">
      <g>
       <use xlink:href="#ma0dd9a127c" x="51.111563" y="159.26565" style="stroke: #000000; stroke-width: 0.8"/>
      </g>
     </g>
     <g id="text_10">
      <!-- 0.30 -->
      <g transform="translate(21.845938 163.064869) scale(0.1 -0.1)">
       <use xlink:href="#DejaVuSans-30"/>
       <use xlink:href="#DejaVuSans-2e" transform="translate(63.623047 0)"/>
       <use xlink:href="#DejaVuSans-33" transform="translate(95.410156 0)"/>
       <use xlink:href="#DejaVuSans-30" transform="translate(159.033203 0)"/>
      </g>
     </g>
    </g>
    <g id="ytick_6">
     <g id="line2d_10">
      <g>
       <use xlink:href="#ma0dd9a127c" x="51.111563" y="120.421928" style="stroke: #000000; stroke-width: 0.8"/>
      </g>
     </g>
     <g id="text_11">
      <!-- 0.32 -->
      <g transform="translate(21.845938 124.221147) scale(0.1 -0.1)">
       <use xlink:href="#DejaVuSans-30"/>
       <use xlink:href="#DejaVuSans-2e" transform="translate(63.623047 0)"/>
       <use xlink:href="#DejaVuSans-33" transform="translate(95.410156 0)"/>
       <use xlink:href="#DejaVuSans-32" transform="translate(159.033203 0)"/>
      </g>
     </g>
    </g>
    <g id="ytick_7">
     <g id="line2d_11">
      <g>
       <use xlink:href="#ma0dd9a127c" x="51.111563" y="81.578207" style="stroke: #000000; stroke-width: 0.8"/>
      </g>
     </g>
     <g id="text_12">
      <!-- 0.34 -->
      <g transform="translate(21.845938 85.377426) scale(0.1 -0.1)">
       <use xlink:href="#DejaVuSans-30"/>
       <use xlink:href="#DejaVuSans-2e" transform="translate(63.623047 0)"/>
       <use xlink:href="#DejaVuSans-33" transform="translate(95.410156 0)"/>
       <use xlink:href="#DejaVuSans-34" transform="translate(159.033203 0)"/>
      </g>
     </g>
    </g>
    <g id="text_13">
     <!-- Retention -->
     <g transform="translate(15.558281 215.251453) rotate(-90) scale(0.11 -0.11)">
      <defs>
       <path id="DejaVuSans-52" d="M 2841 2188 
Q 3044 2119 3236 1894 
Q 3428 1669 3622 1275 
L 4263 0 
L 3584 0 
L 2988 1197 
Q 2756 1666 2539 1819 
Q 2322 1972 1947 1972 
L 1259 1972 
L 1259 0 
L 628 0 
L 628 4666 
L 2053 4666 
Q 2853 4666 3247 4331 
Q 3641 3997 3641 3322 
Q 3641 2881 3436 2590 
Q 3231 2300 2841 2188 
z
M 1259 4147 
L 1259 2491 
L 2053 2491 
Q 2509 2491 2742 2702 
Q 2975 2913 2975 3322 
Q 2975 3731 2742 3939 
Q 2509 4147 2053 4147 
L 1259 4147 
z
" transform="scale(0.015625)"/>
       <path id="DejaVuSans-65" d="M 3597 1894 
L 3597 1613 
L 953 1613 
Q 991 1019 1311 708 
Q 1631 397 2203 397 
Q 2534 397 2845 478 
Q 3156 559 3463 722 
L 3463 178 
Q 3153 47 2828 -22 
Q 2503 -91 2169 -91 
Q 1331 -91 842 396 
Q 353 884 353 1716 
Q 353 2575 817 3079 
Q 1281 3584 2069 3584 
Q 2775 3584 3186 3129 
Q 3597 2675 3597 1894 
z
M 3022 2063 
Q 3016 2534 2758 2815 
Q 2500 3097 2075 3097 
Q 1594 3097 1305 2825 
Q 1016 2553 972 2059 
L 3022 2063 
z
" transform="scale(0.015625)"/>
      </defs>
      <use xlink:href="#DejaVuSans-52"/>
      <use xlink:href="#DejaVuSans-65" transform="translate(64.982422 0)"/>
      <use xlink:href="#DejaVuSans-74" transform="translate(126.505859 0)"/>
      <use xlink:href="#DejaVuSans-65" transform="translate(165.714844 0)"/>
      <use xlink:href="#DejaVuSans-6e" transform="translate(227.238281 0)"/>
      <use xlink:href="#DejaVuSans-74" transform="translate(290.617188 0)"/>
      <use xlink:href="#DejaVuSans-69" transform="translate(329.826172 0)"/>
      <use xlink:href="#DejaVuSans-6f" transform="translate(357.609375 0)"/>
      <use xlink:href="#DejaVuSans-6e" transform="translate(418.791016 0)"/>
     </g>
    </g>
   </g>
   <g id="PathCollection_1">
    <defs>
     <path id="me6ef167a92" d="M 0 3.162278 
C 0.838646 3.162278 1.643056 2.82908 2.236068 2.236068 
C 2.82908 1.643056 3.162278 0.838646 3.162278 0 
C 3.162278 -0.838646 2.82908 -1.643056 2.236068 -2.236068 
C 1.643056 -2.82908 0.838646 -3.162278 0 -3.162278 
C -0.838646 -3.162278 -1.643056 -2.82908 -2.236068 -2.236068 
C -2.82908 -1.643056 -3.162278 -0.838646 -3.162278 0 
C -3.162278 0.838646 -2.82908 1.643056 -2.236068 2.236068 
C -1.643056 2.82908 -0.838646 3.162278 0 3.162278 
z
" style="stroke: #ffffff; stroke-opacity: 0.5; stroke-width: 0.5"/>
    </defs>
    <g clip-path="url(#p9d776236bb)">
     <use xlink:href="#me6ef167a92" x="76.267912" y="100.425803" style="fill: #b22222; fill-opacity: 0.5; stroke: #ffffff; stroke-opacity: 0.5; stroke-width: 0.5"/>
     <use xlink:href="#me6ef167a92" x="185.419857" y="157.090558" style="fill: #b22222; fill-opacity: 0.5; stroke: #ffffff; stroke-opacity: 0.5; stroke-width: 0.5"/>
     <use xlink:href="#me6ef167a92" x="290.118183" y="176.823478" style="fill: #b22222; fill-opacity: 0.5; stroke: #ffffff; stroke-opacity: 0.5; stroke-width: 0.5"/>
     <use xlink:href="#me6ef167a92" x="395.687831" y="266.888891" style="fill: #b22222; fill-opacity: 0.5; stroke: #ffffff; stroke-opacity: 0.5; stroke-width: 0.5"/>
     <use xlink:href="#me6ef167a92" x="74.26861" y="141.819919" style="fill: #b22222; fill-opacity: 0.5; stroke: #ffffff; stroke-opacity: 0.5; stroke-width: 0.5"/>
     <use xlink:href="#me6ef167a92" x="184.312925" y="200.400332" style="fill: #b22222; fill-opacity: 0.5; stroke: #ffffff; stroke-opacity: 0.5; stroke-width: 0.5"/>
     <use xlink:href="#me6ef167a92" x="287.479637" y="209.738758" style="fill: #b22222; fill-opacity: 0.5; stroke: #ffffff; stroke-opacity: 0.5; stroke-width: 0.5"/>
     <use xlink:href="#me6ef167a92" x="401.229096" y="301.300527" style="fill: #b22222; fill-opacity: 0.5; stroke: #ffffff; stroke-opacity: 0.5; stroke-width: 0.5"/>
     <use xlink:href="#me6ef167a92" x="82.89477" y="145.862731" style="fill: #b22222; fill-opacity: 0.5; stroke: #ffffff; stroke-opacity: 0.5; stroke-width: 0.5"/>
     <use xlink:href="#me6ef167a92" x="180.120472" y="226.382569" style="fill: #b22222; fill-opacity: 0.5; stroke: #ffffff; stroke-opacity: 0.5; stroke-width: 0.5"/>
     <use xlink:href="#me6ef167a92" x="293.136682" y="258.927392" style="fill: #b22222; fill-opacity: 0.5; stroke: #ffffff; stroke-opacity: 0.5; stroke-width: 0.5"/>
     <use xlink:href="#me6ef167a92" x="395.432432" y="305.409305" style="fill: #b22222; fill-opacity: 0.5; stroke: #ffffff; stroke-opacity: 0.5; stroke-width: 0.5"/>
     <use xlink:href="#me6ef167a92" x="76.575112" y="125.484247" style="fill: #b22222; fill-opacity: 0.5; stroke: #ffffff; stroke-opacity: 0.5; stroke-width: 0.5"/>
     <use xlink:href="#me6ef167a92" x="188.780931" y="183.523348" style="fill: #b22222; fill-opacity: 0.5; stroke: #ffffff; stroke-opacity: 0.5; stroke-width: 0.5"/>
     <use xlink:href="#me6ef167a92" x="281.624299" y="204.070468" style="fill: #b22222; fill-opacity: 0.5; stroke: #ffffff; stroke-opacity: 0.5; stroke-width: 0.5"/>
     <use xlink:href="#me6ef167a92" x="388.375609" y="295.438958" style="fill: #b22222; fill-opacity: 0.5; stroke: #ffffff; stroke-opacity: 0.5; stroke-width: 0.5"/>
     <use xlink:href="#me6ef167a92" x="67.824063" y="99.597702" style="fill: #b22222; fill-opacity: 0.5; stroke: #ffffff; stroke-opacity: 0.5; stroke-width: 0.5"/>
     <use xlink:href="#me6ef167a92" x="187.295707" y="183.876962" style="fill: #b22222; fill-opacity: 0.5; stroke: #ffffff; stroke-opacity: 0.5; stroke-width: 0.5"/>
     <use xlink:href="#me6ef167a92" x="292.91994" y="198.712799" style="fill: #b22222; fill-opacity: 0.5; stroke: #ffffff; stroke-opacity: 0.5; stroke-width: 0.5"/>
     <use xlink:href="#me6ef167a92" x="400.881485" y="269.451005" style="fill: #b22222; fill-opacity: 0.5; stroke: #ffffff; stroke-opacity: 0.5; stroke-width: 0.5"/>
     <use xlink:href="#me6ef167a92" x="83.133673" y="87.4876" style="fill: #b22222; fill-opacity: 0.5; stroke: #ffffff; stroke-opacity: 0.5; stroke-width: 0.5"/>
     <use xlink:href="#me6ef167a92" x="186.761192" y="157.488013" style="fill: #b22222; fill-opacity: 0.5; stroke: #ffffff; stroke-opacity: 0.5; stroke-width: 0.5"/>
     <use xlink:href="#me6ef167a92" x="287.861293" y="198.253669" style="fill: #b22222; fill-opacity: 0.5; stroke: #ffffff; stroke-opacity: 0.5; stroke-width: 0.5"/>
     <use xlink:href="#me6ef167a92" x="399.452072" y="246.865447" style="fill: #b22222; fill-opacity: 0.5; stroke: #ffffff; stroke-opacity: 0.5; stroke-width: 0.5"/>
     <use xlink:href="#me6ef167a92" x="69.390423" y="83.173199" style="fill: #b22222; fill-opacity: 0.5; stroke: #ffffff; stroke-opacity: 0.5; stroke-width: 0.5"/>
     <use xlink:href="#me6ef167a92" x="184.21751" y="126.081043" style="fill: #b22222; fill-opacity: 0.5; stroke: #ffffff; stroke-opacity: 0.5; stroke-width: 0.5"/>
     <use xlink:href="#me6ef167a92" x="282.779504" y="170.451457" style="fill: #b22222; fill-opacity: 0.5; stroke: #ffffff; stroke-opacity: 0.5; stroke-width: 0.5"/>
     <use xlink:href="#me6ef167a92" x="402.074063" y="264.464676" style="fill: #b22222; fill-opacity: 0.5; stroke: #ffffff; stroke-opacity: 0.5; stroke-width: 0.5"/>
     <use xlink:href="#me6ef167a92" x="75.837167" y="148.74881" style="fill: #b22222; fill-opacity: 0.5; stroke: #ffffff; stroke-opacity: 0.5; stroke-width: 0.5"/>
     <use xlink:href="#me6ef167a92" x="180.619191" y="185.954" style="fill: #b22222; fill-opacity: 0.5; stroke: #ffffff; stroke-opacity: 0.5; stroke-width: 0.5"/>
     <use xlink:href="#me6ef167a92" x="284.715607" y="235.317285" style="fill: #b22222; fill-opacity: 0.5; stroke: #ffffff; stroke-opacity: 0.5; stroke-width: 0.5"/>
     <use xlink:href="#me6ef167a92" x="399.351507" y="305.630182" style="fill: #b22222; fill-opacity: 0.5; stroke: #ffffff; stroke-opacity: 0.5; stroke-width: 0.5"/>
     <use xlink:href="#me6ef167a92" x="74.787698" y="107.302176" style="fill: #b22222; fill-opacity: 0.5; stroke: #ffffff; stroke-opacity: 0.5; stroke-width: 0.5"/>
     <use xlink:href="#me6ef167a92" x="183.075566" y="186.241804" style="fill: #b22222; fill-opacity: 0.5; stroke: #ffffff; stroke-opacity: 0.5; stroke-width: 0.5"/>
     <use xlink:href="#me6ef167a92" x="280.78971" y="211.691839" style="fill: #b22222; fill-opacity: 0.5; stroke: #ffffff; stroke-opacity: 0.5; stroke-width: 0.5"/>
     <use xlink:href="#me6ef167a92" x="396.849986" y="291.406398" style="fill: #b22222; fill-opacity: 0.5; stroke: #ffffff; stroke-opacity: 0.5; stroke-width: 0.5"/>
     <use xlink:href="#me6ef167a92" x="77.278791" y="125.96419" style="fill: #b22222; fill-opacity: 0.5; stroke: #ffffff; stroke-opacity: 0.5; stroke-width: 0.5"/>
     <use xlink:href="#me6ef167a92" x="183.850312" y="156.630644" style="fill: #b22222; fill-opacity: 0.5; stroke: #ffffff; stroke-opacity: 0.5; stroke-width: 0.5"/>
     <use xlink:href="#me6ef167a92" x="295.565119" y="214.116331" style="fill: #b22222; fill-opacity: 0.5; stroke: #ffffff; stroke-opacity: 0.5; stroke-width: 0.5"/>
     <use xlink:href="#me6ef167a92" x="397.875283" y="277.994417" style="fill: #b22222; fill-opacity: 0.5; stroke: #ffffff; stroke-opacity: 0.5; stroke-width: 0.5"/>
     <use xlink:href="#me6ef167a92" x="73.243919" y="71.833818" style="fill: #b22222; fill-opacity: 0.5; stroke: #ffffff; stroke-opacity: 0.5; stroke-width: 0.5"/>
     <use xlink:href="#me6ef167a92" x="180.976533" y="145.077412" style="fill: #b22222; fill-opacity: 0.5; stroke: #ffffff; stroke-opacity: 0.5; stroke-width: 0.5"/>
     <use xlink:href="#me6ef167a92" x="291.633614" y="175.646773" style="fill: #b22222; fill-opacity: 0.5; stroke: #ffffff; stroke-opacity: 0.5; stroke-width: 0.5"/>
     <use xlink:href="#me6ef167a92" x="387.945843" y="266.65072" style="fill: #b22222; fill-opacity: 0.5; stroke: #ffffff; stroke-opacity: 0.5; stroke-width: 0.5"/>
     <use xlink:href="#me6ef167a92" x="78.152113" y="114.246417" style="fill: #b22222; fill-opacity: 0.5; stroke: #ffffff; stroke-opacity: 0.5; stroke-width: 0.5"/>
     <use xlink:href="#me6ef167a92" x="184.708185" y="189.305797" style="fill: #b22222; fill-opacity: 0.5; stroke: #ffffff; stroke-opacity: 0.5; stroke-width: 0.5"/>
     <use xlink:href="#me6ef167a92" x="283.850239" y="200.41787" style="fill: #b22222; fill-opacity: 0.5; stroke: #ffffff; stroke-opacity: 0.5; stroke-width: 0.5"/>
     <use xlink:href="#me6ef167a92" x="389.04328" y="280.045415" style="fill: #b22222; fill-opacity: 0.5; stroke: #ffffff; stroke-opacity: 0.5; stroke-width: 0.5"/>
     <use xlink:href="#me6ef167a92" x="72.539786" y="127.02777" style="fill: #b22222; fill-opacity: 0.5; stroke: #ffffff; stroke-opacity: 0.5; stroke-width: 0.5"/>
     <use xlink:href="#me6ef167a92" x="179.80529" y="163.828929" style="fill: #b22222; fill-opacity: 0.5; stroke: #ffffff; stroke-opacity: 0.5; stroke-width: 0.5"/>
     <use xlink:href="#me6ef167a92" x="289.59796" y="203.018213" style="fill: #b22222; fill-opacity: 0.5; stroke: #ffffff; stroke-opacity: 0.5; stroke-width: 0.5"/>
     <use xlink:href="#me6ef167a92" x="393.990073" y="287.308738" style="fill: #b22222; fill-opacity: 0.5; stroke: #ffffff; stroke-opacity: 0.5; stroke-width: 0.5"/>
     <use xlink:href="#me6ef167a92" x="83.289508" y="134.979611" style="fill: #b22222; fill-opacity: 0.5; stroke: #ffffff; stroke-opacity: 0.5; stroke-width: 0.5"/>
     <use xlink:href="#me6ef167a92" x="175.625403" y="202.805728" style="fill: #b22222; fill-opacity: 0.5; stroke: #ffffff; stroke-opacity: 0.5; stroke-width: 0.5"/>
     <use xlink:href="#me6ef167a92" x="283.826185" y="220.996732" style="fill: #b22222; fill-opacity: 0.5; stroke: #ffffff; stroke-opacity: 0.5; stroke-width: 0.5"/>
     <use xlink:href="#me6ef167a92" x="389.560574" y="295.458424" style="fill: #b22222; fill-opacity: 0.5; stroke: #ffffff; stroke-opacity: 0.5; stroke-width: 0.5"/>
     <use xlink:href="#me6ef167a92" x="77.933932" y="95.714282" style="fill: #b22222; fill-opacity: 0.5; stroke: #ffffff; stroke-opacity: 0.5; stroke-width: 0.5"/>
     <use xlink:href="#me6ef167a92" x="178.04144" y="169.811734" style="fill: #b22222; fill-opacity: 0.5; stroke: #ffffff; stroke-opacity: 0.5; stroke-width: 0.5"/>
     <use xlink:href="#me6ef167a92" x="287.938471" y="192.18949" style="fill: #b22222; fill-opacity: 0.5; stroke: #ffffff; stroke-opacity: 0.5; stroke-width: 0.5"/>
     <use xlink:href="#me6ef167a92" x="390.888281" y="263.421052" style="fill: #b22222; fill-opacity: 0.5; stroke: #ffffff; stroke-opacity: 0.5; stroke-width: 0.5"/>
    </g>
   </g>
   <g id="patch_3">
    <path d="M 51.111563 317.32 
L 51.111563 60.144 
" style="fill: none; stroke: #000000; stroke-width: 0.8; stroke-linejoin: miter; stroke-linecap: square"/>
   </g>
   <g id="patch_4">
    <path d="M 51.111563 317.32 
L 418.786563 317.32 
" style="fill: none; stroke: #000000; stroke-width: 0.8; stroke-linejoin: miter; stroke-linecap: square"/>
   </g>
   <g id="line2d_12">
    <path d="M 75.488159 107.114671 
L 181.982393 178.913203 
L 288.476627 226.778891 
L 394.970861 262.678158 
" clip-path="url(#p9d776236bb)" style="fill: none; stroke: #4682b4; stroke-width: 2.5; stroke-linecap: square"/>
   </g>
   <g id="text_14">
    <!-- A. Position-to-consolidation law -->
    <g transform="translate(156.886563 42.946187) scale(0.1 -0.1)">
     <defs>
      <path id="DejaVuSans-41" d="M 2188 4044 
L 1331 1722 
L 3047 1722 
L 2188 4044 
z
M 1831 4666 
L 2547 4666 
L 4325 0 
L 3669 0 
L 3244 1197 
L 1141 1197 
L 716 0 
L 50 0 
L 1831 4666 
z
" transform="scale(0.015625)"/>
      <path id="DejaVuSans-50" d="M 1259 4147 
L 1259 2394 
L 2053 2394 
Q 2494 2394 2734 2622 
Q 2975 2850 2975 3272 
Q 2975 3691 2734 3919 
Q 2494 4147 2053 4147 
L 1259 4147 
z
M 628 4666 
L 2053 4666 
Q 2838 4666 3239 4311 
Q 3641 3956 3641 3272 
Q 3641 2581 3239 2228 
Q 2838 1875 2053 1875 
L 1259 1875 
L 1259 0 
L 628 0 
L 628 4666 
z
" transform="scale(0.015625)"/>
      <path id="DejaVuSans-2d" d="M 313 2009 
L 1997 2009 
L 1997 1497 
L 313 1497 
L 313 2009 
z
" transform="scale(0.015625)"/>
      <path id="DejaVuSans-6c" d="M 603 4863 
L 1178 4863 
L 1178 0 
L 603 0 
L 603 4863 
z
" transform="scale(0.015625)"/>
      <path id="DejaVuSans-61" d="M 2194 1759 
Q 1497 1759 1228 1600 
Q 959 1441 959 1056 
Q 959 750 1161 570 
Q 1363 391 1709 391 
Q 2188 391 2477 730 
Q 2766 1069 2766 1631 
L 2766 1759 
L 2194 1759 
z
M 3341 1997 
L 3341 0 
L 2766 0 
L 2766 531 
Q 2569 213 2275 61 
Q 1981 -91 1556 -91 
Q 1019 -91 701 211 
Q 384 513 384 1019 
Q 384 1609 779 1909 
Q 1175 2209 1959 2209 
L 2766 2209 
L 2766 2266 
Q 2766 2663 2505 2880 
Q 2244 3097 1772 3097 
Q 1472 3097 1187 3025 
Q 903 2953 641 2809 
L 641 3341 
Q 956 3463 1253 3523 
Q 1550 3584 1831 3584 
Q 2591 3584 2966 3190 
Q 3341 2797 3341 1997 
z
" transform="scale(0.015625)"/>
      <path id="DejaVuSans-77" d="M 269 3500 
L 844 3500 
L 1563 769 
L 2278 3500 
L 2956 3500 
L 3675 769 
L 4391 3500 
L 4966 3500 
L 4050 0 
L 3372 0 
L 2619 2869 
L 1863 0 
L 1184 0 
L 269 3500 
z
" transform="scale(0.015625)"/>
     </defs>
     <use xlink:href="#DejaVuSans-41"/>
     <use xlink:href="#DejaVuSans-2e" transform="translate(66.658203 0)"/>
     <use xlink:href="#DejaVuSans-20" transform="translate(98.445312 0)"/>
     <use xlink:href="#DejaVuSans-50" transform="translate(130.232422 0)"/>
     <use xlink:href="#DejaVuSans-6f" transform="translate(186.910156 0)"/>
     <use xlink:href="#DejaVuSans-73" transform="translate(248.091797 0)"/>
     <use xlink:href="#DejaVuSans-69" transform="translate(300.191406 0)"/>
     <use xlink:href="#DejaVuSans-74" transform="translate(327.974609 0)"/>
     <use xlink:href="#DejaVuSans-69" transform="translate(367.183594 0)"/>
     <use xlink:href="#DejaVuSans-6f" transform="translate(394.966797 0)"/>
     <use xlink:href="#DejaVuSans-6e" transform="translate(456.148438 0)"/>
     <use xlink:href="#DejaVuSans-2d" transform="translate(519.527344 0)"/>
     <use xlink:href="#DejaVuSans-74" transform="translate(555.611328 0)"/>
     <use xlink:href="#DejaVuSans-6f" transform="translate(594.820312 0)"/>
     <use xlink:href="#DejaVuSans-2d" transform="translate(657.876953 0)"/>
     <use xlink:href="#DejaVuSans-63" transform="translate(693.960938 0)"/>
     <use xlink:href="#DejaVuSans-6f" transform="translate(748.941406 0)"/>
     <use xlink:href="#DejaVuSans-6e" transform="translate(810.123047 0)"/>
     <use xlink:href="#DejaVuSans-73" transform="translate(873.501953 0)"/>
     <use xlink:href="#DejaVuSans-6f" transform="translate(925.601562 0)"/>
     <use xlink:href="#DejaVuSans-6c" transform="translate(986.783203 0)"/>
     <use xlink:href="#DejaVuSans-69" transform="translate(1014.566406 0)"/>
     <use xlink:href="#DejaVuSans-64" transform="translate(1042.349609 0)"/>
     <use xlink:href="#DejaVuSans-61" transform="translate(1105.826172 0)"/>
     <use xlink:href="#DejaVuSans-74" transform="translate(1167.105469 0)"/>
     <use xlink:href="#DejaVuSans-69" transform="translate(1206.314453 0)"/>
     <use xlink:href="#DejaVuSans-6f" transform="translate(1234.097656 0)"/>
     <use xlink:href="#DejaVuSans-6e" transform="translate(1295.279297 0)"/>
     <use xlink:href="#DejaVuSans-20" transform="translate(1358.658203 0)"/>
     <use xlink:href="#DejaVuSans-6c" transform="translate(1390.445312 0)"/>
     <use xlink:href="#DejaVuSans-61" transform="translate(1418.228516 0)"/>
     <use xlink:href="#DejaVuSans-77" transform="translate(1479.507812 0)"/>
    </g>
    <!-- (2-parameter fit across all positions) -->
    <g transform="translate(143.923281 54.144) scale(0.1 -0.1)">
     <defs>
      <path id="DejaVuSans-28" d="M 1984 4856 
Q 1566 4138 1362 3434 
Q 1159 2731 1159 2009 
Q 1159 1288 1364 580 
Q 1569 -128 1984 -844 
L 1484 -844 
Q 1016 -109 783 600 
Q 550 1309 550 2009 
Q 550 2706 781 3412 
Q 1013 4119 1484 4856 
L 1984 4856 
z
" transform="scale(0.015625)"/>
      <path id="DejaVuSans-72" d="M 2631 2963 
Q 2534 3019 2420 3045 
Q 2306 3072 2169 3072 
Q 1681 3072 1420 2755 
Q 1159 2438 1159 1844 
L 1159 0 
L 581 0 
L 581 3500 
L 1159 3500 
L 1159 2956 
Q 1341 3275 1631 3429 
Q 1922 3584 2338 3584 
Q 2397 3584 2469 3576 
Q 2541 3569 2628 3553 
L 2631 2963 
z
" transform="scale(0.015625)"/>
      <path id="DejaVuSans-6d" d="M 3328 2828 
Q 3544 3216 3844 3400 
Q 4144 3584 4550 3584 
Q 5097 3584 5394 3201 
Q 5691 2819 5691 2113 
L 5691 0 
L 5113 0 
L 5113 2094 
Q 5113 2597 4934 2840 
Q 4756 3084 4391 3084 
Q 3944 3084 3684 2787 
Q 3425 2491 3425 1978 
L 3425 0 
L 2847 0 
L 2847 2094 
Q 2847 2600 2669 2842 
Q 2491 3084 2119 3084 
Q 1678 3084 1418 2786 
Q 1159 2488 1159 1978 
L 1159 0 
L 581 0 
L 581 3500 
L 1159 3500 
L 1159 2956 
Q 1356 3278 1631 3431 
Q 1906 3584 2284 3584 
Q 2666 3584 2933 3390 
Q 3200 3197 3328 2828 
z
" transform="scale(0.015625)"/>
      <path id="DejaVuSans-66" d="M 2375 4863 
L 2375 4384 
L 1825 4384 
Q 1516 4384 1395 4259 
Q 1275 4134 1275 3809 
L 1275 3500 
L 2222 3500 
L 2222 3053 
L 1275 3053 
L 1275 0 
L 697 0 
L 697 3053 
L 147 3053 
L 147 3500 
L 697 3500 
L 697 3744 
Q 697 4328 969 4595 
Q 1241 4863 1831 4863 
L 2375 4863 
z
" transform="scale(0.015625)"/>
      <path id="DejaVuSans-29" d="M 513 4856 
L 1013 4856 
Q 1481 4119 1714 3412 
Q 1947 2706 1947 2009 
Q 1947 1309 1714 600 
Q 1481 -109 1013 -844 
L 513 -844 
Q 928 -128 1133 580 
Q 1338 1288 1338 2009 
Q 1338 2731 1133 3434 
Q 928 4138 513 4856 
z
" transform="scale(0.015625)"/>
     </defs>
     <use xlink:href="#DejaVuSans-28"/>
     <use xlink:href="#DejaVuSans-32" transform="translate(39.013672 0)"/>
     <use xlink:href="#DejaVuSans-2d" transform="translate(102.636719 0)"/>
     <use xlink:href="#DejaVuSans-70" transform="translate(138.720703 0)"/>
     <use xlink:href="#DejaVuSans-61" transform="translate(202.197266 0)"/>
     <use xlink:href="#DejaVuSans-72" transform="translate(263.476562 0)"/>
     <use xlink:href="#DejaVuSans-61" transform="translate(304.589844 0)"/>
     <use xlink:href="#DejaVuSans-6d" transform="translate(365.869141 0)"/>
     <use xlink:href="#DejaVuSans-65" transform="translate(463.28125 0)"/>
     <use xlink:href="#DejaVuSans-74" transform="translate(524.804688 0)"/>
     <use xlink:href="#DejaVuSans-65" transform="translate(564.013672 0)"/>
     <use xlink:href="#DejaVuSans-72" transform="translate(625.537109 0)"/>
     <use xlink:href="#DejaVuSans-20" transform="translate(666.650391 0)"/>
     <use xlink:href="#DejaVuSans-66" transform="translate(698.4375 0)"/>
     <use xlink:href="#DejaVuSans-69" transform="translate(733.642578 0)"/>
     <use xlink:href="#DejaVuSans-74" transform="translate(761.425781 0)"/>
     <use xlink:href="#DejaVuSans-20" transform="translate(800.634766 0)"/>
     <use xlink:href="#DejaVuSans-61" transform="translate(832.421875 0)"/>
     <use xlink:href="#DejaVuSans-63" transform="translate(893.701172 0)"/>
     <use xlink:href="#DejaVuSans-72" transform="translate(948.681641 0)"/>
     <use xlink:href="#DejaVuSans-6f" transform="translate(987.544922 0)"/>
     <use xlink:href="#DejaVuSans-73" transform="translate(1048.726562 0)"/>
     <use xlink:href="#DejaVuSans-73" transform="translate(1100.826172 0)"/>
     <use xlink:href="#DejaVuSans-20" transform="translate(1152.925781 0)"/>
     <use xlink:href="#DejaVuSans-61" transform="translate(1184.712891 0)"/>
     <use xlink:href="#DejaVuSans-6c" transform="translate(1245.992188 0)"/>
     <use xlink:href="#DejaVuSans-6c" transform="translate(1273.775391 0)"/>
     <use xlink:href="#DejaVuSans-20" transform="translate(1301.558594 0)"/>
     <use xlink:href="#DejaVuSans-70" transform="translate(1333.345703 0)"/>
     <use xlink:href="#DejaVuSans-6f" transform="translate(1396.822266 0)"/>
     <use xlink:href="#DejaVuSans-73" transform="translate(1458.003906 0)"/>
     <use xlink:href="#DejaVuSans-69" transform="translate(1510.103516 0)"/>
     <use xlink:href="#DejaVuSans-74" transform="translate(1537.886719 0)"/>
     <use xlink:href="#DejaVuSans-69" transform="translate(1577.095703 0)"/>
     <use xlink:href="#DejaVuSans-6f" transform="translate(1604.878906 0)"/>
     <use xlink:href="#DejaVuSans-6e" transform="translate(1666.060547 0)"/>
     <use xlink:href="#DejaVuSans-73" transform="translate(1729.439453 0)"/>
     <use xlink:href="#DejaVuSans-29" transform="translate(1781.539062 0)"/>
    </g>
   </g>
   <g id="PathCollection_2">
    <defs>
     <path id="mcdb6d7d93e" d="M 0 5.477226 
C 1.452577 5.477226 2.845856 4.900111 3.872983 3.872983 
C 4.900111 2.845856 5.477226 1.452577 5.477226 0 
C 5.477226 -1.452577 4.900111 -2.845856 3.872983 -3.872983 
C 2.845856 -4.900111 1.452577 -5.477226 0 -5.477226 
C -1.452577 -5.477226 -2.845856 -4.900111 -3.872983 -3.872983 
C -4.900111 -2.845856 -5.477226 -1.452577 -5.477226 0 
C -5.477226 1.452577 -4.900111 2.845856 -3.872983 3.872983 
C -2.845856 4.900111 -1.452577 5.477226 0 5.477226 
z
" style="stroke: #4682b4"/>
    </defs>
    <g clip-path="url(#p9d776236bb)">
     <use xlink:href="#mcdb6d7d93e" x="75.488159" y="107.114671" style="fill: #4682b4; stroke: #4682b4"/>
     <use xlink:href="#mcdb6d7d93e" x="181.982393" y="178.913203" style="fill: #4682b4; stroke: #4682b4"/>
     <use xlink:href="#mcdb6d7d93e" x="288.476627" y="226.778891" style="fill: #4682b4; stroke: #4682b4"/>
     <use xlink:href="#mcdb6d7d93e" x="394.970861" y="262.678158" style="fill: #4682b4; stroke: #4682b4"/>
    </g>
   </g>
   <g id="legend_1">
    <g id="patch_5">
     <path d="M 254.824063 107.9455 
L 413.186563 107.9455 
Q 414.786563 107.9455 414.786563 106.3455 
L 414.786563 65.744 
Q 414.786563 64.144 413.186563 64.144 
L 254.824063 64.144 
Q 253.224063 64.144 253.224063 65.744 
L 253.224063 106.3455 
Q 253.224063 107.9455 254.824063 107.9455 
z
" style="fill: #ffffff; opacity: 0.8; stroke: #cccccc; stroke-linejoin: miter"/>
    </g>
    <g id="line2d_13">
     <path d="M 256.424063 80.412875 
L 264.424063 80.412875 
L 272.424063 80.412875 
" style="fill: none; stroke: #4682b4; stroke-width: 2.5; stroke-linecap: square"/>
    </g>
    <g id="text_15">
     <!-- Law: alpha + beta*(H(N)-H(k+1)) -->
     <g transform="translate(278.824063 73.42275) scale(0.08 -0.08)">
      <defs>
       <path id="DejaVuSans-4c" d="M 628 4666 
L 1259 4666 
L 1259 531 
L 3531 531 
L 3531 0 
L 628 0 
L 628 4666 
z
" transform="scale(0.015625)"/>
       <path id="DejaVuSans-3a" d="M 750 794 
L 1409 794 
L 1409 0 
L 750 0 
L 750 794 
z
M 750 3309 
L 1409 3309 
L 1409 2516 
L 750 2516 
L 750 3309 
z
" transform="scale(0.015625)"/>
       <path id="DejaVuSans-68" d="M 3513 2113 
L 3513 0 
L 2938 0 
L 2938 2094 
Q 2938 2591 2744 2837 
Q 2550 3084 2163 3084 
Q 1697 3084 1428 2787 
Q 1159 2491 1159 1978 
L 1159 0 
L 581 0 
L 581 4863 
L 1159 4863 
L 1159 2956 
Q 1366 3272 1645 3428 
Q 1925 3584 2291 3584 
Q 2894 3584 3203 3211 
Q 3513 2838 3513 2113 
z
" transform="scale(0.015625)"/>
       <path id="DejaVuSans-2b" d="M 2944 4013 
L 2944 2272 
L 4684 2272 
L 4684 1741 
L 2944 1741 
L 2944 0 
L 2419 0 
L 2419 1741 
L 678 1741 
L 678 2272 
L 2419 2272 
L 2419 4013 
L 2944 4013 
z
" transform="scale(0.015625)"/>
       <path id="DejaVuSans-62" d="M 3116 1747 
Q 3116 2381 2855 2742 
Q 2594 3103 2138 3103 
Q 1681 3103 1420 2742 
Q 1159 2381 1159 1747 
Q 1159 1113 1420 752 
Q 1681 391 2138 391 
Q 2594 391 2855 752 
Q 3116 1113 3116 1747 
z
M 1159 2969 
Q 1341 3281 1617 3432 
Q 1894 3584 2278 3584 
Q 2916 3584 3314 3078 
Q 3713 2572 3713 1747 
Q 3713 922 3314 415 
Q 2916 -91 2278 -91 
Q 1894 -91 1617 61 
Q 1341 213 1159 525 
L 1159 0 
L 581 0 
L 581 4863 
L 1159 4863 
L 1159 2969 
z
" transform="scale(0.015625)"/>
       <path id="DejaVuSans-2a" d="M 3009 3897 
L 1888 3291 
L 3009 2681 
L 2828 2375 
L 1778 3009 
L 1778 1831 
L 1422 1831 
L 1422 3009 
L 372 2375 
L 191 2681 
L 1313 3291 
L 191 3897 
L 372 4206 
L 1422 3572 
L 1422 4750 
L 1778 4750 
L 1778 3572 
L 2828 4206 
L 3009 3897 
z
" transform="scale(0.015625)"/>
       <path id="DejaVuSans-48" d="M 628 4666 
L 1259 4666 
L 1259 2753 
L 3553 2753 
L 3553 4666 
L 4184 4666 
L 4184 0 
L 3553 0 
L 3553 2222 
L 1259 2222 
L 1259 0 
L 628 0 
L 628 4666 
z
" transform="scale(0.015625)"/>
       <path id="DejaVuSans-4e" d="M 628 4666 
L 1478 4666 
L 3547 763 
L 3547 4666 
L 4159 4666 
L 4159 0 
L 3309 0 
L 1241 3903 
L 1241 0 
L 628 0 
L 628 4666 
z
" transform="scale(0.015625)"/>
      </defs>
      <use xlink:href="#DejaVuSans-4c"/>
      <use xlink:href="#DejaVuSans-61" transform="translate(55.712891 0)"/>
      <use xlink:href="#DejaVuSans-77" transform="translate(116.992188 0)"/>
      <use xlink:href="#DejaVuSans-3a" transform="translate(193.279297 0)"/>
      <use xlink:href="#DejaVuSans-20" transform="translate(226.970703 0)"/>
      <use xlink:href="#DejaVuSans-61" transform="translate(258.757812 0)"/>
      <use xlink:href="#DejaVuSans-6c" transform="translate(320.037109 0)"/>
      <use xlink:href="#DejaVuSans-70" transform="translate(347.820312 0)"/>
      <use xlink:href="#DejaVuSans-68" transform="translate(411.296875 0)"/>
      <use xlink:href="#DejaVuSans-61" transform="translate(474.675781 0)"/>
      <use xlink:href="#DejaVuSans-20" transform="translate(535.955078 0)"/>
      <use xlink:href="#DejaVuSans-2b" transform="translate(567.742188 0)"/>
      <use xlink:href="#DejaVuSans-20" transform="translate(651.53125 0)"/>
      <use xlink:href="#DejaVuSans-62" transform="translate(683.318359 0)"/>
      <use xlink:href="#DejaVuSans-65" transform="translate(746.794922 0)"/>
      <use xlink:href="#DejaVuSans-74" transform="translate(808.318359 0)"/>
      <use xlink:href="#DejaVuSans-61" transform="translate(847.527344 0)"/>
      <use xlink:href="#DejaVuSans-2a" transform="translate(908.806641 0)"/>
      <use xlink:href="#DejaVuSans-28" transform="translate(958.806641 0)"/>
      <use xlink:href="#DejaVuSans-48" transform="translate(997.820312 0)"/>
      <use xlink:href="#DejaVuSans-28" transform="translate(1073.015625 0)"/>
      <use xlink:href="#DejaVuSans-4e" transform="translate(1112.029297 0)"/>
      <use xlink:href="#DejaVuSans-29" transform="translate(1186.833984 0)"/>
      <use xlink:href="#DejaVuSans-2d" transform="translate(1225.847656 0)"/>
      <use xlink:href="#DejaVuSans-48" transform="translate(1261.931641 0)"/>
      <use xlink:href="#DejaVuSans-28" transform="translate(1337.126953 0)"/>
      <use xlink:href="#DejaVuSans-6b" transform="translate(1376.140625 0)"/>
      <use xlink:href="#DejaVuSans-2b" transform="translate(1434.050781 0)"/>
      <use xlink:href="#DejaVuSans-31" transform="translate(1517.839844 0)"/>
      <use xlink:href="#DejaVuSans-29" transform="translate(1581.462891 0)"/>
      <use xlink:href="#DejaVuSans-29" transform="translate(1620.476562 0)"/>
     </g>
     <!--   alpha=0.247, beta=0.074 -->
     <g transform="translate(278.824063 82.381) scale(0.08 -0.08)">
      <defs>
       <path id="DejaVuSans-3d" d="M 678 2906 
L 4684 2906 
L 4684 2381 
L 678 2381 
L 678 2906 
z
M 678 1631 
L 4684 1631 
L 4684 1100 
L 678 1100 
L 678 1631 
z
" transform="scale(0.015625)"/>
       <path id="DejaVuSans-37" d="M 525 4666 
L 3525 4666 
L 3525 4397 
L 1831 0 
L 1172 0 
L 2766 4134 
L 525 4134 
L 525 4666 
z
" transform="scale(0.015625)"/>
       <path id="DejaVuSans-2c" d="M 750 794 
L 1409 794 
L 1409 256 
L 897 -744 
L 494 -744 
L 750 256 
L 750 794 
z
" transform="scale(0.015625)"/>
      </defs>
      <use xlink:href="#DejaVuSans-20"/>
      <use xlink:href="#DejaVuSans-20" transform="translate(31.787109 0)"/>
      <use xlink:href="#DejaVuSans-61" transform="translate(63.574219 0)"/>
      <use xlink:href="#DejaVuSans-6c" transform="translate(124.853516 0)"/>
      <use xlink:href="#DejaVuSans-70" transform="translate(152.636719 0)"/>
      <use xlink:href="#DejaVuSans-68" transform="translate(216.113281 0)"/>
      <use xlink:href="#DejaVuSans-61" transform="translate(279.492188 0)"/>
      <use xlink:href="#DejaVuSans-3d" transform="translate(340.771484 0)"/>
      <use xlink:href="#DejaVuSans-30" transform="translate(424.560547 0)"/>
      <use xlink:href="#DejaVuSans-2e" transform="translate(488.183594 0)"/>
      <use xlink:href="#DejaVuSans-32" transform="translate(519.970703 0)"/>
      <use xlink:href="#DejaVuSans-34" transform="translate(583.59375 0)"/>
      <use xlink:href="#DejaVuSans-37" transform="translate(647.216797 0)"/>
      <use xlink:href="#DejaVuSans-2c" transform="translate(710.839844 0)"/>
      <use xlink:href="#DejaVuSans-20" transform="translate(742.626953 0)"/>
      <use xlink:href="#DejaVuSans-62" transform="translate(774.414062 0)"/>
      <use xlink:href="#DejaVuSans-65" transform="translate(837.890625 0)"/>
      <use xlink:href="#DejaVuSans-74" transform="translate(899.414062 0)"/>
      <use xlink:href="#DejaVuSans-61" transform="translate(938.623047 0)"/>
      <use xlink:href="#DejaVuSans-3d" transform="translate(999.902344 0)"/>
      <use xlink:href="#DejaVuSans-30" transform="translate(1083.691406 0)"/>
      <use xlink:href="#DejaVuSans-2e" transform="translate(1147.314453 0)"/>
      <use xlink:href="#DejaVuSans-30" transform="translate(1179.101562 0)"/>
      <use xlink:href="#DejaVuSans-37" transform="translate(1242.724609 0)"/>
      <use xlink:href="#DejaVuSans-34" transform="translate(1306.347656 0)"/>
     </g>
     <!--   R^2=0.828 -->
     <g transform="translate(278.824063 91.33925) scale(0.08 -0.08)">
      <defs>
       <path id="DejaVuSans-5e" d="M 2988 4666 
L 4684 2925 
L 4056 2925 
L 2681 4159 
L 1306 2925 
L 678 2925 
L 2375 4666 
L 2988 4666 
z
" transform="scale(0.015625)"/>
      </defs>
      <use xlink:href="#DejaVuSans-20"/>
      <use xlink:href="#DejaVuSans-20" transform="translate(31.787109 0)"/>
      <use xlink:href="#DejaVuSans-52" transform="translate(63.574219 0)"/>
      <use xlink:href="#DejaVuSans-5e" transform="translate(133.056641 0)"/>
      <use xlink:href="#DejaVuSans-32" transform="translate(216.845703 0)"/>
      <use xlink:href="#DejaVuSans-3d" transform="translate(280.46875 0)"/>
      <use xlink:href="#DejaVuSans-30" transform="translate(364.257812 0)"/>
      <use xlink:href="#DejaVuSans-2e" transform="translate(427.880859 0)"/>
      <use xlink:href="#DejaVuSans-38" transform="translate(459.667969 0)"/>
      <use xlink:href="#DejaVuSans-32" transform="translate(523.291016 0)"/>
      <use xlink:href="#DejaVuSans-38" transform="translate(586.914062 0)"/>
     </g>
    </g>
    <g id="PathCollection_3">
     <g>
      <use xlink:href="#me6ef167a92" x="264.424063" y="100.98175" style="fill: #b22222; fill-opacity: 0.5; stroke: #ffffff; stroke-opacity: 0.5; stroke-width: 0.5"/>
     </g>
    </g>
    <g id="text_16">
     <!-- NATURAL data (n=15 seeds) -->
     <g transform="translate(278.824063 103.08175) scale(0.08 -0.08)">
      <defs>
       <path id="DejaVuSans-54" d="M -19 4666 
L 3928 4666 
L 3928 4134 
L 2272 4134 
L 2272 0 
L 1638 0 
L 1638 4134 
L -19 4134 
L -19 4666 
z
" transform="scale(0.015625)"/>
       <path id="DejaVuSans-55" d="M 556 4666 
L 1191 4666 
L 1191 1831 
Q 1191 1081 1462 751 
Q 1734 422 2344 422 
Q 2950 422 3222 751 
Q 3494 1081 3494 1831 
L 3494 4666 
L 4128 4666 
L 4128 1753 
Q 4128 841 3676 375 
Q 3225 -91 2344 -91 
Q 1459 -91 1007 375 
Q 556 841 556 1753 
L 556 4666 
z
" transform="scale(0.015625)"/>
       <path id="DejaVuSans-35" d="M 691 4666 
L 3169 4666 
L 3169 4134 
L 1269 4134 
L 1269 2991 
Q 1406 3038 1543 3061 
Q 1681 3084 1819 3084 
Q 2600 3084 3056 2656 
Q 3513 2228 3513 1497 
Q 3513 744 3044 326 
Q 2575 -91 1722 -91 
Q 1428 -91 1123 -41 
Q 819 9 494 109 
L 494 744 
Q 775 591 1075 516 
Q 1375 441 1709 441 
Q 2250 441 2565 725 
Q 2881 1009 2881 1497 
Q 2881 1984 2565 2268 
Q 2250 2553 1709 2553 
Q 1456 2553 1204 2497 
Q 953 2441 691 2322 
L 691 4666 
z
" transform="scale(0.015625)"/>
      </defs>
      <use xlink:href="#DejaVuSans-4e"/>
      <use xlink:href="#DejaVuSans-41" transform="translate(74.804688 0)"/>
      <use xlink:href="#DejaVuSans-54" transform="translate(135.462891 0)"/>
      <use xlink:href="#DejaVuSans-55" transform="translate(196.546875 0)"/>
      <use xlink:href="#DejaVuSans-52" transform="translate(269.740234 0)"/>
      <use xlink:href="#DejaVuSans-41" transform="translate(335.222656 0)"/>
      <use xlink:href="#DejaVuSans-4c" transform="translate(403.630859 0)"/>
      <use xlink:href="#DejaVuSans-20" transform="translate(459.34375 0)"/>
      <use xlink:href="#DejaVuSans-64" transform="translate(491.130859 0)"/>
      <use xlink:href="#DejaVuSans-61" transform="translate(554.607422 0)"/>
      <use xlink:href="#DejaVuSans-74" transform="translate(615.886719 0)"/>
      <use xlink:href="#DejaVuSans-61" transform="translate(655.095703 0)"/>
      <use xlink:href="#DejaVuSans-20" transform="translate(716.375 0)"/>
      <use xlink:href="#DejaVuSans-28" transform="translate(748.162109 0)"/>
      <use xlink:href="#DejaVuSans-6e" transform="translate(787.175781 0)"/>
      <use xlink:href="#DejaVuSans-3d" transform="translate(850.554688 0)"/>
      <use xlink:href="#DejaVuSans-31" transform="translate(934.34375 0)"/>
      <use xlink:href="#DejaVuSans-35" transform="translate(997.966797 0)"/>
      <use xlink:href="#DejaVuSans-20" transform="translate(1061.589844 0)"/>
      <use xlink:href="#DejaVuSans-73" transform="translate(1093.376953 0)"/>
      <use xlink:href="#DejaVuSans-65" transform="translate(1145.476562 0)"/>
      <use xlink:href="#DejaVuSans-65" transform="translate(1207 0)"/>
      <use xlink:href="#DejaVuSans-64" transform="translate(1268.523438 0)"/>
      <use xlink:href="#DejaVuSans-73" transform="translate(1332 0)"/>
      <use xlink:href="#DejaVuSans-29" transform="translate(1384.099609 0)"/>
     </g>
    </g>
   </g>
  </g>
  <g id="axes_2">
   <g id="patch_6">
    <path d="M 481.896562 317.32 
L 849.571563 317.32 
L 849.571563 60.144 
L 481.896562 60.144 
z
" style="fill: #ffffff"/>
   </g>
   <g id="PathCollection_4">
    <defs>
     <path id="m26f55c19ee" d="M 0 3.535534 
C 0.937635 3.535534 1.836992 3.163008 2.5 2.5 
C 3.163008 1.836992 3.535534 0.937635 3.535534 0 
C 3.535534 -0.937635 3.163008 -1.836992 2.5 -2.5 
C 1.836992 -3.163008 0.937635 -3.535534 0 -3.535534 
C -0.937635 -3.535534 -1.836992 -3.163008 -2.5 -2.5 
C -3.163008 -1.836992 -3.535534 -0.937635 -3.535534 0 
C -3.535534 0.937635 -3.163008 1.836992 -2.5 2.5 
C -1.836992 3.163008 -0.937635 3.535534 0 3.535534 
z
" style="stroke: #ffffff; stroke-opacity: 0.7; stroke-width: 0.5"/>
    </defs>
    <g clip-path="url(#p568a0db2bc)">
     <use xlink:href="#m26f55c19ee" x="507.052912" y="183.641852" style="fill: #4682b4; fill-opacity: 0.7; stroke: #ffffff; stroke-opacity: 0.7; stroke-width: 0.5"/>
     <use xlink:href="#m26f55c19ee" x="616.204857" y="149.553884" style="fill: #4682b4; fill-opacity: 0.7; stroke: #ffffff; stroke-opacity: 0.7; stroke-width: 0.5"/>
     <use xlink:href="#m26f55c19ee" x="720.903183" y="86.18643" style="fill: #4682b4; fill-opacity: 0.7; stroke: #ffffff; stroke-opacity: 0.7; stroke-width: 0.5"/>
     <use xlink:href="#m26f55c19ee" x="826.472831" y="208.192584" style="fill: #4682b4; fill-opacity: 0.7; stroke: #ffffff; stroke-opacity: 0.7; stroke-width: 0.5"/>
     <use xlink:href="#m26f55c19ee" x="505.05361" y="276.879735" style="fill: #4682b4; fill-opacity: 0.7; stroke: #ffffff; stroke-opacity: 0.7; stroke-width: 0.5"/>
     <use xlink:href="#m26f55c19ee" x="615.097925" y="247.106676" style="fill: #4682b4; fill-opacity: 0.7; stroke: #ffffff; stroke-opacity: 0.7; stroke-width: 0.5"/>
     <use xlink:href="#m26f55c19ee" x="718.264637" y="160.326219" style="fill: #4682b4; fill-opacity: 0.7; stroke: #ffffff; stroke-opacity: 0.7; stroke-width: 0.5"/>
     <use xlink:href="#m26f55c19ee" x="832.014096" y="285.702828" style="fill: #4682b4; fill-opacity: 0.7; stroke: #ffffff; stroke-opacity: 0.7; stroke-width: 0.5"/>
     <use xlink:href="#m26f55c19ee" x="513.67977" y="285.985938" style="fill: #4682b4; fill-opacity: 0.7; stroke: #ffffff; stroke-opacity: 0.7; stroke-width: 0.5"/>
     <use xlink:href="#m26f55c19ee" x="610.905472" y="305.630182" style="fill: #4682b4; fill-opacity: 0.7; stroke: #ffffff; stroke-opacity: 0.7; stroke-width: 0.5"/>
     <use xlink:href="#m26f55c19ee" x="723.921682" y="271.120808" style="fill: #4682b4; fill-opacity: 0.7; stroke: #ffffff; stroke-opacity: 0.7; stroke-width: 0.5"/>
     <use xlink:href="#m26f55c19ee" x="826.217432" y="294.957614" style="fill: #4682b4; fill-opacity: 0.7; stroke: #ffffff; stroke-opacity: 0.7; stroke-width: 0.5"/>
     <use xlink:href="#m26f55c19ee" x="507.360112" y="240.084567" style="fill: #4682b4; fill-opacity: 0.7; stroke: #ffffff; stroke-opacity: 0.7; stroke-width: 0.5"/>
     <use xlink:href="#m26f55c19ee" x="619.565931" y="209.092233" style="fill: #4682b4; fill-opacity: 0.7; stroke: #ffffff; stroke-opacity: 0.7; stroke-width: 0.5"/>
     <use xlink:href="#m26f55c19ee" x="712.409299" y="147.55872" style="fill: #4682b4; fill-opacity: 0.7; stroke: #ffffff; stroke-opacity: 0.7; stroke-width: 0.5"/>
     <use xlink:href="#m26f55c19ee" x="819.160609" y="272.499978" style="fill: #4682b4; fill-opacity: 0.7; stroke: #ffffff; stroke-opacity: 0.7; stroke-width: 0.5"/>
     <use xlink:href="#m26f55c19ee" x="498.609062" y="181.776602" style="fill: #4682b4; fill-opacity: 0.7; stroke: #ffffff; stroke-opacity: 0.7; stroke-width: 0.5"/>
     <use xlink:href="#m26f55c19ee" x="618.080707" y="209.888728" style="fill: #4682b4; fill-opacity: 0.7; stroke: #ffffff; stroke-opacity: 0.7; stroke-width: 0.5"/>
     <use xlink:href="#m26f55c19ee" x="723.70494" y="135.490877" style="fill: #4682b4; fill-opacity: 0.7; stroke: #ffffff; stroke-opacity: 0.7; stroke-width: 0.5"/>
     <use xlink:href="#m26f55c19ee" x="831.666485" y="213.963599" style="fill: #4682b4; fill-opacity: 0.7; stroke: #ffffff; stroke-opacity: 0.7; stroke-width: 0.5"/>
     <use xlink:href="#m26f55c19ee" x="513.918673" y="154.49929" style="fill: #4682b4; fill-opacity: 0.7; stroke: #ffffff; stroke-opacity: 0.7; stroke-width: 0.5"/>
     <use xlink:href="#m26f55c19ee" x="617.546192" y="150.449128" style="fill: #4682b4; fill-opacity: 0.7; stroke: #ffffff; stroke-opacity: 0.7; stroke-width: 0.5"/>
     <use xlink:href="#m26f55c19ee" x="718.646293" y="134.456713" style="fill: #4682b4; fill-opacity: 0.7; stroke: #ffffff; stroke-opacity: 0.7; stroke-width: 0.5"/>
     <use xlink:href="#m26f55c19ee" x="830.237072" y="163.090919" style="fill: #4682b4; fill-opacity: 0.7; stroke: #ffffff; stroke-opacity: 0.7; stroke-width: 0.5"/>
     <use xlink:href="#m26f55c19ee" x="500.175423" y="144.781348" style="fill: #4682b4; fill-opacity: 0.7; stroke: #ffffff; stroke-opacity: 0.7; stroke-width: 0.5"/>
     <use xlink:href="#m26f55c19ee" x="615.00251" y="79.706723" style="fill: #4682b4; fill-opacity: 0.7; stroke: #ffffff; stroke-opacity: 0.7; stroke-width: 0.5"/>
     <use xlink:href="#m26f55c19ee" x="713.564504" y="71.833818" style="fill: #4682b4; fill-opacity: 0.7; stroke: #ffffff; stroke-opacity: 0.7; stroke-width: 0.5"/>
     <use xlink:href="#m26f55c19ee" x="832.859063" y="202.732178" style="fill: #4682b4; fill-opacity: 0.7; stroke: #ffffff; stroke-opacity: 0.7; stroke-width: 0.5"/>
     <use xlink:href="#m26f55c19ee" x="506.622167" y="292.486665" style="fill: #4682b4; fill-opacity: 0.7; stroke: #ffffff; stroke-opacity: 0.7; stroke-width: 0.5"/>
     <use xlink:href="#m26f55c19ee" x="611.404191" y="214.567139" style="fill: #4682b4; fill-opacity: 0.7; stroke: #ffffff; stroke-opacity: 0.7; stroke-width: 0.5"/>
     <use xlink:href="#m26f55c19ee" x="715.500607" y="217.94039" style="fill: #4682b4; fill-opacity: 0.7; stroke: #ffffff; stroke-opacity: 0.7; stroke-width: 0.5"/>
     <use xlink:href="#m26f55c19ee" x="830.136507" y="295.455128" style="fill: #4682b4; fill-opacity: 0.7; stroke: #ffffff; stroke-opacity: 0.7; stroke-width: 0.5"/>
     <use xlink:href="#m26f55c19ee" x="505.572698" y="199.130489" style="fill: #4682b4; fill-opacity: 0.7; stroke: #ffffff; stroke-opacity: 0.7; stroke-width: 0.5"/>
     <use xlink:href="#m26f55c19ee" x="613.860566" y="215.2154" style="fill: #4682b4; fill-opacity: 0.7; stroke: #ffffff; stroke-opacity: 0.7; stroke-width: 0.5"/>
     <use xlink:href="#m26f55c19ee" x="711.57471" y="164.725421" style="fill: #4682b4; fill-opacity: 0.7; stroke: #ffffff; stroke-opacity: 0.7; stroke-width: 0.5"/>
     <use xlink:href="#m26f55c19ee" x="827.634986" y="263.416867" style="fill: #4682b4; fill-opacity: 0.7; stroke: #ffffff; stroke-opacity: 0.7; stroke-width: 0.5"/>
     <use xlink:href="#m26f55c19ee" x="508.063791" y="241.165611" style="fill: #4682b4; fill-opacity: 0.7; stroke: #ffffff; stroke-opacity: 0.7; stroke-width: 0.5"/>
     <use xlink:href="#m26f55c19ee" x="614.635312" y="148.517954" style="fill: #4682b4; fill-opacity: 0.7; stroke: #ffffff; stroke-opacity: 0.7; stroke-width: 0.5"/>
     <use xlink:href="#m26f55c19ee" x="726.350119" y="170.186451" style="fill: #4682b4; fill-opacity: 0.7; stroke: #ffffff; stroke-opacity: 0.7; stroke-width: 0.5"/>
     <use xlink:href="#m26f55c19ee" x="828.660283" y="233.207145" style="fill: #4682b4; fill-opacity: 0.7; stroke: #ffffff; stroke-opacity: 0.7; stroke-width: 0.5"/>
     <use xlink:href="#m26f55c19ee" x="504.028919" y="119.24004" style="fill: #4682b4; fill-opacity: 0.7; stroke: #ffffff; stroke-opacity: 0.7; stroke-width: 0.5"/>
     <use xlink:href="#m26f55c19ee" x="611.761533" y="122.494958" style="fill: #4682b4; fill-opacity: 0.7; stroke: #ffffff; stroke-opacity: 0.7; stroke-width: 0.5"/>
     <use xlink:href="#m26f55c19ee" x="722.418614" y="83.53597" style="fill: #4682b4; fill-opacity: 0.7; stroke: #ffffff; stroke-opacity: 0.7; stroke-width: 0.5"/>
     <use xlink:href="#m26f55c19ee" x="818.730843" y="207.656116" style="fill: #4682b4; fill-opacity: 0.7; stroke: #ffffff; stroke-opacity: 0.7; stroke-width: 0.5"/>
     <use xlink:href="#m26f55c19ee" x="508.937113" y="214.771996" style="fill: #4682b4; fill-opacity: 0.7; stroke: #ffffff; stroke-opacity: 0.7; stroke-width: 0.5"/>
     <use xlink:href="#m26f55c19ee" x="615.493185" y="222.116869" style="fill: #4682b4; fill-opacity: 0.7; stroke: #ffffff; stroke-opacity: 0.7; stroke-width: 0.5"/>
     <use xlink:href="#m26f55c19ee" x="714.635239" y="139.331451" style="fill: #4682b4; fill-opacity: 0.7; stroke: #ffffff; stroke-opacity: 0.7; stroke-width: 0.5"/>
     <use xlink:href="#m26f55c19ee" x="819.82828" y="237.826902" style="fill: #4682b4; fill-opacity: 0.7; stroke: #ffffff; stroke-opacity: 0.7; stroke-width: 0.5"/>
     <use xlink:href="#m26f55c19ee" x="503.324786" y="243.561263" style="fill: #4682b4; fill-opacity: 0.7; stroke: #ffffff; stroke-opacity: 0.7; stroke-width: 0.5"/>
     <use xlink:href="#m26f55c19ee" x="610.59029" y="164.73168" style="fill: #4682b4; fill-opacity: 0.7; stroke: #ffffff; stroke-opacity: 0.7; stroke-width: 0.5"/>
     <use xlink:href="#m26f55c19ee" x="720.38296" y="145.188576" style="fill: #4682b4; fill-opacity: 0.7; stroke: #ffffff; stroke-opacity: 0.7; stroke-width: 0.5"/>
     <use xlink:href="#m26f55c19ee" x="824.775073" y="254.187121" style="fill: #4682b4; fill-opacity: 0.7; stroke: #ffffff; stroke-opacity: 0.7; stroke-width: 0.5"/>
     <use xlink:href="#m26f55c19ee" x="514.074508" y="261.472331" style="fill: #4682b4; fill-opacity: 0.7; stroke: #ffffff; stroke-opacity: 0.7; stroke-width: 0.5"/>
     <use xlink:href="#m26f55c19ee" x="606.410403" y="252.524693" style="fill: #4682b4; fill-opacity: 0.7; stroke: #ffffff; stroke-opacity: 0.7; stroke-width: 0.5"/>
     <use xlink:href="#m26f55c19ee" x="714.611185" y="185.684162" style="fill: #4682b4; fill-opacity: 0.7; stroke: #ffffff; stroke-opacity: 0.7; stroke-width: 0.5"/>
     <use xlink:href="#m26f55c19ee" x="820.345574" y="272.543823" style="fill: #4682b4; fill-opacity: 0.7; stroke: #ffffff; stroke-opacity: 0.7; stroke-width: 0.5"/>
     <use xlink:href="#m26f55c19ee" x="508.718932" y="173.029421" style="fill: #4682b4; fill-opacity: 0.7; stroke: #ffffff; stroke-opacity: 0.7; stroke-width: 0.5"/>
     <use xlink:href="#m26f55c19ee" x="608.82644" y="178.207606" style="fill: #4682b4; fill-opacity: 0.7; stroke: #ffffff; stroke-opacity: 0.7; stroke-width: 0.5"/>
     <use xlink:href="#m26f55c19ee" x="718.723471" y="120.797495" style="fill: #4682b4; fill-opacity: 0.7; stroke: #ffffff; stroke-opacity: 0.7; stroke-width: 0.5"/>
     <use xlink:href="#m26f55c19ee" x="821.673281" y="200.381473" style="fill: #4682b4; fill-opacity: 0.7; stroke: #ffffff; stroke-opacity: 0.7; stroke-width: 0.5"/>
    </g>
   </g>
   <g id="matplotlib.axis_3">
    <g id="xtick_5">
     <g id="line2d_14">
      <g>
       <use xlink:href="#m953b567025" x="506.273159" y="317.32" style="stroke: #000000; stroke-width: 0.8"/>
      </g>
     </g>
     <g id="text_17">
      <!-- M0 -->
      <g transform="translate(498.777846 331.918437) scale(0.1 -0.1)">
       <use xlink:href="#DejaVuSans-4d"/>
       <use xlink:href="#DejaVuSans-30" transform="translate(86.279297 0)"/>
      </g>
     </g>
    </g>
    <g id="xtick_6">
     <g id="line2d_15">
      <g>
       <use xlink:href="#m953b567025" x="612.767393" y="317.32" style="stroke: #000000; stroke-width: 0.8"/>
      </g>
     </g>
     <g id="text_18">
      <!-- M1 -->
      <g transform="translate(605.27208 331.918437) scale(0.1 -0.1)">
       <use xlink:href="#DejaVuSans-4d"/>
       <use xlink:href="#DejaVuSans-31" transform="translate(86.279297 0)"/>
      </g>
     </g>
    </g>
    <g id="xtick_7">
     <g id="line2d_16">
      <g>
       <use xlink:href="#m953b567025" x="719.261627" y="317.32" style="stroke: #000000; stroke-width: 0.8"/>
      </g>
     </g>
     <g id="text_19">
      <!-- M2 -->
      <g transform="translate(711.766314 331.918437) scale(0.1 -0.1)">
       <use xlink:href="#DejaVuSans-4d"/>
       <use xlink:href="#DejaVuSans-32" transform="translate(86.279297 0)"/>
      </g>
     </g>
    </g>
    <g id="xtick_8">
     <g id="line2d_17">
      <g>
       <use xlink:href="#m953b567025" x="825.755861" y="317.32" style="stroke: #000000; stroke-width: 0.8"/>
      </g>
     </g>
     <g id="text_20">
      <!-- M3 -->
      <g transform="translate(818.260549 331.918437) scale(0.1 -0.1)">
       <use xlink:href="#DejaVuSans-4d"/>
       <use xlink:href="#DejaVuSans-33" transform="translate(86.279297 0)"/>
      </g>
     </g>
    </g>
    <g id="text_21">
     <!-- Encoding position k -->
     <g transform="translate(611.920859 346.356406) scale(0.11 -0.11)">
      <use xlink:href="#DejaVuSans-45"/>
      <use xlink:href="#DejaVuSans-6e" transform="translate(63.183594 0)"/>
      <use xlink:href="#DejaVuSans-63" transform="translate(126.5625 0)"/>
      <use xlink:href="#DejaVuSans-6f" transform="translate(181.542969 0)"/>
      <use xlink:href="#DejaVuSans-64" transform="translate(242.724609 0)"/>
      <use xlink:href="#DejaVuSans-69" transform="translate(306.201172 0)"/>
      <use xlink:href="#DejaVuSans-6e" transform="translate(333.984375 0)"/>
      <use xlink:href="#DejaVuSans-67" transform="translate(397.363281 0)"/>
      <use xlink:href="#DejaVuSans-20" transform="translate(460.839844 0)"/>
      <use xlink:href="#DejaVuSans-70" transform="translate(492.626953 0)"/>
      <use xlink:href="#DejaVuSans-6f" transform="translate(556.103516 0)"/>
      <use xlink:href="#DejaVuSans-73" transform="translate(617.285156 0)"/>
      <use xlink:href="#DejaVuSans-69" transform="translate(669.384766 0)"/>
      <use xlink:href="#DejaVuSans-74" transform="translate(697.167969 0)"/>
      <use xlink:href="#DejaVuSans-69" transform="translate(736.376953 0)"/>
      <use xlink:href="#DejaVuSans-6f" transform="translate(764.160156 0)"/>
      <use xlink:href="#DejaVuSans-6e" transform="translate(825.341797 0)"/>
      <use xlink:href="#DejaVuSans-20" transform="translate(888.720703 0)"/>
      <use xlink:href="#DejaVuSans-6b" transform="translate(920.507812 0)"/>
     </g>
    </g>
   </g>
   <g id="matplotlib.axis_4">
    <g id="ytick_8">
     <g id="line2d_18">
      <g>
       <use xlink:href="#ma0dd9a127c" x="481.896562" y="286.20141" style="stroke: #000000; stroke-width: 0.8"/>
      </g>
     </g>
     <g id="text_22">
      <!-- −0.02 -->
      <g transform="translate(444.25125 290.000629) scale(0.1 -0.1)">
       <defs>
        <path id="DejaVuSans-2212" d="M 678 2272 
L 4684 2272 
L 4684 1741 
L 678 1741 
L 678 2272 
z
" transform="scale(0.015625)"/>
       </defs>
       <use xlink:href="#DejaVuSans-2212"/>
       <use xlink:href="#DejaVuSans-30" transform="translate(83.789062 0)"/>
       <use xlink:href="#DejaVuSans-2e" transform="translate(147.412109 0)"/>
       <use xlink:href="#DejaVuSans-30" transform="translate(179.199219 0)"/>
       <use xlink:href="#DejaVuSans-32" transform="translate(242.822266 0)"/>
      </g>
     </g>
    </g>
    <g id="ytick_9">
     <g id="line2d_19">
      <g>
       <use xlink:href="#ma0dd9a127c" x="481.896562" y="242.454778" style="stroke: #000000; stroke-width: 0.8"/>
      </g>
     </g>
     <g id="text_23">
      <!-- −0.01 -->
      <g transform="translate(444.25125 246.253997) scale(0.1 -0.1)">
       <use xlink:href="#DejaVuSans-2212"/>
       <use xlink:href="#DejaVuSans-30" transform="translate(83.789062 0)"/>
       <use xlink:href="#DejaVuSans-2e" transform="translate(147.412109 0)"/>
       <use xlink:href="#DejaVuSans-30" transform="translate(179.199219 0)"/>
       <use xlink:href="#DejaVuSans-31" transform="translate(242.822266 0)"/>
      </g>
     </g>
    </g>
    <g id="ytick_10">
     <g id="line2d_20">
      <g>
       <use xlink:href="#ma0dd9a127c" x="481.896562" y="198.708146" style="stroke: #000000; stroke-width: 0.8"/>
      </g>
     </g>
     <g id="text_24">
      <!-- 0.00 -->
      <g transform="translate(452.630937 202.507365) scale(0.1 -0.1)">
       <use xlink:href="#DejaVuSans-30"/>
       <use xlink:href="#DejaVuSans-2e" transform="translate(63.623047 0)"/>
       <use xlink:href="#DejaVuSans-30" transform="translate(95.410156 0)"/>
       <use xlink:href="#DejaVuSans-30" transform="translate(159.033203 0)"/>
      </g>
     </g>
    </g>
    <g id="ytick_11">
     <g id="line2d_21">
      <g>
       <use xlink:href="#ma0dd9a127c" x="481.896562" y="154.961514" style="stroke: #000000; stroke-width: 0.8"/>
      </g>
     </g>
     <g id="text_25">
      <!-- 0.01 -->
      <g transform="translate(452.630937 158.760733) scale(0.1 -0.1)">
       <use xlink:href="#DejaVuSans-30"/>
       <use xlink:href="#DejaVuSans-2e" transform="translate(63.623047 0)"/>
       <use xlink:href="#DejaVuSans-30" transform="translate(95.410156 0)"/>
       <use xlink:href="#DejaVuSans-31" transform="translate(159.033203 0)"/>
      </g>
     </g>
    </g>
    <g id="ytick_12">
     <g id="line2d_22">
      <g>
       <use xlink:href="#ma0dd9a127c" x="481.896562" y="111.214882" style="stroke: #000000; stroke-width: 0.8"/>
      </g>
     </g>
     <g id="text_26">
      <!-- 0.02 -->
      <g transform="translate(452.630937 115.014101) scale(0.1 -0.1)">
       <use xlink:href="#DejaVuSans-30"/>
       <use xlink:href="#DejaVuSans-2e" transform="translate(63.623047 0)"/>
       <use xlink:href="#DejaVuSans-30" transform="translate(95.410156 0)"/>
       <use xlink:href="#DejaVuSans-32" transform="translate(159.033203 0)"/>
      </g>
     </g>
    </g>
    <g id="ytick_13">
     <g id="line2d_23">
      <g>
       <use xlink:href="#ma0dd9a127c" x="481.896562" y="67.46825" style="stroke: #000000; stroke-width: 0.8"/>
      </g>
     </g>
     <g id="text_27">
      <!-- 0.03 -->
      <g transform="translate(452.630937 71.267469) scale(0.1 -0.1)">
       <use xlink:href="#DejaVuSans-30"/>
       <use xlink:href="#DejaVuSans-2e" transform="translate(63.623047 0)"/>
       <use xlink:href="#DejaVuSans-30" transform="translate(95.410156 0)"/>
       <use xlink:href="#DejaVuSans-33" transform="translate(159.033203 0)"/>
      </g>
     </g>
    </g>
    <g id="text_28">
     <!-- Residual (observed - predicted) -->
     <g transform="translate(437.963594 275.066531) rotate(-90) scale(0.11 -0.11)">
      <defs>
       <path id="DejaVuSans-75" d="M 544 1381 
L 544 3500 
L 1119 3500 
L 1119 1403 
Q 1119 906 1312 657 
Q 1506 409 1894 409 
Q 2359 409 2629 706 
Q 2900 1003 2900 1516 
L 2900 3500 
L 3475 3500 
L 3475 0 
L 2900 0 
L 2900 538 
Q 2691 219 2414 64 
Q 2138 -91 1772 -91 
Q 1169 -91 856 284 
Q 544 659 544 1381 
z
M 1991 3584 
L 1991 3584 
z
" transform="scale(0.015625)"/>
       <path id="DejaVuSans-76" d="M 191 3500 
L 800 3500 
L 1894 563 
L 2988 3500 
L 3597 3500 
L 2284 0 
L 1503 0 
L 191 3500 
z
" transform="scale(0.015625)"/>
      </defs>
      <use xlink:href="#DejaVuSans-52"/>
      <use xlink:href="#DejaVuSans-65" transform="translate(64.982422 0)"/>
      <use xlink:href="#DejaVuSans-73" transform="translate(126.505859 0)"/>
      <use xlink:href="#DejaVuSans-69" transform="translate(178.605469 0)"/>
      <use xlink:href="#DejaVuSans-64" transform="translate(206.388672 0)"/>
      <use xlink:href="#DejaVuSans-75" transform="translate(269.865234 0)"/>
      <use xlink:href="#DejaVuSans-61" transform="translate(333.244141 0)"/>
      <use xlink:href="#DejaVuSans-6c" transform="translate(394.523438 0)"/>
      <use xlink:href="#DejaVuSans-20" transform="translate(422.306641 0)"/>
      <use xlink:href="#DejaVuSans-28" transform="translate(454.09375 0)"/>
      <use xlink:href="#DejaVuSans-6f" transform="translate(493.107422 0)"/>
      <use xlink:href="#DejaVuSans-62" transform="translate(554.289062 0)"/>
      <use xlink:href="#DejaVuSans-73" transform="translate(617.765625 0)"/>
      <use xlink:href="#DejaVuSans-65" transform="translate(669.865234 0)"/>
      <use xlink:href="#DejaVuSans-72" transform="translate(731.388672 0)"/>
      <use xlink:href="#DejaVuSans-76" transform="translate(772.501953 0)"/>
      <use xlink:href="#DejaVuSans-65" transform="translate(831.681641 0)"/>
      <use xlink:href="#DejaVuSans-64" transform="translate(893.205078 0)"/>
      <use xlink:href="#DejaVuSans-20" transform="translate(956.681641 0)"/>
      <use xlink:href="#DejaVuSans-2d" transform="translate(988.46875 0)"/>
      <use xlink:href="#DejaVuSans-20" transform="translate(1024.552734 0)"/>
      <use xlink:href="#DejaVuSans-70" transform="translate(1056.339844 0)"/>
      <use xlink:href="#DejaVuSans-72" transform="translate(1119.816406 0)"/>
      <use xlink:href="#DejaVuSans-65" transform="translate(1158.679688 0)"/>
      <use xlink:href="#DejaVuSans-64" transform="translate(1220.203125 0)"/>
      <use xlink:href="#DejaVuSans-69" transform="translate(1283.679688 0)"/>
      <use xlink:href="#DejaVuSans-63" transform="translate(1311.462891 0)"/>
      <use xlink:href="#DejaVuSans-74" transform="translate(1366.443359 0)"/>
      <use xlink:href="#DejaVuSans-65" transform="translate(1405.652344 0)"/>
      <use xlink:href="#DejaVuSans-64" transform="translate(1467.175781 0)"/>
      <use xlink:href="#DejaVuSans-29" transform="translate(1530.652344 0)"/>
     </g>
    </g>
   </g>
   <g id="line2d_24">
    <path d="M 481.896562 198.708146 
L 849.571563 198.708146 
" clip-path="url(#p568a0db2bc)" style="fill: none; stroke-dasharray: 5.55,2.4; stroke-dashoffset: 0; stroke: #808080; stroke-opacity: 0.6; stroke-width: 1.5"/>
   </g>
   <g id="patch_7">
    <path d="M 481.896562 317.32 
L 481.896562 60.144 
" style="fill: none; stroke: #000000; stroke-width: 0.8; stroke-linejoin: miter; stroke-linecap: square"/>
   </g>
   <g id="patch_8">
    <path d="M 481.896562 317.32 
L 849.571563 317.32 
" style="fill: none; stroke: #000000; stroke-width: 0.8; stroke-linejoin: miter; stroke-linecap: square"/>
   </g>
   <g id="text_29">
    <!-- B. Residuals -->
    <g transform="translate(635.405156 42.946187) scale(0.1 -0.1)">
     <defs>
      <path id="DejaVuSans-42" d="M 1259 2228 
L 1259 519 
L 2272 519 
Q 2781 519 3026 730 
Q 3272 941 3272 1375 
Q 3272 1813 3026 2020 
Q 2781 2228 2272 2228 
L 1259 2228 
z
M 1259 4147 
L 1259 2741 
L 2194 2741 
Q 2656 2741 2882 2914 
Q 3109 3088 3109 3444 
Q 3109 3797 2882 3972 
Q 2656 4147 2194 4147 
L 1259 4147 
z
M 628 4666 
L 2241 4666 
Q 2963 4666 3353 4366 
Q 3744 4066 3744 3513 
Q 3744 3084 3544 2831 
Q 3344 2578 2956 2516 
Q 3422 2416 3680 2098 
Q 3938 1781 3938 1306 
Q 3938 681 3513 340 
Q 3088 0 2303 0 
L 628 0 
L 628 4666 
z
" transform="scale(0.015625)"/>
     </defs>
     <use xlink:href="#DejaVuSans-42"/>
     <use xlink:href="#DejaVuSans-2e" transform="translate(68.603516 0)"/>
     <use xlink:href="#DejaVuSans-20" transform="translate(100.390625 0)"/>
     <use xlink:href="#DejaVuSans-52" transform="translate(132.177734 0)"/>
     <use xlink:href="#DejaVuSans-65" transform="translate(197.160156 0)"/>
     <use xlink:href="#DejaVuSans-73" transform="translate(258.683594 0)"/>
     <use xlink:href="#DejaVuSans-69" transform="translate(310.783203 0)"/>
     <use xlink:href="#DejaVuSans-64" transform="translate(338.566406 0)"/>
     <use xlink:href="#DejaVuSans-75" transform="translate(402.042969 0)"/>
     <use xlink:href="#DejaVuSans-61" transform="translate(465.421875 0)"/>
     <use xlink:href="#DejaVuSans-6c" transform="translate(526.701172 0)"/>
     <use xlink:href="#DejaVuSans-73" transform="translate(554.484375 0)"/>
    </g>
    <!-- (mean=-0.0000, no systematic deviation) -->
    <g transform="translate(561.100469 54.144) scale(0.1 -0.1)">
     <defs>
      <path id="DejaVuSans-79" d="M 2059 -325 
Q 1816 -950 1584 -1140 
Q 1353 -1331 966 -1331 
L 506 -1331 
L 506 -850 
L 844 -850 
Q 1081 -850 1212 -737 
Q 1344 -625 1503 -206 
L 1606 56 
L 191 3500 
L 800 3500 
L 1894 763 
L 2988 3500 
L 3597 3500 
L 2059 -325 
z
" transform="scale(0.015625)"/>
     </defs>
     <use xlink:href="#DejaVuSans-28"/>
     <use xlink:href="#DejaVuSans-6d" transform="translate(39.013672 0)"/>
     <use xlink:href="#DejaVuSans-65" transform="translate(136.425781 0)"/>
     <use xlink:href="#DejaVuSans-61" transform="translate(197.949219 0)"/>
     <use xlink:href="#DejaVuSans-6e" transform="translate(259.228516 0)"/>
     <use xlink:href="#DejaVuSans-3d" transform="translate(322.607422 0)"/>
     <use xlink:href="#DejaVuSans-2d" transform="translate(406.396484 0)"/>
     <use xlink:href="#DejaVuSans-30" transform="translate(442.480469 0)"/>
     <use xlink:href="#DejaVuSans-2e" transform="translate(506.103516 0)"/>
     <use xlink:href="#DejaVuSans-30" transform="translate(537.890625 0)"/>
     <use xlink:href="#DejaVuSans-30" transform="translate(601.513672 0)"/>
     <use xlink:href="#DejaVuSans-30" transform="translate(665.136719 0)"/>
     <use xlink:href="#DejaVuSans-30" transform="translate(728.759766 0)"/>
     <use xlink:href="#DejaVuSans-2c" transform="translate(792.382812 0)"/>
     <use xlink:href="#DejaVuSans-20" transform="translate(824.169922 0)"/>
     <use xlink:href="#DejaVuSans-6e" transform="translate(855.957031 0)"/>
     <use xlink:href="#DejaVuSans-6f" transform="translate(919.335938 0)"/>
     <use xlink:href="#DejaVuSans-20" transform="translate(980.517578 0)"/>
     <use xlink:href="#DejaVuSans-73" transform="translate(1012.304688 0)"/>
     <use xlink:href="#DejaVuSans-79" transform="translate(1064.404297 0)"/>
     <use xlink:href="#DejaVuSans-73" transform="translate(1123.583984 0)"/>
     <use xlink:href="#DejaVuSans-74" transform="translate(1175.683594 0)"/>
     <use xlink:href="#DejaVuSans-65" transform="translate(1214.892578 0)"/>
     <use xlink:href="#DejaVuSans-6d" transform="translate(1276.416016 0)"/>
     <use xlink:href="#DejaVuSans-61" transform="translate(1373.828125 0)"/>
     <use xlink:href="#DejaVuSans-74" transform="translate(1435.107422 0)"/>
     <use xlink:href="#DejaVuSans-69" transform="translate(1474.316406 0)"/>
     <use xlink:href="#DejaVuSans-63" transform="translate(1502.099609 0)"/>
     <use xlink:href="#DejaVuSans-20" transform="translate(1557.080078 0)"/>
     <use xlink:href="#DejaVuSans-64" transform="translate(1588.867188 0)"/>
     <use xlink:href="#DejaVuSans-65" transform="translate(1652.34375 0)"/>
     <use xlink:href="#DejaVuSans-76" transform="translate(1713.867188 0)"/>
     <use xlink:href="#DejaVuSans-69" transform="translate(1773.046875 0)"/>
     <use xlink:href="#DejaVuSans-61" transform="translate(1800.830078 0)"/>
     <use xlink:href="#DejaVuSans-74" transform="translate(1862.109375 0)"/>
     <use xlink:href="#DejaVuSans-69" transform="translate(1901.318359 0)"/>
     <use xlink:href="#DejaVuSans-6f" transform="translate(1929.101562 0)"/>
     <use xlink:href="#DejaVuSans-6e" transform="translate(1990.283203 0)"/>
     <use xlink:href="#DejaVuSans-29" transform="translate(2053.662109 0)"/>
    </g>
   </g>
  </g>
  <g id="text_30">
   <!-- MOD-2: Quantitative position-to-consolidation law -->
   <g transform="translate(258.035312 16.318125) scale(0.12 -0.12)">
    <defs>
     <path id="DejaVuSans-Bold-4d" d="M 588 4666 
L 2119 4666 
L 3181 2169 
L 4250 4666 
L 5778 4666 
L 5778 0 
L 4641 0 
L 4641 3413 
L 3566 897 
L 2803 897 
L 1728 3413 
L 1728 0 
L 588 0 
L 588 4666 
z
" transform="scale(0.015625)"/>
     <path id="DejaVuSans-Bold-4f" d="M 2719 3878 
Q 2169 3878 1866 3472 
Q 1563 3066 1563 2328 
Q 1563 1594 1866 1187 
Q 2169 781 2719 781 
Q 3272 781 3575 1187 
Q 3878 1594 3878 2328 
Q 3878 3066 3575 3472 
Q 3272 3878 2719 3878 
z
M 2719 4750 
Q 3844 4750 4481 4106 
Q 5119 3463 5119 2328 
Q 5119 1197 4481 553 
Q 3844 -91 2719 -91 
Q 1597 -91 958 553 
Q 319 1197 319 2328 
Q 319 3463 958 4106 
Q 1597 4750 2719 4750 
z
" transform="scale(0.015625)"/>
     <path id="DejaVuSans-Bold-44" d="M 1791 3756 
L 1791 909 
L 2222 909 
Q 2959 909 3348 1275 
Q 3738 1641 3738 2338 
Q 3738 3031 3350 3393 
Q 2963 3756 2222 3756 
L 1791 3756 
z
M 588 4666 
L 1856 4666 
Q 2919 4666 3439 4514 
Q 3959 4363 4331 4000 
Q 4659 3684 4818 3271 
Q 4978 2859 4978 2338 
Q 4978 1809 4818 1395 
Q 4659 981 4331 666 
Q 3956 303 3431 151 
Q 2906 0 1856 0 
L 588 0 
L 588 4666 
z
" transform="scale(0.015625)"/>
     <path id="DejaVuSans-Bold-2d" d="M 347 2297 
L 2309 2297 
L 2309 1388 
L 347 1388 
L 347 2297 
z
" transform="scale(0.015625)"/>
     <path id="DejaVuSans-Bold-32" d="M 1844 884 
L 3897 884 
L 3897 0 
L 506 0 
L 506 884 
L 2209 2388 
Q 2438 2594 2547 2791 
Q 2656 2988 2656 3200 
Q 2656 3528 2436 3728 
Q 2216 3928 1850 3928 
Q 1569 3928 1234 3808 
Q 900 3688 519 3450 
L 519 4475 
Q 925 4609 1322 4679 
Q 1719 4750 2100 4750 
Q 2938 4750 3402 4381 
Q 3866 4013 3866 3353 
Q 3866 2972 3669 2642 
Q 3472 2313 2841 1759 
L 1844 884 
z
" transform="scale(0.015625)"/>
     <path id="DejaVuSans-Bold-3a" d="M 716 3500 
L 1844 3500 
L 1844 2291 
L 716 2291 
L 716 3500 
z
M 716 1209 
L 1844 1209 
L 1844 0 
L 716 0 
L 716 1209 
z
" transform="scale(0.015625)"/>
     <path id="DejaVuSans-Bold-20" transform="scale(0.015625)"/>
     <path id="DejaVuSans-Bold-51" d="M 2847 -84 
L 2753 -84 
Q 1600 -84 959 553 
Q 319 1191 319 2328 
Q 319 3463 958 4106 
Q 1597 4750 2719 4750 
Q 3853 4750 4486 4112 
Q 5119 3475 5119 2328 
Q 5119 1541 4783 972 
Q 4447 403 3816 116 
L 4756 -934 
L 3609 -934 
L 2847 -84 
z
M 2719 3878 
Q 2169 3878 1866 3472 
Q 1563 3066 1563 2328 
Q 1563 1578 1859 1179 
Q 2156 781 2719 781 
Q 3272 781 3575 1187 
Q 3878 1594 3878 2328 
Q 3878 3066 3575 3472 
Q 3272 3878 2719 3878 
z
" transform="scale(0.015625)"/>
     <path id="DejaVuSans-Bold-75" d="M 500 1363 
L 500 3500 
L 1625 3500 
L 1625 3150 
Q 1625 2866 1622 2436 
Q 1619 2006 1619 1863 
Q 1619 1441 1641 1255 
Q 1663 1069 1716 984 
Q 1784 875 1895 815 
Q 2006 756 2150 756 
Q 2500 756 2700 1025 
Q 2900 1294 2900 1772 
L 2900 3500 
L 4019 3500 
L 4019 0 
L 2900 0 
L 2900 506 
Q 2647 200 2364 54 
Q 2081 -91 1741 -91 
Q 1134 -91 817 281 
Q 500 653 500 1363 
z
" transform="scale(0.015625)"/>
     <path id="DejaVuSans-Bold-61" d="M 2106 1575 
Q 1756 1575 1579 1456 
Q 1403 1338 1403 1106 
Q 1403 894 1545 773 
Q 1688 653 1941 653 
Q 2256 653 2472 879 
Q 2688 1106 2688 1447 
L 2688 1575 
L 2106 1575 
z
M 3816 1997 
L 3816 0 
L 2688 0 
L 2688 519 
Q 2463 200 2181 54 
Q 1900 -91 1497 -91 
Q 953 -91 614 226 
Q 275 544 275 1050 
Q 275 1666 698 1953 
Q 1122 2241 2028 2241 
L 2688 2241 
L 2688 2328 
Q 2688 2594 2478 2717 
Q 2269 2841 1825 2841 
Q 1466 2841 1156 2769 
Q 847 2697 581 2553 
L 581 3406 
Q 941 3494 1303 3539 
Q 1666 3584 2028 3584 
Q 2975 3584 3395 3211 
Q 3816 2838 3816 1997 
z
" transform="scale(0.015625)"/>
     <path id="DejaVuSans-Bold-6e" d="M 4056 2131 
L 4056 0 
L 2931 0 
L 2931 347 
L 2931 1631 
Q 2931 2084 2911 2256 
Q 2891 2428 2841 2509 
Q 2775 2619 2662 2680 
Q 2550 2741 2406 2741 
Q 2056 2741 1856 2470 
Q 1656 2200 1656 1722 
L 1656 0 
L 538 0 
L 538 3500 
L 1656 3500 
L 1656 2988 
Q 1909 3294 2193 3439 
Q 2478 3584 2822 3584 
Q 3428 3584 3742 3212 
Q 4056 2841 4056 2131 
z
" transform="scale(0.015625)"/>
     <path id="DejaVuSans-Bold-74" d="M 1759 4494 
L 1759 3500 
L 2913 3500 
L 2913 2700 
L 1759 2700 
L 1759 1216 
Q 1759 972 1856 886 
Q 1953 800 2241 800 
L 2816 800 
L 2816 0 
L 1856 0 
Q 1194 0 917 276 
Q 641 553 641 1216 
L 641 2700 
L 84 2700 
L 84 3500 
L 641 3500 
L 641 4494 
L 1759 4494 
z
" transform="scale(0.015625)"/>
     <path id="DejaVuSans-Bold-69" d="M 538 3500 
L 1656 3500 
L 1656 0 
L 538 0 
L 538 3500 
z
M 538 4863 
L 1656 4863 
L 1656 3950 
L 538 3950 
L 538 4863 
z
" transform="scale(0.015625)"/>
     <path id="DejaVuSans-Bold-76" d="M 97 3500 
L 1216 3500 
L 2088 1081 
L 2956 3500 
L 4078 3500 
L 2700 0 
L 1472 0 
L 97 3500 
z
" transform="scale(0.015625)"/>
     <path id="DejaVuSans-Bold-65" d="M 4031 1759 
L 4031 1441 
L 1416 1441 
Q 1456 1047 1700 850 
Q 1944 653 2381 653 
Q 2734 653 3104 758 
Q 3475 863 3866 1075 
L 3866 213 
Q 3469 63 3072 -14 
Q 2675 -91 2278 -91 
Q 1328 -91 801 392 
Q 275 875 275 1747 
Q 275 2603 792 3093 
Q 1309 3584 2216 3584 
Q 3041 3584 3536 3087 
Q 4031 2591 4031 1759 
z
M 2881 2131 
Q 2881 2450 2695 2645 
Q 2509 2841 2209 2841 
Q 1884 2841 1681 2658 
Q 1478 2475 1428 2131 
L 2881 2131 
z
" transform="scale(0.015625)"/>
     <path id="DejaVuSans-Bold-70" d="M 1656 506 
L 1656 -1331 
L 538 -1331 
L 538 3500 
L 1656 3500 
L 1656 2988 
Q 1888 3294 2169 3439 
Q 2450 3584 2816 3584 
Q 3463 3584 3878 3070 
Q 4294 2556 4294 1747 
Q 4294 938 3878 423 
Q 3463 -91 2816 -91 
Q 2450 -91 2169 54 
Q 1888 200 1656 506 
z
M 2400 2772 
Q 2041 2772 1848 2508 
Q 1656 2244 1656 1747 
Q 1656 1250 1848 986 
Q 2041 722 2400 722 
Q 2759 722 2948 984 
Q 3138 1247 3138 1747 
Q 3138 2247 2948 2509 
Q 2759 2772 2400 2772 
z
" transform="scale(0.015625)"/>
     <path id="DejaVuSans-Bold-6f" d="M 2203 2784 
Q 1831 2784 1636 2517 
Q 1441 2250 1441 1747 
Q 1441 1244 1636 976 
Q 1831 709 2203 709 
Q 2569 709 2762 976 
Q 2956 1244 2956 1747 
Q 2956 2250 2762 2517 
Q 2569 2784 2203 2784 
z
M 2203 3584 
Q 3106 3584 3614 3096 
Q 4122 2609 4122 1747 
Q 4122 884 3614 396 
Q 3106 -91 2203 -91 
Q 1297 -91 786 396 
Q 275 884 275 1747 
Q 275 2609 786 3096 
Q 1297 3584 2203 3584 
z
" transform="scale(0.015625)"/>
     <path id="DejaVuSans-Bold-73" d="M 3272 3391 
L 3272 2541 
Q 2913 2691 2578 2766 
Q 2244 2841 1947 2841 
Q 1628 2841 1473 2761 
Q 1319 2681 1319 2516 
Q 1319 2381 1436 2309 
Q 1553 2238 1856 2203 
L 2053 2175 
Q 2913 2066 3209 1816 
Q 3506 1566 3506 1031 
Q 3506 472 3093 190 
Q 2681 -91 1863 -91 
Q 1516 -91 1145 -36 
Q 775 19 384 128 
L 384 978 
Q 719 816 1070 734 
Q 1422 653 1784 653 
Q 2113 653 2278 743 
Q 2444 834 2444 1013 
Q 2444 1163 2330 1236 
Q 2216 1309 1875 1350 
L 1678 1375 
Q 931 1469 631 1722 
Q 331 1975 331 2491 
Q 331 3047 712 3315 
Q 1094 3584 1881 3584 
Q 2191 3584 2531 3537 
Q 2872 3491 3272 3391 
z
" transform="scale(0.015625)"/>
     <path id="DejaVuSans-Bold-63" d="M 3366 3391 
L 3366 2478 
Q 3138 2634 2908 2709 
Q 2678 2784 2431 2784 
Q 1963 2784 1702 2511 
Q 1441 2238 1441 1747 
Q 1441 1256 1702 982 
Q 1963 709 2431 709 
Q 2694 709 2930 787 
Q 3166 866 3366 1019 
L 3366 103 
Q 3103 6 2833 -42 
Q 2563 -91 2291 -91 
Q 1344 -91 809 395 
Q 275 881 275 1747 
Q 275 2613 809 3098 
Q 1344 3584 2291 3584 
Q 2566 3584 2833 3536 
Q 3100 3488 3366 3391 
z
" transform="scale(0.015625)"/>
     <path id="DejaVuSans-Bold-6c" d="M 538 4863 
L 1656 4863 
L 1656 0 
L 538 0 
L 538 4863 
z
" transform="scale(0.015625)"/>
     <path id="DejaVuSans-Bold-64" d="M 2919 2988 
L 2919 4863 
L 4044 4863 
L 4044 0 
L 2919 0 
L 2919 506 
Q 2688 197 2409 53 
Q 2131 -91 1766 -91 
Q 1119 -91 703 423 
Q 288 938 288 1747 
Q 288 2556 703 3070 
Q 1119 3584 1766 3584 
Q 2128 3584 2408 3439 
Q 2688 3294 2919 2988 
z
M 2181 722 
Q 2541 722 2730 984 
Q 2919 1247 2919 1747 
Q 2919 2247 2730 2509 
Q 2541 2772 2181 2772 
Q 1825 2772 1636 2509 
Q 1447 2247 1447 1747 
Q 1447 1247 1636 984 
Q 1825 722 2181 722 
z
" transform="scale(0.015625)"/>
     <path id="DejaVuSans-Bold-77" d="M 225 3500 
L 1313 3500 
L 1900 1088 
L 2491 3500 
L 3425 3500 
L 4013 1113 
L 4603 3500 
L 5691 3500 
L 4769 0 
L 3547 0 
L 2956 2406 
L 2369 0 
L 1147 0 
L 225 3500 
z
" transform="scale(0.015625)"/>
    </defs>
    <use xlink:href="#DejaVuSans-Bold-4d"/>
    <use xlink:href="#DejaVuSans-Bold-4f" transform="translate(99.511719 0)"/>
    <use xlink:href="#DejaVuSans-Bold-44" transform="translate(184.521484 0)"/>
    <use xlink:href="#DejaVuSans-Bold-2d" transform="translate(269.404297 0)"/>
    <use xlink:href="#DejaVuSans-Bold-32" transform="translate(310.908203 0)"/>
    <use xlink:href="#DejaVuSans-Bold-3a" transform="translate(380.488281 0)"/>
    <use xlink:href="#DejaVuSans-Bold-20" transform="translate(420.478516 0)"/>
    <use xlink:href="#DejaVuSans-Bold-51" transform="translate(455.292969 0)"/>
    <use xlink:href="#DejaVuSans-Bold-75" transform="translate(540.302734 0)"/>
    <use xlink:href="#DejaVuSans-Bold-61" transform="translate(611.494141 0)"/>
    <use xlink:href="#DejaVuSans-Bold-6e" transform="translate(678.974609 0)"/>
    <use xlink:href="#DejaVuSans-Bold-74" transform="translate(750.166016 0)"/>
    <use xlink:href="#DejaVuSans-Bold-69" transform="translate(797.96875 0)"/>
    <use xlink:href="#DejaVuSans-Bold-74" transform="translate(832.246094 0)"/>
    <use xlink:href="#DejaVuSans-Bold-61" transform="translate(880.048828 0)"/>
    <use xlink:href="#DejaVuSans-Bold-74" transform="translate(947.529297 0)"/>
    <use xlink:href="#DejaVuSans-Bold-69" transform="translate(995.332031 0)"/>
    <use xlink:href="#DejaVuSans-Bold-76" transform="translate(1029.609375 0)"/>
    <use xlink:href="#DejaVuSans-Bold-65" transform="translate(1094.794922 0)"/>
    <use xlink:href="#DejaVuSans-Bold-20" transform="translate(1162.617188 0)"/>
    <use xlink:href="#DejaVuSans-Bold-70" transform="translate(1197.431641 0)"/>
    <use xlink:href="#DejaVuSans-Bold-6f" transform="translate(1269.013672 0)"/>
    <use xlink:href="#DejaVuSans-Bold-73" transform="translate(1337.714844 0)"/>
    <use xlink:href="#DejaVuSans-Bold-69" transform="translate(1397.236328 0)"/>
    <use xlink:href="#DejaVuSans-Bold-74" transform="translate(1431.513672 0)"/>
    <use xlink:href="#DejaVuSans-Bold-69" transform="translate(1479.316406 0)"/>
    <use xlink:href="#DejaVuSans-Bold-6f" transform="translate(1513.59375 0)"/>
    <use xlink:href="#DejaVuSans-Bold-6e" transform="translate(1582.294922 0)"/>
    <use xlink:href="#DejaVuSans-Bold-2d" transform="translate(1653.486328 0)"/>
    <use xlink:href="#DejaVuSans-Bold-74" transform="translate(1694.990234 0)"/>
    <use xlink:href="#DejaVuSans-Bold-6f" transform="translate(1742.792969 0)"/>
    <use xlink:href="#DejaVuSans-Bold-2d" transform="translate(1811.494141 0)"/>
    <use xlink:href="#DejaVuSans-Bold-63" transform="translate(1852.998047 0)"/>
    <use xlink:href="#DejaVuSans-Bold-6f" transform="translate(1912.275391 0)"/>
    <use xlink:href="#DejaVuSans-Bold-6e" transform="translate(1980.976562 0)"/>
    <use xlink:href="#DejaVuSans-Bold-73" transform="translate(2052.167969 0)"/>
    <use xlink:href="#DejaVuSans-Bold-6f" transform="translate(2111.689453 0)"/>
    <use xlink:href="#DejaVuSans-Bold-6c" transform="translate(2180.390625 0)"/>
    <use xlink:href="#DejaVuSans-Bold-69" transform="translate(2214.667969 0)"/>
    <use xlink:href="#DejaVuSans-Bold-64" transform="translate(2248.945312 0)"/>
    <use xlink:href="#DejaVuSans-Bold-61" transform="translate(2320.527344 0)"/>
    <use xlink:href="#DejaVuSans-Bold-74" transform="translate(2388.007812 0)"/>
    <use xlink:href="#DejaVuSans-Bold-69" transform="translate(2435.810547 0)"/>
    <use xlink:href="#DejaVuSans-Bold-6f" transform="translate(2470.087891 0)"/>
    <use xlink:href="#DejaVuSans-Bold-6e" transform="translate(2538.789062 0)"/>
    <use xlink:href="#DejaVuSans-Bold-20" transform="translate(2609.980469 0)"/>
    <use xlink:href="#DejaVuSans-Bold-6c" transform="translate(2644.794922 0)"/>
    <use xlink:href="#DejaVuSans-Bold-61" transform="translate(2679.072266 0)"/>
    <use xlink:href="#DejaVuSans-Bold-77" transform="translate(2746.552734 0)"/>
   </g>
  </g>
 </g>
 <defs>
  <clipPath id="p9d776236bb">
   <rect x="51.111563" y="60.144" width="367.675" height="257.176"/>
  </clipPath>
  <clipPath id="p568a0db2bc">
   <rect x="481.896562" y="60.144" width="367.675" height="257.176"/>
  </clipPath>
 </defs>
</svg>
