<?xml version="1.0" encoding="utf-8" standalone="no"?>
<!DOCTYPE svg PUBLIC "-//W3C//DTD SVG 1.1//EN"
  "http://www.w3.org/Graphics/SVG/1.1/DTD/svg11.dtd">
<svg xmlns:xlink="http://www.w3.org/1999/xlink" width="1286.198125pt" height="409.611875pt" viewBox="0 0 1286.198125 409.611875" xmlns="http://www.w3.org/2000/svg" version="1.1">
 <metadata>
  <rdf:RDF xmlns:dc="http://purl.org/dc/elements/1.1/" xmlns:cc="http://creativecommons.org/ns#" xmlns:rdf="http://www.w3.org/1999/02/22-rdf-syntax-ns#">
   <cc:Work>
    <dc:type rdf:resource="http://purl.org/dc/dcmitype/StillImage"/>
    <dc:date>2026-06-05T19:36:28.814465</dc:date>
    <dc:format>image/svg+xml</dc:format>
    <dc:creator>
     <cc:Agent>
      <dc:title>Matplotlib v3.10.3, https://matplotlib.org/</dc:title>
     </cc:Agent>
    </dc:creator>
   </cc:Work>
  </rdf:RDF>
 </metadata>
 <defs>
  <style type="text/css">*{stroke-linejoin: round; stroke-linecap: butt}</style>
 </defs>
 <g id="figure_1">
  <g id="patch_1">
   <path d="M 0 409.611875 
L 1286.198125 409.611875 
L 1286.198125 0 
L 0 0 
z
" style="fill: #ffffff"/>
  </g>
  <g id="axes_1">
   <g id="patch_2">
    <path d="M 53.338125 370.12 
L 418.278125 370.12 
L 418.278125 71.88 
L 53.338125 71.88 
z
" style="fill: #ffffff"/>
   </g>
   <g id="FillBetweenPolyCollection_1">
    <defs>
     <path id="m04ab455501" d="M 69.926307 -59.256391 
L 69.926307 -53.048239 
L 106.788933 -62.70414 
L 143.651559 -98.602284 
L 180.514186 -173.358133 
L 217.376812 -120.823462 
L 254.239438 -202.417292 
L 291.102064 -127.934277 
L 327.964691 -279.007308 
L 364.827317 -259.714624 
L 401.689943 -138.758297 
L 401.689943 -170.531172 
L 401.689943 -170.531172 
L 364.827317 -301.409751 
L 327.964691 -324.175511 
L 291.102064 -139.434052 
L 254.239438 -241.810496 
L 217.376812 -132.710028 
L 180.514186 -209.153526 
L 143.651559 -111.579526 
L 106.788933 -76.850822 
L 69.926307 -59.256391 
z
" style="stroke: #2166ac; stroke-opacity: 0.18"/>
    </defs>
    <g clip-path="url(#p5d6ad99650)">
     <use xlink:href="#m04ab455501" x="0" y="409.611875" style="fill: #2166ac; fill-opacity: 0.18; stroke: #2166ac; stroke-opacity: 0.18"/>
    </g>
   </g>
   <g id="FillBetweenPolyCollection_2">
    <defs>
     <path id="me123b82ea6" d="M 69.926307 -59.256391 
L 69.926307 -53.048239 
L 106.788933 -62.70414 
L 143.651559 -55.577288 
L 180.514186 -151.149115 
L 217.376812 -72.430565 
L 254.239438 -152.115864 
L 291.102064 -72.656331 
L 327.964691 -155.304202 
L 364.827317 -145.522988 
L 401.689943 -84.804742 
L 401.689943 -99.825279 
L 401.689943 -99.825279 
L 364.827317 -159.705239 
L 327.964691 -170.68064 
L 291.102064 -79.182555 
L 254.239438 -169.502477 
L 217.376812 -78.481093 
L 180.514186 -165.560003 
L 143.651559 -61.874267 
L 106.788933 -76.850822 
L 69.926307 -59.256391 
z
" style="stroke: #d6604d; stroke-opacity: 0.18"/>
    </defs>
    <g clip-path="url(#p5d6ad99650)">
     <use xlink:href="#me123b82ea6" x="0" y="409.611875" style="fill: #d6604d; fill-opacity: 0.18; stroke: #d6604d; stroke-opacity: 0.18"/>
    </g>
   </g>
   <g id="matplotlib.axis_1">
    <g id="xtick_1">
     <g id="line2d_1">
      <path d="M 69.926307 370.12 
L 69.926307 71.88 
" clip-path="url(#p5d6ad99650)" style="fill: none; stroke: #b0b0b0; stroke-opacity: 0.3; stroke-width: 0.8; stroke-linecap: square"/>
     </g>
     <g id="line2d_2">
      <defs>
       <path id="m082092ae9f" d="M 0 0 
L 0 3.5 
" style="stroke: #000000; stroke-width: 0.8"/>
      </defs>
      <g>
       <use xlink:href="#m082092ae9f" x="69.926307" y="370.12" style="stroke: #000000; stroke-width: 0.8"/>
      </g>
     </g>
     <g id="text_1">
      <!-- 0 -->
      <g transform="translate(66.426932 385.478281) scale(0.11 -0.11)">
       <defs>
        <path id="DejaVuSans-30" d="M 2034 4250 
Q 1547 4250 1301 3770 
Q 1056 3291 1056 2328 
Q 1056 1369 1301 889 
Q 1547 409 2034 409 
Q 2525 409 2770 889 
Q 3016 1369 3016 2328 
Q 3016 3291 2770 3770 
Q 2525 4250 2034 4250 
z
M 2034 4750 
Q 2819 4750 3233 4129 
Q 3647 3509 3647 2328 
Q 3647 1150 3233 529 
Q 2819 -91 2034 -91 
Q 1250 -91 836 529 
Q 422 1150 422 2328 
Q 422 3509 836 4129 
Q 1250 4750 2034 4750 
z
" transform="scale(0.015625)"/>
       </defs>
       <use xlink:href="#DejaVuSans-30"/>
      </g>
     </g>
    </g>
    <g id="xtick_2">
     <g id="line2d_3">
      <path d="M 143.651559 370.12 
L 143.651559 71.88 
" clip-path="url(#p5d6ad99650)" style="fill: none; stroke: #b0b0b0; stroke-opacity: 0.3; stroke-width: 0.8; stroke-linecap: square"/>
     </g>
     <g id="line2d_4">
      <g>
       <use xlink:href="#m082092ae9f" x="143.651559" y="370.12" style="stroke: #000000; stroke-width: 0.8"/>
      </g>
     </g>
     <g id="text_2">
      <!-- 2 -->
      <g transform="translate(140.152184 385.478281) scale(0.11 -0.11)">
       <defs>
        <path id="DejaVuSans-32" d="M 1228 531 
L 3431 531 
L 3431 0 
L 469 0 
L 469 531 
Q 828 903 1448 1529 
Q 2069 2156 2228 2338 
Q 2531 2678 2651 2914 
Q 2772 3150 2772 3378 
Q 2772 3750 2511 3984 
Q 2250 4219 1831 4219 
Q 1534 4219 1204 4116 
Q 875 4013 500 3803 
L 500 4441 
Q 881 4594 1212 4672 
Q 1544 4750 1819 4750 
Q 2544 4750 2975 4387 
Q 3406 4025 3406 3419 
Q 3406 3131 3298 2873 
Q 3191 2616 2906 2266 
Q 2828 2175 2409 1742 
Q 1991 1309 1228 531 
z
" transform="scale(0.015625)"/>
       </defs>
       <use xlink:href="#DejaVuSans-32"/>
      </g>
     </g>
    </g>
    <g id="xtick_3">
     <g id="line2d_5">
      <path d="M 217.376812 370.12 
L 217.376812 71.88 
" clip-path="url(#p5d6ad99650)" style="fill: none; stroke: #b0b0b0; stroke-opacity: 0.3; stroke-width: 0.8; stroke-linecap: square"/>
     </g>
     <g id="line2d_6">
      <g>
       <use xlink:href="#m082092ae9f" x="217.376812" y="370.12" style="stroke: #000000; stroke-width: 0.8"/>
      </g>
     </g>
     <g id="text_3">
      <!-- 4 -->
      <g transform="translate(213.877437 385.478281) scale(0.11 -0.11)">
       <defs>
        <path id="DejaVuSans-34" d="M 2419 4116 
L 825 1625 
L 2419 1625 
L 2419 4116 
z
M 2253 4666 
L 3047 4666 
L 3047 1625 
L 3713 1625 
L 3713 1100 
L 3047 1100 
L 3047 0 
L 2419 0 
L 2419 1100 
L 313 1100 
L 313 1709 
L 2253 4666 
z
" transform="scale(0.015625)"/>
       </defs>
       <use xlink:href="#DejaVuSans-34"/>
      </g>
     </g>
    </g>
    <g id="xtick_4">
     <g id="line2d_7">
      <path d="M 291.102064 370.12 
L 291.102064 71.88 
" clip-path="url(#p5d6ad99650)" style="fill: none; stroke: #b0b0b0; stroke-opacity: 0.3; stroke-width: 0.8; stroke-linecap: square"/>
     </g>
     <g id="line2d_8">
      <g>
       <use xlink:href="#m082092ae9f" x="291.102064" y="370.12" style="stroke: #000000; stroke-width: 0.8"/>
      </g>
     </g>
     <g id="text_4">
      <!-- 6 -->
      <g transform="translate(287.602689 385.478281) scale(0.11 -0.11)">
       <defs>
        <path id="DejaVuSans-36" d="M 2113 2584 
Q 1688 2584 1439 2293 
Q 1191 2003 1191 1497 
Q 1191 994 1439 701 
Q 1688 409 2113 409 
Q 2538 409 2786 701 
Q 3034 994 3034 1497 
Q 3034 2003 2786 2293 
Q 2538 2584 2113 2584 
z
M 3366 4563 
L 3366 3988 
Q 3128 4100 2886 4159 
Q 2644 4219 2406 4219 
Q 1781 4219 1451 3797 
Q 1122 3375 1075 2522 
Q 1259 2794 1537 2939 
Q 1816 3084 2150 3084 
Q 2853 3084 3261 2657 
Q 3669 2231 3669 1497 
Q 3669 778 3244 343 
Q 2819 -91 2113 -91 
Q 1303 -91 875 529 
Q 447 1150 447 2328 
Q 447 3434 972 4092 
Q 1497 4750 2381 4750 
Q 2619 4750 2861 4703 
Q 3103 4656 3366 4563 
z
" transform="scale(0.015625)"/>
       </defs>
       <use xlink:href="#DejaVuSans-36"/>
      </g>
     </g>
    </g>
    <g id="xtick_5">
     <g id="line2d_9">
      <path d="M 364.827317 370.12 
L 364.827317 71.88 
" clip-path="url(#p5d6ad99650)" style="fill: none; stroke: #b0b0b0; stroke-opacity: 0.3; stroke-width: 0.8; stroke-linecap: square"/>
     </g>
     <g id="line2d_10">
      <g>
       <use xlink:href="#m082092ae9f" x="364.827317" y="370.12" style="stroke: #000000; stroke-width: 0.8"/>
      </g>
     </g>
     <g id="text_5">
      <!-- 8 -->
      <g transform="translate(361.327942 385.478281) scale(0.11 -0.11)">
       <defs>
        <path id="DejaVuSans-38" d="M 2034 2216 
Q 1584 2216 1326 1975 
Q 1069 1734 1069 1313 
Q 1069 891 1326 650 
Q 1584 409 2034 409 
Q 2484 409 2743 651 
Q 3003 894 3003 1313 
Q 3003 1734 2745 1975 
Q 2488 2216 2034 2216 
z
M 1403 2484 
Q 997 2584 770 2862 
Q 544 3141 544 3541 
Q 544 4100 942 4425 
Q 1341 4750 2034 4750 
Q 2731 4750 3128 4425 
Q 3525 4100 3525 3541 
Q 3525 3141 3298 2862 
Q 3072 2584 2669 2484 
Q 3125 2378 3379 2068 
Q 3634 1759 3634 1313 
Q 3634 634 3220 271 
Q 2806 -91 2034 -91 
Q 1263 -91 848 271 
Q 434 634 434 1313 
Q 434 1759 690 2068 
Q 947 2378 1403 2484 
z
M 1172 3481 
Q 1172 3119 1398 2916 
Q 1625 2713 2034 2713 
Q 2441 2713 2670 2916 
Q 2900 3119 2900 3481 
Q 2900 3844 2670 4047 
Q 2441 4250 2034 4250 
Q 1625 4250 1398 4047 
Q 1172 3844 1172 3481 
z
" transform="scale(0.015625)"/>
       </defs>
       <use xlink:href="#DejaVuSans-38"/>
      </g>
     </g>
    </g>
    <g id="text_6">
     <!-- Checkpoint -->
     <g transform="translate(201.062734 400.124219) scale(0.11 -0.11)">
      <defs>
       <path id="DejaVuSans-Bold-43" d="M 4288 256 
Q 3956 84 3597 -3 
Q 3238 -91 2847 -91 
Q 1681 -91 1000 561 
Q 319 1213 319 2328 
Q 319 3447 1000 4098 
Q 1681 4750 2847 4750 
Q 3238 4750 3597 4662 
Q 3956 4575 4288 4403 
L 4288 3438 
Q 3953 3666 3628 3772 
Q 3303 3878 2944 3878 
Q 2300 3878 1931 3465 
Q 1563 3053 1563 2328 
Q 1563 1606 1931 1193 
Q 2300 781 2944 781 
Q 3303 781 3628 887 
Q 3953 994 4288 1222 
L 4288 256 
z
" transform="scale(0.015625)"/>
       <path id="DejaVuSans-Bold-68" d="M 4056 2131 
L 4056 0 
L 2931 0 
L 2931 347 
L 2931 1625 
Q 2931 2084 2911 2256 
Q 2891 2428 2841 2509 
Q 2775 2619 2662 2680 
Q 2550 2741 2406 2741 
Q 2056 2741 1856 2470 
Q 1656 2200 1656 1722 
L 1656 0 
L 538 0 
L 538 4863 
L 1656 4863 
L 1656 2988 
Q 1909 3294 2193 3439 
Q 2478 3584 2822 3584 
Q 3428 3584 3742 3212 
Q 4056 2841 4056 2131 
z
" transform="scale(0.015625)"/>
       <path id="DejaVuSans-Bold-65" d="M 4031 1759 
L 4031 1441 
L 1416 1441 
Q 1456 1047 1700 850 
Q 1944 653 2381 653 
Q 2734 653 3104 758 
Q 3475 863 3866 1075 
L 3866 213 
Q 3469 63 3072 -14 
Q 2675 -91 2278 -91 
Q 1328 -91 801 392 
Q 275 875 275 1747 
Q 275 2603 792 3093 
Q 1309 3584 2216 3584 
Q 3041 3584 3536 3087 
Q 4031 2591 4031 1759 
z
M 2881 2131 
Q 2881 2450 2695 2645 
Q 2509 2841 2209 2841 
Q 1884 2841 1681 2658 
Q 1478 2475 1428 2131 
L 2881 2131 
z
" transform="scale(0.015625)"/>
       <path id="DejaVuSans-Bold-63" d="M 3366 3391 
L 3366 2478 
Q 3138 2634 2908 2709 
Q 2678 2784 2431 2784 
Q 1963 2784 1702 2511 
Q 1441 2238 1441 1747 
Q 1441 1256 1702 982 
Q 1963 709 2431 709 
Q 2694 709 2930 787 
Q 3166 866 3366 1019 
L 3366 103 
Q 3103 6 2833 -42 
Q 2563 -91 2291 -91 
Q 1344 -91 809 395 
Q 275 881 275 1747 
Q 275 2613 809 3098 
Q 1344 3584 2291 3584 
Q 2566 3584 2833 3536 
Q 3100 3488 3366 3391 
z
" transform="scale(0.015625)"/>
       <path id="DejaVuSans-Bold-6b" d="M 538 4863 
L 1656 4863 
L 1656 2216 
L 2944 3500 
L 4244 3500 
L 2534 1894 
L 4378 0 
L 3022 0 
L 1656 1459 
L 1656 0 
L 538 0 
L 538 4863 
z
" transform="scale(0.015625)"/>
       <path id="DejaVuSans-Bold-70" d="M 1656 506 
L 1656 -1331 
L 538 -1331 
L 538 3500 
L 1656 3500 
L 1656 2988 
Q 1888 3294 2169 3439 
Q 2450 3584 2816 3584 
Q 3463 3584 3878 3070 
Q 4294 2556 4294 1747 
Q 4294 938 3878 423 
Q 3463 -91 2816 -91 
Q 2450 -91 2169 54 
Q 1888 200 1656 506 
z
M 2400 2772 
Q 2041 2772 1848 2508 
Q 1656 2244 1656 1747 
Q 1656 1250 1848 986 
Q 2041 722 2400 722 
Q 2759 722 2948 984 
Q 3138 1247 3138 1747 
Q 3138 2247 2948 2509 
Q 2759 2772 2400 2772 
z
" transform="scale(0.015625)"/>
       <path id="DejaVuSans-Bold-6f" d="M 2203 2784 
Q 1831 2784 1636 2517 
Q 1441 2250 1441 1747 
Q 1441 1244 1636 976 
Q 1831 709 2203 709 
Q 2569 709 2762 976 
Q 2956 1244 2956 1747 
Q 2956 2250 2762 2517 
Q 2569 2784 2203 2784 
z
M 2203 3584 
Q 3106 3584 3614 3096 
Q 4122 2609 4122 1747 
Q 4122 884 3614 396 
Q 3106 -91 2203 -91 
Q 1297 -91 786 396 
Q 275 884 275 1747 
Q 275 2609 786 3096 
Q 1297 3584 2203 3584 
z
" transform="scale(0.015625)"/>
       <path id="DejaVuSans-Bold-69" d="M 538 3500 
L 1656 3500 
L 1656 0 
L 538 0 
L 538 3500 
z
M 538 4863 
L 1656 4863 
L 1656 3950 
L 538 3950 
L 538 4863 
z
" transform="scale(0.015625)"/>
       <path id="DejaVuSans-Bold-6e" d="M 4056 2131 
L 4056 0 
L 2931 0 
L 2931 347 
L 2931 1631 
Q 2931 2084 2911 2256 
Q 2891 2428 2841 2509 
Q 2775 2619 2662 2680 
Q 2550 2741 2406 2741 
Q 2056 2741 1856 2470 
Q 1656 2200 1656 1722 
L 1656 0 
L 538 0 
L 538 3500 
L 1656 3500 
L 1656 2988 
Q 1909 3294 2193 3439 
Q 2478 3584 2822 3584 
Q 3428 3584 3742 3212 
Q 4056 2841 4056 2131 
z
" transform="scale(0.015625)"/>
       <path id="DejaVuSans-Bold-74" d="M 1759 4494 
L 1759 3500 
L 2913 3500 
L 2913 2700 
L 1759 2700 
L 1759 1216 
Q 1759 972 1856 886 
Q 1953 800 2241 800 
L 2816 800 
L 2816 0 
L 1856 0 
Q 1194 0 917 276 
Q 641 553 641 1216 
L 641 2700 
L 84 2700 
L 84 3500 
L 641 3500 
L 641 4494 
L 1759 4494 
z
" transform="scale(0.015625)"/>
      </defs>
      <use xlink:href="#DejaVuSans-Bold-43"/>
      <use xlink:href="#DejaVuSans-Bold-68" transform="translate(73.388672 0)"/>
      <use xlink:href="#DejaVuSans-Bold-65" transform="translate(144.580078 0)"/>
      <use xlink:href="#DejaVuSans-Bold-63" transform="translate(212.402344 0)"/>
      <use xlink:href="#DejaVuSans-Bold-6b" transform="translate(271.679688 0)"/>
      <use xlink:href="#DejaVuSans-Bold-70" transform="translate(338.183594 0)"/>
      <use xlink:href="#DejaVuSans-Bold-6f" transform="translate(409.765625 0)"/>
      <use xlink:href="#DejaVuSans-Bold-69" transform="translate(478.466797 0)"/>
      <use xlink:href="#DejaVuSans-Bold-6e" transform="translate(512.744141 0)"/>
      <use xlink:href="#DejaVuSans-Bold-74" transform="translate(583.935547 0)"/>
     </g>
    </g>
   </g>
   <g id="matplotlib.axis_2">
    <g id="ytick_1">
     <g id="line2d_11">
      <path d="M 53.338125 346.436047 
L 418.278125 346.436047 
" clip-path="url(#p5d6ad99650)" style="fill: none; stroke: #b0b0b0; stroke-opacity: 0.3; stroke-width: 0.8; stroke-linecap: square"/>
     </g>
     <g id="line2d_12">
      <defs>
       <path id="me345115fd6" d="M 0 0 
L -3.5 0 
" style="stroke: #000000; stroke-width: 0.8"/>
      </defs>
      <g>
       <use xlink:href="#me345115fd6" x="53.338125" y="346.436047" style="stroke: #000000; stroke-width: 0.8"/>
      </g>
     </g>
     <g id="text_7">
      <!-- 0.02 -->
      <g transform="translate(21.845938 350.615188) scale(0.11 -0.11)">
       <defs>
        <path id="DejaVuSans-2e" d="M 684 794 
L 1344 794 
L 1344 0 
L 684 0 
L 684 794 
z
" transform="scale(0.015625)"/>
       </defs>
       <use xlink:href="#DejaVuSans-30"/>
       <use xlink:href="#DejaVuSans-2e" transform="translate(63.623047 0)"/>
       <use xlink:href="#DejaVuSans-30" transform="translate(95.410156 0)"/>
       <use xlink:href="#DejaVuSans-32" transform="translate(159.033203 0)"/>
      </g>
     </g>
    </g>
    <g id="ytick_2">
     <g id="line2d_13">
      <path d="M 53.338125 311.358071 
L 418.278125 311.358071 
" clip-path="url(#p5d6ad99650)" style="fill: none; stroke: #b0b0b0; stroke-opacity: 0.3; stroke-width: 0.8; stroke-linecap: square"/>
     </g>
     <g id="line2d_14">
      <g>
       <use xlink:href="#me345115fd6" x="53.338125" y="311.358071" style="stroke: #000000; stroke-width: 0.8"/>
      </g>
     </g>
     <g id="text_8">
      <!-- 0.04 -->
      <g transform="translate(21.845938 315.537212) scale(0.11 -0.11)">
       <use xlink:href="#DejaVuSans-30"/>
       <use xlink:href="#DejaVuSans-2e" transform="translate(63.623047 0)"/>
       <use xlink:href="#DejaVuSans-30" transform="translate(95.410156 0)"/>
       <use xlink:href="#DejaVuSans-34" transform="translate(159.033203 0)"/>
      </g>
     </g>
    </g>
    <g id="ytick_3">
     <g id="line2d_15">
      <path d="M 53.338125 276.280094 
L 418.278125 276.280094 
" clip-path="url(#p5d6ad99650)" style="fill: none; stroke: #b0b0b0; stroke-opacity: 0.3; stroke-width: 0.8; stroke-linecap: square"/>
     </g>
     <g id="line2d_16">
      <g>
       <use xlink:href="#me345115fd6" x="53.338125" y="276.280094" style="stroke: #000000; stroke-width: 0.8"/>
      </g>
     </g>
     <g id="text_9">
      <!-- 0.06 -->
      <g transform="translate(21.845938 280.459235) scale(0.11 -0.11)">
       <use xlink:href="#DejaVuSans-30"/>
       <use xlink:href="#DejaVuSans-2e" transform="translate(63.623047 0)"/>
       <use xlink:href="#DejaVuSans-30" transform="translate(95.410156 0)"/>
       <use xlink:href="#DejaVuSans-36" transform="translate(159.033203 0)"/>
      </g>
     </g>
    </g>
    <g id="ytick_4">
     <g id="line2d_17">
      <path d="M 53.338125 241.202118 
L 418.278125 241.202118 
" clip-path="url(#p5d6ad99650)" style="fill: none; stroke: #b0b0b0; stroke-opacity: 0.3; stroke-width: 0.8; stroke-linecap: square"/>
     </g>
     <g id="line2d_18">
      <g>
       <use xlink:href="#me345115fd6" x="53.338125" y="241.202118" style="stroke: #000000; stroke-width: 0.8"/>
      </g>
     </g>
     <g id="text_10">
      <!-- 0.08 -->
      <g transform="translate(21.845938 245.381259) scale(0.11 -0.11)">
       <use xlink:href="#DejaVuSans-30"/>
       <use xlink:href="#DejaVuSans-2e" transform="translate(63.623047 0)"/>
       <use xlink:href="#DejaVuSans-30" transform="translate(95.410156 0)"/>
       <use xlink:href="#DejaVuSans-38" transform="translate(159.033203 0)"/>
      </g>
     </g>
    </g>
    <g id="ytick_5">
     <g id="line2d_19">
      <path d="M 53.338125 206.124141 
L 418.278125 206.124141 
" clip-path="url(#p5d6ad99650)" style="fill: none; stroke: #b0b0b0; stroke-opacity: 0.3; stroke-width: 0.8; stroke-linecap: square"/>
     </g>
     <g id="line2d_20">
      <g>
       <use xlink:href="#me345115fd6" x="53.338125" y="206.124141" style="stroke: #000000; stroke-width: 0.8"/>
      </g>
     </g>
     <g id="text_11">
      <!-- 0.10 -->
      <g transform="translate(21.845938 210.303282) scale(0.11 -0.11)">
       <defs>
        <path id="DejaVuSans-31" d="M 794 531 
L 1825 531 
L 1825 4091 
L 703 3866 
L 703 4441 
L 1819 4666 
L 2450 4666 
L 2450 531 
L 3481 531 
L 3481 0 
L 794 0 
L 794 531 
z
" transform="scale(0.015625)"/>
       </defs>
       <use xlink:href="#DejaVuSans-30"/>
       <use xlink:href="#DejaVuSans-2e" transform="translate(63.623047 0)"/>
       <use xlink:href="#DejaVuSans-31" transform="translate(95.410156 0)"/>
       <use xlink:href="#DejaVuSans-30" transform="translate(159.033203 0)"/>
      </g>
     </g>
    </g>
    <g id="ytick_6">
     <g id="line2d_21">
      <path d="M 53.338125 171.046165 
L 418.278125 171.046165 
" clip-path="url(#p5d6ad99650)" style="fill: none; stroke: #b0b0b0; stroke-opacity: 0.3; stroke-width: 0.8; stroke-linecap: square"/>
     </g>
     <g id="line2d_22">
      <g>
       <use xlink:href="#me345115fd6" x="53.338125" y="171.046165" style="stroke: #000000; stroke-width: 0.8"/>
      </g>
     </g>
     <g id="text_12">
      <!-- 0.12 -->
      <g transform="translate(21.845938 175.225306) scale(0.11 -0.11)">
       <use xlink:href="#DejaVuSans-30"/>
       <use xlink:href="#DejaVuSans-2e" transform="translate(63.623047 0)"/>
       <use xlink:href="#DejaVuSans-31" transform="translate(95.410156 0)"/>
       <use xlink:href="#DejaVuSans-32" transform="translate(159.033203 0)"/>
      </g>
     </g>
    </g>
    <g id="ytick_7">
     <g id="line2d_23">
      <path d="M 53.338125 135.968188 
L 418.278125 135.968188 
" clip-path="url(#p5d6ad99650)" style="fill: none; stroke: #b0b0b0; stroke-opacity: 0.3; stroke-width: 0.8; stroke-linecap: square"/>
     </g>
     <g id="line2d_24">
      <g>
       <use xlink:href="#me345115fd6" x="53.338125" y="135.968188" style="stroke: #000000; stroke-width: 0.8"/>
      </g>
     </g>
     <g id="text_13">
      <!-- 0.14 -->
      <g transform="translate(21.845938 140.147329) scale(0.11 -0.11)">
       <use xlink:href="#DejaVuSans-30"/>
       <use xlink:href="#DejaVuSans-2e" transform="translate(63.623047 0)"/>
       <use xlink:href="#DejaVuSans-31" transform="translate(95.410156 0)"/>
       <use xlink:href="#DejaVuSans-34" transform="translate(159.033203 0)"/>
      </g>
     </g>
    </g>
    <g id="ytick_8">
     <g id="line2d_25">
      <path d="M 53.338125 100.890212 
L 418.278125 100.890212 
" clip-path="url(#p5d6ad99650)" style="fill: none; stroke: #b0b0b0; stroke-opacity: 0.3; stroke-width: 0.8; stroke-linecap: square"/>
     </g>
     <g id="line2d_26">
      <g>
       <use xlink:href="#me345115fd6" x="53.338125" y="100.890212" style="stroke: #000000; stroke-width: 0.8"/>
      </g>
     </g>
     <g id="text_14">
      <!-- 0.16 -->
      <g transform="translate(21.845938 105.069353) scale(0.11 -0.11)">
       <use xlink:href="#DejaVuSans-30"/>
       <use xlink:href="#DejaVuSans-2e" transform="translate(63.623047 0)"/>
       <use xlink:href="#DejaVuSans-31" transform="translate(95.410156 0)"/>
       <use xlink:href="#DejaVuSans-36" transform="translate(159.033203 0)"/>
      </g>
     </g>
    </g>
    <g id="text_15">
     <!-- Wcc (core-core) -->
     <g transform="translate(15.558281 269.775547) rotate(-90) scale(0.11 -0.11)">
      <defs>
       <path id="DejaVuSans-Bold-57" d="M 191 4666 
L 1344 4666 
L 2150 1275 
L 2950 4666 
L 4109 4666 
L 4909 1275 
L 5716 4666 
L 6859 4666 
L 5759 0 
L 4372 0 
L 3525 3547 
L 2688 0 
L 1300 0 
L 191 4666 
z
" transform="scale(0.015625)"/>
       <path id="DejaVuSans-Bold-20" transform="scale(0.015625)"/>
       <path id="DejaVuSans-Bold-28" d="M 2413 -844 
L 1484 -844 
Q 1006 -72 778 623 
Q 550 1319 550 2003 
Q 550 2688 779 3389 
Q 1009 4091 1484 4856 
L 2413 4856 
Q 2013 4116 1813 3408 
Q 1613 2700 1613 2009 
Q 1613 1319 1811 609 
Q 2009 -100 2413 -844 
z
" transform="scale(0.015625)"/>
       <path id="DejaVuSans-Bold-72" d="M 3138 2547 
Q 2991 2616 2845 2648 
Q 2700 2681 2553 2681 
Q 2122 2681 1889 2404 
Q 1656 2128 1656 1613 
L 1656 0 
L 538 0 
L 538 3500 
L 1656 3500 
L 1656 2925 
Q 1872 3269 2151 3426 
Q 2431 3584 2822 3584 
Q 2878 3584 2943 3579 
Q 3009 3575 3134 3559 
L 3138 2547 
z
" transform="scale(0.015625)"/>
       <path id="DejaVuSans-Bold-2d" d="M 347 2297 
L 2309 2297 
L 2309 1388 
L 347 1388 
L 347 2297 
z
" transform="scale(0.015625)"/>
       <path id="DejaVuSans-Bold-29" d="M 513 -844 
Q 913 -100 1113 609 
Q 1313 1319 1313 2009 
Q 1313 2700 1113 3408 
Q 913 4116 513 4856 
L 1441 4856 
Q 1916 4091 2145 3389 
Q 2375 2688 2375 2003 
Q 2375 1319 2147 623 
Q 1919 -72 1441 -844 
L 513 -844 
z
" transform="scale(0.015625)"/>
      </defs>
      <use xlink:href="#DejaVuSans-Bold-57"/>
      <use xlink:href="#DejaVuSans-Bold-63" transform="translate(110.302734 0)"/>
      <use xlink:href="#DejaVuSans-Bold-63" transform="translate(169.580078 0)"/>
      <use xlink:href="#DejaVuSans-Bold-20" transform="translate(228.857422 0)"/>
      <use xlink:href="#DejaVuSans-Bold-28" transform="translate(263.671875 0)"/>
      <use xlink:href="#DejaVuSans-Bold-63" transform="translate(309.375 0)"/>
      <use xlink:href="#DejaVuSans-Bold-6f" transform="translate(368.652344 0)"/>
      <use xlink:href="#DejaVuSans-Bold-72" transform="translate(437.353516 0)"/>
      <use xlink:href="#DejaVuSans-Bold-65" transform="translate(486.669922 0)"/>
      <use xlink:href="#DejaVuSans-Bold-2d" transform="translate(554.492188 0)"/>
      <use xlink:href="#DejaVuSans-Bold-63" transform="translate(595.996094 0)"/>
      <use xlink:href="#DejaVuSans-Bold-6f" transform="translate(655.273438 0)"/>
      <use xlink:href="#DejaVuSans-Bold-72" transform="translate(723.974609 0)"/>
      <use xlink:href="#DejaVuSans-Bold-65" transform="translate(773.291016 0)"/>
      <use xlink:href="#DejaVuSans-Bold-29" transform="translate(841.113281 0)"/>
     </g>
    </g>
   </g>
   <g id="line2d_27">
    <path d="M 69.926307 353.45956 
L 106.788933 339.834394 
L 143.651559 304.52097 
L 180.514186 218.356046 
L 217.376812 282.84513 
L 254.239438 187.497981 
L 291.102064 275.92771 
L 327.964691 108.020465 
L 364.827317 129.049687 
L 401.689943 254.967141 
" clip-path="url(#p5d6ad99650)" style="fill: none; stroke: #2166ac; stroke-width: 2.3; stroke-linecap: square"/>
    <defs>
     <path id="m7d13128a74" d="M 0 3 
C 0.795609 3 1.55874 2.683901 2.12132 2.12132 
C 2.683901 1.55874 3 0.795609 3 0 
C 3 -0.795609 2.683901 -1.55874 2.12132 -2.12132 
C 1.55874 -2.683901 0.795609 -3 0 -3 
C -0.795609 -3 -1.55874 -2.683901 -2.12132 -2.12132 
C -2.683901 -1.55874 -3 -0.795609 -3 0 
C -3 0.795609 -2.683901 1.55874 -2.12132 2.12132 
C -1.55874 2.683901 -0.795609 3 0 3 
z
" style="stroke: #2166ac"/>
    </defs>
    <g clip-path="url(#p5d6ad99650)">
     <use xlink:href="#m7d13128a74" x="69.926307" y="353.45956" style="fill: #2166ac; stroke: #2166ac"/>
     <use xlink:href="#m7d13128a74" x="106.788933" y="339.834394" style="fill: #2166ac; stroke: #2166ac"/>
     <use xlink:href="#m7d13128a74" x="143.651559" y="304.52097" style="fill: #2166ac; stroke: #2166ac"/>
     <use xlink:href="#m7d13128a74" x="180.514186" y="218.356046" style="fill: #2166ac; stroke: #2166ac"/>
     <use xlink:href="#m7d13128a74" x="217.376812" y="282.84513" style="fill: #2166ac; stroke: #2166ac"/>
     <use xlink:href="#m7d13128a74" x="254.239438" y="187.497981" style="fill: #2166ac; stroke: #2166ac"/>
     <use xlink:href="#m7d13128a74" x="291.102064" y="275.92771" style="fill: #2166ac; stroke: #2166ac"/>
     <use xlink:href="#m7d13128a74" x="327.964691" y="108.020465" style="fill: #2166ac; stroke: #2166ac"/>
     <use xlink:href="#m7d13128a74" x="364.827317" y="129.049687" style="fill: #2166ac; stroke: #2166ac"/>
     <use xlink:href="#m7d13128a74" x="401.689943" y="254.967141" style="fill: #2166ac; stroke: #2166ac"/>
    </g>
   </g>
   <g id="line2d_28">
    <path d="M 69.926307 353.45956 
L 106.788933 339.834394 
L 143.651559 350.886097 
L 180.514186 251.257316 
L 217.376812 334.156046 
L 254.239438 248.802704 
L 291.102064 333.692432 
L 327.964691 246.619454 
L 364.827317 256.997762 
L 401.689943 317.296865 
" clip-path="url(#p5d6ad99650)" style="fill: none; stroke: #d6604d; stroke-width: 2.3; stroke-linecap: square"/>
    <defs>
     <path id="m94830af241" d="M 0 3 
C 0.795609 3 1.55874 2.683901 2.12132 2.12132 
C 2.683901 1.55874 3 0.795609 3 0 
C 3 -0.795609 2.683901 -1.55874 2.12132 -2.12132 
C 1.55874 -2.683901 0.795609 -3 0 -3 
C -0.795609 -3 -1.55874 -2.683901 -2.12132 -2.12132 
C -2.683901 -1.55874 -3 -0.795609 -3 0 
C -3 0.795609 -2.683901 1.55874 -2.12132 2.12132 
C -1.55874 2.683901 -0.795609 3 0 3 
z
" style="stroke: #d6604d"/>
    </defs>
    <g clip-path="url(#p5d6ad99650)">
     <use xlink:href="#m94830af241" x="69.926307" y="353.45956" style="fill: #d6604d; stroke: #d6604d"/>
     <use xlink:href="#m94830af241" x="106.788933" y="339.834394" style="fill: #d6604d; stroke: #d6604d"/>
     <use xlink:href="#m94830af241" x="143.651559" y="350.886097" style="fill: #d6604d; stroke: #d6604d"/>
     <use xlink:href="#m94830af241" x="180.514186" y="251.257316" style="fill: #d6604d; stroke: #d6604d"/>
     <use xlink:href="#m94830af241" x="217.376812" y="334.156046" style="fill: #d6604d; stroke: #d6604d"/>
     <use xlink:href="#m94830af241" x="254.239438" y="248.802704" style="fill: #d6604d; stroke: #d6604d"/>
     <use xlink:href="#m94830af241" x="291.102064" y="333.692432" style="fill: #d6604d; stroke: #d6604d"/>
     <use xlink:href="#m94830af241" x="327.964691" y="246.619454" style="fill: #d6604d; stroke: #d6604d"/>
     <use xlink:href="#m94830af241" x="364.827317" y="256.997762" style="fill: #d6604d; stroke: #d6604d"/>
     <use xlink:href="#m94830af241" x="401.689943" y="317.296865" style="fill: #d6604d; stroke: #d6604d"/>
    </g>
   </g>
   <g id="patch_3">
    <path d="M 53.338125 370.12 
L 53.338125 71.88 
" style="fill: none; stroke: #000000; stroke-width: 0.8; stroke-linejoin: miter; stroke-linecap: square"/>
   </g>
   <g id="patch_4">
    <path d="M 53.338125 370.12 
L 418.278125 370.12 
" style="fill: none; stroke: #000000; stroke-width: 0.8; stroke-linejoin: miter; stroke-linecap: square"/>
   </g>
   <g id="text_16">
    <!-- Wcc (core-core) -->
    <g transform="translate(178.164297 65.88) scale(0.13 -0.13)">
     <use xlink:href="#DejaVuSans-Bold-57"/>
     <use xlink:href="#DejaVuSans-Bold-63" transform="translate(110.302734 0)"/>
     <use xlink:href="#DejaVuSans-Bold-63" transform="translate(169.580078 0)"/>
     <use xlink:href="#DejaVuSans-Bold-20" transform="translate(228.857422 0)"/>
     <use xlink:href="#DejaVuSans-Bold-28" transform="translate(263.671875 0)"/>
     <use xlink:href="#DejaVuSans-Bold-63" transform="translate(309.375 0)"/>
     <use xlink:href="#DejaVuSans-Bold-6f" transform="translate(368.652344 0)"/>
     <use xlink:href="#DejaVuSans-Bold-72" transform="translate(437.353516 0)"/>
     <use xlink:href="#DejaVuSans-Bold-65" transform="translate(486.669922 0)"/>
     <use xlink:href="#DejaVuSans-Bold-2d" transform="translate(554.492188 0)"/>
     <use xlink:href="#DejaVuSans-Bold-63" transform="translate(595.996094 0)"/>
     <use xlink:href="#DejaVuSans-Bold-6f" transform="translate(655.273438 0)"/>
     <use xlink:href="#DejaVuSans-Bold-72" transform="translate(723.974609 0)"/>
     <use xlink:href="#DejaVuSans-Bold-65" transform="translate(773.291016 0)"/>
     <use xlink:href="#DejaVuSans-Bold-29" transform="translate(841.113281 0)"/>
    </g>
   </g>
   <g id="legend_1">
    <g id="patch_5">
     <path d="M 59.638125 105.500625 
L 138.656719 105.500625 
Q 140.456719 105.500625 140.456719 103.700625 
L 140.456719 78.18 
Q 140.456719 76.38 138.656719 76.38 
L 59.638125 76.38 
Q 57.838125 76.38 57.838125 78.18 
L 57.838125 103.700625 
Q 57.838125 105.500625 59.638125 105.500625 
z
" style="fill: #ffffff; opacity: 0.8; stroke: #cccccc; stroke-linejoin: miter"/>
    </g>
    <g id="line2d_29">
     <path d="M 61.438125 83.668594 
L 70.438125 83.668594 
L 79.438125 83.668594 
" style="fill: none; stroke: #2166ac; stroke-width: 2.3; stroke-linecap: square"/>
     <g>
      <use xlink:href="#m7d13128a74" x="70.438125" y="83.668594" style="fill: #2166ac; stroke: #2166ac"/>
     </g>
    </g>
    <g id="text_17">
     <!-- FULL -->
     <g transform="translate(86.638125 86.818594) scale(0.09 -0.09)">
      <defs>
       <path id="DejaVuSans-46" d="M 628 4666 
L 3309 4666 
L 3309 4134 
L 1259 4134 
L 1259 2759 
L 3109 2759 
L 3109 2228 
L 1259 2228 
L 1259 0 
L 628 0 
L 628 4666 
z
" transform="scale(0.015625)"/>
       <path id="DejaVuSans-55" d="M 556 4666 
L 1191 4666 
L 1191 1831 
Q 1191 1081 1462 751 
Q 1734 422 2344 422 
Q 2950 422 3222 751 
Q 3494 1081 3494 1831 
L 3494 4666 
L 4128 4666 
L 4128 1753 
Q 4128 841 3676 375 
Q 3225 -91 2344 -91 
Q 1459 -91 1007 375 
Q 556 841 556 1753 
L 556 4666 
z
" transform="scale(0.015625)"/>
       <path id="DejaVuSans-4c" d="M 628 4666 
L 1259 4666 
L 1259 531 
L 3531 531 
L 3531 0 
L 628 0 
L 628 4666 
z
" transform="scale(0.015625)"/>
      </defs>
      <use xlink:href="#DejaVuSans-46"/>
      <use xlink:href="#DejaVuSans-55" transform="translate(57.519531 0)"/>
      <use xlink:href="#DejaVuSans-4c" transform="translate(130.712891 0)"/>
      <use xlink:href="#DejaVuSans-4c" transform="translate(186.425781 0)"/>
     </g>
    </g>
    <g id="line2d_30">
     <path d="M 61.438125 96.878906 
L 70.438125 96.878906 
L 79.438125 96.878906 
" style="fill: none; stroke: #d6604d; stroke-width: 2.3; stroke-linecap: square"/>
     <g>
      <use xlink:href="#m94830af241" x="70.438125" y="96.878906" style="fill: #d6604d; stroke: #d6604d"/>
     </g>
    </g>
    <g id="text_18">
     <!-- NO REPLAY -->
     <g transform="translate(86.638125 100.028906) scale(0.09 -0.09)">
      <defs>
       <path id="DejaVuSans-4e" d="M 628 4666 
L 1478 4666 
L 3547 763 
L 3547 4666 
L 4159 4666 
L 4159 0 
L 3309 0 
L 1241 3903 
L 1241 0 
L 628 0 
L 628 4666 
z
" transform="scale(0.015625)"/>
       <path id="DejaVuSans-4f" d="M 2522 4238 
Q 1834 4238 1429 3725 
Q 1025 3213 1025 2328 
Q 1025 1447 1429 934 
Q 1834 422 2522 422 
Q 3209 422 3611 934 
Q 4013 1447 4013 2328 
Q 4013 3213 3611 3725 
Q 3209 4238 2522 4238 
z
M 2522 4750 
Q 3503 4750 4090 4092 
Q 4678 3434 4678 2328 
Q 4678 1225 4090 567 
Q 3503 -91 2522 -91 
Q 1538 -91 948 565 
Q 359 1222 359 2328 
Q 359 3434 948 4092 
Q 1538 4750 2522 4750 
z
" transform="scale(0.015625)"/>
       <path id="DejaVuSans-20" transform="scale(0.015625)"/>
       <path id="DejaVuSans-52" d="M 2841 2188 
Q 3044 2119 3236 1894 
Q 3428 1669 3622 1275 
L 4263 0 
L 3584 0 
L 2988 1197 
Q 2756 1666 2539 1819 
Q 2322 1972 1947 1972 
L 1259 1972 
L 1259 0 
L 628 0 
L 628 4666 
L 2053 4666 
Q 2853 4666 3247 4331 
Q 3641 3997 3641 3322 
Q 3641 2881 3436 2590 
Q 3231 2300 2841 2188 
z
M 1259 4147 
L 1259 2491 
L 2053 2491 
Q 2509 2491 2742 2702 
Q 2975 2913 2975 3322 
Q 2975 3731 2742 3939 
Q 2509 4147 2053 4147 
L 1259 4147 
z
" transform="scale(0.015625)"/>
       <path id="DejaVuSans-45" d="M 628 4666 
L 3578 4666 
L 3578 4134 
L 1259 4134 
L 1259 2753 
L 3481 2753 
L 3481 2222 
L 1259 2222 
L 1259 531 
L 3634 531 
L 3634 0 
L 628 0 
L 628 4666 
z
" transform="scale(0.015625)"/>
       <path id="DejaVuSans-50" d="M 1259 4147 
L 1259 2394 
L 2053 2394 
Q 2494 2394 2734 2622 
Q 2975 2850 2975 3272 
Q 2975 3691 2734 3919 
Q 2494 4147 2053 4147 
L 1259 4147 
z
M 628 4666 
L 2053 4666 
Q 2838 4666 3239 4311 
Q 3641 3956 3641 3272 
Q 3641 2581 3239 2228 
Q 2838 1875 2053 1875 
L 1259 1875 
L 1259 0 
L 628 0 
L 628 4666 
z
" transform="scale(0.015625)"/>
       <path id="DejaVuSans-41" d="M 2188 4044 
L 1331 1722 
L 3047 1722 
L 2188 4044 
z
M 1831 4666 
L 2547 4666 
L 4325 0 
L 3669 0 
L 3244 1197 
L 1141 1197 
L 716 0 
L 50 0 
L 1831 4666 
z
" transform="scale(0.015625)"/>
       <path id="DejaVuSans-59" d="M -13 4666 
L 666 4666 
L 1959 2747 
L 3244 4666 
L 3922 4666 
L 2272 2222 
L 2272 0 
L 1638 0 
L 1638 2222 
L -13 4666 
z
" transform="scale(0.015625)"/>
      </defs>
      <use xlink:href="#DejaVuSans-4e"/>
      <use xlink:href="#DejaVuSans-4f" transform="translate(74.804688 0)"/>
      <use xlink:href="#DejaVuSans-20" transform="translate(153.515625 0)"/>
      <use xlink:href="#DejaVuSans-52" transform="translate(185.302734 0)"/>
      <use xlink:href="#DejaVuSans-45" transform="translate(254.785156 0)"/>
      <use xlink:href="#DejaVuSans-50" transform="translate(317.96875 0)"/>
      <use xlink:href="#DejaVuSans-4c" transform="translate(378.271484 0)"/>
      <use xlink:href="#DejaVuSans-41" transform="translate(436.234375 0)"/>
      <use xlink:href="#DejaVuSans-59" transform="translate(496.892578 0)"/>
     </g>
    </g>
   </g>
  </g>
  <g id="axes_2">
   <g id="patch_6">
    <path d="M 483.698125 370.12 
L 848.638125 370.12 
L 848.638125 71.88 
L 483.698125 71.88 
z
" style="fill: #ffffff"/>
   </g>
   <g id="FillBetweenPolyCollection_3">
    <defs>
     <path id="m4bb0519d6f" d="M 500.286307 -80.229431 
L 500.286307 -76.514522 
L 537.148933 -53.048239 
L 574.011559 -76.38508 
L 610.874186 -138.967272 
L 647.736812 -76.85943 
L 684.599438 -200.103606 
L 721.462064 -77.196306 
L 758.324691 -259.305161 
L 795.187317 -240.623189 
L 832.049943 -102.22688 
L 832.049943 -140.134248 
L 832.049943 -140.134248 
L 795.187317 -300.862643 
L 758.324691 -324.175511 
L 721.462064 -81.07811 
L 684.599438 -234.071974 
L 647.736812 -80.77088 
L 610.874186 -178.449282 
L 574.011559 -80.236437 
L 537.148933 -81.50262 
L 500.286307 -80.229431 
z
" style="stroke: #2166ac; stroke-opacity: 0.18"/>
    </defs>
    <g clip-path="url(#p9a18d7e744)">
     <use xlink:href="#m4bb0519d6f" x="0" y="409.611875" style="fill: #2166ac; fill-opacity: 0.18; stroke: #2166ac; stroke-opacity: 0.18"/>
    </g>
   </g>
   <g id="FillBetweenPolyCollection_4">
    <defs>
     <path id="m8ccdff663a" d="M 500.286307 -80.229431 
L 500.286307 -76.514522 
L 537.148933 -53.048239 
L 574.011559 -72.082506 
L 610.874186 -119.912738 
L 647.736812 -84.718086 
L 684.599438 -121.091966 
L 721.462064 -84.940644 
L 758.324691 -119.675103 
L 795.187317 -112.23581 
L 832.049943 -63.363063 
L 832.049943 -87.855827 
L 832.049943 -87.855827 
L 795.187317 -135.662185 
L 758.324691 -145.065448 
L 721.462064 -93.629993 
L 684.599438 -151.213172 
L 647.736812 -92.958944 
L 610.874186 -147.661185 
L 574.011559 -80.469715 
L 537.148933 -81.50262 
L 500.286307 -80.229431 
z
" style="stroke: #d6604d; stroke-opacity: 0.18"/>
    </defs>
    <g clip-path="url(#p9a18d7e744)">
     <use xlink:href="#m8ccdff663a" x="0" y="409.611875" style="fill: #d6604d; fill-opacity: 0.18; stroke: #d6604d; stroke-opacity: 0.18"/>
    </g>
   </g>
   <g id="matplotlib.axis_3">
    <g id="xtick_6">
     <g id="line2d_31">
      <path d="M 500.286307 370.12 
L 500.286307 71.88 
" clip-path="url(#p9a18d7e744)" style="fill: none; stroke: #b0b0b0; stroke-opacity: 0.3; stroke-width: 0.8; stroke-linecap: square"/>
     </g>
     <g id="line2d_32">
      <g>
       <use xlink:href="#m082092ae9f" x="500.286307" y="370.12" style="stroke: #000000; stroke-width: 0.8"/>
      </g>
     </g>
     <g id="text_19">
      <!-- 0 -->
      <g transform="translate(496.786932 385.478281) scale(0.11 -0.11)">
       <use xlink:href="#DejaVuSans-30"/>
      </g>
     </g>
    </g>
    <g id="xtick_7">
     <g id="line2d_33">
      <path d="M 574.011559 370.12 
L 574.011559 71.88 
" clip-path="url(#p9a18d7e744)" style="fill: none; stroke: #b0b0b0; stroke-opacity: 0.3; stroke-width: 0.8; stroke-linecap: square"/>
     </g>
     <g id="line2d_34">
      <g>
       <use xlink:href="#m082092ae9f" x="574.011559" y="370.12" style="stroke: #000000; stroke-width: 0.8"/>
      </g>
     </g>
     <g id="text_20">
      <!-- 2 -->
      <g transform="translate(570.512184 385.478281) scale(0.11 -0.11)">
       <use xlink:href="#DejaVuSans-32"/>
      </g>
     </g>
    </g>
    <g id="xtick_8">
     <g id="line2d_35">
      <path d="M 647.736812 370.12 
L 647.736812 71.88 
" clip-path="url(#p9a18d7e744)" style="fill: none; stroke: #b0b0b0; stroke-opacity: 0.3; stroke-width: 0.8; stroke-linecap: square"/>
     </g>
     <g id="line2d_36">
      <g>
       <use xlink:href="#m082092ae9f" x="647.736812" y="370.12" style="stroke: #000000; stroke-width: 0.8"/>
      </g>
     </g>
     <g id="text_21">
      <!-- 4 -->
      <g transform="translate(644.237437 385.478281) scale(0.11 -0.11)">
       <use xlink:href="#DejaVuSans-34"/>
      </g>
     </g>
    </g>
    <g id="xtick_9">
     <g id="line2d_37">
      <path d="M 721.462064 370.12 
L 721.462064 71.88 
" clip-path="url(#p9a18d7e744)" style="fill: none; stroke: #b0b0b0; stroke-opacity: 0.3; stroke-width: 0.8; stroke-linecap: square"/>
     </g>
     <g id="line2d_38">
      <g>
       <use xlink:href="#m082092ae9f" x="721.462064" y="370.12" style="stroke: #000000; stroke-width: 0.8"/>
      </g>
     </g>
     <g id="text_22">
      <!-- 6 -->
      <g transform="translate(717.962689 385.478281) scale(0.11 -0.11)">
       <use xlink:href="#DejaVuSans-36"/>
      </g>
     </g>
    </g>
    <g id="xtick_10">
     <g id="line2d_39">
      <path d="M 795.187317 370.12 
L 795.187317 71.88 
" clip-path="url(#p9a18d7e744)" style="fill: none; stroke: #b0b0b0; stroke-opacity: 0.3; stroke-width: 0.8; stroke-linecap: square"/>
     </g>
     <g id="line2d_40">
      <g>
       <use xlink:href="#m082092ae9f" x="795.187317" y="370.12" style="stroke: #000000; stroke-width: 0.8"/>
      </g>
     </g>
     <g id="text_23">
      <!-- 8 -->
      <g transform="translate(791.687942 385.478281) scale(0.11 -0.11)">
       <use xlink:href="#DejaVuSans-38"/>
      </g>
     </g>
    </g>
    <g id="text_24">
     <!-- Checkpoint -->
     <g transform="translate(631.422734 400.124219) scale(0.11 -0.11)">
      <use xlink:href="#DejaVuSans-Bold-43"/>
      <use xlink:href="#DejaVuSans-Bold-68" transform="translate(73.388672 0)"/>
      <use xlink:href="#DejaVuSans-Bold-65" transform="translate(144.580078 0)"/>
      <use xlink:href="#DejaVuSans-Bold-63" transform="translate(212.402344 0)"/>
      <use xlink:href="#DejaVuSans-Bold-6b" transform="translate(271.679688 0)"/>
      <use xlink:href="#DejaVuSans-Bold-70" transform="translate(338.183594 0)"/>
      <use xlink:href="#DejaVuSans-Bold-6f" transform="translate(409.765625 0)"/>
      <use xlink:href="#DejaVuSans-Bold-69" transform="translate(478.466797 0)"/>
      <use xlink:href="#DejaVuSans-Bold-6e" transform="translate(512.744141 0)"/>
      <use xlink:href="#DejaVuSans-Bold-74" transform="translate(583.935547 0)"/>
     </g>
    </g>
   </g>
   <g id="matplotlib.axis_4">
    <g id="ytick_9">
     <g id="line2d_41">
      <path d="M 483.698125 348.683114 
L 848.638125 348.683114 
" clip-path="url(#p9a18d7e744)" style="fill: none; stroke: #b0b0b0; stroke-opacity: 0.3; stroke-width: 0.8; stroke-linecap: square"/>
     </g>
     <g id="line2d_42">
      <g>
       <use xlink:href="#me345115fd6" x="483.698125" y="348.683114" style="stroke: #000000; stroke-width: 0.8"/>
      </g>
     </g>
     <g id="text_25">
      <!-- 0.01 -->
      <g transform="translate(452.205937 352.862255) scale(0.11 -0.11)">
       <use xlink:href="#DejaVuSans-30"/>
       <use xlink:href="#DejaVuSans-2e" transform="translate(63.623047 0)"/>
       <use xlink:href="#DejaVuSans-30" transform="translate(95.410156 0)"/>
       <use xlink:href="#DejaVuSans-31" transform="translate(159.033203 0)"/>
      </g>
     </g>
    </g>
    <g id="ytick_10">
     <g id="line2d_43">
      <path d="M 483.698125 311.210525 
L 848.638125 311.210525 
" clip-path="url(#p9a18d7e744)" style="fill: none; stroke: #b0b0b0; stroke-opacity: 0.3; stroke-width: 0.8; stroke-linecap: square"/>
     </g>
     <g id="line2d_44">
      <g>
       <use xlink:href="#me345115fd6" x="483.698125" y="311.210525" style="stroke: #000000; stroke-width: 0.8"/>
      </g>
     </g>
     <g id="text_26">
      <!-- 0.02 -->
      <g transform="translate(452.205937 315.389666) scale(0.11 -0.11)">
       <use xlink:href="#DejaVuSans-30"/>
       <use xlink:href="#DejaVuSans-2e" transform="translate(63.623047 0)"/>
       <use xlink:href="#DejaVuSans-30" transform="translate(95.410156 0)"/>
       <use xlink:href="#DejaVuSans-32" transform="translate(159.033203 0)"/>
      </g>
     </g>
    </g>
    <g id="ytick_11">
     <g id="line2d_45">
      <path d="M 483.698125 273.737935 
L 848.638125 273.737935 
" clip-path="url(#p9a18d7e744)" style="fill: none; stroke: #b0b0b0; stroke-opacity: 0.3; stroke-width: 0.8; stroke-linecap: square"/>
     </g>
     <g id="line2d_46">
      <g>
       <use xlink:href="#me345115fd6" x="483.698125" y="273.737935" style="stroke: #000000; stroke-width: 0.8"/>
      </g>
     </g>
     <g id="text_27">
      <!-- 0.03 -->
      <g transform="translate(452.205937 277.917076) scale(0.11 -0.11)">
       <defs>
        <path id="DejaVuSans-33" d="M 2597 2516 
Q 3050 2419 3304 2112 
Q 3559 1806 3559 1356 
Q 3559 666 3084 287 
Q 2609 -91 1734 -91 
Q 1441 -91 1130 -33 
Q 819 25 488 141 
L 488 750 
Q 750 597 1062 519 
Q 1375 441 1716 441 
Q 2309 441 2620 675 
Q 2931 909 2931 1356 
Q 2931 1769 2642 2001 
Q 2353 2234 1838 2234 
L 1294 2234 
L 1294 2753 
L 1863 2753 
Q 2328 2753 2575 2939 
Q 2822 3125 2822 3475 
Q 2822 3834 2567 4026 
Q 2313 4219 1838 4219 
Q 1578 4219 1281 4162 
Q 984 4106 628 3988 
L 628 4550 
Q 988 4650 1302 4700 
Q 1616 4750 1894 4750 
Q 2613 4750 3031 4423 
Q 3450 4097 3450 3541 
Q 3450 3153 3228 2886 
Q 3006 2619 2597 2516 
z
" transform="scale(0.015625)"/>
       </defs>
       <use xlink:href="#DejaVuSans-30"/>
       <use xlink:href="#DejaVuSans-2e" transform="translate(63.623047 0)"/>
       <use xlink:href="#DejaVuSans-30" transform="translate(95.410156 0)"/>
       <use xlink:href="#DejaVuSans-33" transform="translate(159.033203 0)"/>
      </g>
     </g>
    </g>
    <g id="ytick_12">
     <g id="line2d_47">
      <path d="M 483.698125 236.265346 
L 848.638125 236.265346 
" clip-path="url(#p9a18d7e744)" style="fill: none; stroke: #b0b0b0; stroke-opacity: 0.3; stroke-width: 0.8; stroke-linecap: square"/>
     </g>
     <g id="line2d_48">
      <g>
       <use xlink:href="#me345115fd6" x="483.698125" y="236.265346" style="stroke: #000000; stroke-width: 0.8"/>
      </g>
     </g>
     <g id="text_28">
      <!-- 0.04 -->
      <g transform="translate(452.205937 240.444487) scale(0.11 -0.11)">
       <use xlink:href="#DejaVuSans-30"/>
       <use xlink:href="#DejaVuSans-2e" transform="translate(63.623047 0)"/>
       <use xlink:href="#DejaVuSans-30" transform="translate(95.410156 0)"/>
       <use xlink:href="#DejaVuSans-34" transform="translate(159.033203 0)"/>
      </g>
     </g>
    </g>
    <g id="ytick_13">
     <g id="line2d_49">
      <path d="M 483.698125 198.792756 
L 848.638125 198.792756 
" clip-path="url(#p9a18d7e744)" style="fill: none; stroke: #b0b0b0; stroke-opacity: 0.3; stroke-width: 0.8; stroke-linecap: square"/>
     </g>
     <g id="line2d_50">
      <g>
       <use xlink:href="#me345115fd6" x="483.698125" y="198.792756" style="stroke: #000000; stroke-width: 0.8"/>
      </g>
     </g>
     <g id="text_29">
      <!-- 0.05 -->
      <g transform="translate(452.205937 202.971897) scale(0.11 -0.11)">
       <defs>
        <path id="DejaVuSans-35" d="M 691 4666 
L 3169 4666 
L 3169 4134 
L 1269 4134 
L 1269 2991 
Q 1406 3038 1543 3061 
Q 1681 3084 1819 3084 
Q 2600 3084 3056 2656 
Q 3513 2228 3513 1497 
Q 3513 744 3044 326 
Q 2575 -91 1722 -91 
Q 1428 -91 1123 -41 
Q 819 9 494 109 
L 494 744 
Q 775 591 1075 516 
Q 1375 441 1709 441 
Q 2250 441 2565 725 
Q 2881 1009 2881 1497 
Q 2881 1984 2565 2268 
Q 2250 2553 1709 2553 
Q 1456 2553 1204 2497 
Q 953 2441 691 2322 
L 691 4666 
z
" transform="scale(0.015625)"/>
       </defs>
       <use xlink:href="#DejaVuSans-30"/>
       <use xlink:href="#DejaVuSans-2e" transform="translate(63.623047 0)"/>
       <use xlink:href="#DejaVuSans-30" transform="translate(95.410156 0)"/>
       <use xlink:href="#DejaVuSans-35" transform="translate(159.033203 0)"/>
      </g>
     </g>
    </g>
    <g id="ytick_14">
     <g id="line2d_51">
      <path d="M 483.698125 161.320167 
L 848.638125 161.320167 
" clip-path="url(#p9a18d7e744)" style="fill: none; stroke: #b0b0b0; stroke-opacity: 0.3; stroke-width: 0.8; stroke-linecap: square"/>
     </g>
     <g id="line2d_52">
      <g>
       <use xlink:href="#me345115fd6" x="483.698125" y="161.320167" style="stroke: #000000; stroke-width: 0.8"/>
      </g>
     </g>
     <g id="text_30">
      <!-- 0.06 -->
      <g transform="translate(452.205937 165.499308) scale(0.11 -0.11)">
       <use xlink:href="#DejaVuSans-30"/>
       <use xlink:href="#DejaVuSans-2e" transform="translate(63.623047 0)"/>
       <use xlink:href="#DejaVuSans-30" transform="translate(95.410156 0)"/>
       <use xlink:href="#DejaVuSans-36" transform="translate(159.033203 0)"/>
      </g>
     </g>
    </g>
    <g id="ytick_15">
     <g id="line2d_53">
      <path d="M 483.698125 123.847578 
L 848.638125 123.847578 
" clip-path="url(#p9a18d7e744)" style="fill: none; stroke: #b0b0b0; stroke-opacity: 0.3; stroke-width: 0.8; stroke-linecap: square"/>
     </g>
     <g id="line2d_54">
      <g>
       <use xlink:href="#me345115fd6" x="483.698125" y="123.847578" style="stroke: #000000; stroke-width: 0.8"/>
      </g>
     </g>
     <g id="text_31">
      <!-- 0.07 -->
      <g transform="translate(452.205937 128.026718) scale(0.11 -0.11)">
       <defs>
        <path id="DejaVuSans-37" d="M 525 4666 
L 3525 4666 
L 3525 4397 
L 1831 0 
L 1172 0 
L 2766 4134 
L 525 4134 
L 525 4666 
z
" transform="scale(0.015625)"/>
       </defs>
       <use xlink:href="#DejaVuSans-30"/>
       <use xlink:href="#DejaVuSans-2e" transform="translate(63.623047 0)"/>
       <use xlink:href="#DejaVuSans-30" transform="translate(95.410156 0)"/>
       <use xlink:href="#DejaVuSans-37" transform="translate(159.033203 0)"/>
      </g>
     </g>
    </g>
    <g id="ytick_16">
     <g id="line2d_55">
      <path d="M 483.698125 86.374988 
L 848.638125 86.374988 
" clip-path="url(#p9a18d7e744)" style="fill: none; stroke: #b0b0b0; stroke-opacity: 0.3; stroke-width: 0.8; stroke-linecap: square"/>
     </g>
     <g id="line2d_56">
      <g>
       <use xlink:href="#me345115fd6" x="483.698125" y="86.374988" style="stroke: #000000; stroke-width: 0.8"/>
      </g>
     </g>
     <g id="text_32">
      <!-- 0.08 -->
      <g transform="translate(452.205937 90.554129) scale(0.11 -0.11)">
       <use xlink:href="#DejaVuSans-30"/>
       <use xlink:href="#DejaVuSans-2e" transform="translate(63.623047 0)"/>
       <use xlink:href="#DejaVuSans-30" transform="translate(95.410156 0)"/>
       <use xlink:href="#DejaVuSans-38" transform="translate(159.033203 0)"/>
      </g>
     </g>
    </g>
    <g id="text_33">
     <!-- Wuc (unique-core) -->
     <g transform="translate(445.918281 278.247266) rotate(-90) scale(0.11 -0.11)">
      <defs>
       <path id="DejaVuSans-Bold-75" d="M 500 1363 
L 500 3500 
L 1625 3500 
L 1625 3150 
Q 1625 2866 1622 2436 
Q 1619 2006 1619 1863 
Q 1619 1441 1641 1255 
Q 1663 1069 1716 984 
Q 1784 875 1895 815 
Q 2006 756 2150 756 
Q 2500 756 2700 1025 
Q 2900 1294 2900 1772 
L 2900 3500 
L 4019 3500 
L 4019 0 
L 2900 0 
L 2900 506 
Q 2647 200 2364 54 
Q 2081 -91 1741 -91 
Q 1134 -91 817 281 
Q 500 653 500 1363 
z
" transform="scale(0.015625)"/>
       <path id="DejaVuSans-Bold-71" d="M 2181 2772 
Q 1825 2772 1636 2509 
Q 1447 2247 1447 1747 
Q 1447 1247 1636 984 
Q 1825 722 2181 722 
Q 2541 722 2730 984 
Q 2919 1247 2919 1747 
Q 2919 2247 2730 2509 
Q 2541 2772 2181 2772 
z
M 2919 506 
Q 2688 197 2409 53 
Q 2131 -91 1766 -91 
Q 1119 -91 703 423 
Q 288 938 288 1747 
Q 288 2556 703 3067 
Q 1119 3578 1766 3578 
Q 2131 3578 2409 3434 
Q 2688 3291 2919 2981 
L 2919 3500 
L 4044 3500 
L 4044 -1331 
L 2919 -1331 
L 2919 506 
z
" transform="scale(0.015625)"/>
      </defs>
      <use xlink:href="#DejaVuSans-Bold-57"/>
      <use xlink:href="#DejaVuSans-Bold-75" transform="translate(110.302734 0)"/>
      <use xlink:href="#DejaVuSans-Bold-63" transform="translate(181.494141 0)"/>
      <use xlink:href="#DejaVuSans-Bold-20" transform="translate(240.771484 0)"/>
      <use xlink:href="#DejaVuSans-Bold-28" transform="translate(275.585938 0)"/>
      <use xlink:href="#DejaVuSans-Bold-75" transform="translate(321.289062 0)"/>
      <use xlink:href="#DejaVuSans-Bold-6e" transform="translate(392.480469 0)"/>
      <use xlink:href="#DejaVuSans-Bold-69" transform="translate(463.671875 0)"/>
      <use xlink:href="#DejaVuSans-Bold-71" transform="translate(497.949219 0)"/>
      <use xlink:href="#DejaVuSans-Bold-75" transform="translate(569.53125 0)"/>
      <use xlink:href="#DejaVuSans-Bold-65" transform="translate(640.722656 0)"/>
      <use xlink:href="#DejaVuSans-Bold-2d" transform="translate(708.544922 0)"/>
      <use xlink:href="#DejaVuSans-Bold-63" transform="translate(750.048828 0)"/>
      <use xlink:href="#DejaVuSans-Bold-6f" transform="translate(809.326172 0)"/>
      <use xlink:href="#DejaVuSans-Bold-72" transform="translate(878.027344 0)"/>
      <use xlink:href="#DejaVuSans-Bold-65" transform="translate(927.34375 0)"/>
      <use xlink:href="#DejaVuSans-Bold-29" transform="translate(995.166016 0)"/>
     </g>
    </g>
   </g>
   <g id="line2d_57">
    <path d="M 500.286307 331.239899 
L 537.148933 342.336446 
L 574.011559 331.301116 
L 610.874186 250.903598 
L 647.736812 330.79672 
L 684.599438 192.524085 
L 721.462064 330.474667 
L 758.324691 117.871539 
L 795.187317 138.868959 
L 832.049943 288.431311 
" clip-path="url(#p9a18d7e744)" style="fill: none; stroke: #2166ac; stroke-width: 2.3; stroke-linecap: square"/>
    <g clip-path="url(#p9a18d7e744)">
     <use xlink:href="#m7d13128a74" x="500.286307" y="331.239899" style="fill: #2166ac; stroke: #2166ac"/>
     <use xlink:href="#m7d13128a74" x="537.148933" y="342.336446" style="fill: #2166ac; stroke: #2166ac"/>
     <use xlink:href="#m7d13128a74" x="574.011559" y="331.301116" style="fill: #2166ac; stroke: #2166ac"/>
     <use xlink:href="#m7d13128a74" x="610.874186" y="250.903598" style="fill: #2166ac; stroke: #2166ac"/>
     <use xlink:href="#m7d13128a74" x="647.736812" y="330.79672" style="fill: #2166ac; stroke: #2166ac"/>
     <use xlink:href="#m7d13128a74" x="684.599438" y="192.524085" style="fill: #2166ac; stroke: #2166ac"/>
     <use xlink:href="#m7d13128a74" x="721.462064" y="330.474667" style="fill: #2166ac; stroke: #2166ac"/>
     <use xlink:href="#m7d13128a74" x="758.324691" y="117.871539" style="fill: #2166ac; stroke: #2166ac"/>
     <use xlink:href="#m7d13128a74" x="795.187317" y="138.868959" style="fill: #2166ac; stroke: #2166ac"/>
     <use xlink:href="#m7d13128a74" x="832.049943" y="288.431311" style="fill: #2166ac; stroke: #2166ac"/>
    </g>
   </g>
   <g id="line2d_58">
    <path d="M 500.286307 331.239899 
L 537.148933 342.336446 
L 574.011559 333.335765 
L 610.874186 275.824914 
L 647.736812 320.77336 
L 684.599438 273.459306 
L 721.462064 320.326556 
L 758.324691 277.2416 
L 795.187317 285.662878 
L 832.049943 334.00243 
" clip-path="url(#p9a18d7e744)" style="fill: none; stroke: #d6604d; stroke-width: 2.3; stroke-linecap: square"/>
    <g clip-path="url(#p9a18d7e744)">
     <use xlink:href="#m94830af241" x="500.286307" y="331.239899" style="fill: #d6604d; stroke: #d6604d"/>
     <use xlink:href="#m94830af241" x="537.148933" y="342.336446" style="fill: #d6604d; stroke: #d6604d"/>
     <use xlink:href="#m94830af241" x="574.011559" y="333.335765" style="fill: #d6604d; stroke: #d6604d"/>
     <use xlink:href="#m94830af241" x="610.874186" y="275.824914" style="fill: #d6604d; stroke: #d6604d"/>
     <use xlink:href="#m94830af241" x="647.736812" y="320.77336" style="fill: #d6604d; stroke: #d6604d"/>
     <use xlink:href="#m94830af241" x="684.599438" y="273.459306" style="fill: #d6604d; stroke: #d6604d"/>
     <use xlink:href="#m94830af241" x="721.462064" y="320.326556" style="fill: #d6604d; stroke: #d6604d"/>
     <use xlink:href="#m94830af241" x="758.324691" y="277.2416" style="fill: #d6604d; stroke: #d6604d"/>
     <use xlink:href="#m94830af241" x="795.187317" y="285.662878" style="fill: #d6604d; stroke: #d6604d"/>
     <use xlink:href="#m94830af241" x="832.049943" y="334.00243" style="fill: #d6604d; stroke: #d6604d"/>
    </g>
   </g>
   <g id="patch_7">
    <path d="M 483.698125 370.12 
L 483.698125 71.88 
" style="fill: none; stroke: #000000; stroke-width: 0.8; stroke-linejoin: miter; stroke-linecap: square"/>
   </g>
   <g id="patch_8">
    <path d="M 483.698125 370.12 
L 848.638125 370.12 
" style="fill: none; stroke: #000000; stroke-width: 0.8; stroke-linejoin: miter; stroke-linecap: square"/>
   </g>
   <g id="text_34">
    <!-- Wuc (unique-core) -->
    <g transform="translate(598.512266 65.88) scale(0.13 -0.13)">
     <use xlink:href="#DejaVuSans-Bold-57"/>
     <use xlink:href="#DejaVuSans-Bold-75" transform="translate(110.302734 0)"/>
     <use xlink:href="#DejaVuSans-Bold-63" transform="translate(181.494141 0)"/>
     <use xlink:href="#DejaVuSans-Bold-20" transform="translate(240.771484 0)"/>
     <use xlink:href="#DejaVuSans-Bold-28" transform="translate(275.585938 0)"/>
     <use xlink:href="#DejaVuSans-Bold-75" transform="translate(321.289062 0)"/>
     <use xlink:href="#DejaVuSans-Bold-6e" transform="translate(392.480469 0)"/>
     <use xlink:href="#DejaVuSans-Bold-69" transform="translate(463.671875 0)"/>
     <use xlink:href="#DejaVuSans-Bold-71" transform="translate(497.949219 0)"/>
     <use xlink:href="#DejaVuSans-Bold-75" transform="translate(569.53125 0)"/>
     <use xlink:href="#DejaVuSans-Bold-65" transform="translate(640.722656 0)"/>
     <use xlink:href="#DejaVuSans-Bold-2d" transform="translate(708.544922 0)"/>
     <use xlink:href="#DejaVuSans-Bold-63" transform="translate(750.048828 0)"/>
     <use xlink:href="#DejaVuSans-Bold-6f" transform="translate(809.326172 0)"/>
     <use xlink:href="#DejaVuSans-Bold-72" transform="translate(878.027344 0)"/>
     <use xlink:href="#DejaVuSans-Bold-65" transform="translate(927.34375 0)"/>
     <use xlink:href="#DejaVuSans-Bold-29" transform="translate(995.166016 0)"/>
    </g>
   </g>
   <g id="legend_2">
    <g id="patch_9">
     <path d="M 489.998125 105.500625 
L 569.016719 105.500625 
Q 570.816719 105.500625 570.816719 103.700625 
L 570.816719 78.18 
Q 570.816719 76.38 569.016719 76.38 
L 489.998125 76.38 
Q 488.198125 76.38 488.198125 78.18 
L 488.198125 103.700625 
Q 488.198125 105.500625 489.998125 105.500625 
z
" style="fill: #ffffff; opacity: 0.8; stroke: #cccccc; stroke-linejoin: miter"/>
    </g>
    <g id="line2d_59">
     <path d="M 491.798125 83.668594 
L 500.798125 83.668594 
L 509.798125 83.668594 
" style="fill: none; stroke: #2166ac; stroke-width: 2.3; stroke-linecap: square"/>
     <g>
      <use xlink:href="#m7d13128a74" x="500.798125" y="83.668594" style="fill: #2166ac; stroke: #2166ac"/>
     </g>
    </g>
    <g id="text_35">
     <!-- FULL -->
     <g transform="translate(516.998125 86.818594) scale(0.09 -0.09)">
      <use xlink:href="#DejaVuSans-46"/>
      <use xlink:href="#DejaVuSans-55" transform="translate(57.519531 0)"/>
      <use xlink:href="#DejaVuSans-4c" transform="translate(130.712891 0)"/>
      <use xlink:href="#DejaVuSans-4c" transform="translate(186.425781 0)"/>
     </g>
    </g>
    <g id="line2d_60">
     <path d="M 491.798125 96.878906 
L 500.798125 96.878906 
L 509.798125 96.878906 
" style="fill: none; stroke: #d6604d; stroke-width: 2.3; stroke-linecap: square"/>
     <g>
      <use xlink:href="#m94830af241" x="500.798125" y="96.878906" style="fill: #d6604d; stroke: #d6604d"/>
     </g>
    </g>
    <g id="text_36">
     <!-- NO REPLAY -->
     <g transform="translate(516.998125 100.028906) scale(0.09 -0.09)">
      <use xlink:href="#DejaVuSans-4e"/>
      <use xlink:href="#DejaVuSans-4f" transform="translate(74.804688 0)"/>
      <use xlink:href="#DejaVuSans-20" transform="translate(153.515625 0)"/>
      <use xlink:href="#DejaVuSans-52" transform="translate(185.302734 0)"/>
      <use xlink:href="#DejaVuSans-45" transform="translate(254.785156 0)"/>
      <use xlink:href="#DejaVuSans-50" transform="translate(317.96875 0)"/>
      <use xlink:href="#DejaVuSans-4c" transform="translate(378.271484 0)"/>
      <use xlink:href="#DejaVuSans-41" transform="translate(436.234375 0)"/>
      <use xlink:href="#DejaVuSans-59" transform="translate(496.892578 0)"/>
     </g>
    </g>
   </g>
  </g>
  <g id="axes_3">
   <g id="patch_10">
    <path d="M 914.058125 370.12 
L 1278.998125 370.12 
L 1278.998125 71.88 
L 914.058125 71.88 
z
" style="fill: #ffffff"/>
   </g>
   <g id="FillBetweenPolyCollection_5">
    <defs>
     <path id="m9052661b9a" d="M 930.646307 -125.260599 
L 930.646307 -114.927982 
L 967.508933 -53.048239 
L 1004.371559 -114.921899 
L 1041.234186 -197.662354 
L 1078.096812 -115.806393 
L 1114.959438 -214.139422 
L 1151.822064 -115.842709 
L 1188.684691 -224.750051 
L 1225.547317 -202.887798 
L 1262.409943 -62.876841 
L 1262.409943 -126.376039 
L 1262.409943 -126.376039 
L 1225.547317 -292.945236 
L 1188.684691 -324.175511 
L 1151.822064 -125.785811 
L 1114.959438 -287.072452 
L 1078.096812 -125.686542 
L 1041.234186 -278.971182 
L 1004.371559 -124.882226 
L 967.508933 -117.446713 
L 930.646307 -125.260599 
z
" style="stroke: #2166ac; stroke-opacity: 0.18"/>
    </defs>
    <g clip-path="url(#p10a5e68e11)">
     <use xlink:href="#m9052661b9a" x="0" y="409.611875" style="fill: #2166ac; fill-opacity: 0.18; stroke: #2166ac; stroke-opacity: 0.18"/>
    </g>
   </g>
   <g id="FillBetweenPolyCollection_6">
    <defs>
     <path id="m77f27001f2" d="M 930.646307 -125.260599 
L 930.646307 -114.927982 
L 967.508933 -53.048239 
L 1004.371559 -110.492153 
L 1041.234186 -178.769773 
L 1078.096812 -134.023011 
L 1114.959438 -177.669074 
L 1151.822064 -134.14103 
L 1188.684691 -164.445677 
L 1225.547317 -149.354997 
L 1262.409943 -55.003078 
L 1262.409943 -116.299216 
L 1262.409943 -116.299216 
L 1225.547317 -212.88647 
L 1188.684691 -233.632221 
L 1151.822064 -140.901926 
L 1114.959438 -247.055664 
L 1078.096812 -139.86354 
L 1041.234186 -239.832395 
L 1004.371559 -116.533 
L 967.508933 -117.446713 
L 930.646307 -125.260599 
z
" style="stroke: #d6604d; stroke-opacity: 0.18"/>
    </defs>
    <g clip-path="url(#p10a5e68e11)">
     <use xlink:href="#m77f27001f2" x="0" y="409.611875" style="fill: #d6604d; fill-opacity: 0.18; stroke: #d6604d; stroke-opacity: 0.18"/>
    </g>
   </g>
   <g id="matplotlib.axis_5">
    <g id="xtick_11">
     <g id="line2d_61">
      <path d="M 930.646307 370.12 
L 930.646307 71.88 
" clip-path="url(#p10a5e68e11)" style="fill: none; stroke: #b0b0b0; stroke-opacity: 0.3; stroke-width: 0.8; stroke-linecap: square"/>
     </g>
     <g id="line2d_62">
      <g>
       <use xlink:href="#m082092ae9f" x="930.646307" y="370.12" style="stroke: #000000; stroke-width: 0.8"/>
      </g>
     </g>
     <g id="text_37">
      <!-- 0 -->
      <g transform="translate(927.146932 385.478281) scale(0.11 -0.11)">
       <use xlink:href="#DejaVuSans-30"/>
      </g>
     </g>
    </g>
    <g id="xtick_12">
     <g id="line2d_63">
      <path d="M 1004.371559 370.12 
L 1004.371559 71.88 
" clip-path="url(#p10a5e68e11)" style="fill: none; stroke: #b0b0b0; stroke-opacity: 0.3; stroke-width: 0.8; stroke-linecap: square"/>
     </g>
     <g id="line2d_64">
      <g>
       <use xlink:href="#m082092ae9f" x="1004.371559" y="370.12" style="stroke: #000000; stroke-width: 0.8"/>
      </g>
     </g>
     <g id="text_38">
      <!-- 2 -->
      <g transform="translate(1000.872184 385.478281) scale(0.11 -0.11)">
       <use xlink:href="#DejaVuSans-32"/>
      </g>
     </g>
    </g>
    <g id="xtick_13">
     <g id="line2d_65">
      <path d="M 1078.096812 370.12 
L 1078.096812 71.88 
" clip-path="url(#p10a5e68e11)" style="fill: none; stroke: #b0b0b0; stroke-opacity: 0.3; stroke-width: 0.8; stroke-linecap: square"/>
     </g>
     <g id="line2d_66">
      <g>
       <use xlink:href="#m082092ae9f" x="1078.096812" y="370.12" style="stroke: #000000; stroke-width: 0.8"/>
      </g>
     </g>
     <g id="text_39">
      <!-- 4 -->
      <g transform="translate(1074.597437 385.478281) scale(0.11 -0.11)">
       <use xlink:href="#DejaVuSans-34"/>
      </g>
     </g>
    </g>
    <g id="xtick_14">
     <g id="line2d_67">
      <path d="M 1151.822064 370.12 
L 1151.822064 71.88 
" clip-path="url(#p10a5e68e11)" style="fill: none; stroke: #b0b0b0; stroke-opacity: 0.3; stroke-width: 0.8; stroke-linecap: square"/>
     </g>
     <g id="line2d_68">
      <g>
       <use xlink:href="#m082092ae9f" x="1151.822064" y="370.12" style="stroke: #000000; stroke-width: 0.8"/>
      </g>
     </g>
     <g id="text_40">
      <!-- 6 -->
      <g transform="translate(1148.322689 385.478281) scale(0.11 -0.11)">
       <use xlink:href="#DejaVuSans-36"/>
      </g>
     </g>
    </g>
    <g id="xtick_15">
     <g id="line2d_69">
      <path d="M 1225.547317 370.12 
L 1225.547317 71.88 
" clip-path="url(#p10a5e68e11)" style="fill: none; stroke: #b0b0b0; stroke-opacity: 0.3; stroke-width: 0.8; stroke-linecap: square"/>
     </g>
     <g id="line2d_70">
      <g>
       <use xlink:href="#m082092ae9f" x="1225.547317" y="370.12" style="stroke: #000000; stroke-width: 0.8"/>
      </g>
     </g>
     <g id="text_41">
      <!-- 8 -->
      <g transform="translate(1222.047942 385.478281) scale(0.11 -0.11)">
       <use xlink:href="#DejaVuSans-38"/>
      </g>
     </g>
    </g>
    <g id="text_42">
     <!-- Checkpoint -->
     <g transform="translate(1061.782734 400.124219) scale(0.11 -0.11)">
      <use xlink:href="#DejaVuSans-Bold-43"/>
      <use xlink:href="#DejaVuSans-Bold-68" transform="translate(73.388672 0)"/>
      <use xlink:href="#DejaVuSans-Bold-65" transform="translate(144.580078 0)"/>
      <use xlink:href="#DejaVuSans-Bold-63" transform="translate(212.402344 0)"/>
      <use xlink:href="#DejaVuSans-Bold-6b" transform="translate(271.679688 0)"/>
      <use xlink:href="#DejaVuSans-Bold-70" transform="translate(338.183594 0)"/>
      <use xlink:href="#DejaVuSans-Bold-6f" transform="translate(409.765625 0)"/>
      <use xlink:href="#DejaVuSans-Bold-69" transform="translate(478.466797 0)"/>
      <use xlink:href="#DejaVuSans-Bold-6e" transform="translate(512.744141 0)"/>
      <use xlink:href="#DejaVuSans-Bold-74" transform="translate(583.935547 0)"/>
     </g>
    </g>
   </g>
   <g id="matplotlib.axis_6">
    <g id="ytick_17">
     <g id="line2d_71">
      <path d="M 914.058125 333.279059 
L 1278.998125 333.279059 
" clip-path="url(#p10a5e68e11)" style="fill: none; stroke: #b0b0b0; stroke-opacity: 0.3; stroke-width: 0.8; stroke-linecap: square"/>
     </g>
     <g id="line2d_72">
      <g>
       <use xlink:href="#me345115fd6" x="914.058125" y="333.279059" style="stroke: #000000; stroke-width: 0.8"/>
      </g>
     </g>
     <g id="text_43">
      <!-- 0.010 -->
      <g transform="translate(875.567187 337.458199) scale(0.11 -0.11)">
       <use xlink:href="#DejaVuSans-30"/>
       <use xlink:href="#DejaVuSans-2e" transform="translate(63.623047 0)"/>
       <use xlink:href="#DejaVuSans-30" transform="translate(95.410156 0)"/>
       <use xlink:href="#DejaVuSans-31" transform="translate(159.033203 0)"/>
       <use xlink:href="#DejaVuSans-30" transform="translate(222.65625 0)"/>
      </g>
     </g>
    </g>
    <g id="ytick_18">
     <g id="line2d_73">
      <path d="M 914.058125 280.797421 
L 1278.998125 280.797421 
" clip-path="url(#p10a5e68e11)" style="fill: none; stroke: #b0b0b0; stroke-opacity: 0.3; stroke-width: 0.8; stroke-linecap: square"/>
     </g>
     <g id="line2d_74">
      <g>
       <use xlink:href="#me345115fd6" x="914.058125" y="280.797421" style="stroke: #000000; stroke-width: 0.8"/>
      </g>
     </g>
     <g id="text_44">
      <!-- 0.015 -->
      <g transform="translate(875.567187 284.976562) scale(0.11 -0.11)">
       <use xlink:href="#DejaVuSans-30"/>
       <use xlink:href="#DejaVuSans-2e" transform="translate(63.623047 0)"/>
       <use xlink:href="#DejaVuSans-30" transform="translate(95.410156 0)"/>
       <use xlink:href="#DejaVuSans-31" transform="translate(159.033203 0)"/>
       <use xlink:href="#DejaVuSans-35" transform="translate(222.65625 0)"/>
      </g>
     </g>
    </g>
    <g id="ytick_19">
     <g id="line2d_75">
      <path d="M 914.058125 228.315784 
L 1278.998125 228.315784 
" clip-path="url(#p10a5e68e11)" style="fill: none; stroke: #b0b0b0; stroke-opacity: 0.3; stroke-width: 0.8; stroke-linecap: square"/>
     </g>
     <g id="line2d_76">
      <g>
       <use xlink:href="#me345115fd6" x="914.058125" y="228.315784" style="stroke: #000000; stroke-width: 0.8"/>
      </g>
     </g>
     <g id="text_45">
      <!-- 0.020 -->
      <g transform="translate(875.567187 232.494925) scale(0.11 -0.11)">
       <use xlink:href="#DejaVuSans-30"/>
       <use xlink:href="#DejaVuSans-2e" transform="translate(63.623047 0)"/>
       <use xlink:href="#DejaVuSans-30" transform="translate(95.410156 0)"/>
       <use xlink:href="#DejaVuSans-32" transform="translate(159.033203 0)"/>
       <use xlink:href="#DejaVuSans-30" transform="translate(222.65625 0)"/>
      </g>
     </g>
    </g>
    <g id="ytick_20">
     <g id="line2d_77">
      <path d="M 914.058125 175.834147 
L 1278.998125 175.834147 
" clip-path="url(#p10a5e68e11)" style="fill: none; stroke: #b0b0b0; stroke-opacity: 0.3; stroke-width: 0.8; stroke-linecap: square"/>
     </g>
     <g id="line2d_78">
      <g>
       <use xlink:href="#me345115fd6" x="914.058125" y="175.834147" style="stroke: #000000; stroke-width: 0.8"/>
      </g>
     </g>
     <g id="text_46">
      <!-- 0.025 -->
      <g transform="translate(875.567187 180.013288) scale(0.11 -0.11)">
       <use xlink:href="#DejaVuSans-30"/>
       <use xlink:href="#DejaVuSans-2e" transform="translate(63.623047 0)"/>
       <use xlink:href="#DejaVuSans-30" transform="translate(95.410156 0)"/>
       <use xlink:href="#DejaVuSans-32" transform="translate(159.033203 0)"/>
       <use xlink:href="#DejaVuSans-35" transform="translate(222.65625 0)"/>
      </g>
     </g>
    </g>
    <g id="ytick_21">
     <g id="line2d_79">
      <path d="M 914.058125 123.35251 
L 1278.998125 123.35251 
" clip-path="url(#p10a5e68e11)" style="fill: none; stroke: #b0b0b0; stroke-opacity: 0.3; stroke-width: 0.8; stroke-linecap: square"/>
     </g>
     <g id="line2d_80">
      <g>
       <use xlink:href="#me345115fd6" x="914.058125" y="123.35251" style="stroke: #000000; stroke-width: 0.8"/>
      </g>
     </g>
     <g id="text_47">
      <!-- 0.030 -->
      <g transform="translate(875.567187 127.531651) scale(0.11 -0.11)">
       <use xlink:href="#DejaVuSans-30"/>
       <use xlink:href="#DejaVuSans-2e" transform="translate(63.623047 0)"/>
       <use xlink:href="#DejaVuSans-30" transform="translate(95.410156 0)"/>
       <use xlink:href="#DejaVuSans-33" transform="translate(159.033203 0)"/>
       <use xlink:href="#DejaVuSans-30" transform="translate(222.65625 0)"/>
      </g>
     </g>
    </g>
    <g id="text_48">
     <!-- Wuu (unique-unique) -->
     <g transform="translate(869.279531 286.718984) rotate(-90) scale(0.11 -0.11)">
      <use xlink:href="#DejaVuSans-Bold-57"/>
      <use xlink:href="#DejaVuSans-Bold-75" transform="translate(110.302734 0)"/>
      <use xlink:href="#DejaVuSans-Bold-75" transform="translate(181.494141 0)"/>
      <use xlink:href="#DejaVuSans-Bold-20" transform="translate(252.685547 0)"/>
      <use xlink:href="#DejaVuSans-Bold-28" transform="translate(287.5 0)"/>
      <use xlink:href="#DejaVuSans-Bold-75" transform="translate(333.203125 0)"/>
      <use xlink:href="#DejaVuSans-Bold-6e" transform="translate(404.394531 0)"/>
      <use xlink:href="#DejaVuSans-Bold-69" transform="translate(475.585938 0)"/>
      <use xlink:href="#DejaVuSans-Bold-71" transform="translate(509.863281 0)"/>
      <use xlink:href="#DejaVuSans-Bold-75" transform="translate(581.445312 0)"/>
      <use xlink:href="#DejaVuSans-Bold-65" transform="translate(652.636719 0)"/>
      <use xlink:href="#DejaVuSans-Bold-2d" transform="translate(720.458984 0)"/>
      <use xlink:href="#DejaVuSans-Bold-75" transform="translate(761.962891 0)"/>
      <use xlink:href="#DejaVuSans-Bold-6e" transform="translate(833.154297 0)"/>
      <use xlink:href="#DejaVuSans-Bold-69" transform="translate(904.345703 0)"/>
      <use xlink:href="#DejaVuSans-Bold-71" transform="translate(938.623047 0)"/>
      <use xlink:href="#DejaVuSans-Bold-75" transform="translate(1010.205078 0)"/>
      <use xlink:href="#DejaVuSans-Bold-65" transform="translate(1081.396484 0)"/>
      <use xlink:href="#DejaVuSans-Bold-29" transform="translate(1149.21875 0)"/>
     </g>
    </g>
   </g>
   <g id="line2d_81">
    <path d="M 930.646307 289.517584 
L 967.508933 324.364399 
L 1004.371559 289.709812 
L 1041.234186 171.295107 
L 1078.096812 288.865408 
L 1114.959438 159.005938 
L 1151.822064 288.797615 
L 1188.684691 135.149094 
L 1225.547317 161.695358 
L 1262.409943 314.985435 
" clip-path="url(#p10a5e68e11)" style="fill: none; stroke: #2166ac; stroke-width: 2.3; stroke-linecap: square"/>
    <g clip-path="url(#p10a5e68e11)">
     <use xlink:href="#m7d13128a74" x="930.646307" y="289.517584" style="fill: #2166ac; stroke: #2166ac"/>
     <use xlink:href="#m7d13128a74" x="967.508933" y="324.364399" style="fill: #2166ac; stroke: #2166ac"/>
     <use xlink:href="#m7d13128a74" x="1004.371559" y="289.709812" style="fill: #2166ac; stroke: #2166ac"/>
     <use xlink:href="#m7d13128a74" x="1041.234186" y="171.295107" style="fill: #2166ac; stroke: #2166ac"/>
     <use xlink:href="#m7d13128a74" x="1078.096812" y="288.865408" style="fill: #2166ac; stroke: #2166ac"/>
     <use xlink:href="#m7d13128a74" x="1114.959438" y="159.005938" style="fill: #2166ac; stroke: #2166ac"/>
     <use xlink:href="#m7d13128a74" x="1151.822064" y="288.797615" style="fill: #2166ac; stroke: #2166ac"/>
     <use xlink:href="#m7d13128a74" x="1188.684691" y="135.149094" style="fill: #2166ac; stroke: #2166ac"/>
     <use xlink:href="#m7d13128a74" x="1225.547317" y="161.695358" style="fill: #2166ac; stroke: #2166ac"/>
     <use xlink:href="#m7d13128a74" x="1262.409943" y="314.985435" style="fill: #2166ac; stroke: #2166ac"/>
    </g>
   </g>
   <g id="line2d_82">
    <path d="M 930.646307 289.517584 
L 967.508933 324.364399 
L 1004.371559 296.099299 
L 1041.234186 200.310791 
L 1078.096812 272.6686 
L 1114.959438 197.249506 
L 1151.822064 272.090397 
L 1188.684691 210.572926 
L 1225.547317 228.491141 
L 1262.409943 323.960728 
" clip-path="url(#p10a5e68e11)" style="fill: none; stroke: #d6604d; stroke-width: 2.3; stroke-linecap: square"/>
    <g clip-path="url(#p10a5e68e11)">
     <use xlink:href="#m94830af241" x="930.646307" y="289.517584" style="fill: #d6604d; stroke: #d6604d"/>
     <use xlink:href="#m94830af241" x="967.508933" y="324.364399" style="fill: #d6604d; stroke: #d6604d"/>
     <use xlink:href="#m94830af241" x="1004.371559" y="296.099299" style="fill: #d6604d; stroke: #d6604d"/>
     <use xlink:href="#m94830af241" x="1041.234186" y="200.310791" style="fill: #d6604d; stroke: #d6604d"/>
     <use xlink:href="#m94830af241" x="1078.096812" y="272.6686" style="fill: #d6604d; stroke: #d6604d"/>
     <use xlink:href="#m94830af241" x="1114.959438" y="197.249506" style="fill: #d6604d; stroke: #d6604d"/>
     <use xlink:href="#m94830af241" x="1151.822064" y="272.090397" style="fill: #d6604d; stroke: #d6604d"/>
     <use xlink:href="#m94830af241" x="1188.684691" y="210.572926" style="fill: #d6604d; stroke: #d6604d"/>
     <use xlink:href="#m94830af241" x="1225.547317" y="228.491141" style="fill: #d6604d; stroke: #d6604d"/>
     <use xlink:href="#m94830af241" x="1262.409943" y="323.960728" style="fill: #d6604d; stroke: #d6604d"/>
    </g>
   </g>
   <g id="patch_11">
    <path d="M 914.058125 370.12 
L 914.058125 71.88 
" style="fill: none; stroke: #000000; stroke-width: 0.8; stroke-linejoin: miter; stroke-linecap: square"/>
   </g>
   <g id="patch_12">
    <path d="M 914.058125 370.12 
L 1278.998125 370.12 
" style="fill: none; stroke: #000000; stroke-width: 0.8; stroke-linejoin: miter; stroke-linecap: square"/>
   </g>
   <g id="text_49">
    <!-- Wuu (unique-unique) -->
    <g transform="translate(1018.860234 65.88) scale(0.13 -0.13)">
     <use xlink:href="#DejaVuSans-Bold-57"/>
     <use xlink:href="#DejaVuSans-Bold-75" transform="translate(110.302734 0)"/>
     <use xlink:href="#DejaVuSans-Bold-75" transform="translate(181.494141 0)"/>
     <use xlink:href="#DejaVuSans-Bold-20" transform="translate(252.685547 0)"/>
     <use xlink:href="#DejaVuSans-Bold-28" transform="translate(287.5 0)"/>
     <use xlink:href="#DejaVuSans-Bold-75" transform="translate(333.203125 0)"/>
     <use xlink:href="#DejaVuSans-Bold-6e" transform="translate(404.394531 0)"/>
     <use xlink:href="#DejaVuSans-Bold-69" transform="translate(475.585938 0)"/>
     <use xlink:href="#DejaVuSans-Bold-71" transform="translate(509.863281 0)"/>
     <use xlink:href="#DejaVuSans-Bold-75" transform="translate(581.445312 0)"/>
     <use xlink:href="#DejaVuSans-Bold-65" transform="translate(652.636719 0)"/>
     <use xlink:href="#DejaVuSans-Bold-2d" transform="translate(720.458984 0)"/>
     <use xlink:href="#DejaVuSans-Bold-75" transform="translate(761.962891 0)"/>
     <use xlink:href="#DejaVuSans-Bold-6e" transform="translate(833.154297 0)"/>
     <use xlink:href="#DejaVuSans-Bold-69" transform="translate(904.345703 0)"/>
     <use xlink:href="#DejaVuSans-Bold-71" transform="translate(938.623047 0)"/>
     <use xlink:href="#DejaVuSans-Bold-75" transform="translate(1010.205078 0)"/>
     <use xlink:href="#DejaVuSans-Bold-65" transform="translate(1081.396484 0)"/>
     <use xlink:href="#DejaVuSans-Bold-29" transform="translate(1149.21875 0)"/>
    </g>
   </g>
   <g id="legend_3">
    <g id="patch_13">
     <path d="M 920.358125 105.500625 
L 999.376719 105.500625 
Q 1001.176719 105.500625 1001.176719 103.700625 
L 1001.176719 78.18 
Q 1001.176719 76.38 999.376719 76.38 
L 920.358125 76.38 
Q 918.558125 76.38 918.558125 78.18 
L 918.558125 103.700625 
Q 918.558125 105.500625 920.358125 105.500625 
z
" style="fill: #ffffff; opacity: 0.8; stroke: #cccccc; stroke-linejoin: miter"/>
    </g>
    <g id="line2d_83">
     <path d="M 922.158125 83.668594 
L 931.158125 83.668594 
L 940.158125 83.668594 
" style="fill: none; stroke: #2166ac; stroke-width: 2.3; stroke-linecap: square"/>
     <g>
      <use xlink:href="#m7d13128a74" x="931.158125" y="83.668594" style="fill: #2166ac; stroke: #2166ac"/>
     </g>
    </g>
    <g id="text_50">
     <!-- FULL -->
     <g transform="translate(947.358125 86.818594) scale(0.09 -0.09)">
      <use xlink:href="#DejaVuSans-46"/>
      <use xlink:href="#DejaVuSans-55" transform="translate(57.519531 0)"/>
      <use xlink:href="#DejaVuSans-4c" transform="translate(130.712891 0)"/>
      <use xlink:href="#DejaVuSans-4c" transform="translate(186.425781 0)"/>
     </g>
    </g>
    <g id="line2d_84">
     <path d="M 922.158125 96.878906 
L 931.158125 96.878906 
L 940.158125 96.878906 
" style="fill: none; stroke: #d6604d; stroke-width: 2.3; stroke-linecap: square"/>
     <g>
      <use xlink:href="#m94830af241" x="931.158125" y="96.878906" style="fill: #d6604d; stroke: #d6604d"/>
     </g>
    </g>
    <g id="text_51">
     <!-- NO REPLAY -->
     <g transform="translate(947.358125 100.028906) scale(0.09 -0.09)">
      <use xlink:href="#DejaVuSans-4e"/>
      <use xlink:href="#DejaVuSans-4f" transform="translate(74.804688 0)"/>
      <use xlink:href="#DejaVuSans-20" transform="translate(153.515625 0)"/>
      <use xlink:href="#DejaVuSans-52" transform="translate(185.302734 0)"/>
      <use xlink:href="#DejaVuSans-45" transform="translate(254.785156 0)"/>
      <use xlink:href="#DejaVuSans-50" transform="translate(317.96875 0)"/>
      <use xlink:href="#DejaVuSans-4c" transform="translate(378.271484 0)"/>
      <use xlink:href="#DejaVuSans-41" transform="translate(436.234375 0)"/>
      <use xlink:href="#DejaVuSans-59" transform="translate(496.892578 0)"/>
     </g>
    </g>
   </g>
  </g>
  <g id="text_52">
   <!-- Weight Block Growth Decomposition (n=3 seeds) -->
   <g transform="translate(470.159687 17.837813) scale(0.14 -0.14)">
    <defs>
     <path id="DejaVuSans-57" d="M 213 4666 
L 850 4666 
L 1831 722 
L 2809 4666 
L 3519 4666 
L 4500 722 
L 5478 4666 
L 6119 4666 
L 4947 0 
L 4153 0 
L 3169 4050 
L 2175 0 
L 1381 0 
L 213 4666 
z
" transform="scale(0.015625)"/>
     <path id="DejaVuSans-65" d="M 3597 1894 
L 3597 1613 
L 953 1613 
Q 991 1019 1311 708 
Q 1631 397 2203 397 
Q 2534 397 2845 478 
Q 3156 559 3463 722 
L 3463 178 
Q 3153 47 2828 -22 
Q 2503 -91 2169 -91 
Q 1331 -91 842 396 
Q 353 884 353 1716 
Q 353 2575 817 3079 
Q 1281 3584 2069 3584 
Q 2775 3584 3186 3129 
Q 3597 2675 3597 1894 
z
M 3022 2063 
Q 3016 2534 2758 2815 
Q 2500 3097 2075 3097 
Q 1594 3097 1305 2825 
Q 1016 2553 972 2059 
L 3022 2063 
z
" transform="scale(0.015625)"/>
     <path id="DejaVuSans-69" d="M 603 3500 
L 1178 3500 
L 1178 0 
L 603 0 
L 603 3500 
z
M 603 4863 
L 1178 4863 
L 1178 4134 
L 603 4134 
L 603 4863 
z
" transform="scale(0.015625)"/>
     <path id="DejaVuSans-67" d="M 2906 1791 
Q 2906 2416 2648 2759 
Q 2391 3103 1925 3103 
Q 1463 3103 1205 2759 
Q 947 2416 947 1791 
Q 947 1169 1205 825 
Q 1463 481 1925 481 
Q 2391 481 2648 825 
Q 2906 1169 2906 1791 
z
M 3481 434 
Q 3481 -459 3084 -895 
Q 2688 -1331 1869 -1331 
Q 1566 -1331 1297 -1286 
Q 1028 -1241 775 -1147 
L 775 -588 
Q 1028 -725 1275 -790 
Q 1522 -856 1778 -856 
Q 2344 -856 2625 -561 
Q 2906 -266 2906 331 
L 2906 616 
Q 2728 306 2450 153 
Q 2172 0 1784 0 
Q 1141 0 747 490 
Q 353 981 353 1791 
Q 353 2603 747 3093 
Q 1141 3584 1784 3584 
Q 2172 3584 2450 3431 
Q 2728 3278 2906 2969 
L 2906 3500 
L 3481 3500 
L 3481 434 
z
" transform="scale(0.015625)"/>
     <path id="DejaVuSans-68" d="M 3513 2113 
L 3513 0 
L 2938 0 
L 2938 2094 
Q 2938 2591 2744 2837 
Q 2550 3084 2163 3084 
Q 1697 3084 1428 2787 
Q 1159 2491 1159 1978 
L 1159 0 
L 581 0 
L 581 4863 
L 1159 4863 
L 1159 2956 
Q 1366 3272 1645 3428 
Q 1925 3584 2291 3584 
Q 2894 3584 3203 3211 
Q 3513 2838 3513 2113 
z
" transform="scale(0.015625)"/>
     <path id="DejaVuSans-74" d="M 1172 4494 
L 1172 3500 
L 2356 3500 
L 2356 3053 
L 1172 3053 
L 1172 1153 
Q 1172 725 1289 603 
Q 1406 481 1766 481 
L 2356 481 
L 2356 0 
L 1766 0 
Q 1100 0 847 248 
Q 594 497 594 1153 
L 594 3053 
L 172 3053 
L 172 3500 
L 594 3500 
L 594 4494 
L 1172 4494 
z
" transform="scale(0.015625)"/>
     <path id="DejaVuSans-42" d="M 1259 2228 
L 1259 519 
L 2272 519 
Q 2781 519 3026 730 
Q 3272 941 3272 1375 
Q 3272 1813 3026 2020 
Q 2781 2228 2272 2228 
L 1259 2228 
z
M 1259 4147 
L 1259 2741 
L 2194 2741 
Q 2656 2741 2882 2914 
Q 3109 3088 3109 3444 
Q 3109 3797 2882 3972 
Q 2656 4147 2194 4147 
L 1259 4147 
z
M 628 4666 
L 2241 4666 
Q 2963 4666 3353 4366 
Q 3744 4066 3744 3513 
Q 3744 3084 3544 2831 
Q 3344 2578 2956 2516 
Q 3422 2416 3680 2098 
Q 3938 1781 3938 1306 
Q 3938 681 3513 340 
Q 3088 0 2303 0 
L 628 0 
L 628 4666 
z
" transform="scale(0.015625)"/>
     <path id="DejaVuSans-6c" d="M 603 4863 
L 1178 4863 
L 1178 0 
L 603 0 
L 603 4863 
z
" transform="scale(0.015625)"/>
     <path id="DejaVuSans-6f" d="M 1959 3097 
Q 1497 3097 1228 2736 
Q 959 2375 959 1747 
Q 959 1119 1226 758 
Q 1494 397 1959 397 
Q 2419 397 2687 759 
Q 2956 1122 2956 1747 
Q 2956 2369 2687 2733 
Q 2419 3097 1959 3097 
z
M 1959 3584 
Q 2709 3584 3137 3096 
Q 3566 2609 3566 1747 
Q 3566 888 3137 398 
Q 2709 -91 1959 -91 
Q 1206 -91 779 398 
Q 353 888 353 1747 
Q 353 2609 779 3096 
Q 1206 3584 1959 3584 
z
" transform="scale(0.015625)"/>
     <path id="DejaVuSans-63" d="M 3122 3366 
L 3122 2828 
Q 2878 2963 2633 3030 
Q 2388 3097 2138 3097 
Q 1578 3097 1268 2742 
Q 959 2388 959 1747 
Q 959 1106 1268 751 
Q 1578 397 2138 397 
Q 2388 397 2633 464 
Q 2878 531 3122 666 
L 3122 134 
Q 2881 22 2623 -34 
Q 2366 -91 2075 -91 
Q 1284 -91 818 406 
Q 353 903 353 1747 
Q 353 2603 823 3093 
Q 1294 3584 2113 3584 
Q 2378 3584 2631 3529 
Q 2884 3475 3122 3366 
z
" transform="scale(0.015625)"/>
     <path id="DejaVuSans-6b" d="M 581 4863 
L 1159 4863 
L 1159 1991 
L 2875 3500 
L 3609 3500 
L 1753 1863 
L 3688 0 
L 2938 0 
L 1159 1709 
L 1159 0 
L 581 0 
L 581 4863 
z
" transform="scale(0.015625)"/>
     <path id="DejaVuSans-47" d="M 3809 666 
L 3809 1919 
L 2778 1919 
L 2778 2438 
L 4434 2438 
L 4434 434 
Q 4069 175 3628 42 
Q 3188 -91 2688 -91 
Q 1594 -91 976 548 
Q 359 1188 359 2328 
Q 359 3472 976 4111 
Q 1594 4750 2688 4750 
Q 3144 4750 3555 4637 
Q 3966 4525 4313 4306 
L 4313 3634 
Q 3963 3931 3569 4081 
Q 3175 4231 2741 4231 
Q 1884 4231 1454 3753 
Q 1025 3275 1025 2328 
Q 1025 1384 1454 906 
Q 1884 428 2741 428 
Q 3075 428 3337 486 
Q 3600 544 3809 666 
z
" transform="scale(0.015625)"/>
     <path id="DejaVuSans-72" d="M 2631 2963 
Q 2534 3019 2420 3045 
Q 2306 3072 2169 3072 
Q 1681 3072 1420 2755 
Q 1159 2438 1159 1844 
L 1159 0 
L 581 0 
L 581 3500 
L 1159 3500 
L 1159 2956 
Q 1341 3275 1631 3429 
Q 1922 3584 2338 3584 
Q 2397 3584 2469 3576 
Q 2541 3569 2628 3553 
L 2631 2963 
z
" transform="scale(0.015625)"/>
     <path id="DejaVuSans-77" d="M 269 3500 
L 844 3500 
L 1563 769 
L 2278 3500 
L 2956 3500 
L 3675 769 
L 4391 3500 
L 4966 3500 
L 4050 0 
L 3372 0 
L 2619 2869 
L 1863 0 
L 1184 0 
L 269 3500 
z
" transform="scale(0.015625)"/>
     <path id="DejaVuSans-44" d="M 1259 4147 
L 1259 519 
L 2022 519 
Q 2988 519 3436 956 
Q 3884 1394 3884 2338 
Q 3884 3275 3436 3711 
Q 2988 4147 2022 4147 
L 1259 4147 
z
M 628 4666 
L 1925 4666 
Q 3281 4666 3915 4102 
Q 4550 3538 4550 2338 
Q 4550 1131 3912 565 
Q 3275 0 1925 0 
L 628 0 
L 628 4666 
z
" transform="scale(0.015625)"/>
     <path id="DejaVuSans-6d" d="M 3328 2828 
Q 3544 3216 3844 3400 
Q 4144 3584 4550 3584 
Q 5097 3584 5394 3201 
Q 5691 2819 5691 2113 
L 5691 0 
L 5113 0 
L 5113 2094 
Q 5113 2597 4934 2840 
Q 4756 3084 4391 3084 
Q 3944 3084 3684 2787 
Q 3425 2491 3425 1978 
L 3425 0 
L 2847 0 
L 2847 2094 
Q 2847 2600 2669 2842 
Q 2491 3084 2119 3084 
Q 1678 3084 1418 2786 
Q 1159 2488 1159 1978 
L 1159 0 
L 581 0 
L 581 3500 
L 1159 3500 
L 1159 2956 
Q 1356 3278 1631 3431 
Q 1906 3584 2284 3584 
Q 2666 3584 2933 3390 
Q 3200 3197 3328 2828 
z
" transform="scale(0.015625)"/>
     <path id="DejaVuSans-70" d="M 1159 525 
L 1159 -1331 
L 581 -1331 
L 581 3500 
L 1159 3500 
L 1159 2969 
Q 1341 3281 1617 3432 
Q 1894 3584 2278 3584 
Q 2916 3584 3314 3078 
Q 3713 2572 3713 1747 
Q 3713 922 3314 415 
Q 2916 -91 2278 -91 
Q 1894 -91 1617 61 
Q 1341 213 1159 525 
z
M 3116 1747 
Q 3116 2381 2855 2742 
Q 2594 3103 2138 3103 
Q 1681 3103 1420 2742 
Q 1159 2381 1159 1747 
Q 1159 1113 1420 752 
Q 1681 391 2138 391 
Q 2594 391 2855 752 
Q 3116 1113 3116 1747 
z
" transform="scale(0.015625)"/>
     <path id="DejaVuSans-73" d="M 2834 3397 
L 2834 2853 
Q 2591 2978 2328 3040 
Q 2066 3103 1784 3103 
Q 1356 3103 1142 2972 
Q 928 2841 928 2578 
Q 928 2378 1081 2264 
Q 1234 2150 1697 2047 
L 1894 2003 
Q 2506 1872 2764 1633 
Q 3022 1394 3022 966 
Q 3022 478 2636 193 
Q 2250 -91 1575 -91 
Q 1294 -91 989 -36 
Q 684 19 347 128 
L 347 722 
Q 666 556 975 473 
Q 1284 391 1588 391 
Q 1994 391 2212 530 
Q 2431 669 2431 922 
Q 2431 1156 2273 1281 
Q 2116 1406 1581 1522 
L 1381 1569 
Q 847 1681 609 1914 
Q 372 2147 372 2553 
Q 372 3047 722 3315 
Q 1072 3584 1716 3584 
Q 2034 3584 2315 3537 
Q 2597 3491 2834 3397 
z
" transform="scale(0.015625)"/>
     <path id="DejaVuSans-6e" d="M 3513 2113 
L 3513 0 
L 2938 0 
L 2938 2094 
Q 2938 2591 2744 2837 
Q 2550 3084 2163 3084 
Q 1697 3084 1428 2787 
Q 1159 2491 1159 1978 
L 1159 0 
L 581 0 
L 581 3500 
L 1159 3500 
L 1159 2956 
Q 1366 3272 1645 3428 
Q 1925 3584 2291 3584 
Q 2894 3584 3203 3211 
Q 3513 2838 3513 2113 
z
" transform="scale(0.015625)"/>
     <path id="DejaVuSans-28" d="M 1984 4856 
Q 1566 4138 1362 3434 
Q 1159 2731 1159 2009 
Q 1159 1288 1364 580 
Q 1569 -128 1984 -844 
L 1484 -844 
Q 1016 -109 783 600 
Q 550 1309 550 2009 
Q 550 2706 781 3412 
Q 1013 4119 1484 4856 
L 1984 4856 
z
" transform="scale(0.015625)"/>
     <path id="DejaVuSans-3d" d="M 678 2906 
L 4684 2906 
L 4684 2381 
L 678 2381 
L 678 2906 
z
M 678 1631 
L 4684 1631 
L 4684 1100 
L 678 1100 
L 678 1631 
z
" transform="scale(0.015625)"/>
     <path id="DejaVuSans-64" d="M 2906 2969 
L 2906 4863 
L 3481 4863 
L 3481 0 
L 2906 0 
L 2906 525 
Q 2725 213 2448 61 
Q 2172 -91 1784 -91 
Q 1150 -91 751 415 
Q 353 922 353 1747 
Q 353 2572 751 3078 
Q 1150 3584 1784 3584 
Q 2172 3584 2448 3432 
Q 2725 3281 2906 2969 
z
M 947 1747 
Q 947 1113 1208 752 
Q 1469 391 1925 391 
Q 2381 391 2643 752 
Q 2906 1113 2906 1747 
Q 2906 2381 2643 2742 
Q 2381 3103 1925 3103 
Q 1469 3103 1208 2742 
Q 947 2381 947 1747 
z
" transform="scale(0.015625)"/>
     <path id="DejaVuSans-29" d="M 513 4856 
L 1013 4856 
Q 1481 4119 1714 3412 
Q 1947 2706 1947 2009 
Q 1947 1309 1714 600 
Q 1481 -109 1013 -844 
L 513 -844 
Q 928 -128 1133 580 
Q 1338 1288 1338 2009 
Q 1338 2731 1133 3434 
Q 928 4138 513 4856 
z
" transform="scale(0.015625)"/>
    </defs>
    <use xlink:href="#DejaVuSans-57"/>
    <use xlink:href="#DejaVuSans-65" transform="translate(93.001953 0)"/>
    <use xlink:href="#DejaVuSans-69" transform="translate(154.525391 0)"/>
    <use xlink:href="#DejaVuSans-67" transform="translate(182.308594 0)"/>
    <use xlink:href="#DejaVuSans-68" transform="translate(245.785156 0)"/>
    <use xlink:href="#DejaVuSans-74" transform="translate(309.164062 0)"/>
    <use xlink:href="#DejaVuSans-20" transform="translate(348.373047 0)"/>
    <use xlink:href="#DejaVuSans-42" transform="translate(380.160156 0)"/>
    <use xlink:href="#DejaVuSans-6c" transform="translate(448.763672 0)"/>
    <use xlink:href="#DejaVuSans-6f" transform="translate(476.546875 0)"/>
    <use xlink:href="#DejaVuSans-63" transform="translate(537.728516 0)"/>
    <use xlink:href="#DejaVuSans-6b" transform="translate(592.708984 0)"/>
    <use xlink:href="#DejaVuSans-20" transform="translate(650.619141 0)"/>
    <use xlink:href="#DejaVuSans-47" transform="translate(682.40625 0)"/>
    <use xlink:href="#DejaVuSans-72" transform="translate(759.896484 0)"/>
    <use xlink:href="#DejaVuSans-6f" transform="translate(798.759766 0)"/>
    <use xlink:href="#DejaVuSans-77" transform="translate(859.941406 0)"/>
    <use xlink:href="#DejaVuSans-74" transform="translate(941.728516 0)"/>
    <use xlink:href="#DejaVuSans-68" transform="translate(980.9375 0)"/>
    <use xlink:href="#DejaVuSans-20" transform="translate(1044.316406 0)"/>
    <use xlink:href="#DejaVuSans-44" transform="translate(1076.103516 0)"/>
    <use xlink:href="#DejaVuSans-65" transform="translate(1153.105469 0)"/>
    <use xlink:href="#DejaVuSans-63" transform="translate(1214.628906 0)"/>
    <use xlink:href="#DejaVuSans-6f" transform="translate(1269.609375 0)"/>
    <use xlink:href="#DejaVuSans-6d" transform="translate(1330.791016 0)"/>
    <use xlink:href="#DejaVuSans-70" transform="translate(1428.203125 0)"/>
    <use xlink:href="#DejaVuSans-6f" transform="translate(1491.679688 0)"/>
    <use xlink:href="#DejaVuSans-73" transform="translate(1552.861328 0)"/>
    <use xlink:href="#DejaVuSans-69" transform="translate(1604.960938 0)"/>
    <use xlink:href="#DejaVuSans-74" transform="translate(1632.744141 0)"/>
    <use xlink:href="#DejaVuSans-69" transform="translate(1671.953125 0)"/>
    <use xlink:href="#DejaVuSans-6f" transform="translate(1699.736328 0)"/>
    <use xlink:href="#DejaVuSans-6e" transform="translate(1760.917969 0)"/>
    <use xlink:href="#DejaVuSans-20" transform="translate(1824.296875 0)"/>
    <use xlink:href="#DejaVuSans-28" transform="translate(1856.083984 0)"/>
    <use xlink:href="#DejaVuSans-6e" transform="translate(1895.097656 0)"/>
    <use xlink:href="#DejaVuSans-3d" transform="translate(1958.476562 0)"/>
    <use xlink:href="#DejaVuSans-33" transform="translate(2042.265625 0)"/>
    <use xlink:href="#DejaVuSans-20" transform="translate(2105.888672 0)"/>
    <use xlink:href="#DejaVuSans-73" transform="translate(2137.675781 0)"/>
    <use xlink:href="#DejaVuSans-65" transform="translate(2189.775391 0)"/>
    <use xlink:href="#DejaVuSans-65" transform="translate(2251.298828 0)"/>
    <use xlink:href="#DejaVuSans-64" transform="translate(2312.822266 0)"/>
    <use xlink:href="#DejaVuSans-73" transform="translate(2376.298828 0)"/>
    <use xlink:href="#DejaVuSans-29" transform="translate(2428.398438 0)"/>
   </g>
  </g>
 </g>
 <defs>
  <clipPath id="p5d6ad99650">
   <rect x="53.338125" y="71.88" width="364.94" height="298.24"/>
  </clipPath>
  <clipPath id="p9a18d7e744">
   <rect x="483.698125" y="71.88" width="364.94" height="298.24"/>
  </clipPath>
  <clipPath id="p10a5e68e11">
   <rect x="914.058125" y="71.88" width="364.94" height="298.24"/>
  </clipPath>
 </defs>
</svg>
